<?xml version="1.0" standalone="no"?>
<!DOCTYPE svg PUBLIC "-//W3C//DTD SVG 1.1//EN" "http://www.w3.org/Graphics/SVG/1.1/DTD/svg11.dtd">
<svg xmlns="http://www.w3.org/2000/svg">
<defs >
<font id="BeVietnamPro" horiz-adv-x="620" ><font-face
    font-family="Be Vietnam Pro Black"
    units-per-em="1000"
    panose-1="0 0 0 0 0 0 0 0 0 0"
    ascent="1000"
    descent="-265"
    alphabetic="0" />
<glyph unicode=" " glyph-name="space" horiz-adv-x="230" />
<glyph unicode="!" glyph-name="exclam" horiz-adv-x="306" d="M81 237L161 740H372L234 237H81ZM129 -9Q87 -9 61 18T35 85Q35 124 61 151T129 179Q169 179 196 152T223 85Q223 46 196 19T129 -9Z" />
<glyph unicode="&quot;" glyph-name="quotedbl" horiz-adv-x="445" d="M304 502L365 740H527L415 502H304ZM110 502L171 740H333L221 502H110Z" />
<glyph unicode="#" glyph-name="numbersign" horiz-adv-x="820" d="M63 0L127 155H-2L62 307H190L242 432H116L180 584H304L369 740H527L462 584H581L646 740H804L739 584H870L806 432H677L625 307H752L688 155H562L498 0H340L404 155H285L221 0H63ZM348 307H467L519
432H400L348 307Z" />
<glyph unicode="$" glyph-name="dollar" horiz-adv-x="689" d="M232 -94L251 -4Q181 7 137 34T69 96T34 162T21 215T19 236H197Q197 236 199 225T210 198T235 167T282 143L318 309L300 314Q218 339 166 387T113 518Q113 580 146 633T245 718T404 750Q408 750 412
750L429 832H509L490 742Q549 729 587 704T648 647T681 588T695 541T698 522H524Q524 522 520 536T503 569T459 599L425 437L441 432Q532 405 584 355T636 226Q636 164 601 110T497 23T330 -10L312 -94H232ZM292 529Q292 483 350 460L381 607Q338 602 315 580T292
529ZM455 218Q455 242 439 258T393 286L361 137Q405 143 430 164T455 218Z" />
<glyph unicode="%" glyph-name="percent" horiz-adv-x="900" d="M268 412Q214 412 178 433T125 489T107 563Q107 609 129 652T196 723T303 751Q358 751 393 730T445 674T463 600Q463 555 441 512T375 441T268 412ZM108 0L697 740H826L237 0H108ZM278 515Q313 515
331 538T350 589Q350 612 336 629T292 647Q258 647 239 624T220 573Q220 551 234 533T278 515ZM653 -9Q599 -9 563 12T510 68T492 142Q492 188 514 231T581 302T688 330Q743 330 778 309T830 253T848 179Q848 134 826 91T760 20T653 -9ZM663 94Q698 94 716 117T735
168Q735 191 721 208T677 226Q643 226 624 203T605 152Q605 130 619 112T663 94Z" />
<glyph unicode="&amp;" glyph-name="ampersand" horiz-adv-x="718" d="M270 -11Q204 -11 146 12T51 81T14 195Q14 247 36 288T96 360T180 415Q161 447 150 480T138 551Q138 613 169 657T251 726T362 750Q416 750 465 730T545 671T576 575Q576 524 551 488T488
427T409 384L491 279Q505 308 514 343T528 418H677Q669 336 646 271T587 156L710 0H490L460 40Q415 14 367 2T270 -11ZM297 564Q297 542 307 522T333 480Q364 493 392 514T420 572Q420 601 402 615T362 629Q338 629 318 613T297 564ZM189 221Q189 178 220 155T295
132Q335 132 375 153L288 268Q279 280 270 291T252 315Q219 295 204 272T189 221Z" />
<glyph unicode="&apos;" glyph-name="quotesingle" horiz-adv-x="251" d="M110 502L171 740H333L221 502H110Z" />
<glyph unicode="(" glyph-name="parenleft" horiz-adv-x="451" d="M320 -241Q222 -221 159 -159T65 -6T34 186Q34 275 56 366T122 539T227 685T369 788T547 827L511 656Q459 652 415 622T336 543T277 434T239 308T226 181Q226 119 240 66T283 -23T357 -70L320 -241Z" />
<glyph unicode=")" glyph-name="parenright" horiz-adv-x="439" d="M131 827Q230 807 293 745T386 592T417 400Q417 311 395 220T329 47T224 -99T82 -202T-96 -241L-60 -70Q-8 -66 36 -36T115 43T174 152T212 278T225 405Q225 467 211 520T169 609T94 656L131 827Z" />
<glyph unicode="*" glyph-name="asterisk" horiz-adv-x="524" d="M246 317L142 393L220 496L97 532L136 655L258 611L254 740H383L379 611L501 655L541 532L417 496L496 393L391 317L319 423L246 317Z" />
<glyph unicode="+" glyph-name="plus" horiz-adv-x="631" d="M206 86L238 238H86L117 385H270L302 537H449L417 385H568L537 238H385L353 86H206Z" />
<glyph unicode="," glyph-name="comma" horiz-adv-x="306" d="M29 -159L118 -10Q77 -7 51 21T25 89Q25 130 53 159T126 188Q170 188 200 160T230 83Q230 58 218 28T179 -44T107 -148L99 -159H29Z" />
<glyph unicode="-" glyph-name="hyphen" horiz-adv-x="556" d="M86 238L117 385H493L462 238H86Z" />
<glyph unicode="." glyph-name="period" horiz-adv-x="298" d="M124 -10Q81 -10 53 19T25 89Q25 130 53 159T124 188Q167 188 195 159T223 89Q223 49 195 20T124 -10Z" />
<glyph unicode="/" glyph-name="slash" horiz-adv-x="546" d="M-93 -201L476 833H650L81 -201H-93Z" />
<glyph unicode="0" glyph-name="zero" horiz-adv-x="739" d="M348 -10Q273 -10 218 16T127 88T73 192T55 314Q55 391 80 468T153 609T273 711T435 750Q510 750 565 724T656 652T710 548T728 426Q728 349 703 272T630 131T511 29T348 -10ZM356 158Q395 158 427
183T483 249T518 338T531 432Q531 473 520 506T487 560T427 581Q388 581 356 556T300 490T265 401T252 307Q252 267 263 233T297 179T356 158Z" />
<glyph unicode="1" glyph-name="one" horiz-adv-x="441" d="M459 740L302 0H110L216 500H71L96 618L118 624Q190 642 240 667T339 733L347 740H459Z" />
<glyph unicode="2" glyph-name="two" horiz-adv-x="703" d="M13 0L41 131L230 257Q311 311 367 351T452 428T482 503Q482 540 457 562T390 585Q352 585 331 570T301 536T289 501T286 486H102Q102 486 104 505T114 554T141 618T192 682T275 731T398 750Q490 750
551 719T644 634T676 518Q676 452 644 400T562 305T455 229T348 165H633L598 0H13Z" />
<glyph unicode="3" glyph-name="three" horiz-adv-x="688" d="M333 -10Q254 -10 201 7T116 52T66 110T43 168T37 212T36 230H218Q218 230 220 218T233 189T267 160T333 147Q394 147 421 174T448 232Q448 258 424 278T353 299H251L282 446H389Q442 446 466 470T490
523Q490 550 468 571T397 593Q357 593 335 580T301 548T287 517T284 503H109Q109 503 111 521T123 567T151 626T203 686T285 732T406 750Q498 750 558 721T649 647T679 551Q679 497 642 447T531 377L530 370Q585 348 614 307T644 218Q644 177 625 137T566 63T469
10T333 -10Z" />
<glyph unicode="4" glyph-name="four" horiz-adv-x="756" d="M359 0L388 137L23 138L58 302L443 740H708L614 297H719L685 137H580L551 0H359ZM251 297H422L476 553L251 297Z" />
<glyph unicode="5" glyph-name="five" horiz-adv-x="672" d="M331 -10Q255 -10 204 7T120 52T71 111T48 170T40 215T39 233H217Q217 233 219 220T233 188T267 157T331 143Q371 143 398 160T439 205T453 261Q453 297 429 326T354 355Q314 355 291 342T259 314T249
300H59L186 740H674L638 574H302L261 434H266Q266 434 279 449T325 480T410 495Q488 495 540 463T618 380T644 270Q644 219 625 170T566 80T468 15T331 -10Z" />
<glyph unicode="6" glyph-name="six" horiz-adv-x="713" d="M359 -10Q258 -10 190 29T88 135T54 278Q54 373 87 458T183 608T334 712T531 750Q615 750 655 741T695 731L659 562Q659 562 624 571T531 581Q452 581 385 550T280 449Q300 467 331 480T408 494Q491
494 546 462T628 377T656 265Q656 215 638 167T583 78T490 14T359 -10ZM351 146Q388 146 413 163T452 206T465 259Q465 296 441 325T366 355Q329 355 304 339T265 296T252 243Q252 206 276 176T351 146Z" />
<glyph unicode="7" glyph-name="seven" horiz-adv-x="647" d="M115 0Q140 121 182 216T272 382T366 500T443 574H95L130 740H697L669 605Q669 605 640 580T566 505T472 382T381 214T320 0H115Z" />
<glyph unicode="8" glyph-name="eight" horiz-adv-x="696" d="M334 -10Q234 -10 168 21T69 102T36 204Q36 266 81 320T217 394V399Q110 449 110 547Q110 594 134 631T199 695T292 736T402 750Q477 750 541 726T645 658T684 553Q684 434 534 382V377Q593 352 622
309T652 216Q652 162 616 110T510 24T334 -10ZM396 451Q446 451 471 476T497 531Q497 559 474 581T403 604Q353 604 328 579T302 525Q302 497 325 474T396 451ZM339 139Q397 139 426 168T455 232Q455 264 429 290T348 316Q290 316 261 287T232 224Q232 192 258
166T339 139Z" />
<glyph unicode="9" glyph-name="nine" horiz-adv-x="713" d="M354 750Q456 750 523 711T625 606T659 462Q659 368 626 283T530 132T379 28T182 -10Q98 -10 58 -1T18 9L54 178Q54 178 89 169T182 159Q261 159 328 190T433 291Q413 273 382 260T305 246Q222 246
167 278T85 363T57 475Q57 525 75 573T130 662T223 726T354 750ZM362 594Q325 594 300 577T261 535T248 481Q248 444 272 415T347 385Q385 385 410 402T448 444T461 497Q461 535 437 564T362 594Z" />
<glyph unicode=":" glyph-name="colon" horiz-adv-x="303" d="M199 342Q156 342 128 371T100 441Q100 482 128 511T199 540Q242 540 270 511T298 441Q298 401 270 372T199 342ZM129 -10Q86 -10 58 19T30 89Q30 130 58 159T129 188Q172 188 200 159T228 89Q228
49 200 20T129 -10Z" />
<glyph unicode=";" glyph-name="semicolon" horiz-adv-x="311" d="M199 342Q156 342 128 371T100 441Q100 482 128 511T199 540Q242 540 270 511T298 441Q298 401 270 372T199 342ZM34 -159L123 -10Q82 -7 56 21T30 89Q30 130 58 159T131 188Q175 188 205 160T235
83Q235 58 223 28T184 -44T112 -148L104 -159H34Z" />
<glyph unicode="&lt;" glyph-name="less" horiz-adv-x="585" d="M476 98L72 287L95 396L580 585L548 423L287 330L509 240L476 98Z" />
<glyph unicode="=" glyph-name="equal" horiz-adv-x="720" d="M107 339L140 492H680L647 339H107ZM58 108L91 261H631L598 108H58Z" />
<glyph unicode="&gt;" glyph-name="greater" horiz-adv-x="585" d="M43 98L75 260L336 353L114 443L147 585L551 396L528 287L43 98Z" />
<glyph unicode="?" glyph-name="question" horiz-adv-x="663" d="M228 233L231 255Q237 301 263 330T323 380T390 418T445 456T467 507Q467 542 442 563T375 585Q337 585 316 570T286 536T274 501T271 486H87Q87 486 89 505T100 554T128 618T180 682T264 731T388
750Q476 750 536 719T629 636T661 523Q661 469 639 433T584 371T517 327T455 290T419 247L414 233H228ZM307 -10Q265 -10 239 17T213 84Q213 123 239 150T307 178Q347 178 374 151T401 84Q401 45 374 18T307 -10Z" />
<glyph unicode="@" glyph-name="at" horiz-adv-x="1054" d="M506 -190Q386 -190 298 -155T153 -59T68 78T40 238Q40 314 62 389T128 530T236 649T383 730T569 760Q692 760 780 725T923 632T1005 502T1031 359Q1031 299 1014 244T965 146T888 77T785 52Q736 52
705 64T655 93T630 121T623 134H613Q613 134 605 122T579 93T533 65T467 52Q408 52 370 78T313 147T295 238Q295 283 310 328T353 410T422 469T515 492Q548 492 570 482T606 460T625 437T631 427H637L649 484H800L755 268Q751 247 751 226T761 190T796 175Q820
175 841 201T875 269T889 361Q889 408 873 456T821 543T723 607T569 631Q478 631 407 597T287 505T212 379T186 240Q186 182 205 128T263 32T362 -34T506 -59Q555 -59 598 -51T676 -33T729 -15T749 -7L796 -128Q796 -128 775 -137T716 -159T624 -180T506 -190ZM506
175Q537 175 559 193T594 239T606 293Q606 324 590 346T538 369Q507 369 485 351T451 306T439 251Q439 221 455 198T506 175Z" />
<glyph unicode="A" glyph-name="A" horiz-adv-x="776" d="M-41 0L362 740H621L710 0H520L507 124H234L169 0H-41ZM320 288H491L463 561L320 288Z" />
<glyph unicode="B" glyph-name="B" horiz-adv-x="732" d="M2 0L159 740H497Q573 740 621 717T692 655T715 575Q715 539 698 504T649 441T571 402L570 393Q631 380 660 339T689 248Q689 206 670 162T612 82T517 23T388 0H2ZM453 581H317L290 452H436Q476 452 498
476T520 527Q520 548 504 564T453 581ZM410 309H260L228 159H388Q435 159 461 187T487 246Q487 271 469 290T410 309Z" />
<glyph unicode="C" glyph-name="C" horiz-adv-x="784" d="M381 -10Q298 -10 237 17T135 90T75 195T55 318Q55 395 82 471T161 611T290 712T467 750Q549 750 604 730T694 679T748 612T775 545T784 493T785 473H595Q595 473 593 489T578 526T538 564T459 580Q408
580 369 559T304 501T263 422T249 335Q249 289 265 250T314 186T399 161Q447 161 478 177T527 214T552 251T560 267H750Q750 267 745 247T725 196T684 129T618 62T519 10T381 -10Z" />
<glyph unicode="D" glyph-name="D" horiz-adv-x="764" d="M2 0L159 740H404Q492 740 557 713T666 640T730 534T752 410Q752 336 724 264T639 132T500 36T307 0H2ZM390 572H315L230 171H324Q383 171 428 191T503 244T548 318T564 399Q564 444 545 483T488 547T390 572Z" />
<glyph unicode="E" glyph-name="E" horiz-adv-x="637" d="M2 0L159 740H693L658 574H316L290 454H588L554 296H257L229 166H576L541 0H2Z" />
<glyph unicode="F" glyph-name="F" horiz-adv-x="632" d="M2 0L159 740H693L658 574H316L282 414H579L545 255H248L194 0H2Z" />
<glyph unicode="G" glyph-name="G" horiz-adv-x="791" d="M393 -10Q309 -10 246 16T141 89T77 196T56 323Q56 398 82 473T162 611T294 712T478 750Q555 750 608 730T695 679T748 612T775 545T784 493T786 473H596Q596 473 593 489T579 526T540 564T465 580Q412
580 372 559T305 501T264 423T250 338Q250 291 268 251T322 186T413 161Q466 161 504 184T563 261H400L432 409H784L777 353Q761 223 706 143T569 27T393 -10Z" />
<glyph unicode="H" glyph-name="H" horiz-adv-x="757" d="M2 0L159 740H351L292 462H546L605 740H797L640 0H448L511 298H257L194 0H2Z" />
<glyph unicode="I" glyph-name="I" horiz-adv-x="311" d="M2 0L159 740H351L194 0H2Z" />
<glyph unicode="J" glyph-name="J" horiz-adv-x="516" d="M106 -10Q56 -10 23 -5T-10 0L23 157Q23 157 46 155T101 152Q160 152 208 188T272 301L365 740H555L459 286Q447 228 421 175T352 80T248 14T106 -10Z" />
<glyph unicode="K" glyph-name="K" horiz-adv-x="730" d="M2 0L159 740H351L284 423L577 740H826L457 361L655 0H440L265 334L194 0H2Z" />
<glyph unicode="L" glyph-name="L" horiz-adv-x="637" d="M2 0L159 740H351L229 166H576L541 0H2Z" />
<glyph unicode="M" glyph-name="M" horiz-adv-x="911" d="M2 0L159 740H409L475 402L691 740H951L794 0H602L695 437L520 162H344L287 437L194 0H2Z" />
<glyph unicode="N" glyph-name="N" horiz-adv-x="759" d="M2 0L159 740H336L518 320L607 740H799L642 0H463L279 400L194 0H2Z" />
<glyph unicode="O" glyph-name="O" horiz-adv-x="825" d="M397 -10Q310 -10 246 17T140 92T78 200T57 327Q57 403 84 478T164 614T294 713T473 750Q560 750 624 723T730 648T792 540T813 413Q813 337 786 262T706 126T576 27T397 -10ZM405 161Q456 161 496 183T563
241T604 322T619 409Q619 454 603 493T553 555T466 579Q415 579 375 557T308 499T267 419T252 331Q252 286 268 248T319 185T405 161Z" />
<glyph unicode="P" glyph-name="P" horiz-adv-x="716" d="M2 0L159 740H460Q549 740 607 708T693 623T721 512Q721 463 702 415T644 326T549 263T420 239H245L194 0H2ZM438 573H316L280 405H428Q476 405 502 434T528 496Q528 526 507 549T438 573Z" />
<glyph unicode="Q" glyph-name="Q" horiz-adv-x="850" d="M397 -10Q310 -10 246 17T140 92T78 200T57 327Q57 403 84 478T164 614T294 713T473 750Q560 750 624 723T730 648T792 540T813 413Q813 337 786 262T708 127L794 0H603L581 30Q542 11 496 1T397 -10ZM405
161Q443 161 478 175L391 296L529 390L594 294Q619 350 619 409Q619 454 603 493T553 555T466 579Q415 579 375 557T308 499T267 419T252 331Q252 286 268 248T319 185T405 161Z" />
<glyph unicode="R" glyph-name="R" horiz-adv-x="728" d="M2 0L159 740H463Q554 740 613 709T701 627T731 520Q731 471 710 424T647 340T544 284L630 0H434L357 268H251L194 0H2ZM455 575H316L283 421H443Q491 421 516 447T541 503Q541 531 520 553T455 575Z" />
<glyph unicode="S" glyph-name="S" horiz-adv-x="698" d="M334 -10Q256 -10 202 8T113 54T59 114T31 174T21 220T19 238H208Q208 238 212 224T229 191T269 158T342 144Q395 144 424 165T454 220Q454 268 384 287L304 309Q219 332 165 382T111 515Q111 578 145
631T245 717T408 750Q479 750 528 734T611 691T663 635T692 580T705 537T708 520H523Q523 520 520 532T505 560T471 588T408 600Q356 600 329 579T301 526Q301 500 320 483T375 456L448 436Q543 410 594 358T646 229Q646 166 611 112T506 24T334 -10Z" />
<glyph unicode="T" glyph-name="T" horiz-adv-x="701" d="M191 0L313 574H87L122 740H762L727 574H505L383 0H191Z" />
<glyph unicode="U" glyph-name="U" horiz-adv-x="736" d="M321 -10Q265 -10 212 8T120 65T66 167T70 320L159 740H351L262 320Q247 249 271 210T355 170Q413 170 445 208T494 320L583 740H775L682 300Q657 181 604 113T479 18T321 -10Z" />
<glyph unicode="V" glyph-name="V" horiz-adv-x="771" d="M196 0L107 740H297L354 179L648 740H858L455 0H196Z" />
<glyph unicode="W" glyph-name="W" horiz-adv-x="1083" d="M136 0L117 740H299L309 245L530 740H729L743 244L960 740H1160L827 0H579L568 416L381 0H136Z" />
<glyph unicode="X" glyph-name="X" horiz-adv-x="804" d="M-21 0L296 390L161 740H379L456 514L629 740H875L555 350L694 0H476L398 227L225 0H-21Z" />
<glyph unicode="Y" glyph-name="Y" horiz-adv-x="724" d="M221 0L273 248L117 740H315L399 443L608 740H831L465 247L413 0H221Z" />
<glyph unicode="Z" glyph-name="Z" horiz-adv-x="698" d="M-1 0L27 133L440 574H121L156 740H748L720 608L306 166H627L591 0H-1Z" />
<glyph unicode="[" glyph-name="bracketleft" horiz-adv-x="513" d="M-45 -221L185 863H559L525 702H346L184 -60H363L329 -221H-45Z" />
<glyph unicode="\" glyph-name="backslash" horiz-adv-x="531" d="M418 -201H264L135 833H289L418 -201Z" />
<glyph unicode="]" glyph-name="bracketright" horiz-adv-x="529" d="M595 863L365 -221H-9L25 -60H204L366 702H187L221 863H595Z" />
<glyph unicode="^" glyph-name="asciicircum" horiz-adv-x="596" d="M152 551L327 740H474L569 551H435L390 653L300 551H152Z" />
<glyph unicode="_" glyph-name="underscore" horiz-adv-x="725" d="M10 -117L53 0H581L537 -117H10Z" />
<glyph unicode="`" glyph-name="grave" horiz-adv-x="346" d="M156 599L52 779H217L284 600L156 599Z" />
<glyph unicode="a" glyph-name="a" horiz-adv-x="660" d="M305 540Q349 540 377 528T421 499T444 471T451 458H459L474 530H664L554 0H364L376 58H368Q368 58 361 48T338 24T295 1T228 -10Q163 -10 121 21T58 103T37 213Q37 270 55 327T107 433T192 511T305 540ZM351
389Q313 389 286 366T244 307T229 237Q229 198 248 170T310 141Q348 141 375 164T417 223T432 292Q432 331 413 360T351 389Z" />
<glyph unicode="b" glyph-name="b" horiz-adv-x="659" d="M364 -10Q321 -10 293 2T248 31T225 59T218 72H210L195 0H5L163 760H353L293 472H301Q301 472 308 482T331 506T374 529T441 540Q507 540 549 509T611 427T632 317Q632 260 614 203T562 97T477 19T364
-10ZM318 141Q356 141 383 164T425 223T440 293Q440 332 421 360T359 389Q321 389 294 366T252 308T237 238Q237 199 256 170T318 141Z" />
<glyph unicode="c" glyph-name="c" horiz-adv-x="618" d="M298 -10Q210 -10 153 25T68 116T40 235Q40 290 60 344T121 442T221 513T360 540Q433 540 479 519T550 466T586 402T598 349T600 327H425Q425 327 424 337T417 360T397 383T356 393Q317 393 289 369T247
308T232 235Q232 195 251 166T311 137Q337 137 354 147T382 170T396 193T400 203H575Q575 203 569 182T546 129T498 65T418 12T298 -10Z" />
<glyph unicode="d" glyph-name="d" horiz-adv-x="671" d="M228 -10Q163 -10 121 21T58 103T37 213Q37 270 55 327T107 433T192 511T305 540Q349 540 377 528T421 499T444 471T451 458H459L522 760H712L554 0H364L376 58H368Q368 58 361 48T338 24T295 1T228 -10ZM310
141Q348 141 375 164T417 223T432 292Q432 331 413 360T351 389Q313 389 286 366T244 307T229 237Q229 198 248 170T310 141Z" />
<glyph unicode="e" glyph-name="e" horiz-adv-x="626" d="M300 -10Q210 -10 153 25T69 116T41 236Q41 291 60 345T119 443T217 513T352 540Q427 540 477 514T555 444T591 347T590 240L586 217H228Q230 174 252 150T313 126Q344 126 362 139T388 164T396 177H574Q574
177 567 158T542 112T493 56T414 9T300 -10ZM243 322H423Q428 357 408 380T346 404Q307 404 280 381T243 322Z" />
<glyph unicode="f" glyph-name="f" horiz-adv-x="414" d="M32 0L112 380H31L63 530H144L157 593Q166 634 190 675T261 743T388 770Q429 770 455 764T481 758L453 629Q453 629 443 631T416 634Q357 634 344 575L334 530H432L400 380H303L222 0H32Z" />
<glyph unicode="g" glyph-name="g" horiz-adv-x="668" d="M249 -215Q172 -215 124 -196T48 -149T10 -93T-3 -46T-5 -27H178Q178 -27 182 -38T203 -60T255 -71Q303 -71 334 -44T376 29L387 80H379Q379 80 371 71T346 48T304 26T242 16Q174 16 130 47T64 129T42
238Q42 292 59 345T110 442T193 513T305 540Q351 540 381 527T427 495T451 463T458 449H466L483 530H672L564 17Q542 -88 467 -151T249 -215ZM320 160Q356 160 380 181T418 234T431 298Q431 337 411 366T349 396Q314 396 290 375T252 323T239 258Q239 219 258 190T320
160Z" />
<glyph unicode="h" glyph-name="h" horiz-adv-x="623" d="M2 0L164 760H354L289 455H294Q294 455 302 468T328 497T375 527T446 540Q504 540 539 513T588 440T589 339L517 0H327L391 299Q399 335 388 361T342 387Q306 387 285 361T256 299L192 0H2Z" />
<glyph unicode="i" glyph-name="i" horiz-adv-x="310" d="M246 583Q199 583 169 613T138 686Q138 730 168 760T246 790Q293 790 324 760T355 686Q355 644 324 614T246 583ZM5 0L118 530H308L195 0H5Z" />
<glyph unicode="j" glyph-name="j" horiz-adv-x="330" d="M266 583Q219 583 189 613T158 686Q158 730 188 760T266 790Q313 790 344 760T375 686Q375 644 344 614T266 583ZM-47 -215Q-81 -215 -102 -212T-124 -208L-95 -70Q-95 -70 -86 -71T-66 -72Q-31 -72 -7
-55T25 -2L138 530H328L214 -8Q207 -44 191 -80T146 -147T70 -196T-47 -215Z" />
<glyph unicode="k" glyph-name="k" horiz-adv-x="646" d="M2 0L164 760H354L262 330L446 530H672L425 270L570 0H363L241 229L192 0H2Z" />
<glyph unicode="l" glyph-name="l" horiz-adv-x="310" d="M2 0L164 760H354L192 0H2Z" />
<glyph unicode="m" glyph-name="m" horiz-adv-x="919" d="M-3 0L110 530H300L284 455H289Q289 455 298 468T325 497T373 527T441 540Q500 540 533 510T577 435H582Q582 435 591 451T621 487T673 524T751 540Q808 540 841 514T887 446T889 359L813 0H623L690 314Q697
346 685 366T644 387Q616 387 596 368T567 314L500 0H310L377 314Q384 346 372 366T331 387Q303 387 283 368T254 314L187 0H-3Z" />
<glyph unicode="n" glyph-name="n" horiz-adv-x="618" d="M-3 0L110 530H300L284 455H289Q289 455 297 468T323 497T370 527T441 540Q499 540 534 513T583 440T584 339L512 0H322L386 299Q394 335 383 361T337 387Q301 387 280 361T251 299L187 0H-3Z" />
<glyph unicode="o" glyph-name="o" horiz-adv-x="650" d="M303 -10Q213 -10 155 25T69 116T40 235Q40 290 60 344T121 442T220 513T357 540Q446 540 504 505T591 415T620 295Q620 240 599 186T538 88T439 17T303 -10ZM310 142Q346 142 372 163T412 219T426 293Q426
331 407 359T347 388Q312 388 286 367T245 311T231 237Q231 199 250 171T310 142Z" />
<glyph unicode="p" glyph-name="p" horiz-adv-x="658" d="M-36 -195L114 530H304L292 472H300Q300 472 307 482T330 506T373 529T440 540Q506 540 548 509T610 427T631 317Q631 260 613 203T561 97T476 19T363 -10Q320 -10 292 2T247 31T224 59T217 72H209L154
-195H-36ZM236 238Q236 199 255 170T317 141Q355 141 382 164T424 223T439 293Q439 332 420 360T358 389Q320 389 293 366T251 308T236 238Z" />
<glyph unicode="q" glyph-name="q" horiz-adv-x="673" d="M324 -195L376 57H368Q368 57 361 47T338 23T295 0T228 -11Q163 -11 121 20T58 102T37 212Q37 269 55 326T107 432T192 510T305 539Q349 539 377 527T421 498T444 470T451 457H459L474 529H664L514 -195H324ZM310
140Q348 140 375 163T417 222T432 291Q432 330 413 359T351 388Q313 388 286 365T244 306T229 236Q229 197 248 169T310 140Z" />
<glyph unicode="r" glyph-name="r" horiz-adv-x="470" d="M-3 0L110 530H298L280 446H286Q309 489 348 514T443 540Q467 540 478 537T489 533L449 347Q449 347 437 349T404 352Q353 352 317 328T258 263T224 171L187 0H-3Z" />
<glyph unicode="s" glyph-name="s" horiz-adv-x="566" d="M258 -10Q185 -10 138 9T64 55T24 110T8 157T4 176H185Q185 176 191 164T217 139T273 126Q308 126 321 138T335 164Q335 187 299 194L222 208Q152 221 112 260T71 359Q71 409 100 450T182 515T311 540Q376
540 419 523T489 479T527 427T544 384T548 366H374Q374 366 369 375T348 394T301 404Q270 404 256 394T241 368Q241 342 288 334L349 324Q435 310 472 267T509 171Q509 122 480 81T395 15T258 -10Z" />
<glyph unicode="t" glyph-name="t" horiz-adv-x="457" d="M268 -10Q201 -10 163 11T109 65T91 136T97 206L134 380H49L81 530H166L194 660H385L357 530H455L423 380H325L288 206Q281 172 295 154T349 135Q365 135 376 137T388 140L358 0Q358 0 333 -5T268 -10Z" />
<glyph unicode="u" glyph-name="u" horiz-adv-x="609" d="M159 -10Q84 -10 52 46T39 197L110 530H300L234 219Q227 183 238 163T281 143Q313 143 332 164T359 219L425 530H615L503 0H313L328 75H322Q292 35 251 13T159 -10Z" />
<glyph unicode="v" glyph-name="v" horiz-adv-x="624" d="M152 0L76 530H250L292 207L460 530H658L365 0H152Z" />
<glyph unicode="w" glyph-name="w" horiz-adv-x="905" d="M122 0L76 530H254L264 226L413 530H582L602 225L741 530H939L667 0H467L449 263L322 0H122Z" />
<glyph unicode="x" glyph-name="x" d="M-44 0L180 283L83 530H278L329 381L439 530H658L426 244L531 0H336L282 151L175 0H-44Z" />
<glyph unicode="y" glyph-name="y" horiz-adv-x="618" d="M15 -195Q-14 -195 -28 -193T-42 -191L-10 -35Q-10 -35 0 -36T27 -37Q61 -37 91 -30T151 10L76 530H254L288 210L454 530H652L368 35Q324 -41 276 -92T164 -169T15 -195Z" />
<glyph unicode="z" glyph-name="z" horiz-adv-x="553" d="M-5 0L22 129L301 380H80L113 530H580L552 401L273 150H499L467 0H-5Z" />
<glyph unicode="{" glyph-name="braceleft" horiz-adv-x="516" d="M284 -221Q198 -221 149 -191T85 -106T85 19L119 181Q131 241 72 241H26L60 401H101Q134 401 154 417T181 471L221 663Q241 762 299 812T467 863H604L570 702H485Q425 702 412 642L374 461Q362
404 338 373T255 325L253 317Q303 301 314 265T314 181L276 0Q270 -29 283 -44T333 -60H408L374 -221H284Z" />
<glyph unicode="|" glyph-name="bar" horiz-adv-x="402" d="M13 -259L272 960H424L165 -259H13Z" />
<glyph unicode="}" glyph-name="braceright" horiz-adv-x="516" d="M258 863Q344 863 393 833T457 748T457 623L423 461Q411 401 470 401H516L482 241H441Q408 241 389 225T361 171L321 -21Q301 -120 243 -170T75 -221H-62L-28 -60H57Q117 -60 130 0L168 181Q180
238 204 269T287 317L289 325Q239 342 229 377T228 461L266 642Q272 671 259 686T209 702H134L168 863H258Z" />
<glyph unicode="~" glyph-name="asciitilde" horiz-adv-x="505" d="M341 312Q314 312 294 321T259 341T231 362T205 371Q179 371 168 318H75Q84 358 97 394T136 453T207 477Q244 477 267 463T308 433T343 418Q357 418 365 431T380 471H473Q465 432 451 396T412
336T341 312Z" />
<glyph unicode="&#xa0;" glyph-name="uni00A0" horiz-adv-x="230" />
<glyph unicode="&#xa1;" glyph-name="exclamdown" horiz-adv-x="306" d="M199 528Q240 528 266 500T293 433Q293 394 267 367T199 339Q159 339 132 366T105 433Q105 472 132 500T199 528ZM-44 -222L94 281H247L167 -222H-44Z" />
<glyph unicode="&#xa2;" glyph-name="cent" horiz-adv-x="618" d="M198 -94L218 -1Q157 14 118 50T59 134T40 235Q40 288 58 340T114 435T205 506T333 539L351 624H430L411 537Q469 528 505 505T561 451T589 393T598 346T600 327H425Q425 327 424 340T413 368T380
390L327 138Q356 143 371 158T393 188T400 203H575Q575 203 569 182T546 129T498 65T418 12T298 -10H296L278 -94H198ZM232 235Q232 214 237 196T253 164L298 375Q266 353 249 314T232 235Z" />
<glyph unicode="&#xa3;" glyph-name="sterling" horiz-adv-x="632" d="M10 0L43 157Q122 163 166 186T210 256Q210 270 207 283T197 310H58L73 380H165Q156 401 150 426T144 481Q144 532 165 580T229 666T337 727T491 750Q538 750 578 745T642 735T667 729L632
566Q632 566 595 576T500 586Q419 586 375 558T330 476Q330 449 339 427T358 380H537L522 310H372V308Q372 267 357 239T323 194T288 168T272 157H575L542 0H10Z" />
<glyph unicode="&#xa4;" glyph-name="currency" horiz-adv-x="715" d="M130 70L50 149L144 244Q126 273 116 307T106 378Q106 415 116 449T144 512L50 606L130 685L224 591Q285 630 358 630Q431 630 492 591L586 685L665 606L571 512Q610 451 610 378Q610 303
571 244L665 149L586 70L492 164Q463 146 429 136T358 126Q321 126 287 136T224 164L130 70ZM358 255Q392 255 419 271T463 316T480 378Q480 412 464 439T420 483T358 500Q324 500 296 484T252 440T235 378Q235 344 251 316T296 272T358 255Z" />
<glyph unicode="&#xa5;" glyph-name="yen" horiz-adv-x="724" d="M75 201L94 289H260L234 370H111L130 458H206L117 740H315L399 443L608 740H831L622 458H694L675 370H556L496 289H658L639 201H455L413 0H221L263 201H75Z" />
<glyph unicode="&#xa6;" glyph-name="brokenbar" horiz-adv-x="403" d="M157 417L272 960H424L309 417H157ZM13 -259L121 250H273L165 -259H13Z" />
<glyph unicode="&#xa7;" glyph-name="section" horiz-adv-x="728" d="M286 -224Q209 -224 156 -206T68 -160T14 -100T-13 -40T-24 6T-26 24H163Q163 24 167 10T184 -23T224 -56T297 -70Q350 -70 379 -49T409 6Q409 53 339 73L239 101Q183 117 140 141T71 202T46
290Q46 355 85 396T181 447L183 454Q183 454 172 466T149 503T138 568Q138 629 172 680T271 763T433 795Q504 795 554 779T637 736T690 680T719 625T732 582T735 565H550Q550 565 547 577T532 605T498 633T435 645Q383 645 356 624T328 571Q328 545 348 528T402
501L495 475Q551 460 594 435T663 374T688 286Q688 221 649 181T553 129L551 122Q551 122 563 110T588 73T601 14Q601 -49 566 -103T460 -190T286 -224ZM465 200Q501 222 501 259Q501 305 431 326L271 375Q236 355 236 318Q236 292 256 276T310 248L465 200Z" />
<glyph unicode="&#xa8;" glyph-name="dieresis" horiz-adv-x="571" d="M384 578Q339 578 311 606T282 675Q282 716 310 744T384 773Q428 773 457 745T486 675Q486 635 457 607T384 578ZM134 578Q89 578 61 606T32 675Q32 716 60 744T134 773Q178 773 207 745T236
675Q236 635 207 607T134 578Z" />
<glyph unicode="&#xa9;" glyph-name="copyright" horiz-adv-x="811" d="M398 -10Q311 -10 247 17T140 92T76 199T55 323Q55 394 80 462T155 587T279 676T449 710Q536 710 600 683T707 608T771 502T792 378Q792 307 767 238T692 113T568 24T398 -10ZM403 96Q471
96 522 120T607 184T658 274T676 374Q676 433 652 485T577 571T448 604Q382 604 331 580T244 517T190 428T172 328Q172 269 197 216T274 129T403 96ZM419 164Q359 164 321 187T263 249T244 330Q244 380 268 427T341 505T461 536Q511 536 542 522T590 486T614 443T622
407T623 392H505Q505 392 504 403T492 425T458 437Q432 437 413 421T384 379T374 330Q374 303 387 283T428 263Q452 263 465 274T483 296T488 308H606Q606 308 602 294T587 258T554 215T500 179T419 164Z" />
<glyph unicode="&#xaa;" glyph-name="ordfeminine" horiz-adv-x="425" d="M283 444Q254 402 196 402Q147 402 119 426T91 494Q91 539 124 570T221 607L322 615L323 618Q331 655 292 655Q269 655 263 645T257 634H132Q132 634 138 651T161 692T213 732T303 750Q363
750 399 729T449 674T456 607L413 408H279L286 444H283ZM227 511Q227 502 234 496T255 489Q272 489 287 499T306 532L308 541L253 536Q238 535 233 527T227 511Z" />
<glyph unicode="&#xab;" glyph-name="guillemotleft" horiz-adv-x="803" d="M546 80L378 305L642 530H846L574 296L730 80H546ZM219 80L51 305L315 530H519L247 296L403 80H219Z" />
<glyph unicode="&#xac;" glyph-name="logicalnot" horiz-adv-x="655" d="M101 383L132 530H627L596 383V383L567 248H411L440 383H101Z" />
<glyph unicode="&#xad;" glyph-name="uni00AD" horiz-adv-x="600" d="M86 238L117 385H493L462 238H86Z" />
<glyph unicode="&#xae;" glyph-name="registered" horiz-adv-x="434" d="M268 385Q212 385 174 409T116 473T96 555Q96 604 119 649T186 725T296 755Q352 755 390 731T448 668T468 586Q468 537 445 491T378 415T268 385ZM270 432Q318 432 351 455T400 513T417
584Q417 616 404 644T364 690T295 708Q247 708 214 686T164 628T147 557Q147 525 160 497T201 450T270 432ZM188 480L229 673H309Q347 673 365 654T383 613Q383 595 371 578T337 551L357 480H295L279 545H261L247 480H188ZM307 622H278L271 591H305Q325 591 325
608Q325 622 307 622Z" />
<glyph unicode="&#xaf;" glyph-name="overscore" horiz-adv-x="400" d="M19 653L41 755H381L359 653H19Z" />
<glyph unicode="&#xb0;" glyph-name="degree" horiz-adv-x="456" d="M296 371Q244 371 201 396T133 465T107 561Q107 613 132 656T201 724T296 750Q349 750 391 725T459 656T485 561Q485 509 460 466T392 397T296 371ZM296 497Q322 497 340 516T359 561Q359 587
341 605T296 624Q270 624 252 606T233 561Q233 535 251 516T296 497Z" />
<glyph unicode="&#xb1;" glyph-name="plusminus" horiz-adv-x="632" d="M221 156L253 308H101L133 455H285L317 607H464L432 455H584L552 308H400L368 156H221ZM35 0L56 98H509L488 0H35Z" />
<glyph unicode="&#xb2;" glyph-name="uni00B2" horiz-adv-x="485" d="M102 402L122 495L239 570Q314 618 352 651T391 718Q391 739 377 751T339 764Q311 764 299 751T284 723T281 709H150Q150 709 152 726T163 769T194 820T251 863T345 881Q406 881 446 860T508
805T529 729Q529 689 512 657T466 599T405 554T345 519H510L485 402H102Z" />
<glyph unicode="&#xb3;" glyph-name="uni00B3" horiz-adv-x="480" d="M299 396Q236 396 198 411T140 450T113 497T105 535T104 551H233Q233 551 236 540T253 517T298 506Q333 506 348 521T363 552Q363 563 352 575T310 588H244L266 691H335Q367 691 379 705T391
733Q391 747 379 759T337 771Q307 771 294 758T277 733T273 720H149Q149 720 152 736T164 777T195 824T252 864T344 881Q405 881 445 862T504 814T524 753Q524 719 502 688T431 643L430 637Q465 624 483 599T501 542Q501 507 479 474T411 418T299 396Z" />
<glyph unicode="&#xb4;" glyph-name="acute" horiz-adv-x="346" d="M300 599L167 600L244 779H414L300 599Z" />
<glyph unicode="&#xb5;" glyph-name="uni00B5" horiz-adv-x="665" d="M-51 -195L103 530H293L228 224Q221 189 230 166T274 143Q306 143 325 164T353 224L418 530H608L538 198Q535 183 536 169T548 146T586 137Q596 137 604 138T613 139L583 -3Q583 -3 570 -4T538
-8T499 -10Q426 -10 390 16T344 75H335Q335 75 330 62T311 33T275 3T218 -10Q191 -10 174 -3T147 12T138 19L132 14Q155 -27 156 -69T144 -174L139 -195H-51Z" />
<glyph unicode="&#xb6;" glyph-name="paragraph" horiz-adv-x="609" d="M333 0H220L283 295Q215 297 171 323T104 391T82 479Q82 533 110 583T192 667T326 700H658L509 0H396L510 535H447L333 0Z" />
<glyph unicode="&#xb7;" glyph-name="middot" horiz-adv-x="338" d="M109 259Q66 259 38 288T10 358Q10 399 38 428T109 457Q152 457 180 428T208 358Q208 318 180 289T109 259Z" />
<glyph unicode="&#xb8;" glyph-name="cedilla" horiz-adv-x="271" d="M31 -258Q-3 -258 -29 -254T-56 -250L-42 -154Q-42 -154 -29 -155T2 -158T33 -160Q68 -160 80 -150T92 -126Q92 -115 83 -107T56 -99Q39 -99 27 -105T14 -111L-32 -53L56 40H171L106 -27V-27Q156
-27 187 -56T219 -128Q219 -159 200 -189T139 -238T31 -258Z" />
<glyph unicode="&#xb9;" glyph-name="uni00B9" horiz-adv-x="335" d="M382 875L281 402H146L210 710H117L134 793L148 797Q196 811 230 828T297 871L302 875H382Z" />
<glyph unicode="&#xba;" glyph-name="ordmasculine" horiz-adv-x="449" d="M281 405Q222 405 183 427T126 485T107 561Q107 608 130 652T199 724T312 753Q370 753 408 731T466 672T485 595Q485 549 462 506T393 434T281 405ZM285 513Q312 513 328 537T345 594Q345
614 336 628T304 643Q278 643 262 620T246 563Q246 544 255 529T285 513Z" />
<glyph unicode="&#xbb;" glyph-name="guillemotright" horiz-adv-x="802" d="M330 80L602 314L446 530H630L798 305L534 80H330ZM3 80L275 314L119 530H303L471 305L207 80H3Z" />
<glyph unicode="&#xbc;" glyph-name="onequarter" horiz-adv-x="907" d="M317 706L243 351H126L173 571L102 572L118 644L126 646Q166 656 193 669T246 703L249 706H317ZM135 0L703 700H839L270 0H135ZM756 1L770 68H592L613 156L785 356H944L901 153H947L929
68H882L868 1H756ZM722 153H788L811 257L722 153Z" />
<glyph unicode="&#xbd;" glyph-name="onehalf" horiz-adv-x="887" d="M317 706L243 351H126L173 571L102 572L118 644L126 646Q166 656 193 669T246 703L249 706H317ZM135 0L703 700H839L270 0H135ZM601 1L617 76L702 128Q765 166 790 190T815 234Q815 248 806
257T780 267Q762 267 754 258T744 240T742 230H636Q636 230 637 243T645 275T668 315T712 348T785 361Q856 361 892 326T928 244Q928 207 908 179T859 130T798 95H914L895 1H601Z" />
<glyph unicode="&#xbe;" glyph-name="threequarters" horiz-adv-x="924" d="M232 346Q186 346 158 357T114 386T94 421T88 450T87 462H190Q190 462 192 455T204 441T236 434Q261 434 271 444T281 463Q281 470 274 478T244 487H195L213 570H264Q286 570 293 580T301
598Q301 607 293 615T265 624Q244 624 234 615T221 597T218 588H120Q120 588 122 600T132 631T156 668T200 698T271 711Q318 711 348 696T393 659T408 614Q408 587 388 564T333 531V527Q361 517 376 498T391 455Q391 430 374 405T322 363T232 346ZM207 0L775 700H911L342
0H207ZM828 1L842 68H664L685 156L857 356H1016L973 153H1019L1001 68H954L940 1H828ZM794 153H860L883 257L794 153Z" />
<glyph unicode="&#xbf;" glyph-name="questiondown" horiz-adv-x="662" d="M340 539Q381 539 407 511T434 444Q434 405 408 378T340 350Q300 350 273 377T246 444Q246 483 273 511T340 539ZM259 -222Q172 -222 111 -191T18 -107T-14 5Q-14 59 8 95T63 157T130
201T192 238T228 281L233 295H419L416 273Q410 227 384 198T324 148T257 110T202 72T180 21Q180 -13 205 -35T272 -57Q310 -57 331 -42T361 -8T373 27T376 42H560Q560 42 558 23T547 -26T519 -90T467 -154T383 -203T259 -222Z" />
<glyph unicode="&#xc0;" glyph-name="Agrave" horiz-adv-x="771" d="M428 809L324 989H489L556 810L428 809ZM-43 0L360 740H619L708 0H518L505 124H232L167 0H-43ZM318 288H489L461 561L318 288Z" />
<glyph unicode="&#xc1;" glyph-name="Aacute" horiz-adv-x="771" d="M578 809L445 810L522 989H692L578 809ZM-43 0L360 740H619L708 0H518L505 124H232L167 0H-43ZM318 288H489L461 561L318 288Z" />
<glyph unicode="&#xc2;" glyph-name="Acircumflex" horiz-adv-x="771" d="M285 799L454 958H601L702 799H569L519 884L434 799H285ZM-43 0L360 740H619L708 0H518L505 124H232L167 0H-43ZM318 288H489L461 561L318 288Z" />
<glyph unicode="&#xc3;" glyph-name="Atilde" horiz-adv-x="771" d="M593 822Q566 822 546 831T511 851T483 872T457 881Q431 881 420 828H327Q336 868 349 904T388 963T459 987Q496 987 519 973T560 943T595 928Q609 928 617 941T632 981H725Q717 942 703 906T664
846T593 822ZM-43 0L360 740H619L708 0H518L505 124H232L167 0H-43ZM318 288H489L461 561L318 288Z" />
<glyph unicode="&#xc4;" glyph-name="Adieresis" horiz-adv-x="771" d="M643 788Q598 788 570 816T541 885Q541 926 569 954T643 983Q687 983 716 955T745 885Q745 845 716 817T643 788ZM393 788Q348 788 320 816T291 885Q291 926 319 954T393 983Q437 983 466
955T495 885Q495 845 466 817T393 788ZM-43 0L360 740H619L708 0H518L505 124H232L167 0H-43ZM318 288H489L461 561L318 288Z" />
<glyph unicode="&#xc5;" glyph-name="Aring" horiz-adv-x="771" d="M527 788Q488 788 456 807T405 858T386 929Q386 968 405 999T456 1050T527 1069Q566 1069 598 1050T649 1000T668 929Q668 890 649 858T598 807T527 788ZM527 878Q548 878 563 892T578 929Q578
950 563 964T527 979Q506 979 491 965T476 929Q476 907 491 893T527 878ZM-43 0L360 740H619L708 0H518L505 124H232L167 0H-43ZM318 288H489L461 561L318 288Z" />
<glyph unicode="&#xc6;" glyph-name="AE" horiz-adv-x="1027" d="M-41 0L422 740H1083L1048 574H716L690 454H978L944 296H657L629 166H966L931 0H402L428 124H244L167 0H-41ZM345 285H462L523 570L345 285Z" />
<glyph unicode="&#xc7;" glyph-name="Ccedilla" horiz-adv-x="784" d="M290 -263Q256 -263 230 -259T203 -255L217 -159Q217 -159 230 -160T261 -163T292 -165Q327 -165 339 -155T351 -131Q351 -120 342 -112T315 -104Q298 -104 286 -110T273 -116L227 -58L283
2Q206 21 156 68T80 181T55 318Q55 395 82 471T161 611T290 712T467 750Q549 750 604 730T694 679T748 612T775 545T784 493T785 473H595Q595 473 593 489T578 526T538 564T459 580Q408 580 369 559T304 501T263 422T249 335Q249 289 265 250T314 186T399 161Q447
161 478 177T527 214T552 251T560 267H750Q750 267 745 247T725 196T685 129T619 62T522 10T386 -10L365 -32V-32Q415 -32 446 -61T478 -133Q478 -164 459 -194T398 -243T290 -263Z" />
<glyph unicode="&#xc8;" glyph-name="Egrave" horiz-adv-x="636" d="M360 809L256 989H421L488 810L360 809ZM2 0L159 740H683L648 574H316L290 454H578L544 296H257L229 166H566L531 0H2Z" />
<glyph unicode="&#xc9;" glyph-name="Eacute" horiz-adv-x="636" d="M510 809L377 810L454 989H624L510 809ZM2 0L159 740H683L648 574H316L290 454H578L544 296H257L229 166H566L531 0H2Z" />
<glyph unicode="&#xca;" glyph-name="Ecircumflex" horiz-adv-x="636" d="M217 799L386 958H533L634 799H501L451 884L366 799H217ZM2 0L159 740H683L648 574H316L290 454H578L544 296H257L229 166H566L531 0H2Z" />
<glyph unicode="&#xcb;" glyph-name="Edieresis" horiz-adv-x="636" d="M575 788Q530 788 502 816T473 885Q473 926 501 954T575 983Q619 983 648 955T677 885Q677 845 648 817T575 788ZM325 788Q280 788 252 816T223 885Q223 926 251 954T325 983Q369 983 398
955T427 885Q427 845 398 817T325 788ZM2 0L159 740H683L648 574H316L290 454H578L544 296H257L229 166H566L531 0H2Z" />
<glyph unicode="&#xcc;" glyph-name="Igrave" horiz-adv-x="311" d="M195 805L91 985H256L323 806L195 805ZM2 0L159 740H351L194 0H2Z" />
<glyph unicode="&#xcd;" glyph-name="Iacute" horiz-adv-x="311" d="M345 805L212 806L289 985H459L345 805ZM2 0L159 740H351L194 0H2Z" />
<glyph unicode="&#xce;" glyph-name="Icircumflex" horiz-adv-x="311" d="M58 795L233 984H380L475 795H341L296 897L206 795H58ZM2 0L159 740H351L194 0H2Z" />
<glyph unicode="&#xcf;" glyph-name="Idieresis" horiz-adv-x="311" d="M410 784Q365 784 337 812T308 881Q308 922 336 950T410 979Q454 979 483 951T512 881Q512 841 483 813T410 784ZM160 784Q115 784 87 812T58 881Q58 922 86 950T160 979Q204 979 233 951T262
881Q262 841 233 813T160 784ZM2 0L159 740H351L194 0H2Z" />
<glyph unicode="&#xd0;" glyph-name="Eth" horiz-adv-x="780" d="M18 0L81 296H-11L21 444H112L175 740H420Q508 740 573 713T682 640T746 534T768 410Q768 336 740 264T655 132T516 36T323 0H18ZM379 296H273L246 171H340Q399 171 444 191T519 244T564 318T580
399Q580 444 561 483T504 547T406 572H331L304 444H411L379 296Z" />
<glyph unicode="&#xd1;" glyph-name="Ntilde" horiz-adv-x="759" d="M581 822Q554 822 534 831T499 851T471 872T445 881Q419 881 408 828H315Q324 868 337 904T376 963T447 987Q484 987 507 973T548 943T583 928Q597 928 605 941T620 981H713Q705 942 691 906T652
846T581 822ZM2 0L159 740H336L518 320L607 740H799L642 0H463L279 400L194 0H2Z" />
<glyph unicode="&#xd2;" glyph-name="Ograve" horiz-adv-x="825" d="M425 809L321 989H486L553 810L425 809ZM397 -10Q310 -10 246 17T140 92T78 200T57 327Q57 403 84 478T164 614T294 713T473 750Q560 750 624 723T730 648T792 540T813 413Q813 337 786 262T706
126T576 27T397 -10ZM405 161Q456 161 496 183T563 241T604 322T619 409Q619 454 603 493T553 555T466 579Q415 579 375 557T308 499T267 419T252 331Q252 286 268 248T319 185T405 161Z" />
<glyph unicode="&#xd3;" glyph-name="Oacute" horiz-adv-x="825" d="M575 809L442 810L519 989H689L575 809ZM397 -10Q310 -10 246 17T140 92T78 200T57 327Q57 403 84 478T164 614T294 713T473 750Q560 750 624 723T730 648T792 540T813 413Q813 337 786 262T706
126T576 27T397 -10ZM405 161Q456 161 496 183T563 241T604 322T619 409Q619 454 603 493T553 555T466 579Q415 579 375 557T308 499T267 419T252 331Q252 286 268 248T319 185T405 161Z" />
<glyph unicode="&#xd4;" glyph-name="Ocircumflex" horiz-adv-x="825" d="M282 799L451 958H598L699 799H566L516 884L431 799H282ZM397 -10Q310 -10 246 17T140 92T78 200T57 327Q57 403 84 478T164 614T294 713T473 750Q560 750 624 723T730 648T792 540T813
413Q813 337 786 262T706 126T576 27T397 -10ZM405 161Q456 161 496 183T563 241T604 322T619 409Q619 454 603 493T553 555T466 579Q415 579 375 557T308 499T267 419T252 331Q252 286 268 248T319 185T405 161Z" />
<glyph unicode="&#xd5;" glyph-name="Otilde" horiz-adv-x="825" d="M590 822Q563 822 543 831T508 851T480 872T454 881Q428 881 417 828H324Q333 868 346 904T385 963T456 987Q493 987 516 973T557 943T592 928Q606 928 614 941T629 981H722Q714 942 700 906T661
846T590 822ZM397 -10Q310 -10 246 17T140 92T78 200T57 327Q57 403 84 478T164 614T294 713T473 750Q560 750 624 723T730 648T792 540T813 413Q813 337 786 262T706 126T576 27T397 -10ZM405 161Q456 161 496 183T563 241T604 322T619 409Q619 454 603 493T553
555T466 579Q415 579 375 557T308 499T267 419T252 331Q252 286 268 248T319 185T405 161Z" />
<glyph unicode="&#xd6;" glyph-name="Odieresis" horiz-adv-x="825" d="M640 788Q595 788 567 816T538 885Q538 926 566 954T640 983Q684 983 713 955T742 885Q742 845 713 817T640 788ZM390 788Q345 788 317 816T288 885Q288 926 316 954T390 983Q434 983 463
955T492 885Q492 845 463 817T390 788ZM397 -10Q310 -10 246 17T140 92T78 200T57 327Q57 403 84 478T164 614T294 713T473 750Q560 750 624 723T730 648T792 540T813 413Q813 337 786 262T706 126T576 27T397 -10ZM405 161Q456 161 496 183T563 241T604 322T619
409Q619 454 603 493T553 555T466 579Q415 579 375 557T308 499T267 419T252 331Q252 286 268 248T319 185T405 161Z" />
<glyph unicode="&#xd7;" glyph-name="multiply" horiz-adv-x="618" d="M79 210L207 316L131 413L259 527L339 425L463 527L562 414L432 307L509 210L381 96L300 198L178 97L79 210Z" />
<glyph unicode="&#xd8;" glyph-name="Oslash" horiz-adv-x="825" d="M9 -24L124 111Q90 156 74 211T57 326Q57 402 84 477T164 613T294 712T473 749Q522 749 563 740T639 714L680 763H861L745 627Q780 582 796 527T813 412Q813 336 786 261T706 125T576 26T397
-11Q348 -11 307 -2T231 24L190 -24H9ZM252 330Q252 298 260 270L516 571Q493 578 466 578Q415 578 375 556T308 498T267 418T252 330ZM405 160Q456 160 496 182T563 240T604 321T619 408Q619 441 611 469L353 168Q377 160 405 160Z" />
<glyph unicode="&#xd9;" glyph-name="Ugrave" horiz-adv-x="736" d="M408 809L304 989H469L536 810L408 809ZM321 -10Q265 -10 212 8T120 65T66 167T70 320L159 740H351L262 320Q247 249 271 210T355 170Q413 170 445 208T494 320L583 740H775L682 300Q657 181
604 113T479 18T321 -10Z" />
<glyph unicode="&#xda;" glyph-name="Uacute" horiz-adv-x="736" d="M558 809L425 810L502 989H672L558 809ZM321 -10Q265 -10 212 8T120 65T66 167T70 320L159 740H351L262 320Q247 249 271 210T355 170Q413 170 445 208T494 320L583 740H775L682 300Q657 181
604 113T479 18T321 -10Z" />
<glyph unicode="&#xdb;" glyph-name="Ucircumflex" horiz-adv-x="736" d="M271 799L446 988H593L688 799H554L509 901L419 799H271ZM321 -10Q265 -10 212 8T120 65T66 167T70 320L159 740H351L262 320Q247 249 271 210T355 170Q413 170 445 208T494 320L583 740H775L682
300Q657 181 604 113T479 18T321 -10Z" />
<glyph unicode="&#xdc;" glyph-name="Udieresis" horiz-adv-x="736" d="M623 788Q578 788 550 816T521 885Q521 926 549 954T623 983Q667 983 696 955T725 885Q725 845 696 817T623 788ZM373 788Q328 788 300 816T271 885Q271 926 299 954T373 983Q417 983 446
955T475 885Q475 845 446 817T373 788ZM321 -10Q265 -10 212 8T120 65T66 167T70 320L159 740H351L262 320Q247 249 271 210T355 170Q413 170 445 208T494 320L583 740H775L682 300Q657 181 604 113T479 18T321 -10Z" />
<glyph unicode="&#xdd;" glyph-name="Yacute" horiz-adv-x="724" d="M565 809L432 810L509 989H679L565 809ZM221 0L273 248L117 740H315L399 443L608 740H831L465 247L413 0H221Z" />
<glyph unicode="&#xde;" glyph-name="Thorn" horiz-adv-x="721" d="M2 0L159 740H351L326 621H440Q529 621 587 589T673 504T701 393Q701 344 682 296T624 207T529 144T400 120H219L194 0H2ZM418 454H290L255 286H408Q456 286 482 315T508 377Q508 407 487 430T418 454Z" />
<glyph unicode="&#xdf;" glyph-name="germandbls" horiz-adv-x="721" d="M448 770Q536 770 597 743T691 670T724 569Q724 523 703 487T645 426T564 388L563 381Q563 381 580 374T620 349T660 300T677 221Q677 154 638 102T529 20T365 -10Q338 -10 312 -8T267 -4T249
-2L282 153Q282 153 303 150T350 147Q411 147 449 171T488 238Q488 267 465 288T382 310H342L373 458H419Q468 458 498 480T528 538Q528 571 504 592T436 613Q377 613 341 575T291 471L191 0H2L104 480Q116 534 140 586T204 679T305 745T448 770Z" />
<glyph unicode="&#xe0;" glyph-name="agrave" horiz-adv-x="646" d="M320 599L216 779H381L448 600L320 599ZM295 540Q339 540 367 528T411 499T434 471T441 458H449L464 530H654L544 0H354L366 58H358Q358 58 351 48T328 24T285 1T218 -10Q153 -10 111 21T48
103T27 213Q27 270 45 327T97 433T182 511T295 540ZM341 389Q303 389 276 366T234 307T219 237Q219 198 238 170T300 141Q338 141 365 164T407 223T422 292Q422 331 403 360T341 389Z" />
<glyph unicode="&#xe1;" glyph-name="aacute" horiz-adv-x="646" d="M470 599L337 600L414 779H584L470 599ZM295 540Q339 540 367 528T411 499T434 471T441 458H449L464 530H654L544 0H354L366 58H358Q358 58 351 48T328 24T285 1T218 -10Q153 -10 111 21T48
103T27 213Q27 270 45 327T97 433T182 511T295 540ZM341 389Q303 389 276 366T234 307T219 237Q219 198 238 170T300 141Q338 141 365 164T407 223T422 292Q422 331 403 360T341 389Z" />
<glyph unicode="&#xe2;" glyph-name="acircumflex" horiz-adv-x="646" d="M183 589L358 778H505L600 589H466L421 691L331 589H183ZM295 540Q339 540 367 528T411 499T434 471T441 458H449L464 530H654L544 0H354L366 58H358Q358 58 351 48T328 24T285 1T218 -10Q153
-10 111 21T48 103T27 213Q27 270 45 327T97 433T182 511T295 540ZM341 389Q303 389 276 366T234 307T219 237Q219 198 238 170T300 141Q338 141 365 164T407 223T422 292Q422 331 403 360T341 389Z" />
<glyph unicode="&#xe3;" glyph-name="atilde" horiz-adv-x="646" d="M485 612Q458 612 438 621T403 641T375 662T349 671Q323 671 312 618H219Q228 658 241 694T280 753T351 777Q388 777 411 763T452 733T487 718Q501 718 509 731T524 771H617Q609 732 595 696T556
636T485 612ZM295 540Q339 540 367 528T411 499T434 471T441 458H449L464 530H654L544 0H354L366 58H358Q358 58 351 48T328 24T285 1T218 -10Q153 -10 111 21T48 103T27 213Q27 270 45 327T97 433T182 511T295 540ZM341 389Q303 389 276 366T234 307T219 237Q219
198 238 170T300 141Q338 141 365 164T407 223T422 292Q422 331 403 360T341 389Z" />
<glyph unicode="&#xe4;" glyph-name="adieresis" horiz-adv-x="646" d="M535 578Q490 578 462 606T433 675Q433 716 461 744T535 773Q579 773 608 745T637 675Q637 635 608 607T535 578ZM285 578Q240 578 212 606T183 675Q183 716 211 744T285 773Q329 773 358
745T387 675Q387 635 358 607T285 578ZM295 540Q339 540 367 528T411 499T434 471T441 458H449L464 530H654L544 0H354L366 58H358Q358 58 351 48T328 24T285 1T218 -10Q153 -10 111 21T48 103T27 213Q27 270 45 327T97 433T182 511T295 540ZM341 389Q303 389 276
366T234 307T219 237Q219 198 238 170T300 141Q338 141 365 164T407 223T422 292Q422 331 403 360T341 389Z" />
<glyph unicode="&#xe5;" glyph-name="aring" horiz-adv-x="646" d="M419 578Q380 578 348 597T297 648T278 719Q278 758 297 789T348 840T419 859Q458 859 490 840T541 790T560 719Q560 680 541 648T490 597T419 578ZM419 668Q440 668 455 682T470 719Q470 740
455 754T419 769Q398 769 383 755T368 719Q368 697 383 683T419 668ZM295 540Q339 540 367 528T411 499T434 471T441 458H449L464 530H654L544 0H354L366 58H358Q358 58 351 48T328 24T285 1T218 -10Q153 -10 111 21T48 103T27 213Q27 270 45 327T97 433T182 511T295
540ZM341 389Q303 389 276 366T234 307T219 237Q219 198 238 170T300 141Q338 141 365 164T407 223T422 292Q422 331 403 360T341 389Z" />
<glyph unicode="&#xe6;" glyph-name="ae" horiz-adv-x="942" d="M197 -10Q114 -10 63 29T12 138Q12 208 65 256T218 312L370 324L376 343Q381 372 364 389T312 407Q281 407 266 396T247 373T242 361H66Q66 361 72 379T94 423T138 477T209 522T315 540Q366 540
398 529T449 502T474 475T481 463H487Q487 463 498 474T532 501T591 528T676 540Q747 540 795 514T871 444T907 347T906 240L902 217H544Q546 174 568 150T629 126Q660 126 678 139T704 164T712 177H890Q890 177 883 158T857 112T808 56T731 9T619 -10Q561 -10
521 4T456 38T420 71T409 86H404Q404 86 393 72T356 38T292 5T197 -10ZM559 322H739Q744 357 724 380T662 404Q623 404 596 381T559 322ZM254 113Q283 113 311 135T347 201L350 217L259 209Q231 207 216 193T201 158Q201 135 217 124T254 113Z" />
<glyph unicode="&#xe7;" glyph-name="ccedilla" horiz-adv-x="618" d="M203 -263Q169 -263 143 -259T116 -255L130 -159Q130 -159 143 -160T174 -163T205 -165Q240 -165 252 -155T264 -131Q264 -120 255 -112T228 -104Q211 -104 199 -110T186 -116L140 -58L199
5Q145 22 110 57T57 139T40 235Q40 290 60 344T121 442T221 513T360 540Q433 540 479 519T550 466T586 402T598 349T600 327H425Q425 327 424 337T417 360T397 383T356 393Q317 393 289 369T247 308T232 235Q232 195 251 166T311 137Q337 137 354 147T382 170T396
193T400 203H575Q575 203 569 182T546 129T498 65T419 12T299 -10L278 -32V-32Q328 -32 359 -61T391 -133Q391 -164 372 -194T311 -243T203 -263Z" />
<glyph unicode="&#xe8;" glyph-name="egrave" horiz-adv-x="626" d="M302 599L198 779H363L430 600L302 599ZM300 -10Q210 -10 153 25T69 116T41 236Q41 291 60 345T119 443T217 513T352 540Q427 540 477 514T555 444T591 347T590 240L586 217H228Q230 174 252
150T313 126Q344 126 362 139T388 164T396 177H574Q574 177 567 158T542 112T493 56T414 9T300 -10ZM243 322H423Q428 357 408 380T346 404Q307 404 280 381T243 322Z" />
<glyph unicode="&#xe9;" glyph-name="eacute" horiz-adv-x="626" d="M452 599L319 600L396 779H566L452 599ZM300 -10Q210 -10 153 25T69 116T41 236Q41 291 60 345T119 443T217 513T352 540Q427 540 477 514T555 444T591 347T590 240L586 217H228Q230 174 252
150T313 126Q344 126 362 139T388 164T396 177H574Q574 177 567 158T542 112T493 56T414 9T300 -10ZM243 322H423Q428 357 408 380T346 404Q307 404 280 381T243 322Z" />
<glyph unicode="&#xea;" glyph-name="ecircumflex" horiz-adv-x="626" d="M165 589L340 778H487L582 589H448L403 691L313 589H165ZM300 -10Q210 -10 153 25T69 116T41 236Q41 291 60 345T119 443T217 513T352 540Q427 540 477 514T555 444T591 347T590 240L586
217H228Q230 174 252 150T313 126Q344 126 362 139T388 164T396 177H574Q574 177 567 158T542 112T493 56T414 9T300 -10ZM243 322H423Q428 357 408 380T346 404Q307 404 280 381T243 322Z" />
<glyph unicode="&#xeb;" glyph-name="edieresis" horiz-adv-x="626" d="M517 578Q472 578 444 606T415 675Q415 716 443 744T517 773Q561 773 590 745T619 675Q619 635 590 607T517 578ZM267 578Q222 578 194 606T165 675Q165 716 193 744T267 773Q311 773 340
745T369 675Q369 635 340 607T267 578ZM300 -10Q210 -10 153 25T69 116T41 236Q41 291 60 345T119 443T217 513T352 540Q427 540 477 514T555 444T591 347T590 240L586 217H228Q230 174 252 150T313 126Q344 126 362 139T388 164T396 177H574Q574 177 567 158T542
112T493 56T414 9T300 -10ZM243 322H423Q428 357 408 380T346 404Q307 404 280 381T243 322Z" />
<glyph unicode="&#xec;" glyph-name="igrave" horiz-adv-x="320" d="M154 599L50 779H215L282 600L154 599ZM5 0L118 530H308L195 0H5Z" />
<glyph unicode="&#xed;" glyph-name="iacute" horiz-adv-x="320" d="M304 599L171 600L248 779H418L304 599ZM5 0L118 530H308L195 0H5Z" />
<glyph unicode="&#xee;" glyph-name="icircumflex" horiz-adv-x="320" d="M17 589L192 778H339L434 589H300L255 691L165 589H17ZM5 0L118 530H308L195 0H5Z" />
<glyph unicode="&#xef;" glyph-name="idieresis" horiz-adv-x="320" d="M369 578Q324 578 296 606T267 675Q267 716 295 744T369 773Q413 773 442 745T471 675Q471 635 442 607T369 578ZM119 578Q74 578 46 606T17 675Q17 716 45 744T119 773Q163 773 192 745T221
675Q221 635 192 607T119 578ZM5 0L118 530H308L195 0H5Z" />
<glyph unicode="&#xf0;" glyph-name="eth" horiz-adv-x="661" d="M314 -10Q221 -10 161 26T72 120T42 242Q42 294 60 344T115 434T203 499T324 523Q374 523 406 511T457 484Q438 521 407 554T339 616L190 538L159 657L225 692Q195 709 176 718T157 727L233 851Q233
851 254 843T310 819T386 776L537 856L568 737L490 696Q531 658 565 609T620 500T641 366Q641 292 621 225T559 104T457 21T314 -10ZM318 141Q355 141 380 162T419 216T432 283Q432 324 411 356T346 389Q310 389 285 367T246 312T232 245Q232 204 253 173T318 141Z"
/>
<glyph unicode="&#xf1;" glyph-name="ntilde" horiz-adv-x="618" d="M473 612Q446 612 426 621T391 641T363 662T337 671Q311 671 300 618H207Q216 658 229 694T268 753T339 777Q376 777 399 763T440 733T475 718Q489 718 497 731T512 771H605Q597 732 583 696T544
636T473 612ZM-3 0L110 530H300L284 455H289Q289 455 297 468T323 497T370 527T441 540Q499 540 534 513T583 440T584 339L512 0H322L386 299Q394 335 383 361T337 387Q301 387 280 361T251 299L187 0H-3Z" />
<glyph unicode="&#xf2;" glyph-name="ograve" horiz-adv-x="650" d="M310 599L206 779H371L438 600L310 599ZM303 -10Q213 -10 155 25T69 116T40 235Q40 290 60 344T121 442T220 513T357 540Q446 540 504 505T591 415T620 295Q620 240 599 186T538 88T439 17T303
-10ZM310 142Q346 142 372 163T412 219T426 293Q426 331 407 359T347 388Q312 388 286 367T245 311T231 237Q231 199 250 171T310 142Z" />
<glyph unicode="&#xf3;" glyph-name="oacute" horiz-adv-x="650" d="M460 599L327 600L404 779H574L460 599ZM303 -10Q213 -10 155 25T69 116T40 235Q40 290 60 344T121 442T220 513T357 540Q446 540 504 505T591 415T620 295Q620 240 599 186T538 88T439 17T303
-10ZM310 142Q346 142 372 163T412 219T426 293Q426 331 407 359T347 388Q312 388 286 367T245 311T231 237Q231 199 250 171T310 142Z" />
<glyph unicode="&#xf4;" glyph-name="ocircumflex" horiz-adv-x="650" d="M173 589L348 778H495L590 589H456L411 691L321 589H173ZM303 -10Q213 -10 155 25T69 116T40 235Q40 290 60 344T121 442T220 513T357 540Q446 540 504 505T591 415T620 295Q620 240 599
186T538 88T439 17T303 -10ZM310 142Q346 142 372 163T412 219T426 293Q426 331 407 359T347 388Q312 388 286 367T245 311T231 237Q231 199 250 171T310 142Z" />
<glyph unicode="&#xf5;" glyph-name="otilde" horiz-adv-x="650" d="M475 612Q448 612 428 621T393 641T365 662T339 671Q313 671 302 618H209Q218 658 231 694T270 753T341 777Q378 777 401 763T442 733T477 718Q491 718 499 731T514 771H607Q599 732 585 696T546
636T475 612ZM303 -10Q213 -10 155 25T69 116T40 235Q40 290 60 344T121 442T220 513T357 540Q446 540 504 505T591 415T620 295Q620 240 599 186T538 88T439 17T303 -10ZM310 142Q346 142 372 163T412 219T426 293Q426 331 407 359T347 388Q312 388 286 367T245
311T231 237Q231 199 250 171T310 142Z" />
<glyph unicode="&#xf6;" glyph-name="odieresis" horiz-adv-x="650" d="M525 578Q480 578 452 606T423 675Q423 716 451 744T525 773Q569 773 598 745T627 675Q627 635 598 607T525 578ZM275 578Q230 578 202 606T173 675Q173 716 201 744T275 773Q319 773 348
745T377 675Q377 635 348 607T275 578ZM303 -10Q213 -10 155 25T69 116T40 235Q40 290 60 344T121 442T220 513T357 540Q446 540 504 505T591 415T620 295Q620 240 599 186T538 88T439 17T303 -10ZM310 142Q346 142 372 163T412 219T426 293Q426 331 407 359T347
388Q312 388 286 367T245 311T231 237Q231 199 250 171T310 142Z" />
<glyph unicode="&#xf7;" glyph-name="divide" horiz-adv-x="697" d="M412 472Q369 472 341 501T313 571Q313 612 341 641T412 670Q455 670 483 641T511 571Q511 531 483 502T412 472ZM95 286L123 417H641L613 286H95ZM324 33Q281 33 253 62T225 132Q225 173 253
202T324 231Q367 231 395 202T423 132Q423 92 395 63T324 33Z" />
<glyph unicode="&#xf8;" glyph-name="oslash" horiz-adv-x="650" d="M87 -37L132 40Q85 75 63 126T40 235Q40 290 60 344T121 442T220 513T357 540Q389 540 418 535L436 567H563L521 494Q571 460 595 407T620 295Q620 240 599 186T538 88T439 17T303 -10Q266 -10
233 -3L214 -37H87ZM231 237Q231 225 233 215L332 387Q301 382 279 360T244 306T231 237ZM426 293Q426 310 423 324L318 142Q351 145 375 166T413 221T426 293Z" />
<glyph unicode="&#xf9;" glyph-name="ugrave" horiz-adv-x="609" d="M304 599L200 779H365L432 600L304 599ZM159 -10Q84 -10 52 46T39 197L110 530H300L234 219Q227 183 238 163T281 143Q313 143 332 164T359 219L425 530H615L503 0H313L328 75H322Q292 35 251
13T159 -10Z" />
<glyph unicode="&#xfa;" glyph-name="uacute" horiz-adv-x="609" d="M454 599L321 600L398 779H568L454 599ZM159 -10Q84 -10 52 46T39 197L110 530H300L234 219Q227 183 238 163T281 143Q313 143 332 164T359 219L425 530H615L503 0H313L328 75H322Q292 35 251
13T159 -10Z" />
<glyph unicode="&#xfb;" glyph-name="ucircumflex" horiz-adv-x="609" d="M167 589L342 778H489L584 589H450L405 691L315 589H167ZM159 -10Q84 -10 52 46T39 197L110 530H300L234 219Q227 183 238 163T281 143Q313 143 332 164T359 219L425 530H615L503 0H313L328
75H322Q292 35 251 13T159 -10Z" />
<glyph unicode="&#xfc;" glyph-name="udieresis" horiz-adv-x="609" d="M519 578Q474 578 446 606T417 675Q417 716 445 744T519 773Q563 773 592 745T621 675Q621 635 592 607T519 578ZM269 578Q224 578 196 606T167 675Q167 716 195 744T269 773Q313 773 342
745T371 675Q371 635 342 607T269 578ZM159 -10Q84 -10 52 46T39 197L110 530H300L234 219Q227 183 238 163T281 143Q313 143 332 164T359 219L425 530H615L503 0H313L328 75H322Q292 35 251 13T159 -10Z" />
<glyph unicode="&#xfd;" glyph-name="yacute" horiz-adv-x="618" d="M450 599L317 600L394 779H564L450 599ZM15 -195Q-14 -195 -28 -193T-42 -191L-10 -35Q-10 -35 0 -36T27 -37Q61 -37 91 -30T151 10L76 530H254L288 210L454 530H652L368 35Q324 -41 276 -92T164
-169T15 -195Z" />
<glyph unicode="&#xfe;" glyph-name="thorn" horiz-adv-x="659" d="M-35 -195L5 0V0L77 345L115 530V530L163 760H353L293 472H301Q301 472 308 482T331 506T374 529T441 540Q507 540 549 509T611 427T632 317Q632 260 614 203T562 97T477 19T364 -10Q321 -10
293 2T248 31T225 59T218 72H210L155 -195H-35ZM237 238Q237 199 256 170T318 141Q356 141 383 164T425 223T440 293Q440 332 421 360T359 389Q321 389 294 366T252 308T237 238Z" />
<glyph unicode="&#xff;" glyph-name="ydieresis" horiz-adv-x="618" d="M515 578Q470 578 442 606T413 675Q413 716 441 744T515 773Q559 773 588 745T617 675Q617 635 588 607T515 578ZM265 578Q220 578 192 606T163 675Q163 716 191 744T265 773Q309 773 338
745T367 675Q367 635 338 607T265 578ZM15 -195Q-14 -195 -28 -193T-42 -191L-10 -35Q-10 -35 0 -36T27 -37Q61 -37 91 -30T151 10L76 530H254L288 210L454 530H652L368 35Q324 -41 276 -92T164 -169T15 -195Z" />
<glyph unicode="&#x2013;" glyph-name="endash" horiz-adv-x="676" d="M85 238L125 385H614L574 238H85Z" />
<glyph unicode="&#x2014;" glyph-name="emdash" horiz-adv-x="839" d="M85 238L138 385H777L724 238H85Z" />
<glyph unicode="&#x2018;" glyph-name="quoteleft" horiz-adv-x="251" d="M273 740L184 591Q225 588 251 560T277 492Q277 451 249 422T176 393Q132 393 102 421T72 498Q72 523 84 553T123 626T195 729L203 740H273Z" />
<glyph unicode="&#x2019;" glyph-name="quoteright" horiz-adv-x="251" d="M98 403L187 552Q146 555 120 583T94 651Q94 692 122 721T195 750Q239 750 269 722T299 645Q299 620 287 590T248 518T176 414L168 403H98Z" />
<glyph unicode="&#x201a;" glyph-name="quotesinglbase" horiz-adv-x="310" d="M29 -159L118 -10Q77 -7 51 21T25 89Q25 130 53 159T126 188Q170 188 200 160T230 83Q230 58 218 28T179 -44T107 -148L99 -159H29Z" />
<glyph unicode="&#x201c;" glyph-name="quotedblleft" horiz-adv-x="495" d="M273 740L184 591Q225 588 251 560T277 492Q277 451 249 422T176 393Q132 393 102 421T72 498Q72 523 84 553T123 626T195 729L203 740H273ZM517 740L428 591Q469 588 495 560T521 492Q521
451 493 422T420 393Q376 393 346 421T316 498Q316 523 328 553T367 626T439 729L447 740H517Z" />
<glyph unicode="&#x201d;" glyph-name="quotedblright" horiz-adv-x="495" d="M342 403L431 552Q390 555 364 583T338 651Q338 692 366 721T439 750Q483 750 513 722T543 645Q543 620 531 590T492 518T420 414L412 403H342ZM98 403L187 552Q146 555 120 583T94
651Q94 692 122 721T195 750Q239 750 269 722T299 645Q299 620 287 590T248 518T176 414L168 403H98Z" />
<glyph unicode="&#x201e;" glyph-name="quotedblbase" horiz-adv-x="550" d="M273 -159L362 -10Q321 -7 295 21T269 89Q269 130 297 159T370 188Q414 188 444 160T474 83Q474 58 462 28T423 -44T351 -148L343 -159H273ZM29 -159L118 -10Q77 -7 51 21T25 89Q25
130 53 159T126 188Q170 188 200 160T230 83Q230 58 218 28T179 -44T107 -148L99 -159H29Z" />
<glyph unicode="&#x2022;" glyph-name="bullet" horiz-adv-x="537" d="M288 173Q237 173 198 197T136 261T113 349Q113 398 135 437T197 500T288 524Q339 524 378 501T440 438T463 349Q463 301 441 261T379 197T288 173Z" />
<glyph unicode="&#x2039;" glyph-name="guilsinglleft" horiz-adv-x="475" d="M502 530L230 296L386 80H202L34 305L298 530H502Z" />
<glyph unicode="&#x203a;" glyph-name="guilsinglright" horiz-adv-x="475" d="M3 80L275 314L119 530H303L471 305L207 80H3Z" />
</font>
</defs>
</svg>
