<?xml version="1.0" standalone="no"?>
<!DOCTYPE svg PUBLIC "-//W3C//DTD SVG 1.1//EN" "http://www.w3.org/Graphics/SVG/1.1/DTD/svg11.dtd">
<svg xmlns="http://www.w3.org/2000/svg">
<defs >
<font id="BeVietnamPro" horiz-adv-x="618" ><font-face
    font-family="Be Vietnam Pro ExtraBold"
    units-per-em="1000"
    panose-1="0 0 0 0 0 0 0 0 0 0"
    ascent="1000"
    descent="-265"
    alphabetic="0" />
<glyph unicode=" " glyph-name="space" horiz-adv-x="230" />
<glyph unicode="!" glyph-name="exclam" horiz-adv-x="361" d="M109 228L86 740H274L248 228H109ZM180 -9Q141 -9 117 16T92 78Q92 115 116 140T180 166Q218 166 242 141T267 78Q267 42 243 17T180 -9Z" />
<glyph unicode="&quot;" glyph-name="quotedbl" horiz-adv-x="416" d="M239 509L249 740H388L331 509H239ZM60 509L70 740H209L152 509H60Z" />
<glyph unicode="#" glyph-name="numbersign" horiz-adv-x="858" d="M150 0L184 166H46L75 305H212L238 436H103L133 575H266L299 740H438L405 575H537L570 740H709L676 575H813L783 436H648L621 305H755L726 166H593L560 0H421L454 166H323L289 0H150ZM351 305H482L509
436H377L351 305Z" />
<glyph unicode="$" glyph-name="dollar" horiz-adv-x="651" d="M297 -95V-10Q219 -4 170 22T93 85T53 155T38 213T35 236H197Q197 236 199 222T211 188T241 151T297 125V315L289 317Q251 325 211 338T135 374T77 434T55 528Q55 593 87 640T174 715T297 749V833H377V748Q443
740 486 716T555 659T593 597T609 546T613 525H454Q454 525 450 543T429 582T377 616V440L392 436Q425 429 464 417T539 381T597 319T620 221Q620 126 555 64T377 -9V-95H297ZM212 535Q212 506 233 488T297 458V621Q257 614 235 590T212 535ZM462 217Q462 249 440
267T377 297V125Q416 134 439 158T462 217Z" />
<glyph unicode="%" glyph-name="percent" horiz-adv-x="878" d="M221 418Q165 418 127 441T68 503T48 584Q48 627 68 665T126 726T221 750Q276 750 314 727T372 665T392 584Q392 541 373 503T315 442T221 418ZM162 0L585 740H716L293 0H162ZM220 514Q251 514 268
535T286 583Q286 611 269 632T220 653Q188 653 171 632T154 583Q154 556 171 535T220 514ZM658 -10Q602 -10 564 13T505 75T485 157Q485 200 505 237T563 298T658 322Q714 322 752 299T810 238T830 157Q830 113 810 75T752 14T658 -10ZM657 86Q689 86 706 107T723
156Q723 183 706 204T657 225Q626 225 609 204T591 156Q591 128 608 107T657 86Z" />
<glyph unicode="&amp;" glyph-name="ampersand" horiz-adv-x="770" d="M311 -10Q235 -10 174 17T77 94T41 215Q41 281 74 328T171 413Q149 440 131 476T112 564Q112 626 142 667T219 729T318 750Q369 750 415 731T489 673T518 579Q518 511 479 467T383 392L500
268Q510 298 515 336T521 419H654Q654 338 640 274T600 160L747 2H539L500 45Q459 17 411 4T311 -10ZM252 570Q252 545 267 522T303 477Q334 492 357 515T380 574Q380 604 361 620T317 637Q293 637 273 620T252 570ZM195 227Q195 184 227 152T320 120Q343 120 366
126T410 145L252 322Q225 302 210 279T195 227Z" />
<glyph unicode="&apos;" glyph-name="quotesingle" horiz-adv-x="237" d="M60 509L70 740H209L152 509H60Z" />
<glyph unicode="(" glyph-name="parenleft" horiz-adv-x="458" d="M424 -233Q331 -223 259 -176T136 -56T61 109T35 298Q35 396 60 487T136 651T258 772T424 829V675Q379 667 340 634T271 548T225 432T208 298Q208 229 224 165T270 48T339 -37T424 -79V-233Z" />
<glyph unicode=")" glyph-name="parenright" horiz-adv-x="458" d="M34 829Q128 819 200 772T322 652T397 487T423 298Q423 200 398 109T323 -55T201 -176T34 -233V-79Q79 -71 118 -38T187 48T233 164T250 298Q250 367 234 431T188 548T119 633T34 675V829Z" />
<glyph unicode="*" glyph-name="asterisk" horiz-adv-x="519" d="M183 322L87 392L168 500L40 538L76 651L203 605L200 740H318L315 605L442 651L479 538L350 500L431 392L335 322L259 433L183 322Z" />
<glyph unicode="+" glyph-name="plus" horiz-adv-x="666" d="M116 245V379H266V529H400V379H551V245H400V94H266V245H116Z" />
<glyph unicode="," glyph-name="comma" horiz-adv-x="361" d="M87 -152L173 -9Q135 -7 111 19T87 83Q87 121 113 147T180 174Q221 174 249 148T277 77Q277 54 266 26T228 -43T161 -141L153 -152H87Z" />
<glyph unicode="-" glyph-name="hyphen" horiz-adv-x="606" d="M116 245V379H491V245H116Z" />
<glyph unicode="." glyph-name="period" horiz-adv-x="352" d="M176 -10Q135 -10 110 17T84 82Q84 121 109 147T176 174Q216 174 242 148T268 82Q268 44 242 17T176 -10Z" />
<glyph unicode="/" glyph-name="slash" horiz-adv-x="553" d="M32 -191L381 831H532L184 -191H32Z" />
<glyph unicode="0" glyph-name="zero" horiz-adv-x="708" d="M354 -10Q278 -10 219 20T119 102T57 223T35 370Q35 449 56 517T119 638T219 720T354 750Q430 750 489 721T589 639T651 518T673 370Q673 292 652 223T589 102T489 20T354 -10ZM354 143Q415 143 454
199T494 370Q494 484 455 540T354 597Q293 597 254 541T214 370Q214 257 253 200T354 143Z" />
<glyph unicode="1" glyph-name="one" horiz-adv-x="446" d="M360 740V0H187V515H43V620L65 627Q131 644 172 668T252 732L259 740H360Z" />
<glyph unicode="2" glyph-name="two" horiz-adv-x="669" d="M51 0V119L167 214Q251 282 309 329T399 415T430 500Q430 533 414 555T374 589T324 600Q287 600 263 583T226 539T213 483H47Q47 557 82 617T180 714T329 750Q405 750 467 721T566 638T603 512Q603 444
570 388T475 280T330 166L310 150H612V0H51Z" />
<glyph unicode="3" glyph-name="three" horiz-adv-x="687" d="M346 -10Q264 -10 211 11T126 64T80 131T61 192T57 228H221Q221 221 225 205T241 173T277 144T343 132Q395 132 426 157T458 221Q458 257 431 283T349 309H249V442H351Q397 442 422 466T448 524Q448
560 419 584T343 609Q307 609 285 596T251 565T235 531T231 507H71Q71 516 75 543T94 606T138 674T218 728T345 750Q398 750 446 736T534 695T595 629T618 541Q618 494 599 461T553 408T501 380V373Q534 361 564 340T612 287T631 210Q631 140 592 91T487 16T346
-10Z" />
<glyph unicode="4" glyph-name="four" horiz-adv-x="723" d="M395 0V144L38 145V294L353 740H568V289H678V144H568V0H395ZM207 289H395V557L207 289Z" />
<glyph unicode="5" glyph-name="five" horiz-adv-x="689" d="M347 -10Q255 -10 192 25T95 115T61 230H222Q222 230 225 215T240 180T276 145T343 129Q384 129 411 146T452 191T466 248Q466 278 453 305T412 350T345 368Q315 368 295 359T263 337T246 316T241 306H70L137
740H586V590H253L228 435H233Q235 438 250 453T297 482T385 497Q466 497 521 462T606 371T635 252Q635 204 617 157T564 73T474 13T347 -10Z" />
<glyph unicode="6" glyph-name="six" horiz-adv-x="706" d="M365 -10Q286 -10 228 17T131 92T74 200T55 327Q55 401 79 475T153 612T282 712T470 750Q513 750 544 746T576 741V587Q576 587 560 589T519 594T471 597Q402 597 352 572T272 504T236 406Q246 423 267
443T323 477T411 492Q490 492 543 458T624 370T651 254Q651 206 634 159T580 74T491 13T365 -10ZM366 132Q421 132 452 166T483 248Q483 296 452 330T366 364Q312 364 281 330T249 248Q249 200 280 166T366 132Z" />
<glyph unicode="7" glyph-name="seven" horiz-adv-x="599" d="M146 0Q151 113 179 208T245 378T322 507T385 590H29V740H577V617Q577 617 553 590T492 511T417 383T352 211T320 0H146Z" />
<glyph unicode="8" glyph-name="eight" horiz-adv-x="679" d="M339 -10Q263 -10 198 14T92 85T51 203Q51 254 71 288T117 343T164 372T186 381V387Q186 387 168 395T127 421T87 469T69 545Q69 608 105 654T203 725T339 750Q413 750 474 725T572 654T608 546Q608
501 591 470T550 421T510 395T491 387V381Q492 381 512 372T559 343T606 289T626 203Q626 133 586 86T481 14T339 -10ZM339 443Q382 443 414 467T446 532Q446 572 414 595T339 619Q296 619 264 596T232 531Q232 490 264 467T339 443ZM339 124Q399 124 429 155T460
223Q460 258 430 288T339 319Q278 319 248 289T217 223Q217 186 248 155T339 124Z" />
<glyph unicode="9" glyph-name="nine" horiz-adv-x="706" d="M342 750Q421 750 479 723T575 648T632 540T651 413Q651 339 627 265T553 128T425 28T237 -10Q194 -10 163 -6T131 -1V153Q131 153 147 151T187 146T235 143Q305 143 355 168T434 236T470 334Q460 317
439 297T383 263T295 248Q216 248 163 282T82 370T55 486Q55 534 73 581T126 666T216 727T342 750ZM340 608Q286 608 255 574T224 492Q224 444 255 410T340 376Q394 376 425 410T457 492Q457 540 426 574T340 608Z" />
<glyph unicode=":" glyph-name="colon" horiz-adv-x="352" d="M176 356Q135 356 110 383T84 448Q84 486 109 513T176 540Q216 540 242 513T268 448Q268 410 242 383T176 356ZM176 -10Q135 -10 110 17T84 82Q84 121 109 147T176 174Q216 174 242 148T268 82Q268
44 242 17T176 -10Z" />
<glyph unicode=";" glyph-name="semicolon" horiz-adv-x="361" d="M181 356Q140 356 114 383T88 448Q88 486 114 513T181 540Q220 540 246 513T273 448Q273 410 247 383T181 356ZM87 -151L173 -9Q135 -6 111 20T87 83Q87 122 113 148T180 175Q221 175 249 149T277
78Q277 54 266 26T228 -43T161 -141L153 -151H87Z" />
<glyph unicode="&lt;" glyph-name="less" horiz-adv-x="579" d="M507 102L72 291V390L507 578V439L257 341L507 241V102Z" />
<glyph unicode="=" glyph-name="equal" horiz-adv-x="761" d="M116 347V486H646V347H116ZM116 118V257H646V118H116Z" />
<glyph unicode="&gt;" glyph-name="greater" horiz-adv-x="579" d="M72 102V241L322 341L72 439V578L507 390V291L72 102Z" />
<glyph unicode="?" glyph-name="question" horiz-adv-x="637" d="M232 224V256Q232 300 250 331T294 386T346 430T390 472T408 522Q408 556 382 578T316 601Q277 601 248 576T218 495H53Q53 582 91 638T191 722T322 750Q393 750 452 722T546 644T582 526Q582 477
564 443T519 383T466 339T421 300T402 256V224H232ZM317 -10Q278 -10 254 16T229 77Q229 114 253 139T317 165Q355 165 379 140T404 77Q404 41 380 16T317 -10Z" />
<glyph unicode="@" glyph-name="at" horiz-adv-x="1023" d="M525 -180Q401 -180 309 -141T156 -35T65 114T35 284Q35 373 66 457T158 610T310 718T520 758Q614 758 698 729T848 643T950 505T988 321Q988 247 966 188T899 93T782 58Q728 58 694 75T644 111T626
137H617Q616 134 608 122T583 95T539 69T471 58Q407 58 364 90T300 174T279 280Q279 335 299 385T361 466T467 498Q509 498 535 486T574 461T589 443H595V490H734V319Q734 252 747 212T797 172Q830 172 845 206T861 304Q861 392 833 455T756 559T646 619T520 639Q433
639 368 609T258 528T191 415T169 286Q169 221 190 160T256 49T366 -29T523 -58Q589 -58 641 -45T725 -19T756 -6L800 -118Q800 -118 768 -133T674 -164T525 -180ZM510 171Q539 171 559 187T588 227T598 278Q598 318 576 351T510 384Q466 384 444 351T421 278Q421
251 431 227T460 187T510 171Z" />
<glyph unicode="A" glyph-name="A" horiz-adv-x="780" d="M25 0L274 740H506L755 0H574L531 135H249L206 0H25ZM297 283H484L390 574L297 283Z" />
<glyph unicode="B" glyph-name="B" horiz-adv-x="721" d="M64 0V740H425Q497 740 546 716T621 650T647 558Q647 511 630 479T587 427T534 400V391Q562 385 595 365T653 308T678 211Q678 158 654 110T575 31T433 0H64ZM392 596H237V445H392Q437 445 458 466T480
521Q480 553 459 574T392 596ZM405 315H237V144H405Q456 144 480 168T504 231Q504 267 480 291T405 315Z" />
<glyph unicode="C" glyph-name="C" horiz-adv-x="781" d="M407 -10Q315 -10 245 22T129 109T59 232T35 371Q35 441 58 509T128 631T245 717T407 750Q486 750 541 731T634 680T694 614T728 548T742 497T746 477H575Q575 477 570 495T548 536T498 578T409 596Q344
596 301 563T236 479T214 371Q214 315 235 263T300 178T409 145Q465 145 498 163T547 204T569 245T575 263H746Q746 263 743 244T728 193T695 127T635 61T542 10T407 -10Z" />
<glyph unicode="D" glyph-name="D" horiz-adv-x="758" d="M64 0V740H357Q448 740 517 709T631 624T700 505T723 370Q723 301 700 235T632 116T517 32T357 0H64ZM349 588H237V154H349Q418 154 462 186T528 267T549 372Q549 425 528 475T463 556T349 588Z" />
<glyph unicode="E" glyph-name="E" horiz-adv-x="649" d="M64 0V740H587V590H237V447H542V304H237V150H592V0H64Z" />
<glyph unicode="F" glyph-name="F" horiz-adv-x="647" d="M64 0V740H590V590H237V413H545V269H237V0H64Z" />
<glyph unicode="G" glyph-name="G" horiz-adv-x="793" d="M413 -10Q319 -10 248 22T130 108T59 230T35 369Q35 440 59 508T130 630T250 717T418 750Q494 750 548 731T638 682T697 619T731 556T746 507T750 488H578Q578 488 573 504T551 543T502 581T418 598Q350
598 305 565T236 480T213 372Q213 314 236 262T306 175T420 141Q492 141 534 176T587 269H404V404H758V345Q758 228 714 149T591 30T413 -10Z" />
<glyph unicode="H" glyph-name="H" horiz-adv-x="740" d="M64 0V740H237V453H503V740H676V0H503V305H237V0H64Z" />
<glyph unicode="I" glyph-name="I" horiz-adv-x="301" d="M64 0V740H237V0H64Z" />
<glyph unicode="J" glyph-name="J" horiz-adv-x="499" d="M153 -10Q106 -10 73 -6T40 -1V142Q40 142 64 140T119 137Q185 137 224 169T264 282V740H435V278Q435 200 408 135T318 30T153 -10Z" />
<glyph unicode="K" glyph-name="K" horiz-adv-x="728" d="M64 0V740H237V435L483 740H694L397 386L704 0H485L237 319V0H64Z" />
<glyph unicode="L" glyph-name="L" horiz-adv-x="650" d="M64 0V740H237V150H593V0H64Z" />
<glyph unicode="M" glyph-name="M" horiz-adv-x="900" d="M64 0V740H298L451 380L610 740H836V0H665V473L530 168H370L235 475V0H64Z" />
<glyph unicode="N" glyph-name="N" horiz-adv-x="754" d="M64 0V740H223L519 299V740H690V0H530L236 424V0H64Z" />
<glyph unicode="O" glyph-name="O" horiz-adv-x="829" d="M415 -10Q320 -10 249 22T131 109T59 232T35 371Q35 442 59 509T130 631T249 717T415 750Q509 750 580 718T698 631T770 510T794 371Q794 300 770 232T699 110T580 23T415 -10ZM415 145Q480 145 524 178T591
262T614 371Q614 427 592 478T525 563T415 596Q349 596 305 563T238 479T216 371Q216 314 238 263T304 178T415 145Z" />
<glyph unicode="P" glyph-name="P" horiz-adv-x="690" d="M64 0V740H383Q476 740 538 704T630 611T661 492Q661 429 631 372T538 279T383 242H237V0H64ZM382 589H237V392H382Q435 392 461 423T487 491Q487 528 461 558T382 589Z" />
<glyph unicode="Q" glyph-name="Q" horiz-adv-x="828" d="M415 -10Q320 -10 249 22T131 109T59 232T35 371Q35 442 59 509T130 631T249 717T415 750Q509 750 580 718T698 631T770 510T794 371Q794 302 772 236T705 116L806 0H628L600 32Q561 12 515 1T415 -10ZM415
145Q454 145 488 158L376 284L484 371L587 252Q614 306 614 371Q614 427 592 478T525 563T415 596Q349 596 305 563T238 479T216 371Q216 314 238 263T304 178T415 145Z" />
<glyph unicode="R" glyph-name="R" horiz-adv-x="726" d="M64 0V740H377Q459 740 520 712T614 632T647 508Q647 434 612 381T512 301L665 0H474L337 277H237V0H64ZM375 591H237V416H375Q420 416 447 440T474 503Q474 543 447 567T375 591Z" />
<glyph unicode="S" glyph-name="S" horiz-adv-x="677" d="M350 -10Q275 -10 223 7T136 53T81 112T51 171T38 216T35 234H210Q210 234 214 219T232 183T276 148T356 132Q418 132 445 157T473 214Q473 243 453 260T386 286L287 303Q225 314 171 338T83 406T49 520Q49
589 83 640T182 721T333 750Q401 750 449 734T529 692T580 638T609 583T622 541T625 525H454Q454 525 451 537T435 566T397 596T329 609Q269 609 244 584T219 530Q219 499 246 483T316 459L421 441Q482 430 533 404T615 334T646 225Q646 158 612 105T511 21T350
-10Z" />
<glyph unicode="T" glyph-name="T" horiz-adv-x="698" d="M262 0V590H37V740H661V590H436V0H262Z" />
<glyph unicode="U" glyph-name="U" horiz-adv-x="742" d="M371 -10Q312 -10 257 6T159 59T90 153T64 293V740H237V293Q237 234 269 194T371 153Q440 153 472 193T505 293V740H678V293Q678 211 653 153T584 59T485 7T371 -10Z" />
<glyph unicode="V" glyph-name="V" horiz-adv-x="758" d="M263 0L14 740H195L379 164L563 740H744L495 0H263Z" />
<glyph unicode="W" glyph-name="W" horiz-adv-x="1074" d="M204 0L24 740H196L319 223L448 740H626L755 223L878 740H1050L870 0H645L537 439L429 0H204Z" />
<glyph unicode="X" glyph-name="X" horiz-adv-x="786" d="M47 0L272 370L48 740H254L392 497L532 740H738L510 370L739 0H532L392 243L254 0H47Z" />
<glyph unicode="Y" glyph-name="Y" horiz-adv-x="736" d="M282 0V250L21 740H210L368 427L525 740H715L455 250V0H282Z" />
<glyph unicode="Z" glyph-name="Z" horiz-adv-x="669" d="M44 0V121L397 589H44V740H624V619L269 152H624V0H44Z" />
<glyph unicode="[" glyph-name="bracketleft" horiz-adv-x="519" d="M64 -217V858H423V712H239V-71H423V-217H64Z" />
<glyph unicode="\" glyph-name="backslash" horiz-adv-x="546" d="M514 -191H362L13 831H165L514 -191Z" />
<glyph unicode="]" glyph-name="bracketright" horiz-adv-x="519" d="M455 858V-217H96V-71H280V712H96V858H455Z" />
<glyph unicode="^" glyph-name="asciicircum" horiz-adv-x="629" d="M116 555L248 740H382L514 555H384L315 658L246 555H116Z" />
<glyph unicode="_" glyph-name="underscore" horiz-adv-x="747" d="M116 -110V0H631V-110H116Z" />
<glyph unicode="`" glyph-name="grave" horiz-adv-x="317" d="M145 601L33 781H188L267 602L145 601Z" />
<glyph unicode="a" glyph-name="a" horiz-adv-x="663" d="M278 540Q330 540 362 523T411 489T430 467H438V530H609V0H438V63H430Q428 59 412 41T363 7T278 -10Q220 -10 177 13T105 76T62 165T48 265Q48 316 62 365T105 453T177 516T278 540ZM332 403Q295 403 270
383T233 331T221 265Q221 231 233 200T270 148T332 127Q369 127 393 147T430 199T443 265Q443 299 431 330T394 382T332 403Z" />
<glyph unicode="b" glyph-name="b" horiz-adv-x="673" d="M394 -10Q343 -10 310 7T261 41T243 63H235V0H64V760H235V467H243Q245 471 261 489T310 523T394 540Q453 540 496 517T567 454T610 365T625 265Q625 214 611 165T568 77T496 14T394 -10ZM341 127Q378 127
403 147T440 199T452 265Q452 299 440 330T403 382T341 403Q304 403 279 383T242 331T230 265Q230 231 242 200T279 148T341 127Z" />
<glyph unicode="c" glyph-name="c" horiz-adv-x="635" d="M329 -10Q257 -10 205 13T117 76T65 164T48 265Q48 317 65 366T117 454T204 516T329 540Q402 540 449 519T525 467T566 405T583 353T587 332H428Q428 332 425 343T413 369T384 395T334 406Q276 406 248
365T219 265Q219 207 247 166T334 124Q365 124 384 135T412 161T425 187T428 198H587Q587 198 583 177T566 125T525 63T450 11T329 -10Z" />
<glyph unicode="d" glyph-name="d" horiz-adv-x="673" d="M278 -10Q220 -10 177 13T105 76T62 165T48 265Q48 316 62 365T105 453T177 516T278 540Q330 540 362 523T411 489T430 467H438V760H609V0H438V63H430Q428 59 412 41T363 7T278 -10ZM332 127Q369 127 393
147T430 199T443 265Q443 299 431 330T394 382T332 403Q295 403 270 383T233 331T221 265Q221 231 233 200T270 148T332 127Z" />
<glyph unicode="e" glyph-name="e" horiz-adv-x="624" d="M325 -10Q254 -10 202 13T116 76T65 165T48 266Q48 316 64 365T113 453T197 516T320 540Q396 540 453 508T543 413T576 261V221H220Q223 180 249 150T325 119Q362 119 381 132T408 160T415 174H572Q572
174 567 156T548 110T507 55T436 9T325 -10ZM219 320H412Q410 367 384 391T317 415Q278 415 251 391T219 320Z" />
<glyph unicode="f" glyph-name="f" horiz-adv-x="416" d="M116 0V394H33V530H116V564Q116 592 124 627T153 695T213 749T315 770Q348 770 369 766T390 761V643Q390 643 380 644T359 646Q319 646 303 624T287 564V530H389V394H287V0H116Z" />
<glyph unicode="g" glyph-name="g" horiz-adv-x="665" d="M331 -213Q256 -213 207 -195T130 -149T88 -94T72 -48T68 -29H233Q233 -29 239 -42T266 -68T329 -82Q383 -82 411 -51T440 35V90H432Q422 74 403 56T353 26T281 13Q223 13 180 35T107 95T63 180T48 276Q48
326 62 373T106 457T179 517T281 540Q323 540 353 528T403 497T432 463H440V530H611V35Q611 -29 582 -85T491 -177T331 -213ZM332 146Q370 146 395 165T432 214T445 276Q445 310 433 339T395 388T332 407Q295 407 270 388T232 340T219 276Q219 244 232 214T270
165T332 146Z" />
<glyph unicode="h" glyph-name="h" horiz-adv-x="617" d="M64 0V760H235V455H240Q250 471 267 491T314 525T388 540Q452 540 490 511T546 438T563 346V0H392V314Q392 348 374 374T315 401Q270 401 253 372T235 307V0H64Z" />
<glyph unicode="i" glyph-name="i" horiz-adv-x="306" d="M153 593Q110 593 82 621T54 687Q54 727 82 755T153 783Q196 783 224 755T252 687Q252 649 224 621T153 593ZM67 0V530H238V0H67Z" />
<glyph unicode="j" glyph-name="j" horiz-adv-x="310" d="M156 593Q113 593 86 621T58 687Q58 727 85 755T156 783Q199 783 227 755T256 687Q256 649 228 621T156 593ZM34 -210Q2 -210 -19 -207T-41 -203V-76Q-41 -76 -31 -77T-9 -78Q39 -78 55 -57T71 5V530H242V0Q242
-28 236 -64T209 -133T147 -188T34 -210Z" />
<glyph unicode="k" glyph-name="k" horiz-adv-x="613" d="M64 0V760H235V324L398 530H588L390 288L597 0H400L235 232V0H64Z" />
<glyph unicode="l" glyph-name="l" horiz-adv-x="299" d="M64 0V760H235V0H64Z" />
<glyph unicode="m" glyph-name="m" horiz-adv-x="897" d="M54 0V530H225V459H231Q249 491 283 515T374 540Q434 540 469 513T520 445H523Q535 466 556 488T610 525T686 540Q741 540 775 516T826 453T843 374V0H672V324Q672 357 655 379T604 401Q567 401 551 376T534
319V0H363V324Q363 356 347 378T295 401Q258 401 242 376T225 319V0H54Z" />
<glyph unicode="n" glyph-name="n" horiz-adv-x="607" d="M54 0V530H225V455H230Q240 471 257 491T304 525T378 540Q442 540 480 511T536 438T553 346V0H382V314Q382 348 364 374T305 401Q260 401 243 372T225 307V0H54Z" />
<glyph unicode="o" glyph-name="o" horiz-adv-x="663" d="M331 -10Q241 -10 178 28T82 129T48 265Q48 338 81 401T178 502T331 540Q422 540 485 502T581 401T615 265Q615 192 582 129T485 28T331 -10ZM331 128Q384 128 413 168T443 265Q443 321 414 361T331 402Q279
402 249 362T219 265Q219 209 249 169T331 128Z" />
<glyph unicode="p" glyph-name="p" horiz-adv-x="673" d="M64 -195V530H235V467H243Q245 471 261 489T310 523T394 540Q453 540 496 517T567 454T610 365T625 265Q625 214 611 165T568 77T496 14T394 -10Q343 -10 310 7T261 41T243 63H235V-195H64ZM230 265Q230
231 242 200T279 148T341 127Q378 127 403 147T440 199T452 265Q452 299 440 330T403 382T341 403Q304 403 279 383T242 331T230 265Z" />
<glyph unicode="q" glyph-name="q" horiz-adv-x="673" d="M438 -195V63H430Q428 59 412 41T363 7T278 -10Q220 -10 177 13T105 76T62 165T48 265Q48 316 62 365T105 453T177 516T278 540Q330 540 362 523T411 489T430 467H438V530H609V-195H438ZM332 127Q369 127
393 147T430 199T443 265Q443 299 431 330T394 382T332 403Q295 403 270 383T233 331T221 265Q221 231 233 200T270 148T332 127Z" />
<glyph unicode="r" glyph-name="r" horiz-adv-x="441" d="M54 0V530H223V450H229Q237 471 252 491T296 526T370 540Q392 540 405 537T418 534V365Q418 365 404 368T365 371Q294 371 260 333T225 209V0H54Z" />
<glyph unicode="s" glyph-name="s" horiz-adv-x="546" d="M287 -10Q219 -10 175 8T104 53T65 107T48 152T44 170H200Q200 170 203 162T216 142T245 122T296 113Q335 113 347 128T359 155Q359 185 308 195L235 208Q187 216 145 234T77 284T51 367Q51 416 76 455T150
517T268 540Q331 540 373 523T440 481T477 431T493 389T497 372H346Q346 372 340 384T317 408T264 420Q229 420 216 407T203 379Q203 361 220 353T263 339L330 326Q409 311 459 274T510 164Q510 90 453 40T287 -10Z" />
<glyph unicode="t" glyph-name="t" horiz-adv-x="441" d="M308 -10Q240 -10 201 11T143 63T120 127T115 183V394H27V530H115V661H286V530H394V394H286V188Q286 158 302 141T359 123Q376 123 389 125T402 128V0Q402 0 374 -5T308 -10Z" />
<glyph unicode="u" glyph-name="u" horiz-adv-x="596" d="M217 -10Q159 -10 124 14T71 79T54 169V530H223V207Q223 173 241 151T295 129Q336 129 353 156T371 219V530H542V0H371V75H365Q345 40 309 15T217 -10Z" />
<glyph unicode="v" glyph-name="v" horiz-adv-x="600" d="M211 0L19 530H189L302 190L411 530H581L388 0H211Z" />
<glyph unicode="w" glyph-name="w" horiz-adv-x="888" d="M180 0L19 530H189L273 205L368 530H521L615 205L700 530H869L708 0H527L444 283L361 0H180Z" />
<glyph unicode="x" glyph-name="x" horiz-adv-x="624" d="M40 0L197 264L40 530H217L311 367L408 530H584L420 264L584 0H408L311 163L217 0H40Z" />
<glyph unicode="y" glyph-name="y" horiz-adv-x="601" d="M105 -195Q77 -195 61 -193T44 -191V-55Q44 -55 57 -56T90 -57Q134 -57 163 -47T213 -4L20 530H191L303 190L412 530H582L398 28Q371 -47 335 -96T243 -170T105 -195Z" />
<glyph unicode="z" glyph-name="z" horiz-adv-x="527" d="M45 0V117L295 397H52V530H500V413L249 133H500V0H45Z" />
<glyph unicode="{" glyph-name="braceleft" horiz-adv-x="498" d="M349 -217Q245 -217 190 -162T134 -2V187Q134 248 73 248H28V393H73Q134 393 134 454V643Q134 747 189 802T349 858H458V712H370Q309 712 309 651V454Q309 398 292 369T224 324V317Q275 301 292
271T309 187V-10Q309 -71 370 -71H458V-217H349Z" />
<glyph unicode="|" glyph-name="bar" horiz-adv-x="443" d="M152 -252V958H291V-252H152Z" />
<glyph unicode="}" glyph-name="braceright" horiz-adv-x="498" d="M149 858Q253 858 308 803T364 643V454Q364 393 425 393H470V248H425Q364 248 364 187V-2Q364 -106 309 -161T149 -217H40V-71H128Q189 -71 189 -10V187Q189 242 206 271T274 317V324Q223 340
206 370T189 454V651Q189 712 128 712H40V858H149Z" />
<glyph unicode="~" glyph-name="asciitilde" horiz-adv-x="498" d="M326 313Q297 313 276 322T239 343T209 364T181 374Q164 374 158 359T151 319H62Q62 353 70 388T103 447T172 471Q201 471 222 462T259 441T290 420T318 411Q346 411 346 466H436Q436 432 427
397T395 337T326 313Z" />
<glyph unicode="&#xa0;" glyph-name="uni00A0" horiz-adv-x="230" />
<glyph unicode="&#xa1;" glyph-name="exclamdown" horiz-adv-x="361" d="M180 529Q218 529 243 503T268 441Q268 404 243 379T180 353Q142 353 117 378T92 441Q92 477 117 503T180 529ZM86 -221L109 291H248L274 -221H86Z" />
<glyph unicode="&#xa2;" glyph-name="cent" horiz-adv-x="635" d="M286 -98V-7Q205 2 153 43T74 143T48 265Q48 328 74 387T152 487T286 537V627H364V538Q427 533 468 511T533 458T568 399T583 351T587 332H428Q428 332 424 346T406 378T364 402V128Q392 135 406
152T424 183T428 198H587Q587 198 584 179T569 131T533 72T468 20T364 -8V-98H286ZM219 265Q219 221 235 186T286 134V396Q252 380 236 345T219 265Z" />
<glyph unicode="&#xa3;" glyph-name="sterling" horiz-adv-x="691" d="M84 0V143Q152 149 189 179T227 255Q227 270 223 284T211 311H69V379H161Q143 405 129 437T115 516Q115 587 153 640T260 721T425 750Q467 750 502 746T557 737T578 732V584Q578 584 560 588T510
597T442 601Q370 601 327 578T283 503Q283 468 300 440T336 379H521V311H365Q370 290 370 269Q370 239 360 216T334 177T307 152T293 142H608V0H84Z" />
<glyph unicode="&#xa4;" glyph-name="currency" horiz-adv-x="691" d="M123 79L50 151L141 243Q123 271 113 305T103 376Q103 412 113 445T141 507L50 598L123 670L214 579Q273 619 346 619Q419 619 479 580L569 670L641 598L551 508Q590 448 590 376Q590 302
550 243L641 151L569 79L478 170Q418 132 346 132Q310 132 277 142T214 170L123 79ZM346 249Q381 249 409 266T455 312T472 375Q472 410 455 438T410 484T346 501Q311 501 283 484T237 439T220 375Q220 341 237 312T282 266T346 249Z" />
<glyph unicode="&#xa5;" glyph-name="yen" horiz-adv-x="736" d="M94 197V281H265L224 359H93V444H179L21 740H210L368 427L525 740H715L558 444H642V359H512L471 281H642V197H455V0H282V197H94Z" />
<glyph unicode="&#xa6;" glyph-name="brokenbar" horiz-adv-x="443" d="M152 418V958H291V418H152ZM152 -252V251H291V-252H152Z" />
<glyph unicode="&#xa7;" glyph-name="section" horiz-adv-x="716" d="M370 -226Q294 -226 241 -208T153 -162T98 -103T68 -44T56 1T53 19H227Q227 19 231 4T249 -33T294 -69T377 -85Q439 -85 466 -60T494 -3Q494 28 472 45T406 70L277 92Q214 103 159 126T69 191T35
296Q35 355 68 395T163 449V455Q118 486 94 524T70 616Q70 682 104 732T203 812T356 842Q424 842 472 826T553 783T605 728T633 673T646 631T649 615H478Q478 615 475 628T459 658T421 688T351 702Q310 702 286 690T251 659T240 621Q240 588 268 572T341 548L444
530Q507 519 562 495T651 430T686 326Q686 267 653 227T557 173V167Q606 152 636 111T667 8Q667 -60 632 -112T531 -195T370 -226ZM435 224Q443 224 462 229T499 251T516 297Q516 330 488 349T413 376L286 398Q278 398 258 393T221 371T204 325Q204 292 232 273T307
246L435 224Z" />
<glyph unicode="&#xa8;" glyph-name="dieresis" horiz-adv-x="510" d="M377 585Q336 585 310 611T283 674Q283 713 309 739T377 765Q418 765 444 739T471 674Q471 638 445 612T377 585ZM138 585Q97 585 71 611T44 674Q44 713 70 739T138 765Q179 765 205 739T232
674Q232 638 206 612T138 585Z" />
<glyph unicode="&#xa9;" glyph-name="copyright" horiz-adv-x="796" d="M398 -10Q307 -10 239 20T126 102T58 218T35 350Q35 418 58 482T126 597T239 679T398 710Q488 710 556 680T670 598T738 482T761 350Q761 283 738 219T670 103T557 21T398 -10ZM398 88Q463
88 512 110T594 170T643 254T659 350Q659 399 643 445T594 529T512 589T398 612Q332 612 283 590T202 530T153 446T136 350Q136 301 152 255T201 171T283 111T398 88ZM409 157Q341 157 296 185T229 258T206 350Q206 398 228 442T296 514T409 543Q460 543 493 528T545
491T574 447T585 410T588 395H471Q471 395 467 407T450 431T407 443Q368 443 349 416T330 350Q330 312 349 285T407 257Q436 257 449 269T466 293T471 305H588Q588 305 586 290T574 253T546 209T493 172T409 157Z" />
<glyph unicode="&#xaa;" glyph-name="ordfeminine" horiz-adv-x="431" d="M248 446Q237 431 214 419T157 406Q111 406 80 431T48 501Q48 593 187 608L252 615V622Q252 659 215 659Q197 659 190 652T180 637T177 630H60Q60 630 62 642T71 672T96 708T143 738T220
750Q279 750 313 731T362 684T377 631V412H252V446H248ZM170 512Q170 500 179 493T205 486Q225 486 238 498T252 535V545L202 539Q170 535 170 512Z" />
<glyph unicode="&#xab;" glyph-name="guillemotleft" horiz-adv-x="770" d="M562 85L346 307L562 529H738L527 306L738 85H562ZM252 85L36 307L252 529H429L217 306L429 85H252Z" />
<glyph unicode="&#xac;" glyph-name="logicalnot" horiz-adv-x="655" d="M80 397V530H575V252H443V397H80Z" />
<glyph unicode="&#xad;" glyph-name="uni00AD" horiz-adv-x="600" d="M116 245V379H491V245H116Z" />
<glyph unicode="&#xae;" glyph-name="registered" horiz-adv-x="431" d="M215 378Q154 378 113 405T52 475T31 564Q31 610 51 653T113 723T215 750Q277 750 318 723T379 653T400 564Q400 518 380 475T318 405T215 378ZM215 419Q263 419 294 440T341 494T357 564Q357
601 342 634T295 688T215 709Q168 709 137 688T89 634T73 564Q73 528 89 495T136 440T215 419ZM136 470V663H224Q259 663 281 646T304 597Q304 556 269 539L306 470H243L212 529H195V470H136ZM223 613H195V575H223Q245 575 245 594Q245 604 239 608T223 613Z" />
<glyph unicode="&#xaf;" glyph-name="overscore" horiz-adv-x="388" d="M28 651V747H360V651H28Z" />
<glyph unicode="&#xb0;" glyph-name="degree" horiz-adv-x="469" d="M235 376Q183 376 141 401T73 468T48 563Q48 615 73 657T140 724T235 750Q286 750 328 725T396 657T421 563Q421 511 396 469T329 401T235 376ZM235 491Q264 491 285 512T306 563Q306 593 285
614T235 635Q205 635 184 614T163 563Q163 534 184 513T235 491Z" />
<glyph unicode="&#xb1;" glyph-name="plusminus" horiz-adv-x="676" d="M271 156V307H120V441H271V591H405V441H555V307H405V156H271ZM116 0V91H560V0H116Z" />
<glyph unicode="&#xb2;" glyph-name="uni00B2" horiz-adv-x="465" d="M50 406V498L154 574Q203 610 237 636T272 695Q272 716 258 727T223 738Q203 738 188 725T173 684H47Q47 741 72 777T139 831T227 849Q278 849 318 831T382 780T405 706Q405 651 360 607T232
516H408V406H50Z" />
<glyph unicode="&#xb3;" glyph-name="uni00B3" horiz-adv-x="481" d="M240 397Q189 397 156 410T102 444T73 486T60 524T57 546H181Q181 543 184 532T200 511T237 501Q266 501 278 514T291 543Q291 559 278 568T243 578H183V670H241Q265 670 276 680T288 706Q288
723 276 733T239 744Q217 744 206 735T192 715T189 700H69Q69 705 72 721T84 759T112 801T163 835T244 849Q290 849 329 834T393 791T417 723Q417 691 404 671T373 639T343 626V621Q375 612 399 589T424 526Q424 486 400 457T334 413T240 397Z" />
<glyph unicode="&#xb4;" glyph-name="acute" horiz-adv-x="317" d="M162 601L40 602L119 781H274L162 601Z" />
<glyph unicode="&#xb5;" glyph-name="uni00B5" horiz-adv-x="652" d="M41 -196V530H212V207Q212 173 230 151T284 129Q325 129 342 156T360 219V530H531V188Q531 162 543 143T595 124Q607 124 616 125T625 127V-3Q625 -3 601 -6T548 -10Q477 -10 437 15T380 75H372Q372
75 368 62T351 33T316 3T259 -10Q231 -10 212 -2T183 14T173 22L168 17Q194 -23 203 -62T212 -155V-196H41Z" />
<glyph unicode="&#xb6;" glyph-name="paragraph" horiz-adv-x="588" d="M378 0H275V303H212Q143 303 97 330T27 401T4 499Q4 552 28 598T98 672T212 700H546V0H443V551H378V0Z" />
<glyph unicode="&#xb7;" glyph-name="middot" horiz-adv-x="321" d="M167 273Q126 273 100 300T74 365Q74 403 100 430T167 457Q206 457 232 430T259 365Q259 327 233 300T167 273Z" />
<glyph unicode="&#xb8;" glyph-name="cedilla" horiz-adv-x="264" d="M71 -256Q51 -256 32 -254T-1 -251T-14 -249V-160Q-14 -160 -2 -161T29 -164T62 -166Q106 -166 120 -154T135 -128Q135 -115 125 -107T96 -99Q74 -99 58 -108T42 -118L-17 -58L49 36H155L110
-25Q119 -24 129 -24Q179 -24 208 -54T237 -129Q237 -161 219 -190T165 -238T71 -256Z" />
<glyph unicode="&#xb9;" glyph-name="uni00B9" horiz-adv-x="344" d="M258 848V406H134V696H43V770L56 774Q100 787 127 801T181 843L186 848H258Z" />
<glyph unicode="&#xba;" glyph-name="ordmasculine" horiz-adv-x="457" d="M228 406Q171 406 131 430T70 493T48 580Q48 626 69 665T131 728T228 752Q285 752 325 728T387 665T409 580Q409 533 388 494T326 430T228 406ZM228 508Q254 508 269 528T284 580Q284
609 269 629T228 649Q204 649 188 629T172 580Q172 549 188 529T228 508Z" />
<glyph unicode="&#xbb;" glyph-name="guillemotright" horiz-adv-x="770" d="M346 85L558 306L346 529H522L738 307L522 85H346ZM36 85L248 306L36 529H212L429 307L212 85H36Z" />
<glyph unicode="&#xbc;" glyph-name="onequarter" horiz-adv-x="816" d="M187 702V353H80V575H10V641L19 643Q54 652 77 665T121 698L125 702H187ZM154 0L574 700H693L272 0H154ZM722 2V68H558V141L691 352H832V148H879V68H832V2H722ZM658 148H722V252L658 148Z" />
<glyph unicode="&#xbd;" glyph-name="onehalf" horiz-adv-x="803" d="M187 702V353H80V575H10V641L19 643Q54 652 77 665T121 698L125 702H187ZM154 0L574 700H693L272 0H154ZM578 2V75L616 102Q687 152 721 178T755 232Q755 250 744 258T719 266Q704 266 692
256T680 222H576Q576 268 596 298T650 342T722 357Q783 357 824 325T865 239Q865 195 834 160T735 89H866V2H578Z" />
<glyph unicode="&#xbe;" glyph-name="threequarters" horiz-adv-x="836" d="M175 349Q124 349 95 365T53 402T36 442T32 466H130Q130 463 133 455T146 439T175 432Q197 432 206 442T216 464Q216 475 208 484T177 493H139V566H177Q196 566 205 575T215 597Q215
608 206 617T176 627Q149 627 142 613T135 594H39Q39 599 43 617T60 656T100 693T175 709Q213 709 245 697T297 663T316 608Q316 573 296 554T259 531V527Q270 524 284 517T310 495T321 455Q321 408 281 379T175 349ZM231 0L651 700H770L349 0H231ZM799 2V68H635V141L768
352H909V148H956V68H909V2H799ZM734 148H799V252L734 148Z" />
<glyph unicode="&#xbf;" glyph-name="questiondown" horiz-adv-x="637" d="M318 539Q357 539 381 513T406 450Q406 414 382 389T318 363Q281 363 256 388T231 450Q231 487 256 513T318 539ZM314 -222Q242 -222 183 -194T89 -116T53 2Q53 51 71 85T116 145T170
189T215 228T233 272V304H403V272Q403 228 386 197T342 142T289 98T245 56T227 6Q227 -28 253 -50T320 -73Q359 -73 388 -48T418 33H582Q582 -54 544 -110T444 -194T314 -222Z" />
<glyph unicode="&#xc0;" glyph-name="Agrave" horiz-adv-x="780" d="M331 811L219 991H375L454 812L331 811ZM25 0L274 740H506L755 0H574L531 135H249L206 0H25ZM296 283H484L390 574L296 283Z" />
<glyph unicode="&#xc1;" glyph-name="Aacute" horiz-adv-x="780" d="M453 811L330 812L409 991H565L453 811ZM25 0L274 740H506L755 0H574L531 135H249L206 0H25ZM296 283H484L390 574L296 283Z" />
<glyph unicode="&#xc2;" glyph-name="Acircumflex" horiz-adv-x="780" d="M192 802L324 959H458L590 802H460L391 886L322 802H192ZM25 0L274 740H506L755 0H574L531 135H249L206 0H25ZM296 283H484L390 574L296 283Z" />
<glyph unicode="&#xc3;" glyph-name="Atilde" horiz-adv-x="780" d="M466 823Q439 823 420 832T385 853T357 874T330 883Q315 883 309 869T303 829H216Q216 863 224 898T254 958T320 982Q348 982 368 973T403 952T431 931T457 922Q483 922 483 976H571Q571 942
563 907T533 847T466 823ZM25 0L274 740H506L755 0H574L531 135H249L206 0H25ZM296 283H484L390 574L296 283Z" />
<glyph unicode="&#xc4;" glyph-name="Adieresis" horiz-adv-x="780" d="M509 794Q468 794 442 821T415 885Q415 922 441 948T509 975Q550 975 577 949T604 885Q604 848 577 821T509 794ZM271 794Q229 794 203 821T176 885Q176 922 202 948T271 975Q311 975 338
949T365 885Q365 848 338 821T271 794ZM25 0L274 740H506L755 0H574L531 135H249L206 0H25ZM296 283H484L390 574L296 283Z" />
<glyph unicode="&#xc5;" glyph-name="Aring" horiz-adv-x="780" d="M390 793Q352 793 321 811T271 861T252 931Q252 969 270 1000T320 1050T390 1069Q429 1069 460 1051T510 1001T529 931Q529 893 510 862T460 812T390 793ZM390 878Q412 878 427 893T443 931Q443
953 428 968T390 983Q368 983 353 968T337 931Q337 909 352 894T390 878ZM25 0L274 740H506L755 0H574L531 135H249L206 0H25ZM296 283H484L390 574L296 283Z" />
<glyph unicode="&#xc6;" glyph-name="AE" horiz-adv-x="1049" d="M25 0L346 740H987V590H637V447H942V304H637V150H992V0H464V135H264L206 0H25ZM328 281H464V593L328 281Z" />
<glyph unicode="&#xc7;" glyph-name="Ccedilla" horiz-adv-x="781" d="M385 -262Q365 -262 346 -260T313 -257T300 -255V-169Q300 -169 312 -170T343 -173T376 -175Q419 -175 433 -163T448 -137Q448 -124 438 -116T410 -108Q388 -108 372 -117T355 -127L297 -67L341
-5Q265 7 208 42T112 130T54 244T35 371Q35 441 58 509T128 631T245 717T407 750Q486 750 541 731T634 680T694 614T728 548T742 497T746 477H575Q575 477 570 495T548 536T498 578T409 596Q344 596 301 563T236 479T214 371Q214 315 235 263T300 178T409 145Q465
145 498 163T547 204T569 245T575 263H746Q746 263 743 245T730 197T700 135T646 70T563 18T443 -9L421 -38Q431 -36 443 -36Q492 -36 521 -65T550 -139Q550 -171 533 -199T479 -244T385 -262Z" />
<glyph unicode="&#xc8;" glyph-name="Egrave" horiz-adv-x="651" d="M270 811L158 991H314L393 812L270 811ZM66 0V740H589V590H239V447H544V304H239V150H594V0H66Z" />
<glyph unicode="&#xc9;" glyph-name="Eacute" horiz-adv-x="651" d="M392 811L269 812L348 991H504L392 811ZM66 0V740H589V590H239V447H544V304H239V150H594V0H66Z" />
<glyph unicode="&#xca;" glyph-name="Ecircumflex" horiz-adv-x="651" d="M131 802L263 959H397L529 802H399L330 886L261 802H131ZM66 0V740H589V590H239V447H544V304H239V150H594V0H66Z" />
<glyph unicode="&#xcb;" glyph-name="Edieresis" horiz-adv-x="651" d="M448 794Q407 794 381 821T354 885Q354 922 380 948T448 975Q489 975 516 949T543 885Q543 848 516 821T448 794ZM210 794Q168 794 142 821T115 885Q115 922 141 948T210 975Q250 975 277
949T304 885Q304 848 277 821T210 794ZM66 0V740H589V590H239V447H544V304H239V150H594V0H66Z" />
<glyph unicode="&#xcc;" glyph-name="Igrave" horiz-adv-x="305" d="M93 811L-18 991H137L216 812L93 811ZM66 0V740H239V0H66Z" />
<glyph unicode="&#xcd;" glyph-name="Iacute" horiz-adv-x="305" d="M215 811L92 812L171 991H327L215 811ZM66 0V740H239V0H66Z" />
<glyph unicode="&#xce;" glyph-name="Icircumflex" horiz-adv-x="305" d="M-46 802L86 987H220L352 802H222L153 905L84 802H-46ZM66 0V740H239V0H66Z" />
<glyph unicode="&#xcf;" glyph-name="Idieresis" horiz-adv-x="305" d="M272 794Q230 794 204 821T177 885Q177 922 203 948T272 975Q312 975 339 949T366 885Q366 848 339 821T272 794ZM33 794Q-9 794 -35 821T-61 885Q-61 922 -35 948T33 975Q73 975 100 949T127
885Q127 848 100 821T33 794ZM66 0V740H239V0H66Z" />
<glyph unicode="&#xd0;" glyph-name="Eth" horiz-adv-x="783" d="M89 0V302H12V438H89V740H382Q473 740 542 709T656 624T725 505T748 370Q748 301 725 235T657 116T542 32T382 0H89ZM395 302H262V154H374Q442 154 486 186T552 267T574 372Q574 425 553 475T487
556T374 588H262V438H395V302Z" />
<glyph unicode="&#xd1;" glyph-name="Ntilde" horiz-adv-x="758" d="M452 823Q424 823 405 832T370 853T342 874T315 883Q300 883 294 869T288 829H201Q201 863 209 898T239 958T305 982Q333 982 353 973T388 952T416 931T442 922Q469 922 469 976H556Q556 942
548 907T518 847T452 823ZM66 0V740H225L521 299V740H692V0H532L238 424V0H66Z" />
<glyph unicode="&#xd2;" glyph-name="Ograve" horiz-adv-x="829" d="M355 821L244 1001H399L478 822L355 821ZM415 -10Q320 -10 249 22T131 109T59 232T35 371Q35 442 59 509T130 631T249 717T415 750Q509 750 580 718T698 631T770 510T794 371Q794 300 770 232T699
110T580 23T415 -10ZM415 145Q480 145 524 178T591 262T614 371Q614 427 592 478T525 563T415 596Q349 596 305 563T238 479T216 371Q216 314 238 263T304 178T415 145Z" />
<glyph unicode="&#xd3;" glyph-name="Oacute" horiz-adv-x="829" d="M477 821L354 822L433 1001H589L477 821ZM415 -10Q320 -10 249 22T131 109T59 232T35 371Q35 442 59 509T130 631T249 717T415 750Q509 750 580 718T698 631T770 510T794 371Q794 300 770 232T699
110T580 23T415 -10ZM415 145Q480 145 524 178T591 262T614 371Q614 427 592 478T525 563T415 596Q349 596 305 563T238 479T216 371Q216 314 238 263T304 178T415 145Z" />
<glyph unicode="&#xd4;" glyph-name="Ocircumflex" horiz-adv-x="829" d="M216 812L348 969H482L614 812H484L415 896L346 812H216ZM415 -10Q320 -10 249 22T131 109T59 232T35 371Q35 442 59 509T130 631T249 717T415 750Q509 750 580 718T698 631T770 510T794
371Q794 300 770 232T699 110T580 23T415 -10ZM415 145Q480 145 524 178T591 262T614 371Q614 427 592 478T525 563T415 596Q349 596 305 563T238 479T216 371Q216 314 238 263T304 178T415 145Z" />
<glyph unicode="&#xd5;" glyph-name="Otilde" horiz-adv-x="829" d="M491 833Q463 833 444 842T409 863T381 884T354 893Q339 893 333 879T327 839H240Q240 873 248 908T278 968T344 992Q372 992 392 983T427 962T455 941T481 932Q508 932 508 986H595Q595 952
587 917T557 857T491 833ZM415 -10Q320 -10 249 22T131 109T59 232T35 371Q35 442 59 509T130 631T249 717T415 750Q509 750 580 718T698 631T770 510T794 371Q794 300 770 232T699 110T580 23T415 -10ZM415 145Q480 145 524 178T591 262T614 371Q614 427 592 478T525
563T415 596Q349 596 305 563T238 479T216 371Q216 314 238 263T304 178T415 145Z" />
<glyph unicode="&#xd6;" glyph-name="Odieresis" horiz-adv-x="829" d="M534 804Q492 804 466 831T439 895Q439 932 465 958T534 985Q574 985 601 959T628 895Q628 858 601 831T534 804ZM295 804Q253 804 227 831T201 895Q201 932 227 958T295 985Q335 985 362
959T389 895Q389 858 362 831T295 804ZM415 -10Q320 -10 249 22T131 109T59 232T35 371Q35 442 59 509T130 631T249 717T415 750Q509 750 580 718T698 631T770 510T794 371Q794 300 770 232T699 110T580 23T415 -10ZM415 145Q480 145 524 178T591 262T614 371Q614
427 592 478T525 563T415 596Q349 596 305 563T238 479T216 371Q216 314 238 263T304 178T415 145Z" />
<glyph unicode="&#xd7;" glyph-name="multiply" horiz-adv-x="645" d="M219 106L116 208L220 311L116 415L219 518L323 414L427 518L529 416L425 312L529 208L426 105L322 209L219 106Z" />
<glyph unicode="&#xd8;" glyph-name="Oslash" horiz-adv-x="829" d="M83 -24L153 86Q94 141 65 216T35 371Q35 442 59 509T130 631T249 717T415 750Q456 750 493 744T562 724L587 763H745L676 655Q735 600 764 525T794 371Q794 300 770 232T699 110T580 23T415
-10Q373 -10 336 -4T267 16L241 -24H83ZM216 371Q216 335 224 301T251 238L474 587Q446 596 415 596Q349 596 305 563T238 479T216 371ZM415 145Q480 145 524 178T591 262T614 371Q614 406 606 440T579 504L355 154Q383 145 415 145Z" />
<glyph unicode="&#xd9;" glyph-name="Ugrave" horiz-adv-x="746" d="M313 811L201 991H357L435 812L313 811ZM373 -10Q314 -10 259 6T161 59T92 153T66 293V740H239V293Q239 234 271 194T373 153Q442 153 474 193T507 293V740H680V293Q680 211 655 153T586 59T487
7T373 -10Z" />
<glyph unicode="&#xda;" glyph-name="Uacute" horiz-adv-x="746" d="M434 811L312 812L391 991H546L434 811ZM373 -10Q314 -10 259 6T161 59T92 153T66 293V740H239V293Q239 234 271 194T373 153Q442 153 474 193T507 293V740H680V293Q680 211 655 153T586 59T487
7T373 -10Z" />
<glyph unicode="&#xdb;" glyph-name="Ucircumflex" horiz-adv-x="746" d="M173 802L306 987H439L572 802H442L373 905L303 802H173ZM373 -10Q314 -10 259 6T161 59T92 153T66 293V740H239V293Q239 234 271 194T373 153Q442 153 474 193T507 293V740H680V293Q680
211 655 153T586 59T487 7T373 -10Z" />
<glyph unicode="&#xdc;" glyph-name="Udieresis" horiz-adv-x="746" d="M491 794Q450 794 424 821T397 885Q397 922 423 948T491 975Q532 975 558 949T585 885Q585 848 559 821T491 794ZM252 794Q211 794 185 821T158 885Q158 922 184 948T252 975Q293 975 319
949T346 885Q346 848 320 821T252 794ZM373 -10Q314 -10 259 6T161 59T92 153T66 293V740H239V293Q239 234 271 194T373 153Q442 153 474 193T507 293V740H680V293Q680 211 655 153T586 59T487 7T373 -10Z" />
<glyph unicode="&#xdd;" glyph-name="Yacute" horiz-adv-x="736" d="M431 811L309 812L387 991H543L431 811ZM282 0V250L21 740H210L368 427L525 740H715L455 250V0H282Z" />
<glyph unicode="&#xde;" glyph-name="Thorn" horiz-adv-x="690" d="M64 0V740H237V618H383Q476 618 538 582T630 489T661 370Q661 308 631 251T538 157T383 121H237V0H64ZM382 468H237V271H382Q435 271 461 301T487 369Q487 406 461 437T382 468Z" />
<glyph unicode="&#xdf;" glyph-name="germandbls" horiz-adv-x="726" d="M361 766Q436 766 500 741T603 669T642 555Q642 507 623 473T576 417T523 387V381Q523 381 538 377T574 361T618 330T654 279T669 204Q669 138 632 90T530 16T383 -10Q344 -10 319 -6T294
-2V138Q294 138 317 135T366 132Q435 132 465 161T496 229Q496 268 468 292T385 316H319V451H373Q420 451 445 476T471 536Q471 574 442 599T365 624Q306 624 270 584T234 468V0H64V467Q64 518 79 570T130 667T222 739T361 766Z" />
<glyph unicode="&#xe0;" glyph-name="agrave" horiz-adv-x="667" d="M274 601L162 781H318L397 602L274 601ZM279 540Q331 540 363 523T412 489T431 467H439V530H610V0H439V63H431Q429 59 413 41T364 7T279 -10Q221 -10 178 13T106 76T63 165T49 265Q49 316 63
365T106 453T178 516T279 540ZM333 403Q296 403 271 383T234 331T222 265Q222 231 234 200T271 148T333 127Q370 127 394 147T431 199T444 265Q444 299 432 330T395 382T333 403Z" />
<glyph unicode="&#xe1;" glyph-name="aacute" horiz-adv-x="667" d="M396 601L273 602L352 781H508L396 601ZM279 540Q331 540 363 523T412 489T431 467H439V530H610V0H439V63H431Q429 59 413 41T364 7T279 -10Q221 -10 178 13T106 76T63 165T49 265Q49 316 63
365T106 453T178 516T279 540ZM333 403Q296 403 271 383T234 331T222 265Q222 231 234 200T271 148T333 127Q370 127 394 147T431 199T444 265Q444 299 432 330T395 382T333 403Z" />
<glyph unicode="&#xe2;" glyph-name="acircumflex" horiz-adv-x="667" d="M135 592L267 777H401L533 592H403L334 695L265 592H135ZM279 540Q331 540 363 523T412 489T431 467H439V530H610V0H439V63H431Q429 59 413 41T364 7T279 -10Q221 -10 178 13T106 76T63
165T49 265Q49 316 63 365T106 453T178 516T279 540ZM333 403Q296 403 271 383T234 331T222 265Q222 231 234 200T271 148T333 127Q370 127 394 147T431 199T444 265Q444 299 432 330T395 382T333 403Z" />
<glyph unicode="&#xe3;" glyph-name="atilde" horiz-adv-x="667" d="M409 613Q382 613 363 622T328 643T300 664T273 673Q258 673 252 659T246 619H159Q159 653 167 688T197 748T263 772Q291 772 311 763T346 742T374 721T400 712Q426 712 426 766H514Q514 732
506 697T476 637T409 613ZM279 540Q331 540 363 523T412 489T431 467H439V530H610V0H439V63H431Q429 59 413 41T364 7T279 -10Q221 -10 178 13T106 76T63 165T49 265Q49 316 63 365T106 453T178 516T279 540ZM333 403Q296 403 271 383T234 331T222 265Q222 231
234 200T271 148T333 127Q370 127 394 147T431 199T444 265Q444 299 432 330T395 382T333 403Z" />
<glyph unicode="&#xe4;" glyph-name="adieresis" horiz-adv-x="667" d="M452 585Q411 585 385 611T358 674Q358 713 384 739T452 765Q493 765 519 739T546 674Q546 638 520 612T452 585ZM214 585Q172 585 146 611T120 674Q120 713 146 739T214 765Q254 765 281
739T308 674Q308 638 281 612T214 585ZM279 540Q331 540 363 523T412 489T431 467H439V530H610V0H439V63H431Q429 59 413 41T364 7T279 -10Q221 -10 178 13T106 76T63 165T49 265Q49 316 63 365T106 453T178 516T279 540ZM333 403Q296 403 271 383T234 331T222
265Q222 231 234 200T271 148T333 127Q370 127 394 147T431 199T444 265Q444 299 432 330T395 382T333 403Z" />
<glyph unicode="&#xe5;" glyph-name="aring" horiz-adv-x="667" d="M333 583Q295 583 264 601T214 651T195 721Q195 759 213 790T263 840T333 859Q372 859 403 841T453 791T472 721Q472 683 453 652T403 602T333 583ZM333 668Q355 668 370 683T386 721Q386 743
371 758T333 773Q311 773 296 758T280 721Q280 699 295 684T333 668ZM279 540Q331 540 363 523T412 489T431 467H439V530H610V0H439V63H431Q429 59 413 41T364 7T279 -10Q221 -10 178 13T106 76T63 165T49 265Q49 316 63 365T106 453T178 516T279 540ZM333 403Q296
403 271 383T234 331T222 265Q222 231 234 200T271 148T333 127Q370 127 394 147T431 199T444 265Q444 299 432 330T395 382T333 403Z" />
<glyph unicode="&#xe6;" glyph-name="ae" horiz-adv-x="953" d="M234 -10Q148 -10 94 32T40 152Q40 226 94 269T260 315L377 318V337Q377 370 358 391T297 413Q269 413 253 404T229 384T218 364T215 355H54Q54 355 58 374T75 420T113 475T182 521T290 540Q355
540 393 523T449 488T469 463H473Q475 468 494 487T552 523T652 540Q724 540 781 509T872 416T905 260V220H545Q548 180 576 149T655 118Q693 118 713 132T740 160T748 174H902Q902 174 897 156T878 110T836 55T765 9T655 -10Q597 -10 556 4T490 39T452 75T438
94H433Q433 94 424 79T392 42T331 6T234 -10ZM545 319H745Q743 369 716 392T645 416Q606 416 577 392T545 319ZM279 103Q323 103 350 130T377 200V218L278 214Q239 213 222 198T204 159Q204 133 225 118T279 103Z" />
<glyph unicode="&#xe7;" glyph-name="ccedilla" horiz-adv-x="632" d="M310 -263Q290 -263 271 -261T238 -257T224 -255V-170Q224 -170 237 -171T267 -174T301 -176Q344 -176 358 -164T373 -138Q373 -125 363 -117T335 -109Q313 -109 297 -118T280 -128L222 -68L266
-5Q192 8 143 49T71 147T47 265Q47 317 64 366T115 454T203 516T328 540Q401 540 448 519T524 467T565 405T581 353T585 332H427Q427 332 424 343T412 369T383 395T332 406Q275 406 246 365T217 265Q217 207 246 166T332 124Q364 124 383 135T411 161T424 187T427
198H585Q585 198 582 180T568 133T534 74T470 22T369 -8L349 -35Q358 -34 368 -34Q417 -34 446 -64T475 -139Q475 -171 458 -199T403 -245T310 -263Z" />
<glyph unicode="&#xe8;" glyph-name="egrave" horiz-adv-x="621" d="M259 602L147 782H303L382 603L259 602ZM324 -10Q253 -10 201 13T114 76T64 165T47 266Q47 316 63 365T112 453T196 516T318 540Q394 540 452 508T542 413T574 261V221H219Q222 180 248 150T324
119Q361 119 380 132T407 160T414 174H571Q571 174 566 156T547 110T506 55T434 9T324 -10ZM218 320H411Q409 367 383 391T315 415Q277 415 250 391T218 320Z" />
<glyph unicode="&#xe9;" glyph-name="eacute" horiz-adv-x="621" d="M381 602L258 603L337 782H493L381 602ZM324 -10Q253 -10 201 13T114 76T64 165T47 266Q47 316 63 365T112 453T196 516T318 540Q394 540 452 508T542 413T574 261V221H219Q222 180 248 150T324
119Q361 119 380 132T407 160T414 174H571Q571 174 566 156T547 110T506 55T434 9T324 -10ZM218 320H411Q409 367 383 391T315 415Q277 415 250 391T218 320Z" />
<glyph unicode="&#xea;" glyph-name="ecircumflex" horiz-adv-x="621" d="M120 593L252 778H386L518 593H388L319 696L250 593H120ZM324 -10Q253 -10 201 13T114 76T64 165T47 266Q47 316 63 365T112 453T196 516T318 540Q394 540 452 508T542 413T574 261V221H219Q222
180 248 150T324 119Q361 119 380 132T407 160T414 174H571Q571 174 566 156T547 110T506 55T434 9T324 -10ZM218 320H411Q409 367 383 391T315 415Q277 415 250 391T218 320Z" />
<glyph unicode="&#xeb;" glyph-name="edieresis" horiz-adv-x="621" d="M437 585Q396 585 370 611T343 675Q343 713 369 739T437 766Q478 766 505 740T532 675Q532 638 505 612T437 585ZM199 585Q157 585 131 611T104 675Q104 713 130 739T199 766Q239 766 266
740T293 675Q293 638 266 612T199 585ZM324 -10Q253 -10 201 13T114 76T64 165T47 266Q47 316 63 365T112 453T196 516T318 540Q394 540 452 508T542 413T574 261V221H219Q222 180 248 150T324 119Q361 119 380 132T407 160T414 174H571Q571 174 566 156T547 110T506
55T434 9T324 -10ZM218 320H411Q409 367 383 391T315 415Q277 415 250 391T218 320Z" />
<glyph unicode="&#xec;" glyph-name="igrave" horiz-adv-x="311" d="M96 601L-15 781H140L219 602L96 601ZM70 0V530H241V0H70Z" />
<glyph unicode="&#xed;" glyph-name="iacute" horiz-adv-x="311" d="M218 601L95 602L174 781H330L218 601ZM70 0V530H241V0H70Z" />
<glyph unicode="&#xee;" glyph-name="icircumflex" horiz-adv-x="311" d="M-43 592L89 777H223L355 592H225L156 695L87 592H-43ZM70 0V530H241V0H70Z" />
<glyph unicode="&#xef;" glyph-name="idieresis" horiz-adv-x="311" d="M275 584Q233 584 207 611T180 675Q180 712 206 738T275 765Q315 765 342 739T369 675Q369 638 342 611T275 584ZM36 584Q-6 584 -32 611T-58 675Q-58 712 -32 738T36 765Q76 765 103 739T130
675Q130 638 103 611T36 584ZM70 0V530H241V0H70Z" />
<glyph unicode="&#xf0;" glyph-name="eth" horiz-adv-x="666" d="M332 -10Q259 -10 206 13T117 76T65 165T48 265Q48 314 63 360T109 444T184 503T287 525Q323 525 350 517T397 496Q372 532 340 563T273 621L162 555L109 648L174 686Q136 709 111 720T86 732L141
846Q141 846 164 838T225 812T309 766L433 839L488 747L407 699Q461 656 509 599T588 469T618 307Q618 216 587 145T492 32T332 -10ZM333 127Q371 127 395 147T432 199T444 265Q444 299 432 330T395 382T333 403Q295 403 270 383T233 331T221 265Q221 231 233 200T270
148T333 127Z" />
<glyph unicode="&#xf1;" glyph-name="ntilde" horiz-adv-x="616" d="M386 613Q359 613 339 622T304 643T277 664T250 673Q235 673 229 659T223 619H136Q136 653 144 688T174 748T240 772Q267 772 287 763T323 742T351 721T377 712Q403 712 403 766H490Q490 732
482 697T452 637T386 613ZM61 0V530H232V455H237Q247 471 264 491T311 525T385 540Q449 540 487 511T543 438T560 346V0H389V314Q389 348 371 374T312 401Q267 401 250 372T232 307V0H61Z" />
<glyph unicode="&#xf2;" glyph-name="ograve" horiz-adv-x="660" d="M271 601L159 782H314L393 602L271 601ZM330 -10Q240 -10 177 28T80 129T47 265Q47 338 80 401T176 502T330 540Q420 540 483 502T580 401T613 265Q613 192 580 129T484 28T330 -10ZM330 128Q383
128 412 168T442 265Q442 321 413 361T330 402Q277 402 248 362T218 265Q218 209 247 169T330 128Z" />
<glyph unicode="&#xf3;" glyph-name="oacute" horiz-adv-x="660" d="M392 601L270 602L348 782H504L392 601ZM330 -10Q240 -10 177 28T80 129T47 265Q47 338 80 401T176 502T330 540Q420 540 483 502T580 401T613 265Q613 192 580 129T484 28T330 -10ZM330 128Q383
128 412 168T442 265Q442 321 413 361T330 402Q277 402 248 362T218 265Q218 209 247 169T330 128Z" />
<glyph unicode="&#xf4;" glyph-name="ocircumflex" horiz-adv-x="660" d="M131 593L263 777H397L529 593H399L331 696L261 593H131ZM330 -10Q240 -10 177 28T80 129T47 265Q47 338 80 401T176 502T330 540Q420 540 483 502T580 401T613 265Q613 192 580 129T484
28T330 -10ZM330 128Q383 128 412 168T442 265Q442 321 413 361T330 402Q277 402 248 362T218 265Q218 209 247 169T330 128Z" />
<glyph unicode="&#xf5;" glyph-name="otilde" horiz-adv-x="660" d="M406 613Q379 613 359 622T324 643T296 664T270 674Q254 674 248 660T242 619H155Q155 653 163 688T193 748T260 772Q287 772 307 763T342 742T371 721T397 712Q423 712 423 766H510Q510 733
502 698T472 638T406 613ZM330 -10Q240 -10 177 28T80 129T47 265Q47 338 80 401T176 502T330 540Q420 540 483 502T580 401T613 265Q613 192 580 129T484 28T330 -10ZM330 128Q383 128 412 168T442 265Q442 321 413 361T330 402Q277 402 248 362T218 265Q218 209
247 169T330 128Z" />
<glyph unicode="&#xf6;" glyph-name="odieresis" horiz-adv-x="660" d="M449 584Q407 584 381 611T355 675Q355 713 381 739T449 765Q489 765 516 739T543 675Q543 638 516 611T449 584ZM210 584Q169 584 143 611T116 675Q116 713 142 739T210 765Q251 765 277
739T304 675Q304 638 278 611T210 584ZM330 -10Q240 -10 177 28T80 129T47 265Q47 338 80 401T176 502T330 540Q420 540 483 502T580 401T613 265Q613 192 580 129T484 28T330 -10ZM330 128Q383 128 412 168T442 265Q442 321 413 361T330 402Q277 402 248 362T218
265Q218 209 247 169T330 128Z" />
<glyph unicode="&#xf7;" glyph-name="divide" horiz-adv-x="731" d="M368 457Q327 457 301 484T275 549Q275 587 301 614T368 641Q407 641 433 614T460 549Q460 511 434 484T368 457ZM116 279V399H616V279H116ZM368 36Q327 36 301 63T275 128Q275 167 301 194T368
221Q407 221 433 194T460 128Q460 91 434 64T368 36Z" />
<glyph unicode="&#xf8;" glyph-name="oslash" horiz-adv-x="663" d="M94 -39L146 51Q98 89 73 145T48 265Q48 338 81 401T178 502T331 540Q378 540 420 529L443 569H559L511 484Q561 446 588 389T615 265Q615 192 582 129T485 28T331 -10Q280 -10 235 4L210 -39H94ZM219
265Q219 230 231 200L346 401Q339 402 331 402Q279 402 249 362T219 265ZM331 128Q384 128 413 168T443 265Q443 307 427 339L308 131Q319 128 331 128Z" />
<glyph unicode="&#xf9;" glyph-name="ugrave" horiz-adv-x="605" d="M245 601L133 781H289L367 602L245 601ZM224 -10Q166 -10 131 14T78 79T61 169V530H230V207Q230 173 248 151T302 129Q343 129 360 156T378 219V530H549V0H378V75H372Q352 40 316 15T224 -10Z" />
<glyph unicode="&#xfa;" glyph-name="uacute" horiz-adv-x="605" d="M366 601L244 602L323 781H478L366 601ZM224 -10Q166 -10 131 14T78 79T61 169V530H230V207Q230 173 248 151T302 129Q343 129 360 156T378 219V530H549V0H378V75H372Q352 40 316 15T224 -10Z" />
<glyph unicode="&#xfb;" glyph-name="ucircumflex" horiz-adv-x="605" d="M105 592L238 777H371L504 592H374L305 695L235 592H105ZM224 -10Q166 -10 131 14T78 79T61 169V530H230V207Q230 173 248 151T302 129Q343 129 360 156T378 219V530H549V0H378V75H372Q352
40 316 15T224 -10Z" />
<glyph unicode="&#xfc;" glyph-name="udieresis" horiz-adv-x="605" d="M423 584Q382 584 356 611T329 675Q329 712 355 738T423 765Q464 765 490 739T517 675Q517 638 491 611T423 584ZM184 584Q143 584 117 611T90 675Q90 712 116 738T184 765Q225 765 251 739T278
675Q278 638 252 611T184 584ZM224 -10Q166 -10 131 14T78 79T61 169V530H230V207Q230 173 248 151T302 129Q343 129 360 156T378 219V530H549V0H378V75H372Q352 40 316 15T224 -10Z" />
<glyph unicode="&#xfd;" glyph-name="yacute" horiz-adv-x="601" d="M366 601L243 602L322 781H478L366 601ZM105 -195Q77 -195 61 -193T44 -191V-55Q44 -55 57 -56T90 -57Q134 -57 163 -47T213 -4L20 530H191L303 190L412 530H582L398 28Q371 -47 335 -96T243
-170T105 -195Z" />
<glyph unicode="&#xfe;" glyph-name="thorn" horiz-adv-x="673" d="M64 -195V760H235V467H243Q245 471 261 489T310 523T394 540Q453 540 496 517T567 454T610 365T625 265Q625 214 611 165T568 77T496 14T394 -10Q343 -10 310 7T261 41T243 63H235V-195H64ZM230
265Q230 231 242 200T279 148T341 127Q378 127 403 147T440 199T452 265Q452 299 440 330T403 382T341 403Q304 403 279 383T242 331T230 265Z" />
<glyph unicode="&#xff;" glyph-name="ydieresis" horiz-adv-x="601" d="M422 584Q381 584 355 611T328 675Q328 712 354 738T422 765Q463 765 490 739T517 675Q517 638 490 611T422 584ZM184 584Q142 584 116 611T89 675Q89 712 115 738T184 765Q224 765 251 739T278
675Q278 638 251 611T184 584ZM105 -195Q77 -195 61 -193T44 -191V-55Q44 -55 57 -56T90 -57Q134 -57 163 -47T213 -4L20 530H191L303 190L412 530H582L398 28Q371 -47 335 -96T243 -170T105 -195Z" />
<glyph unicode="&#x2013;" glyph-name="endash" horiz-adv-x="711" d="M115 245V379H595V245H115Z" />
<glyph unicode="&#x2014;" glyph-name="emdash" horiz-adv-x="869" d="M115 245V379H753V245H115Z" />
<glyph unicode="&#x2018;" glyph-name="quoteleft" horiz-adv-x="253" d="M218 740L132 597Q170 595 194 569T219 506Q219 467 193 441T125 414Q84 414 56 440T28 511Q28 535 39 563T77 631T145 729L152 740H218Z" />
<glyph unicode="&#x2019;" glyph-name="quoteright" horiz-adv-x="239" d="M29 424L115 566Q77 569 53 595T29 658Q29 697 55 723T123 750Q164 750 191 724T219 653Q219 629 208 601T171 532T103 435L95 424H29Z" />
<glyph unicode="&#x201a;" glyph-name="quotesinglbase" horiz-adv-x="307" d="M87 -152L173 -9Q135 -7 111 19T86 83Q86 121 112 147T180 174Q221 174 249 148T277 77Q277 54 266 26T228 -43T160 -141L153 -152H87Z" />
<glyph unicode="&#x201c;" glyph-name="quotedblleft" horiz-adv-x="469" d="M205 740L119 597Q157 595 181 569T205 506Q205 467 179 441T112 414Q71 414 43 440T15 511Q15 535 26 563T64 631T131 729L139 740H205ZM436 740L350 597Q388 595 412 569T436 506Q436
467 410 441T342 414Q301 414 274 440T246 511Q246 535 257 563T294 631T362 729L370 740H436Z" />
<glyph unicode="&#x201d;" glyph-name="quotedblright" horiz-adv-x="473" d="M264 424L350 566Q312 569 288 595T264 658Q264 697 290 723T358 750Q399 750 426 724T454 653Q454 629 443 601T406 532T338 435L330 424H264ZM33 424L119 566Q81 569 57 595T33 658Q33
697 59 723T127 750Q168 750 195 724T223 653Q223 629 212 601T175 532T107 435L99 424H33Z" />
<glyph unicode="&#x201e;" glyph-name="quotedblbase" horiz-adv-x="591" d="M318 -152L404 -9Q366 -7 342 19T317 83Q317 121 343 147T411 174Q452 174 480 148T508 77Q508 54 497 26T459 -43T391 -141L384 -152H318ZM87 -152L173 -9Q135 -7 111 19T87 83Q87
121 113 147T180 174Q221 174 249 148T277 77Q277 54 266 26T228 -43T161 -141L153 -152H87Z" />
<glyph unicode="&#x2022;" glyph-name="bullet" horiz-adv-x="575" d="M287 187Q237 187 198 210T138 273T116 359Q116 407 137 446T198 508T287 531Q337 531 375 508T436 446T459 359Q459 312 437 273T376 211T287 187Z" />
<glyph unicode="&#x2039;" glyph-name="guilsinglleft" horiz-adv-x="461" d="M425 529L213 308L425 85H248L32 307L248 529H425Z" />
<glyph unicode="&#x203a;" glyph-name="guilsinglright" horiz-adv-x="461" d="M36 85L248 306L36 529H212L429 307L212 85H36Z" />
</font>
</defs>
</svg>
