<?xml version="1.0" standalone="no"?>
<!DOCTYPE svg PUBLIC "-//W3C//DTD SVG 1.1//EN" "http://www.w3.org/Graphics/SVG/1.1/DTD/svg11.dtd">
<svg xmlns="http://www.w3.org/2000/svg">
<defs >
<font id="BeVietnamPro" horiz-adv-x="625" ><font-face
    font-family="Be Vietnam Pro Black"
    units-per-em="1000"
    panose-1="0 0 0 0 0 0 0 0 0 0"
    ascent="1000"
    descent="-265"
    alphabetic="0" />
<glyph unicode=" " glyph-name="space" horiz-adv-x="230" />
<glyph unicode="!" glyph-name="exclam" horiz-adv-x="381" d="M112 237L85 740H296L265 237H112ZM190 -9Q148 -9 122 18T96 85Q96 124 122 151T190 179Q230 179 257 152T284 85Q284 46 257 19T190 -9Z" />
<glyph unicode="&quot;" glyph-name="quotedbl" horiz-adv-x="440" d="M249 502L259 740H410L349 502H249ZM60 502L70 740H221L160 502H60Z" />
<glyph unicode="#" glyph-name="numbersign" horiz-adv-x="871" d="M147 0L178 156H45L77 308H209L234 433H104L136 585H265L296 740H448L417 585H542L573 740H725L694 585H826L794 433H663L638 308H767L735 156H607L576 0H424L455 156H330L299 0H147ZM361 308H486L511
433H386L361 308Z" />
<glyph unicode="$" glyph-name="dollar" horiz-adv-x="652" d="M298 -94V-10Q232 -5 187 14T112 62T66 120T42 178T32 221T30 238H208Q208 238 210 226T221 195T248 161T298 137V309L289 311Q254 319 213 331T135 366T74 427T50 524Q50 590 82 638T171 715T298
749V832H378V748Q446 741 490 716T560 659T598 595T615 544T619 523H445Q445 523 441 538T423 573T378 604V446L395 442Q427 435 466 423T542 387T602 324T626 224Q626 128 560 65T378 -9V-94H298ZM222 533Q222 507 240 492T298 465V609Q262 603 242 582T222 533ZM452
219Q452 247 433 263T378 290V138Q413 146 432 168T452 219Z" />
<glyph unicode="%" glyph-name="percent" horiz-adv-x="885" d="M222 411Q163 411 124 436T65 500T45 581Q45 623 64 662T123 725T222 750Q281 750 320 726T378 662T398 581Q398 539 379 500T320 436T222 411ZM156 0L588 740H729L297 0H156ZM221 514Q253 514 268
534T284 580Q284 605 269 625T221 646Q190 646 174 626T158 580Q158 555 174 535T221 514ZM664 -10Q605 -10 566 15T507 78T487 160Q487 202 506 241T565 304T664 329Q723 329 762 305T820 241T840 160Q840 117 821 79T762 15T664 -10ZM663 93Q695 93 710 113T726
159Q726 184 711 204T663 225Q632 225 616 205T600 159Q600 134 616 114T663 93Z" />
<glyph unicode="&amp;" glyph-name="ampersand" horiz-adv-x="778" d="M309 -10Q232 -10 170 17T72 96T36 219Q36 283 66 329T160 413Q140 439 123 475T106 560Q106 623 137 665T217 729T319 750Q372 750 419 730T496 671T526 575Q526 529 508 495T460 436T394
390L493 285Q500 313 504 346T509 418H656Q656 340 643 278T605 167L760 2H530L494 41Q454 15 407 3T309 -10ZM259 567Q259 544 272 523T304 482Q331 495 352 515T374 570Q374 598 356 612T317 627Q296 627 278 612T259 567ZM206 232Q206 195 234 164T319 133Q360
133 395 151L250 312Q229 295 218 276T206 232Z" />
<glyph unicode="&apos;" glyph-name="quotesingle" horiz-adv-x="251" d="M60 502L70 740H221L160 502H60Z" />
<glyph unicode="(" glyph-name="parenleft" horiz-adv-x="463" d="M432 -241Q336 -232 262 -186T135 -65T57 101T30 293Q30 393 56 485T135 651T261 771T432 827V656Q390 650 353 619T286 537T239 424T222 293Q222 225 239 163T285 50T352 -32T432 -70V-241Z" />
<glyph unicode=")" glyph-name="parenright" horiz-adv-x="463" d="M31 827Q127 818 201 772T328 651T406 485T433 293Q433 193 407 101T328 -65T202 -185T31 -241V-70Q73 -64 110 -33T177 49T224 162T241 293Q241 361 224 423T178 536T111 618T31 656V827Z" />
<glyph unicode="*" glyph-name="asterisk" horiz-adv-x="524" d="M189 317L85 393L163 496L40 532L79 655L201 611L197 740H326L322 611L444 655L484 532L360 496L439 393L334 317L262 423L189 317Z" />
<glyph unicode="+" glyph-name="plus" horiz-adv-x="681" d="M115 238V385H267V537H414V385H566V238H414V86H267V238H115Z" />
<glyph unicode="," glyph-name="comma" horiz-adv-x="375" d="M89 -159L178 -10Q137 -7 111 21T85 89Q85 130 113 159T186 188Q230 188 260 160T290 83Q290 58 278 28T239 -44T167 -148L159 -159H89Z" />
<glyph unicode="-" glyph-name="hyphen" horiz-adv-x="606" d="M115 238V385H491V238H115Z" />
<glyph unicode="." glyph-name="period" horiz-adv-x="368" d="M184 -10Q141 -10 113 19T85 89Q85 130 113 159T184 188Q227 188 255 159T283 89Q283 49 255 20T184 -10Z" />
<glyph unicode="/" glyph-name="slash" horiz-adv-x="566" d="M30 -201L379 833H546L197 -201H30Z" />
<glyph unicode="0" glyph-name="zero" horiz-adv-x="716" d="M358 -10Q280 -10 220 19T117 101T52 222T30 370Q30 449 52 518T116 639T219 720T358 750Q436 750 496 721T599 639T664 518T686 370Q686 291 664 222T600 101T497 20T358 -10ZM358 158Q415 158 451
211T488 370Q488 477 452 529T358 581Q301 581 265 529T228 370Q228 264 264 211T358 158Z" />
<glyph unicode="1" glyph-name="one" horiz-adv-x="461" d="M381 740V0H189V500H44V618L65 624Q135 642 178 667T262 733L269 740H381Z" />
<glyph unicode="2" glyph-name="two" horiz-adv-x="673" d="M43 0V131L148 213Q236 282 296 329T388 414T419 495Q419 540 389 562T323 585Q285 585 255 559T224 478H40Q40 547 64 598T129 683T222 733T330 750Q409 750 472 720T573 636T611 509Q611 441 578 385T483
277T335 165H618V0H43Z" />
<glyph unicode="3" glyph-name="three" horiz-adv-x="694" d="M351 -10Q274 -10 222 7T137 52T87 110T63 168T55 212T54 230H235Q235 230 236 218T247 189T280 160T348 147Q396 147 423 169T451 223Q451 253 427 276T351 300H251V447H353Q397 447 419 469T442
520Q442 550 417 572T348 594Q309 594 288 581T258 549T247 518T245 504H68Q68 504 69 522T77 568T100 627T148 686T228 732T350 750Q404 750 454 736T544 695T607 629T631 539Q631 491 611 458T562 405T511 378V371Q544 359 574 339T624 287T643 210Q643 140 603
91T496 16T351 -10Z" />
<glyph unicode="4" glyph-name="four" horiz-adv-x="726" d="M389 0V137L34 138V302L343 740H581V297H686V137H581V0H389ZM219 297H389V540L219 297Z" />
<glyph unicode="5" glyph-name="five" horiz-adv-x="696" d="M352 -10Q269 -10 204 19T100 103T60 233H238Q238 233 241 220T256 188T288 157T347 143Q403 143 430 176T458 249Q458 289 431 322T349 355Q313 355 293 342T264 314T256 300H66L136 740H597V574H262L239
434H244Q244 434 251 443T276 464T323 486T396 495Q476 495 532 461T617 371T646 253Q646 205 628 158T573 73T481 13T352 -10Z" />
<glyph unicode="6" glyph-name="six" horiz-adv-x="713" d="M368 -10Q287 -10 227 17T128 92T70 200T50 327Q50 402 75 477T153 613T286 712T478 750Q520 750 550 746T581 742V573Q581 573 565 575T526 579T480 581Q389 581 326 538T251 410Q262 427 283 447T339
480T424 494Q503 494 556 460T636 372T663 258Q663 209 645 162T590 75T498 13T368 -10ZM370 146Q423 146 449 178T476 251Q476 290 450 322T370 355Q318 355 291 323T264 251Q264 211 291 179T370 146Z" />
<glyph unicode="7" glyph-name="seven" horiz-adv-x="600" d="M137 0Q143 111 169 204T233 369T306 493T369 574H23V740H580V605Q580 605 557 579T498 502T426 378T363 210T331 0H137Z" />
<glyph unicode="8" glyph-name="eight" horiz-adv-x="690" d="M344 -10Q287 -10 235 3T140 42T74 108T49 202Q49 253 69 287T116 341T164 369T186 378V385Q185 385 167 393T126 419T84 467T66 543Q66 608 104 654T206 725T344 750Q419 750 482 725T584 655T622
545Q622 499 604 469T563 420T521 393T502 385V378Q503 378 524 370T571 341T618 287T639 202Q639 148 615 109T548 43T454 3T344 -10ZM344 447Q380 447 411 467T442 527Q442 566 412 586T344 606Q308 606 278 586T247 526Q247 486 277 467T344 447ZM344 138Q399
138 427 165T455 225Q455 257 427 284T344 311Q289 311 261 284T233 225Q233 193 261 166T344 138Z" />
<glyph unicode="9" glyph-name="nine" horiz-adv-x="713" d="M345 750Q426 750 486 723T585 648T643 540T663 413Q663 338 638 263T560 127T427 28T235 -10Q193 -10 163 -6T132 -2V167Q132 167 148 165T187 161T233 159Q324 159 387 202T462 330Q451 313 430 293T374
260T289 246Q211 246 158 280T77 368T50 482Q50 531 68 578T123 665T215 727T345 750ZM343 594Q290 594 264 562T237 489Q237 450 263 418T343 385Q396 385 422 417T449 489Q449 529 423 561T343 594Z" />
<glyph unicode=":" glyph-name="colon" horiz-adv-x="368" d="M184 342Q141 342 113 371T85 441Q85 482 113 511T184 540Q227 540 255 511T283 441Q283 401 255 372T184 342ZM184 -10Q141 -10 113 19T85 89Q85 130 113 159T184 188Q227 188 255 159T283 89Q283
49 255 20T184 -10Z" />
<glyph unicode=";" glyph-name="semicolon" horiz-adv-x="375" d="M188 342Q145 342 117 371T89 441Q89 482 117 511T188 540Q231 540 259 511T287 441Q287 401 259 372T188 342ZM89 -159L178 -10Q137 -7 111 21T85 89Q85 130 113 159T186 188Q230 188 260 160T290
83Q290 58 278 28T239 -44T167 -148L159 -159H89Z" />
<glyph unicode="&lt;" glyph-name="less" horiz-adv-x="585" d="M515 98L70 287V396L515 585V433L274 343L515 250V98Z" />
<glyph unicode="=" glyph-name="equal" horiz-adv-x="770" d="M115 339V492H655V339H115ZM115 108V261H655V108H115Z" />
<glyph unicode="&gt;" glyph-name="greater" horiz-adv-x="585" d="M70 98V250L311 343L70 433V585L515 396V287L70 98Z" />
<glyph unicode="?" glyph-name="question" horiz-adv-x="653" d="M233 233V264Q233 307 250 337T293 391T344 433T386 472T404 518Q404 546 382 566T323 586Q288 586 262 563T236 490H54Q54 579 93 636T196 722T330 750Q404 750 464 722T561 642T597 523Q597 474
580 440T536 382T484 340T440 304T422 264V233H233ZM327 -10Q285 -10 259 17T233 84Q233 123 259 150T327 178Q367 178 394 151T421 84Q421 45 394 18T327 -10Z" />
<glyph unicode="@" glyph-name="at" horiz-adv-x="1027" d="M528 -190Q402 -190 308 -151T153 -44T61 107T30 279Q30 369 61 455T155 610T310 719T524 760Q620 760 705 730T856 643T959 505T997 320Q997 245 975 185T906 88T785 52Q741 52 711 63T662 89T635 115T626
127H616Q616 127 609 116T585 90T541 64T473 52Q408 52 365 84T301 168T280 275Q280 330 300 379T362 460T468 492Q512 492 538 480T575 454T587 441H593V484H744V318Q744 242 758 209T802 175Q833 175 847 208T861 299Q861 388 833 451T756 554T647 612T524 631Q437
631 372 601T263 521T197 409T175 281Q175 217 196 156T261 47T371 -30T525 -59Q591 -59 643 -46T726 -20T757 -7L805 -128Q805 -128 787 -137T732 -159T645 -180T528 -190ZM516 175Q557 175 577 205T598 272Q598 309 578 339T516 369Q476 369 455 339T434 272Q434
236 455 206T516 175Z" />
<glyph unicode="A" glyph-name="A" horiz-adv-x="791" d="M20 0L266 740H525L771 0H571L532 124H259L220 0H20ZM310 288H481L396 561L310 288Z" />
<glyph unicode="B" glyph-name="B" horiz-adv-x="733" d="M60 0V740H440Q513 740 562 716T636 651T661 559Q661 492 626 454T546 402V393Q575 387 609 367T668 310T693 212Q693 159 668 111T590 31T448 0H60ZM400 581H252V452H400Q438 452 457 469T476 517Q476
546 457 563T400 581ZM414 309H252V159H414Q458 159 479 180T500 235Q500 269 479 289T414 309Z" />
<glyph unicode="C" glyph-name="C" horiz-adv-x="783" d="M408 -10Q314 -10 243 22T125 109T54 232T30 371Q30 442 54 509T125 631T243 717T408 750Q488 750 545 730T640 679T700 612T734 545T749 493T753 473H563Q563 473 558 489T538 526T492 564T410 580Q350
580 310 550T249 471T229 371Q229 319 249 271T309 192T410 161Q461 161 492 177T538 214T558 251T563 267H753Q753 267 750 247T735 196T701 129T640 62T545 10T408 -10Z" />
<glyph unicode="D" glyph-name="D" horiz-adv-x="766" d="M60 0V740H366Q458 740 527 709T643 624T713 505T736 370Q736 301 713 235T644 116T528 32T366 0H60ZM357 572H252V171H357Q422 171 463 200T523 276T543 372Q543 422 524 467T463 542T357 572Z" />
<glyph unicode="E" glyph-name="E" horiz-adv-x="656" d="M60 0V740H596V574H252V454H551V296H252V166H601V0H60Z" />
<glyph unicode="F" glyph-name="F" horiz-adv-x="651" d="M60 0V740H596V574H252V414H551V255H252V0H60Z" />
<glyph unicode="G" glyph-name="G" horiz-adv-x="795" d="M414 -10Q318 -10 246 22T126 108T54 230T30 369Q30 440 54 508T127 630T249 717T419 750Q496 750 551 731T644 682T703 617T737 553T753 503T757 484H567Q567 484 562 499T541 533T496 567T419 582Q356
582 314 552T250 473T228 372Q228 319 250 270T315 189T423 157Q486 157 523 185T573 261H400V409H764V348Q764 231 719 151T596 31T414 -10Z" />
<glyph unicode="H" glyph-name="H" horiz-adv-x="748" d="M60 0V740H252V462H496V740H688V0H496V298H252V0H60Z" />
<glyph unicode="I" glyph-name="I" horiz-adv-x="312" d="M60 0V740H252V0H60Z" />
<glyph unicode="J" glyph-name="J" horiz-adv-x="508" d="M158 -10Q108 -10 74 -5T40 0V157Q40 157 64 155T119 152Q183 152 220 182T258 291V740H448V286Q448 228 433 175T385 80T295 14T158 -10Z" />
<glyph unicode="K" glyph-name="K" horiz-adv-x="740" d="M60 0V740H252V444L479 740H711L426 387L720 0H479L252 309V0H60Z" />
<glyph unicode="L" glyph-name="L" horiz-adv-x="656" d="M60 0V740H252V166H601V0H60Z" />
<glyph unicode="M" glyph-name="M" horiz-adv-x="912" d="M60 0V740H320L457 402L602 740H852V0H662V441L544 162H368L250 443V0H60Z" />
<glyph unicode="N" glyph-name="N" horiz-adv-x="760" d="M60 0V740H237L510 329V740H700V0H521L250 390V0H60Z" />
<glyph unicode="O" glyph-name="O" horiz-adv-x="830" d="M415 -10Q319 -10 247 22T127 109T55 232T30 371Q30 442 54 509T127 631T247 717T415 750Q511 750 583 718T703 631T776 510T800 371Q800 300 776 232T704 110T583 23T415 -10ZM415 161Q477 161 518 191T579
270T600 371Q600 423 580 471T518 549T415 580Q354 580 313 550T252 471T231 371Q231 319 251 271T313 192T415 161Z" />
<glyph unicode="P" glyph-name="P" horiz-adv-x="702" d="M60 0V740H393Q488 740 551 704T645 610T677 490Q677 427 646 370T551 276T393 239H252V0H60ZM392 573H252V405H392Q438 405 460 431T483 489Q483 521 461 547T392 573Z" />
<glyph unicode="Q" glyph-name="Q" horiz-adv-x="829" d="M415 -10Q319 -10 247 22T127 109T55 232T30 371Q30 442 54 509T127 631T247 717T415 750Q511 750 583 718T703 631T776 510T800 371Q800 302 778 236T710 117L809 0H618L594 28Q556 10 512 0T415 -10ZM415
161Q445 161 472 169L363 296L481 390L580 272Q600 318 600 371Q600 423 580 471T518 549T415 580Q354 580 313 550T252 471T231 371Q231 319 251 271T313 192T415 161Z" />
<glyph unicode="R" glyph-name="R" horiz-adv-x="741" d="M60 0V740H386Q469 740 532 713T630 634T665 504Q665 429 631 377T536 297L680 0H469L344 268H252V0H60ZM383 575H252V421H383Q423 421 448 441T473 498Q473 536 448 555T383 575Z" />
<glyph unicode="S" glyph-name="S" horiz-adv-x="687" d="M355 -10Q278 -10 224 8T134 54T77 114T46 174T33 220T30 238H224Q224 238 228 224T245 192T287 159T363 145Q422 145 445 167T469 216Q469 240 452 254T391 276L292 292Q228 303 171 327T79 396T43 514Q43
584 78 637T180 720T337 750Q408 750 458 734T541 691T594 635T624 580T637 537T640 520H451Q451 520 448 531T432 557T397 583T333 595Q295 595 273 584T241 557T231 525Q231 496 258 483T326 462L430 445Q492 435 544 410T629 340T661 228Q661 159 625 105T521
21T355 -10Z" />
<glyph unicode="T" glyph-name="T" horiz-adv-x="710" d="M259 0V574H35V740H675V574H451V0H259Z" />
<glyph unicode="U" glyph-name="U" horiz-adv-x="746" d="M373 -10Q316 -10 260 6T159 58T87 153T60 300V740H252V300Q252 246 281 208T373 170Q436 170 465 208T494 300V740H686V300Q686 213 659 154T587 58T486 6T373 -10Z" />
<glyph unicode="V" glyph-name="V" horiz-adv-x="771" d="M256 0L10 740H210L386 178L561 740H761L515 0H256Z" />
<glyph unicode="W" glyph-name="W" horiz-adv-x="1091" d="M196 0L20 740H210L326 243L446 740H645L765 243L881 740H1071L895 0H642L546 406L449 0H196Z" />
<glyph unicode="X" glyph-name="X" horiz-adv-x="802" d="M45 0L267 370L46 740H274L400 511L528 740H756L531 370L757 0H528L400 230L274 0H45Z" />
<glyph unicode="Y" glyph-name="Y" horiz-adv-x="754" d="M281 0V247L20 740H230L377 444L523 740H734L473 247V0H281Z" />
<glyph unicode="Z" glyph-name="Z" horiz-adv-x="671" d="M39 0V133L378 573H39V740H631V608L290 168H631V0H39Z" />
<glyph unicode="[" glyph-name="bracketleft" horiz-adv-x="534" d="M60 -221V863H434V702H255V-60H434V-221H60Z" />
<glyph unicode="\" glyph-name="backslash" horiz-adv-x="561" d="M531 -201H364L15 833H182L531 -201Z" />
<glyph unicode="]" glyph-name="bracketright" horiz-adv-x="534" d="M474 863V-221H100V-60H279V702H100V863H474Z" />
<glyph unicode="^" glyph-name="asciicircum" horiz-adv-x="647" d="M115 551L250 740H397L532 551H391L324 653L256 551H115Z" />
<glyph unicode="_" glyph-name="underscore" horiz-adv-x="758" d="M115 -117V0H643V-117H115Z" />
<glyph unicode="`" glyph-name="grave" horiz-adv-x="346" d="M151 599L37 779H207L284 600L151 599Z" />
<glyph unicode="a" glyph-name="a" horiz-adv-x="668" d="M273 540Q312 540 340 530T385 506T411 483T420 472H428V530H618V0H428V58H420Q420 58 412 48T386 24T340 1T273 -10Q215 -10 173 13T102 76T59 165T45 265Q45 316 59 365T101 453T172 516T273 540ZM336
389Q303 389 281 371T248 324T237 265Q237 235 248 207T281 160T336 141Q369 141 391 159T424 206T435 265Q435 295 424 323T391 370T336 389Z" />
<glyph unicode="b" glyph-name="b" horiz-adv-x="678" d="M405 -10Q366 -10 338 0T293 24T267 47T258 58H250V0H60V760H250V472H258Q258 472 266 482T292 506T338 529T405 540Q463 540 505 517T576 454T619 365T633 265Q633 214 619 165T577 77T506 14T405 -10ZM342
141Q376 141 397 159T430 206T441 265Q441 295 430 323T398 370T342 389Q309 389 287 371T254 324T243 265Q243 235 254 207T287 160T342 141Z" />
<glyph unicode="c" glyph-name="c" horiz-adv-x="640" d="M331 -10Q258 -10 204 13T115 75T63 164T45 265Q45 317 62 366T115 454T204 517T331 540Q407 540 456 519T533 466T574 402T591 349T595 327H420Q420 327 418 337T407 360T382 383T337 393Q286 393 261
356T235 265Q235 212 260 175T337 137Q365 137 381 147T406 170T417 193T420 203H595Q595 203 592 182T575 129T533 65T456 12T331 -10Z" />
<glyph unicode="d" glyph-name="d" horiz-adv-x="678" d="M273 -10Q215 -10 173 13T102 76T59 165T45 265Q45 316 59 365T101 453T172 516T273 540Q312 540 340 530T385 506T411 483T420 472H428V760H618V0H428V58H420Q420 58 412 48T386 24T340 1T273 -10ZM336
141Q369 141 391 159T424 206T435 265Q435 295 424 323T391 370T336 389Q303 389 281 371T248 324T237 265Q237 235 248 207T281 160T336 141Z" />
<glyph unicode="e" glyph-name="e" horiz-adv-x="630" d="M329 -10Q256 -10 203 13T114 75T62 164T45 266Q45 316 61 365T112 453T198 516T323 540Q401 540 460 507T552 412T585 260V217H236Q239 183 262 157T329 131Q362 131 379 142T402 165T408 177H582Q582
177 577 158T558 112T516 56T443 9T329 -10ZM235 322H404Q403 363 380 383T319 404Q287 404 263 384T235 322Z" />
<glyph unicode="f" glyph-name="f" horiz-adv-x="424" d="M112 0V380H30V530H112V556Q112 583 120 619T149 690T212 747T321 770Q355 770 377 766T399 761V632Q399 632 390 633T372 634Q334 634 318 614T302 556V530H399V380H302V0H112Z" />
<glyph unicode="g" glyph-name="g" horiz-adv-x="670" d="M333 -214Q255 -214 205 -195T126 -149T84 -93T68 -46T64 -27H247Q247 -27 253 -38T276 -60T330 -71Q376 -71 403 -44T430 36V90H422Q407 65 372 41T277 16Q219 16 176 38T103 97T60 182T45 278Q45 327
59 374T103 458T175 518T277 540Q336 540 372 515T422 466H430V530H620V36Q620 -10 604 -54T553 -135T464 -192T333 -214ZM336 162Q370 162 392 179T426 223T437 278Q437 308 426 334T393 377T336 394Q303 394 281 378T247 335T235 278Q235 250 246 223T280 179T336
162Z" />
<glyph unicode="h" glyph-name="h" d="M60 0V760H250V455H255Q266 473 283 492T330 526T403 540Q468 540 505 511T559 437T575 347V0H385V309Q385 338 370 362T318 387Q279 387 265 362T250 309V0H60Z" />
<glyph unicode="i" glyph-name="i" horiz-adv-x="317" d="M158 583Q111 583 81 613T50 686Q50 730 80 760T158 790Q205 790 236 760T267 686Q267 644 236 614T158 583ZM63 0V530H253V0H63Z" />
<glyph unicode="j" glyph-name="j" horiz-adv-x="319" d="M160 583Q113 583 83 613T52 686Q52 730 82 760T160 790Q207 790 238 760T269 686Q269 644 238 614T160 583ZM38 -215Q4 -215 -18 -212T-40 -208V-70Q-40 -70 -31 -71T-11 -72Q36 -72 50 -51T65 8V530H255V2Q255
-26 249 -63T222 -135T157 -192T38 -215Z" />
<glyph unicode="k" glyph-name="k" horiz-adv-x="628" d="M60 0V760H250V327L401 530H607L421 288L618 0H401L250 224V0H60Z" />
<glyph unicode="l" glyph-name="l" horiz-adv-x="310" d="M60 0V760H250V0H60Z" />
<glyph unicode="m" glyph-name="m" horiz-adv-x="898" d="M50 0V530H240V461H246Q266 495 301 517T389 540Q449 540 483 513T532 448H535Q547 467 568 488T621 525T697 540Q751 540 784 516T832 457T848 385V0H658V324Q658 350 644 368T600 387Q571 387 558 369T544
324V0H354V324Q354 350 340 368T296 387Q267 387 254 369T240 324V0H50Z" />
<glyph unicode="n" glyph-name="n" horiz-adv-x="615" d="M50 0V530H240V455H245Q256 473 273 492T320 526T393 540Q458 540 495 511T549 437T565 347V0H375V309Q375 338 360 362T308 387Q269 387 255 362T240 309V0H50Z" />
<glyph unicode="o" glyph-name="o" horiz-adv-x="668" d="M334 -10Q243 -10 178 28T79 128T45 265Q45 339 79 401T178 502T334 540Q426 540 490 502T589 402T623 265Q623 191 589 129T491 28T334 -10ZM334 142Q380 142 406 177T433 265Q433 317 407 352T334 388Q288
388 262 353T235 265Q235 213 261 178T334 142Z" />
<glyph unicode="p" glyph-name="p" horiz-adv-x="678" d="M60 -195V530H250V472H258Q258 472 266 482T292 506T338 529T405 540Q463 540 505 517T576 454T619 365T633 265Q633 214 619 165T577 77T506 14T405 -10Q366 -10 338 0T293 24T267 47T258 58H250V-195H60ZM243
265Q243 235 254 207T287 160T342 141Q376 141 397 159T430 206T441 265Q441 295 430 323T398 370T342 389Q309 389 287 371T254 324T243 265Z" />
<glyph unicode="q" glyph-name="q" horiz-adv-x="678" d="M428 -195V58H420Q420 58 412 48T386 24T340 1T273 -10Q215 -10 173 13T102 76T59 165T45 265Q45 316 59 365T101 453T172 516T273 540Q312 540 340 530T385 506T411 483T420 472H428V530H618V-195H428ZM336
141Q369 141 391 159T424 206T435 265Q435 295 424 323T391 370T336 389Q303 389 281 371T248 324T237 265Q237 235 248 207T281 160T336 141Z" />
<glyph unicode="r" glyph-name="r" horiz-adv-x="453" d="M50 0V530H238V446H244Q252 468 267 489T310 525T384 540Q408 540 420 537T433 533V345Q433 345 420 348T379 352Q307 352 274 314T240 191V0H50Z" />
<glyph unicode="s" glyph-name="s" horiz-adv-x="556" d="M293 -10Q223 -10 178 8T105 54T65 109T47 154T43 173H214Q214 173 220 161T245 136T303 123Q328 123 339 129T354 144T358 156Q358 181 313 188L240 200Q191 208 147 226T76 277T49 363Q49 413 75 453T151
516T274 540Q339 540 382 523T451 480T490 430T507 387T511 369H345Q345 369 340 379T318 400T269 410Q237 410 226 399T215 376Q215 360 231 354T272 342L337 330Q419 315 471 278T523 167Q523 91 464 41T293 -10Z" />
<glyph unicode="t" glyph-name="t" horiz-adv-x="444" d="M311 -10Q251 -10 213 5T154 45T124 98T113 150T111 191V380H25V530H111V660H301V530H404V380H301V198Q301 170 316 153T371 135Q387 135 398 137T409 140V0Q409 0 380 -5T311 -10Z" />
<glyph unicode="u" glyph-name="u" horiz-adv-x="603" d="M210 -10Q152 -10 117 15T66 80T50 167V530H238V214Q238 184 253 164T301 143Q335 143 349 164T363 214V530H553V0H363V75H357Q335 35 299 13T210 -10Z" />
<glyph unicode="v" glyph-name="v" horiz-adv-x="606" d="M204 0L15 530H203L305 210L403 530H591L401 0H204Z" />
<glyph unicode="w" glyph-name="w" horiz-adv-x="893" d="M174 0L15 530H203L277 226L362 530H531L616 226L690 530H878L719 0H519L447 255L374 0H174Z" />
<glyph unicode="x" glyph-name="x" horiz-adv-x="640" d="M40 0L193 264L40 530H235L319 379L406 530H600L440 264L600 0H406L319 152L235 0H40Z" />
<glyph unicode="y" glyph-name="y" horiz-adv-x="606" d="M109 -195Q79 -195 63 -193T46 -191V-41Q46 -41 58 -42T91 -43Q131 -43 157 -35T204 -1L15 530H203L305 210L403 530H591L412 35Q385 -41 348 -92T255 -169T109 -195Z" />
<glyph unicode="z" glyph-name="z" horiz-adv-x="533" d="M45 0V129L281 383H50V530H507V401L271 147H507V0H45Z" />
<glyph unicode="{" glyph-name="braceleft" horiz-adv-x="516" d="M366 -221Q254 -221 195 -162T136 9V181Q136 241 76 241H30V401H76Q136 401 136 461V633Q136 745 195 804T366 863H476V702H391Q331 702 331 642V461Q331 402 313 372T241 325V317Q295 301 313
270T331 181V0Q331 -60 391 -60H476V-221H366Z" />
<glyph unicode="|" glyph-name="bar" horiz-adv-x="452" d="M150 -259V960H302V-259H150Z" />
<glyph unicode="}" glyph-name="braceright" horiz-adv-x="516" d="M150 863Q262 863 321 804T380 633V461Q380 401 440 401H486V241H440Q380 241 380 181V9Q380 -103 321 -162T150 -221H40V-60H125Q185 -60 185 0V181Q185 240 203 270T275 317V325Q221 342 203
373T185 461V642Q185 702 125 702H40V863H150Z" />
<glyph unicode="~" glyph-name="asciitilde" horiz-adv-x="505" d="M331 312Q302 312 281 321T243 341T212 362T184 371Q168 371 162 357T156 318H60Q60 353 68 389T102 451T174 477Q213 477 239 463T284 433T322 418Q349 418 349 471H445Q445 436 437 399T404
337T331 312Z" />
<glyph unicode="&#xa0;" glyph-name="uni00A0" horiz-adv-x="230" />
<glyph unicode="&#xa1;" glyph-name="exclamdown" horiz-adv-x="381" d="M190 528Q231 528 257 500T284 433Q284 394 258 367T190 339Q149 339 123 366T96 433Q96 472 122 500T190 528ZM85 -222L112 281H265L296 -222H85Z" />
<glyph unicode="&#xa2;" glyph-name="cent" horiz-adv-x="640" d="M289 -101V-8Q206 1 152 42T72 142T45 265Q45 329 71 388T152 488T289 538V630H365V539Q431 533 473 510T540 457T577 396T592 347T595 327H420Q420 327 417 339T401 367T365 389V141Q389 148
401 163T416 190T420 203H595Q595 203 592 184T577 134T541 74T474 20T365 -9V-101H289ZM235 265Q235 226 248 195T289 149V381Q262 366 249 335T235 265Z" />
<glyph unicode="&#xa3;" glyph-name="sterling" horiz-adv-x="712" d="M90 0V157Q159 162 196 190T233 259Q233 273 229 285T217 310H72V380H164Q147 404 134 435T121 512Q121 585 159 638T269 720T439 750Q482 750 516 746T571 738T592 733V570Q592 570 574 574T526
582T459 586Q390 586 349 565T307 497Q307 465 323 438T357 380H536V310H386Q390 292 390 273Q390 245 380 224T355 188T330 165T319 157H622V0H90Z" />
<glyph unicode="&#xa4;" glyph-name="currency" horiz-adv-x="715" d="M130 70L50 149L144 244Q126 273 116 307T106 378Q106 415 116 449T144 512L50 606L130 685L224 591Q285 630 358 630Q431 630 492 591L586 685L665 606L571 512Q610 451 610 378Q610 303
571 244L665 149L586 70L492 164Q463 146 429 136T358 126Q321 126 287 136T224 164L130 70ZM358 255Q392 255 419 271T463 316T480 378Q480 412 464 439T420 483T358 500Q324 500 296 484T252 440T235 378Q235 344 251 316T296 272T358 255Z" />
<glyph unicode="&#xa5;" glyph-name="yen" horiz-adv-x="754" d="M95 201V289H259L216 370H94V458H169L20 740H230L377 444L523 740H734L585 458H659V370H538L495 289H659V201H473V0H281V201H95Z" />
<glyph unicode="&#xa6;" glyph-name="brokenbar" horiz-adv-x="452" d="M150 417V960H302V417H150ZM150 -259V250H302V-259H150Z" />
<glyph unicode="&#xa7;" glyph-name="section" horiz-adv-x="722" d="M372 -224Q295 -224 241 -206T151 -160T94 -100T63 -40T50 6T47 24H241Q241 24 245 10T262 -22T304 -55T380 -69Q439 -69 462 -47T486 2Q486 27 468 41T408 62L279 83Q215 94 158 118T66 184T30
291Q30 350 62 390T154 444V451Q111 483 88 521T64 612Q64 678 99 730T201 812T359 842Q429 842 479 826T562 783T615 727T645 672T658 629T661 612H472Q472 612 469 623T453 649T418 675T354 687Q316 687 294 676T262 649T252 617Q252 588 279 575T347 554L447
538Q512 528 568 504T660 437T696 330Q696 271 664 231T572 177V170Q619 157 648 117T678 14Q678 -55 642 -108T538 -193T372 -224ZM442 232Q442 232 452 234T475 242T498 262T508 297Q508 326 484 343T413 368L284 389Q284 389 274 387T251 379T228 359T218 324Q218
295 242 278T313 253L442 232Z" />
<glyph unicode="&#xa8;" glyph-name="dieresis" horiz-adv-x="571" d="M400 578Q355 578 327 606T298 675Q298 716 326 744T400 773Q444 773 473 745T502 675Q502 635 473 607T400 578ZM149 578Q104 578 76 606T47 675Q47 716 75 744T149 773Q193 773 222 745T251
675Q251 635 222 607T149 578Z" />
<glyph unicode="&#xa9;" glyph-name="copyright" horiz-adv-x="788" d="M394 -10Q303 -10 235 20T122 102T53 218T30 350Q30 418 53 482T121 597T235 679T394 710Q485 710 553 680T667 598T735 482T758 350Q758 283 736 219T668 103T554 21T394 -10ZM394 96Q479
96 535 133T620 228T649 350Q649 414 621 472T536 567T394 604Q309 604 253 567T168 472T139 350Q139 287 167 229T252 133T394 96ZM405 164Q337 164 293 191T226 261T204 350Q204 397 226 439T292 509T405 536Q456 536 489 521T541 485T569 441T580 404T583 389H454Q454
389 451 398T437 418T403 428Q371 428 356 405T340 350Q340 318 355 295T403 272Q426 272 437 281T451 301T454 311H583Q583 311 581 296T569 260T541 216T489 179T405 164Z" />
<glyph unicode="&#xaa;" glyph-name="ordfeminine" horiz-adv-x="433" d="M244 444Q231 427 208 416T154 405Q108 405 77 430T45 501Q45 594 188 608L248 614V621Q248 638 239 645T216 652Q202 652 195 646T187 634T185 628H58Q58 628 59 640T69 671T94 707T142
737T222 750Q284 750 319 730T368 683T383 631V411H248V444H244ZM177 513Q177 491 208 491Q225 491 236 501T248 530V540L204 535Q177 532 177 513Z" />
<glyph unicode="&#xab;" glyph-name="guillemotleft" horiz-adv-x="802" d="M578 80L362 305L578 530H772L561 304L772 80H578ZM251 80L35 305L251 530H445L234 304L445 80H251Z" />
<glyph unicode="&#xac;" glyph-name="logicalnot" horiz-adv-x="655" d="M80 383V530H575V248H429V383H80Z" />
<glyph unicode="&#xad;" glyph-name="uni00AD" horiz-adv-x="600" d="M115 238V385H491V238H115Z" />
<glyph unicode="&#xae;" glyph-name="registered" horiz-adv-x="430" d="M215 376Q154 376 113 403T51 473T30 563Q30 610 50 652T112 722T215 750Q277 750 318 723T379 653T400 563Q400 516 380 473T318 403T215 376ZM215 417Q263 417 294 438T341 493T357 563Q357
600 342 633T295 687T215 709Q168 709 136 688T89 633T73 563Q73 527 88 494T136 439T215 417ZM134 469V662H223Q260 662 282 646T305 595Q305 555 272 537L307 469H240L210 527H197V469H134ZM222 610H197V576H222Q243 576 243 592Q243 601 237 605T222 610Z" />
<glyph unicode="&#xaf;" glyph-name="overscore" horiz-adv-x="400" d="M30 653V755H370V653H30Z" />
<glyph unicode="&#xb0;" glyph-name="degree" horiz-adv-x="468" d="M234 371Q182 371 139 396T71 465T45 561Q45 613 70 656T139 724T234 750Q287 750 329 725T397 656T423 561Q423 509 398 466T330 397T234 371ZM234 497Q260 497 278 516T297 561Q297 587 279
605T234 624Q208 624 190 606T171 561Q171 535 189 516T234 497Z" />
<glyph unicode="&#xb1;" glyph-name="plusminus" horiz-adv-x="683" d="M268 156V308H116V455H268V607H415V455H567V308H415V156H268ZM115 0V98H568V0H115Z" />
<glyph unicode="&#xb2;" glyph-name="uni00B2" horiz-adv-x="472" d="M43 405V505L157 587Q187 608 212 626T254 662T270 700Q270 720 257 730T224 740Q205 740 191 728T176 689H40Q40 748 66 786T136 842T228 861Q282 861 324 842T391 789T415 713Q415 658 371
613T242 524H417V405H43Z" />
<glyph unicode="&#xb3;" glyph-name="uni00B3" horiz-adv-x="490" d="M246 395Q188 395 152 410T95 449T66 496T56 534T54 550H188Q188 550 190 540T204 519T242 508Q271 508 282 521T294 547Q294 563 281 571T249 579H186V677H246Q270 677 281 687T292 711Q292
727 280 737T245 747Q221 747 211 737T199 717T197 706H67Q67 706 68 721T78 760T105 806T160 844T250 860Q299 860 340 845T407 801T432 730Q432 696 417 675T384 643T355 630V624Q387 616 413 593T439 527Q439 486 414 457T345 411T246 395Z" />
<glyph unicode="&#xb4;" glyph-name="acute" horiz-adv-x="346" d="M185 599L52 600L129 779H299L185 599Z" />
<glyph unicode="&#xb5;" glyph-name="uni00B5" horiz-adv-x="665" d="M40 -195V530H230V214Q230 184 245 164T293 143Q327 143 341 164T355 214V530H545V198Q545 175 555 156T606 137Q617 137 625 138T633 139V-3Q633 -3 607 -6T551 -10Q477 -10 436 16T378 75H369Q369
75 365 62T349 33T317 3T263 -10Q238 -10 220 -3T193 12T184 19L179 14Q209 -26 219 -66T230 -164V-195H40Z" />
<glyph unicode="&#xb6;" glyph-name="paragraph" horiz-adv-x="609" d="M393 0H280V295H217Q146 295 99 322T29 395T5 495Q5 550 29 596T100 671T217 700H569V0H456V535H393V0Z" />
<glyph unicode="&#xb7;" glyph-name="middot" horiz-adv-x="338" d="M169 259Q126 259 98 288T70 358Q70 399 98 428T169 457Q212 457 240 428T268 358Q268 318 240 289T169 259Z" />
<glyph unicode="&#xb8;" glyph-name="cedilla" horiz-adv-x="271" d="M69 -258Q49 -258 28 -256T-6 -252T-20 -250V-154Q-20 -154 -7 -155T24 -158T59 -160Q103 -160 117 -149T131 -125Q131 -113 122 -106T96 -99Q75 -99 59 -108T42 -118L-22 -53L46 40H161L116
-20Q123 -19 132 -19Q182 -19 212 -50T242 -127Q242 -160 224 -190T167 -239T69 -258Z" />
<glyph unicode="&#xb9;" glyph-name="uni00B9" horiz-adv-x="351" d="M271 860V405H137V699H44V779L57 783Q103 797 131 812T188 855L193 860H271Z" />
<glyph unicode="&#xba;" glyph-name="ordmasculine" horiz-adv-x="457" d="M228 405Q171 405 130 429T67 493T45 580Q45 627 67 666T130 728T228 752Q286 752 327 729T390 666T412 580Q412 533 390 493T327 429T228 405ZM228 516Q250 516 263 533T277 580Q277
607 264 624T228 641Q208 641 194 624T180 580Q180 552 194 534T228 516Z" />
<glyph unicode="&#xbb;" glyph-name="guillemotright" horiz-adv-x="802" d="M362 80L573 304L362 530H556L772 305L556 80H362ZM35 80L246 304L35 530H229L445 305L229 80H35Z" />
<glyph unicode="&#xbc;" glyph-name="onequarter" horiz-adv-x="825" d="M159 0L578 700H704L284 0H159ZM195 699V351H81V567H10V637L19 639Q54 648 78 661T125 696L128 699H195ZM728 3V67H564V143L694 353H845V151H891V67H845V3H728ZM668 151H728V249L668 151Z" />
<glyph unicode="&#xbd;" glyph-name="onehalf" horiz-adv-x="804" d="M159 0L578 700H704L284 0H159ZM195 699V351H81V567H10V637L19 639Q54 648 78 661T125 696L128 699H195ZM576 3V80L609 102Q683 152 717 178T752 231Q752 248 742 255T720 262Q706 262 695
253T684 221H574Q574 268 595 298T650 343T723 358Q786 358 827 325T869 238Q869 197 840 163T745 94H870V3H576Z" />
<glyph unicode="&#xbe;" glyph-name="threequarters" horiz-adv-x="846" d="M175 348Q131 348 103 360T60 389T39 423T31 453T30 465H134Q134 465 136 458T146 443T175 435Q196 435 204 444T213 464Q213 473 206 481T177 490H141V566H177Q196 566 204 575T213
594Q213 604 205 612T176 621Q158 621 150 614T140 600T138 593H37Q37 593 39 610T54 650T94 690T175 708Q215 708 247 696T300 661T320 606Q320 583 310 566T286 540T262 529V525Q272 523 286 517T312 496T324 454Q324 408 284 378T175 348ZM234 0L653 700H779L359
0H234ZM803 3V67H639V143L769 353H920V151H966V67H920V3H803ZM743 151H803V249L743 151Z" />
<glyph unicode="&#xbf;" glyph-name="questiondown" horiz-adv-x="653" d="M324 539Q365 539 391 511T418 444Q418 405 392 378T324 350Q284 350 257 377T230 444Q230 483 257 511T324 539ZM321 -222Q248 -222 187 -194T90 -114T54 5Q54 54 71 88T115 146T167
188T211 224T229 264V295H418V264Q418 221 401 191T358 137T308 95T265 56T247 10Q247 -18 269 -38T328 -58Q363 -58 389 -35T415 38H597Q597 -50 558 -108T455 -194T321 -222Z" />
<glyph unicode="&#xc0;" glyph-name="Agrave" horiz-adv-x="791" d="M331 809L217 989H387L464 810L331 809ZM20 0L266 740H525L771 0H571L532 124H259L220 0H20ZM310 288H481L396 561L310 288Z" />
<glyph unicode="&#xc1;" glyph-name="Aacute" horiz-adv-x="791" d="M464 809L331 810L408 989H578L464 809ZM20 0L266 740H525L771 0H571L532 124H259L220 0H20ZM310 288H481L396 561L310 288Z" />
<glyph unicode="&#xc2;" glyph-name="Acircumflex" horiz-adv-x="791" d="M188 799L323 958H470L605 799H464L397 880L329 799H188ZM20 0L266 740H525L771 0H571L532 124H259L220 0H20ZM310 288H481L396 561L310 288Z" />
<glyph unicode="&#xc3;" glyph-name="Atilde" horiz-adv-x="791" d="M474 822Q447 822 427 831T392 851T363 872T336 881Q321 881 316 868T310 828H217Q217 863 225 899T256 961T325 987Q362 987 386 973T429 943T464 928Q478 928 483 942T489 981H582Q582 947
574 910T543 848T474 822ZM20 0L266 740H525L771 0H571L532 124H259L220 0H20ZM310 288H481L396 561L310 288Z" />
<glyph unicode="&#xc4;" glyph-name="Adieresis" horiz-adv-x="791" d="M521 788Q476 788 448 816T419 885Q419 926 447 954T521 983Q565 983 594 955T623 885Q623 845 594 817T521 788ZM270 788Q225 788 197 816T168 885Q168 926 196 954T270 983Q314 983 343
955T372 885Q372 845 343 817T270 788ZM20 0L266 740H525L771 0H571L532 124H259L220 0H20ZM310 288H481L396 561L310 288Z" />
<glyph unicode="&#xc5;" glyph-name="Aring" horiz-adv-x="791" d="M396 788Q357 788 325 807T274 858T255 929Q255 968 274 999T325 1050T396 1069Q435 1069 467 1050T518 1000T537 929Q537 890 518 858T467 807T396 788ZM396 878Q417 878 432 892T447 929Q447
950 432 964T396 979Q375 979 360 965T345 929Q345 907 360 893T396 878ZM20 0L266 740H525L771 0H571L532 124H259L220 0H20ZM310 288H481L396 561L310 288Z" />
<glyph unicode="&#xc6;" glyph-name="AE" horiz-adv-x="1056" d="M20 0L326 740H996V574H652V454H951V296H652V166H1001V0H460V124H271L220 0H20ZM338 285H460V582L338 285Z" />
<glyph unicode="&#xc7;" glyph-name="Ccedilla" horiz-adv-x="783" d="M383 -263Q363 -263 342 -261T308 -257T294 -255V-163Q294 -163 307 -164T338 -167T373 -169Q417 -169 431 -158T445 -134Q445 -122 436 -115T410 -108Q389 -108 373 -117T356 -127L292 -62L334
-4Q259 8 202 44T106 132T49 245T30 371Q30 442 54 509T125 631T243 717T408 750Q488 750 545 730T640 679T700 612T734 545T749 493T753 473H563Q563 473 558 489T538 526T492 564T410 580Q350 580 310 550T249 471T229 371Q229 319 249 271T309 192T410 161Q461
161 492 177T538 214T558 251T563 267H753Q753 267 750 249T737 201T706 137T652 72T567 18T445 -9L430 -29Q437 -28 446 -28Q496 -28 526 -59T556 -136Q556 -186 514 -224T383 -263Z" />
<glyph unicode="&#xc8;" glyph-name="Egrave" horiz-adv-x="656" d="M263 809L149 989H319L396 810L263 809ZM60 0V740H596V574H252V454H551V296H252V166H601V0H60Z" />
<glyph unicode="&#xc9;" glyph-name="Eacute" horiz-adv-x="656" d="M396 809L263 810L340 989H510L396 809ZM60 0V740H596V574H252V454H551V296H252V166H601V0H60Z" />
<glyph unicode="&#xca;" glyph-name="Ecircumflex" horiz-adv-x="656" d="M120 799L255 958H402L537 799H396L329 880L261 799H120ZM60 0V740H596V574H252V454H551V296H252V166H601V0H60Z" />
<glyph unicode="&#xcb;" glyph-name="Edieresis" horiz-adv-x="656" d="M453 788Q408 788 380 816T351 885Q351 926 379 954T453 983Q497 983 526 955T555 885Q555 845 526 817T453 788ZM202 788Q157 788 129 816T100 885Q100 926 128 954T202 983Q246 983 275
955T304 885Q304 845 275 817T202 788ZM60 0V740H596V574H252V454H551V296H252V166H601V0H60Z" />
<glyph unicode="&#xcc;" glyph-name="Igrave" horiz-adv-x="312" d="M91 809L-23 989H147L224 810L91 809ZM60 0V740H252V0H60Z" />
<glyph unicode="&#xcd;" glyph-name="Iacute" horiz-adv-x="312" d="M224 809L91 810L168 989H338L224 809ZM60 0V740H252V0H60Z" />
<glyph unicode="&#xce;" glyph-name="Icircumflex" horiz-adv-x="312" d="M-52 799L83 988H230L365 799H224L157 901L89 799H-52ZM60 0V740H252V0H60Z" />
<glyph unicode="&#xcf;" glyph-name="Idieresis" horiz-adv-x="312" d="M281 788Q236 788 208 816T179 885Q179 926 207 954T281 983Q325 983 354 955T383 885Q383 845 354 817T281 788ZM30 788Q-15 788 -43 816T-72 885Q-72 926 -44 954T30 983Q74 983 103 955T132
885Q132 845 103 817T30 788ZM60 0V740H252V0H60Z" />
<glyph unicode="&#xd0;" glyph-name="Eth" horiz-adv-x="782" d="M76 0V296H5V444H76V740H382Q474 740 543 709T659 624T729 505T752 370Q752 301 729 235T660 116T544 32T382 0H76ZM395 296H268V171H373Q438 171 479 200T539 276T559 372Q559 422 540 467T479
542T373 572H268V444H395V296Z" />
<glyph unicode="&#xd1;" glyph-name="Ntilde" horiz-adv-x="760" d="M454 822Q427 822 407 831T372 851T343 872T316 881Q301 881 296 868T290 828H197Q197 863 205 899T236 961T305 987Q342 987 366 973T409 943T444 928Q458 928 463 942T469 981H562Q562 947
554 910T523 848T454 822ZM60 0V740H237L510 329V740H700V0H521L250 390V0H60Z" />
<glyph unicode="&#xd2;" glyph-name="Ograve" horiz-adv-x="830" d="M350 819L236 999H406L483 820L350 819ZM415 -10Q319 -10 247 22T127 109T55 232T30 371Q30 442 54 509T127 631T247 717T415 750Q511 750 583 718T703 631T776 510T800 371Q800 300 776 232T704
110T583 23T415 -10ZM415 161Q477 161 518 191T579 270T600 371Q600 423 580 471T518 549T415 580Q354 580 313 550T252 471T231 371Q231 319 251 271T313 192T415 161Z" />
<glyph unicode="&#xd3;" glyph-name="Oacute" horiz-adv-x="830" d="M483 819L350 820L427 999H597L483 819ZM415 -10Q319 -10 247 22T127 109T55 232T30 371Q30 442 54 509T127 631T247 717T415 750Q511 750 583 718T703 631T776 510T800 371Q800 300 776 232T704
110T583 23T415 -10ZM415 161Q477 161 518 191T579 270T600 371Q600 423 580 471T518 549T415 580Q354 580 313 550T252 471T231 371Q231 319 251 271T313 192T415 161Z" />
<glyph unicode="&#xd4;" glyph-name="Ocircumflex" horiz-adv-x="830" d="M207 809L342 968H489L624 809H483L416 890L348 809H207ZM415 -10Q319 -10 247 22T127 109T55 232T30 371Q30 442 54 509T127 631T247 717T415 750Q511 750 583 718T703 631T776 510T800
371Q800 300 776 232T704 110T583 23T415 -10ZM415 161Q477 161 518 191T579 270T600 371Q600 423 580 471T518 549T415 580Q354 580 313 550T252 471T231 371Q231 319 251 271T313 192T415 161Z" />
<glyph unicode="&#xd5;" glyph-name="Otilde" horiz-adv-x="830" d="M493 832Q466 832 446 841T411 861T382 882T355 891Q340 891 335 878T329 838H236Q236 873 244 909T275 971T344 997Q381 997 405 983T448 953T483 938Q497 938 502 952T508 991H601Q601 957
593 920T562 858T493 832ZM415 -10Q319 -10 247 22T127 109T55 232T30 371Q30 442 54 509T127 631T247 717T415 750Q511 750 583 718T703 631T776 510T800 371Q800 300 776 232T704 110T583 23T415 -10ZM415 161Q477 161 518 191T579 270T600 371Q600 423 580 471T518
549T415 580Q354 580 313 550T252 471T231 371Q231 319 251 271T313 192T415 161Z" />
<glyph unicode="&#xd6;" glyph-name="Odieresis" horiz-adv-x="830" d="M540 798Q495 798 467 826T438 895Q438 936 466 964T540 993Q584 993 613 965T642 895Q642 855 613 827T540 798ZM289 798Q244 798 216 826T187 895Q187 936 215 964T289 993Q333 993 362
965T391 895Q391 855 362 827T289 798ZM415 -10Q319 -10 247 22T127 109T55 232T30 371Q30 442 54 509T127 631T247 717T415 750Q511 750 583 718T703 631T776 510T800 371Q800 300 776 232T704 110T583 23T415 -10ZM415 161Q477 161 518 191T579 270T600 371Q600
423 580 471T518 549T415 580Q354 580 313 550T252 471T231 371Q231 319 251 271T313 192T415 161Z" />
<glyph unicode="&#xd7;" glyph-name="multiply" horiz-adv-x="661" d="M229 97L116 210L217 311L115 413L229 527L331 425L433 527L546 414L444 312L546 210L432 96L330 198L229 97Z" />
<glyph unicode="&#xd8;" glyph-name="Oslash" horiz-adv-x="830" d="M77 -24L148 87Q89 142 60 217T30 371Q30 442 54 509T127 631T247 717T415 750Q455 750 490 744T558 727L581 763H752L682 653Q741 598 770 524T800 371Q800 300 776 232T704 110T583 23T415
-10Q375 -10 340 -4T272 13L248 -24H77ZM231 371Q231 308 257 257L460 575Q439 580 415 580Q354 580 313 550T252 471T231 371ZM415 161Q477 161 518 191T579 270T600 371Q600 433 573 484L370 166Q391 161 415 161Z" />
<glyph unicode="&#xd9;" glyph-name="Ugrave" horiz-adv-x="746" d="M308 809L194 989H364L441 810L308 809ZM373 -10Q316 -10 260 6T159 58T87 153T60 300V740H252V300Q252 246 281 208T373 170Q436 170 465 208T494 300V740H686V300Q686 213 659 154T587 58T486
6T373 -10Z" />
<glyph unicode="&#xda;" glyph-name="Uacute" horiz-adv-x="746" d="M441 809L308 810L385 989H555L441 809ZM373 -10Q316 -10 260 6T159 58T87 153T60 300V740H252V300Q252 246 281 208T373 170Q436 170 465 208T494 300V740H686V300Q686 213 659 154T587 58T486
6T373 -10Z" />
<glyph unicode="&#xdb;" glyph-name="Ucircumflex" horiz-adv-x="746" d="M165 799L300 988H447L582 799H441L374 901L306 799H165ZM373 -10Q316 -10 260 6T159 58T87 153T60 300V740H252V300Q252 246 281 208T373 170Q436 170 465 208T494 300V740H686V300Q686
213 659 154T587 58T486 6T373 -10Z" />
<glyph unicode="&#xdc;" glyph-name="Udieresis" horiz-adv-x="746" d="M498 788Q453 788 425 816T396 885Q396 926 424 954T498 983Q542 983 571 955T600 885Q600 845 571 817T498 788ZM247 788Q202 788 174 816T145 885Q145 926 173 954T247 983Q291 983 320
955T349 885Q349 845 320 817T247 788ZM373 -10Q316 -10 260 6T159 58T87 153T60 300V740H252V300Q252 246 281 208T373 170Q436 170 465 208T494 300V740H686V300Q686 213 659 154T587 58T486 6T373 -10Z" />
<glyph unicode="&#xdd;" glyph-name="Yacute" horiz-adv-x="754" d="M445 809L312 810L389 989H559L445 809ZM281 0V247L20 740H230L377 444L523 740H734L473 247V0H281Z" />
<glyph unicode="&#xde;" glyph-name="Thorn" horiz-adv-x="702" d="M60 0V740H252V620H393Q488 620 551 584T645 490T677 370Q677 307 646 250T551 156T393 119H252V0H60ZM392 453H252V285H392Q438 285 460 311T483 369Q483 401 461 427T392 453Z" />
<glyph unicode="&#xdf;" glyph-name="germandbls" horiz-adv-x="738" d="M369 770Q447 770 513 745T619 672T660 556Q660 507 640 472T591 416T540 388V381Q540 381 555 377T592 361T635 330T672 280T687 205Q687 139 649 91T546 16T396 -10Q356 -10 332 -6T307
-2V153Q307 153 329 150T377 147Q442 147 468 173T495 233Q495 266 471 288T395 310H334V458H382Q426 458 448 481T471 535Q471 567 446 590T374 613Q316 613 283 573T249 461V0H60V460Q60 511 75 565T127 666T222 741T369 770Z" />
<glyph unicode="&#xe0;" glyph-name="agrave" horiz-adv-x="670" d="M270 599L156 779H326L403 600L270 599ZM273 540Q312 540 340 530T385 506T411 483T420 472H428V530H618V0H428V58H420Q420 58 412 48T386 24T340 1T273 -10Q215 -10 173 13T102 76T59 165T45
265Q45 316 59 365T101 453T172 516T273 540ZM336 389Q303 389 281 371T248 324T237 265Q237 235 248 207T281 160T336 141Q369 141 391 159T424 206T435 265Q435 295 424 323T391 370T336 389Z" />
<glyph unicode="&#xe1;" glyph-name="aacute" horiz-adv-x="670" d="M403 599L270 600L347 779H517L403 599ZM273 540Q312 540 340 530T385 506T411 483T420 472H428V530H618V0H428V58H420Q420 58 412 48T386 24T340 1T273 -10Q215 -10 173 13T102 76T59 165T45
265Q45 316 59 365T101 453T172 516T273 540ZM336 389Q303 389 281 371T248 324T237 265Q237 235 248 207T281 160T336 141Q369 141 391 159T424 206T435 265Q435 295 424 323T391 370T336 389Z" />
<glyph unicode="&#xe2;" glyph-name="acircumflex" horiz-adv-x="670" d="M127 589L262 778H409L544 589H403L336 691L268 589H127ZM273 540Q312 540 340 530T385 506T411 483T420 472H428V530H618V0H428V58H420Q420 58 412 48T386 24T340 1T273 -10Q215 -10 173
13T102 76T59 165T45 265Q45 316 59 365T101 453T172 516T273 540ZM336 389Q303 389 281 371T248 324T237 265Q237 235 248 207T281 160T336 141Q369 141 391 159T424 206T435 265Q435 295 424 323T391 370T336 389Z" />
<glyph unicode="&#xe3;" glyph-name="atilde" horiz-adv-x="670" d="M413 612Q386 612 366 621T331 641T302 662T275 671Q260 671 255 658T249 618H156Q156 653 164 689T195 751T264 777Q301 777 325 763T368 733T403 718Q417 718 422 732T428 771H521Q521 737
513 700T482 638T413 612ZM273 540Q312 540 340 530T385 506T411 483T420 472H428V530H618V0H428V58H420Q420 58 412 48T386 24T340 1T273 -10Q215 -10 173 13T102 76T59 165T45 265Q45 316 59 365T101 453T172 516T273 540ZM336 389Q303 389 281 371T248 324T237
265Q237 235 248 207T281 160T336 141Q369 141 391 159T424 206T435 265Q435 295 424 323T391 370T336 389Z" />
<glyph unicode="&#xe4;" glyph-name="adieresis" horiz-adv-x="670" d="M460 578Q415 578 387 606T358 675Q358 716 386 744T460 773Q504 773 533 745T562 675Q562 635 533 607T460 578ZM209 578Q164 578 136 606T107 675Q107 716 135 744T209 773Q253 773 282
745T311 675Q311 635 282 607T209 578ZM273 540Q312 540 340 530T385 506T411 483T420 472H428V530H618V0H428V58H420Q420 58 412 48T386 24T340 1T273 -10Q215 -10 173 13T102 76T59 165T45 265Q45 316 59 365T101 453T172 516T273 540ZM336 389Q303 389 281 371T248
324T237 265Q237 235 248 207T281 160T336 141Q369 141 391 159T424 206T435 265Q435 295 424 323T391 370T336 389Z" />
<glyph unicode="&#xe5;" glyph-name="aring" horiz-adv-x="670" d="M335 578Q296 578 264 597T213 648T194 719Q194 758 213 789T264 840T335 859Q374 859 406 840T457 790T476 719Q476 680 457 648T406 597T335 578ZM335 668Q356 668 371 682T386 719Q386 740
371 754T335 769Q314 769 299 755T284 719Q284 697 299 683T335 668ZM273 540Q312 540 340 530T385 506T411 483T420 472H428V530H618V0H428V58H420Q420 58 412 48T386 24T340 1T273 -10Q215 -10 173 13T102 76T59 165T45 265Q45 316 59 365T101 453T172 516T273
540ZM336 389Q303 389 281 371T248 324T237 265Q237 235 248 207T281 160T336 141Q369 141 391 159T424 206T435 265Q435 295 424 323T391 370T336 389Z" />
<glyph unicode="&#xe6;" glyph-name="ae" horiz-adv-x="950" d="M231 -10Q143 -10 89 33T35 153Q35 227 90 270T260 317L368 320V337Q368 369 350 384T299 400Q268 400 253 388T233 364T228 352H50Q50 352 54 371T71 418T110 474T180 521T291 540Q342 540 376
530T431 506T460 482T469 471H473Q473 471 483 481T514 505T568 529T648 540Q721 540 779 509T871 416T905 260V217H554Q557 183 582 157T651 131Q685 131 702 142T725 165T732 177H902Q902 177 897 158T878 112T837 56T764 9T651 -10Q591 -10 549 5T482 39T446
74T434 89H429Q429 89 420 74T387 40T326 5T231 -10ZM554 322H728Q727 363 703 383T640 404Q607 404 582 384T554 322ZM283 113Q321 113 344 135T368 194V213L282 209Q248 208 233 195T217 161Q217 139 235 126T283 113Z" />
<glyph unicode="&#xe7;" glyph-name="ccedilla" horiz-adv-x="634" d="M309 -263Q289 -263 268 -261T234 -257T220 -255V-163Q220 -163 233 -164T264 -167T299 -169Q343 -169 357 -158T371 -134Q371 -122 362 -115T336 -108Q315 -108 299 -117T282 -127L218 -62L260
-4Q186 10 138 51T66 148T42 265Q42 317 59 366T112 454T201 517T328 540Q404 540 453 519T530 466T571 402T588 349T592 327H417Q417 327 415 337T404 360T379 383T334 393Q283 393 258 356T232 265Q232 212 257 175T334 137Q362 137 378 147T403 170T414 193T417
203H592Q592 203 589 184T575 136T540 77T476 23T372 -8L356 -29Q363 -28 372 -28Q422 -28 452 -59T482 -136Q482 -186 440 -224T309 -263Z" />
<glyph unicode="&#xe8;" glyph-name="egrave" horiz-adv-x="624" d="M255 600L141 780H311L388 601L255 600ZM326 -10Q253 -10 200 13T111 75T59 164T42 266Q42 316 58 365T109 453T195 516T320 540Q398 540 457 507T549 412T582 260V217H233Q236 183 259 157T326
131Q359 131 376 142T399 165T405 177H579Q579 177 574 158T555 112T513 56T440 9T326 -10ZM232 322H401Q400 363 377 383T316 404Q284 404 260 384T232 322Z" />
<glyph unicode="&#xe9;" glyph-name="eacute" horiz-adv-x="624" d="M388 600L255 601L332 780H502L388 600ZM326 -10Q253 -10 200 13T111 75T59 164T42 266Q42 316 58 365T109 453T195 516T320 540Q398 540 457 507T549 412T582 260V217H233Q236 183 259 157T326
131Q359 131 376 142T399 165T405 177H579Q579 177 574 158T555 112T513 56T440 9T326 -10ZM232 322H401Q400 363 377 383T316 404Q284 404 260 384T232 322Z" />
<glyph unicode="&#xea;" glyph-name="ecircumflex" horiz-adv-x="624" d="M112 590L247 779H394L529 590H388L321 692L253 590H112ZM326 -10Q253 -10 200 13T111 75T59 164T42 266Q42 316 58 365T109 453T195 516T320 540Q398 540 457 507T549 412T582 260V217H233Q236
183 259 157T326 131Q359 131 376 142T399 165T405 177H579Q579 177 574 158T555 112T513 56T440 9T326 -10ZM232 322H401Q400 363 377 383T316 404Q284 404 260 384T232 322Z" />
<glyph unicode="&#xeb;" glyph-name="edieresis" horiz-adv-x="624" d="M445 579Q400 579 372 607T343 676Q343 717 371 745T445 774Q489 774 518 746T547 676Q547 636 518 608T445 579ZM194 579Q149 579 121 607T92 676Q92 717 120 745T194 774Q238 774 267 746T296
676Q296 636 267 608T194 579ZM326 -10Q253 -10 200 13T111 75T59 164T42 266Q42 316 58 365T109 453T195 516T320 540Q398 540 457 507T549 412T582 260V217H233Q236 183 259 157T326 131Q359 131 376 142T399 165T405 177H579Q579 177 574 158T555 112T513 56T440
9T326 -10ZM232 322H401Q400 363 377 383T316 404Q284 404 260 384T232 322Z" />
<glyph unicode="&#xec;" glyph-name="igrave" horiz-adv-x="320" d="M95 599L-19 779H151L228 600L95 599ZM65 0V530H255V0H65Z" />
<glyph unicode="&#xed;" glyph-name="iacute" horiz-adv-x="320" d="M228 599L95 600L172 779H342L228 599ZM65 0V530H255V0H65Z" />
<glyph unicode="&#xee;" glyph-name="icircumflex" horiz-adv-x="320" d="M-48 589L87 778H234L369 589H228L161 691L93 589H-48ZM65 0V530H255V0H65Z" />
<glyph unicode="&#xef;" glyph-name="idieresis" horiz-adv-x="320" d="M285 578Q240 578 212 606T183 675Q183 716 211 744T285 773Q329 773 358 745T387 675Q387 635 358 607T285 578ZM34 578Q-11 578 -39 606T-68 675Q-68 716 -40 744T34 773Q78 773 107 745T136
675Q136 635 107 607T34 578ZM65 0V530H255V0H65Z" />
<glyph unicode="&#xf0;" glyph-name="eth" horiz-adv-x="672" d="M335 -10Q260 -10 206 13T116 76T63 165T45 265Q45 330 72 389T153 485T284 523Q318 523 344 516T389 498Q366 530 337 558T276 610L166 545L108 644L171 681Q133 703 109 715T84 727L144 851Q144
851 168 842T231 815T318 769L443 843L502 744L423 697Q476 654 522 597T598 470T627 313Q627 219 595 146T498 32T335 -10ZM336 141Q370 141 391 159T424 206T435 265Q435 296 424 324T391 370T336 389Q303 389 281 371T248 324T237 265Q237 235 248 207T281 160T336
141Z" />
<glyph unicode="&#xf1;" glyph-name="ntilde" horiz-adv-x="620" d="M390 612Q363 612 343 621T308 641T279 662T252 671Q237 671 232 658T226 618H133Q133 653 141 689T172 751T241 777Q278 777 302 763T345 733T380 718Q394 718 399 732T405 771H498Q498 737
490 700T459 638T390 612ZM55 0V530H245V455H250Q261 473 278 492T325 526T398 540Q463 540 500 511T554 437T570 347V0H380V309Q380 338 365 362T313 387Q274 387 260 362T245 309V0H55Z" />
<glyph unicode="&#xf2;" glyph-name="ograve" horiz-adv-x="662" d="M266 599L152 779H322L399 600L266 599ZM331 -10Q240 -10 175 28T76 128T42 265Q42 339 76 401T175 502T331 540Q423 540 487 502T586 402T620 265Q620 191 586 129T488 28T331 -10ZM331 142Q377
142 403 177T430 265Q430 317 404 352T331 388Q285 388 259 353T232 265Q232 213 258 178T331 142Z" />
<glyph unicode="&#xf3;" glyph-name="oacute" horiz-adv-x="662" d="M399 599L266 600L343 779H513L399 599ZM331 -10Q240 -10 175 28T76 128T42 265Q42 339 76 401T175 502T331 540Q423 540 487 502T586 402T620 265Q620 191 586 129T488 28T331 -10ZM331 142Q377
142 403 177T430 265Q430 317 404 352T331 388Q285 388 259 353T232 265Q232 213 258 178T331 142Z" />
<glyph unicode="&#xf4;" glyph-name="ocircumflex" horiz-adv-x="662" d="M123 589L258 778H405L540 589H399L332 691L264 589H123ZM331 -10Q240 -10 175 28T76 128T42 265Q42 339 76 401T175 502T331 540Q423 540 487 502T586 402T620 265Q620 191 586 129T488
28T331 -10ZM331 142Q377 142 403 177T430 265Q430 317 404 352T331 388Q285 388 259 353T232 265Q232 213 258 178T331 142Z" />
<glyph unicode="&#xf5;" glyph-name="otilde" horiz-adv-x="662" d="M409 612Q382 612 362 621T327 641T298 662T271 671Q256 671 251 658T245 618H152Q152 653 160 689T191 751T260 777Q297 777 321 763T364 733T399 718Q413 718 418 732T424 771H517Q517 737
509 700T478 638T409 612ZM331 -10Q240 -10 175 28T76 128T42 265Q42 339 76 401T175 502T331 540Q423 540 487 502T586 402T620 265Q620 191 586 129T488 28T331 -10ZM331 142Q377 142 403 177T430 265Q430 317 404 352T331 388Q285 388 259 353T232 265Q232 213
258 178T331 142Z" />
<glyph unicode="&#xf6;" glyph-name="odieresis" horiz-adv-x="662" d="M456 578Q411 578 383 606T354 675Q354 716 382 744T456 773Q500 773 529 745T558 675Q558 635 529 607T456 578ZM205 578Q160 578 132 606T103 675Q103 716 131 744T205 773Q249 773 278
745T307 675Q307 635 278 607T205 578ZM331 -10Q240 -10 175 28T76 128T42 265Q42 339 76 401T175 502T331 540Q423 540 487 502T586 402T620 265Q620 191 586 129T488 28T331 -10ZM331 142Q377 142 403 177T430 265Q430 317 404 352T331 388Q285 388 259 353T232
265Q232 213 258 178T331 142Z" />
<glyph unicode="&#xf7;" glyph-name="divide" horiz-adv-x="748" d="M374 472Q331 472 303 501T275 571Q275 612 303 641T374 670Q417 670 445 641T473 571Q473 531 445 502T374 472ZM115 286V417H633V286H115ZM374 33Q331 33 303 62T275 132Q275 173 303 202T374
231Q417 231 445 202T473 132Q473 92 445 63T374 33Z" />
<glyph unicode="&#xf8;" glyph-name="oslash" horiz-adv-x="668" d="M90 -37L142 53Q95 91 70 146T45 265Q45 339 79 401T178 502T334 540Q378 540 418 530L439 567H566L518 484Q569 445 596 388T623 265Q623 191 589 129T491 28T334 -10Q284 -10 240 3L217 -37H90ZM235
265Q235 243 240 223L336 388H334Q288 388 262 353T235 265ZM334 142Q380 142 406 177T433 265Q433 295 424 321L321 143Q327 142 334 142Z" />
<glyph unicode="&#xf9;" glyph-name="ugrave" horiz-adv-x="608" d="M241 599L127 779H297L374 600L241 599ZM215 -10Q157 -10 122 15T71 80T55 167V530H243V214Q243 184 258 164T306 143Q340 143 354 164T368 214V530H558V0H368V75H362Q340 35 304 13T215 -10Z" />
<glyph unicode="&#xfa;" glyph-name="uacute" horiz-adv-x="608" d="M374 599L241 600L318 779H488L374 599ZM215 -10Q157 -10 122 15T71 80T55 167V530H243V214Q243 184 258 164T306 143Q340 143 354 164T368 214V530H558V0H368V75H362Q340 35 304 13T215 -10Z" />
<glyph unicode="&#xfb;" glyph-name="ucircumflex" horiz-adv-x="608" d="M98 589L233 778H380L515 589H374L307 691L239 589H98ZM215 -10Q157 -10 122 15T71 80T55 167V530H243V214Q243 184 258 164T306 143Q340 143 354 164T368 214V530H558V0H368V75H362Q340
35 304 13T215 -10Z" />
<glyph unicode="&#xfc;" glyph-name="udieresis" horiz-adv-x="608" d="M431 578Q386 578 358 606T329 675Q329 716 357 744T431 773Q475 773 504 745T533 675Q533 635 504 607T431 578ZM180 578Q135 578 107 606T78 675Q78 716 106 744T180 773Q224 773 253 745T282
675Q282 635 253 607T180 578ZM215 -10Q157 -10 122 15T71 80T55 167V530H243V214Q243 184 258 164T306 143Q340 143 354 164T368 214V530H558V0H368V75H362Q340 35 304 13T215 -10Z" />
<glyph unicode="&#xfd;" glyph-name="yacute" horiz-adv-x="606" d="M376 599L243 600L320 779H490L376 599ZM109 -195Q79 -195 63 -193T46 -191V-41Q46 -41 58 -42T91 -43Q131 -43 157 -35T204 -1L15 530H203L305 210L403 530H591L412 35Q385 -41 348 -92T255
-169T109 -195Z" />
<glyph unicode="&#xfe;" glyph-name="thorn" horiz-adv-x="678" d="M60 -195V760H250V472H258Q258 472 266 482T292 506T338 529T405 540Q463 540 505 517T576 454T619 365T633 265Q633 214 619 165T577 77T506 14T405 -10Q366 -10 338 0T293 24T267 47T258 58H250V-195H60ZM243
265Q243 235 254 207T287 160T342 141Q376 141 397 159T430 206T441 265Q441 295 430 323T398 370T342 389Q309 389 287 371T254 324T243 265Z" />
<glyph unicode="&#xff;" glyph-name="ydieresis" horiz-adv-x="606" d="M433 578Q388 578 360 606T331 675Q331 716 359 744T433 773Q477 773 506 745T535 675Q535 635 506 607T433 578ZM182 578Q137 578 109 606T80 675Q80 716 108 744T182 773Q226 773 255 745T284
675Q284 635 255 607T182 578ZM109 -195Q79 -195 63 -193T46 -191V-41Q46 -41 58 -42T91 -43Q131 -43 157 -35T204 -1L15 530H203L305 210L403 530H591L412 35Q385 -41 348 -92T255 -169T109 -195Z" />
<glyph unicode="&#x2013;" glyph-name="endash" horiz-adv-x="718" d="M115 238V385H603V238H115Z" />
<glyph unicode="&#x2014;" glyph-name="emdash" horiz-adv-x="869" d="M115 238V385H754V238H115Z" />
<glyph unicode="&#x2018;" glyph-name="quoteleft" horiz-adv-x="245" d="M221 740L132 591Q173 588 199 560T225 492Q225 451 197 422T124 393Q80 393 50 421T20 498Q20 523 32 553T71 626T143 729L151 740H221Z" />
<glyph unicode="&#x2019;" glyph-name="quoteright" horiz-adv-x="245" d="M24 403L113 552Q72 555 46 583T20 651Q20 692 48 721T121 750Q165 750 195 722T225 645Q225 620 213 590T174 518T102 414L94 403H24Z" />
<glyph unicode="&#x201a;" glyph-name="quotesinglbase" horiz-adv-x="310" d="M89 -159L178 -10Q137 -7 111 21T85 89Q85 130 113 159T186 188Q230 188 260 160T290 83Q290 58 278 28T239 -44T167 -148L159 -159H89Z" />
<glyph unicode="&#x201c;" glyph-name="quotedblleft" horiz-adv-x="494" d="M226 740L137 591Q178 588 204 560T230 492Q230 451 202 422T129 393Q85 393 55 421T25 498Q25 523 37 553T76 626T148 729L156 740H226ZM470 740L381 591Q422 588 448 560T474 492Q474
451 446 422T373 393Q329 393 299 421T269 498Q269 523 281 553T320 626T392 729L400 740H470Z" />
<glyph unicode="&#x201d;" glyph-name="quotedblright" horiz-adv-x="489" d="M268 403L357 552Q316 555 290 583T264 651Q264 692 292 721T365 750Q409 750 439 722T469 645Q469 620 457 590T418 518T346 414L338 403H268ZM24 403L113 552Q72 555 46 583T20 651Q20
692 48 721T121 750Q165 750 195 722T225 645Q225 620 213 590T174 518T102 414L94 403H24Z" />
<glyph unicode="&#x201e;" glyph-name="quotedblbase" horiz-adv-x="619" d="M333 -159L422 -10Q381 -7 355 21T329 89Q329 130 357 159T430 188Q474 188 504 160T534 83Q534 58 522 28T483 -44T411 -148L403 -159H333ZM89 -159L178 -10Q137 -7 111 21T85 89Q85
130 113 159T186 188Q230 188 260 160T290 83Q290 58 278 28T239 -44T167 -148L159 -159H89Z" />
<glyph unicode="&#x2022;" glyph-name="bullet" horiz-adv-x="580" d="M290 173Q239 173 200 197T138 261T115 349Q115 398 137 437T199 500T290 524Q341 524 380 501T442 438T465 349Q465 301 443 261T381 197T290 173Z" />
<glyph unicode="&#x2039;" glyph-name="guilsinglleft" horiz-adv-x="475" d="M440 530L229 306L440 80H246L30 305L246 530H440Z" />
<glyph unicode="&#x203a;" glyph-name="guilsinglright" horiz-adv-x="475" d="M35 80L246 304L35 530H229L445 305L229 80H35Z" />
</font>
</defs>
</svg>
