<?xml version="1.0" standalone="no"?>
<!DOCTYPE svg PUBLIC "-//W3C//DTD SVG 1.1//EN" "http://www.w3.org/Graphics/SVG/1.1/DTD/svg11.dtd">
<svg xmlns="http://www.w3.org/2000/svg">
<defs >
<font id="BeVietnamPro" horiz-adv-x="543" ><font-face
    font-family="Be Vietnam Pro Thin"
    units-per-em="1000"
    panose-1="0 0 0 0 0 0 0 0 0 0"
    ascent="1000"
    descent="-265"
    alphabetic="0" />
<glyph unicode=" " glyph-name="space" horiz-adv-x="230" />
<glyph unicode="!" glyph-name="exclam" horiz-adv-x="241" d="M89 138L213 740H247L119 138H89ZM83 -10Q68 -10 58 0T48 26Q48 40 58 51T83 62Q98 62 108 51T119 26Q119 11 109 1T83 -10Z" />
<glyph unicode="&quot;" glyph-name="quotedbl" horiz-adv-x="253" d="M234 591L266 740H303L261 591H234ZM135 591L167 740H204L162 591H135Z" />
<glyph unicode="#" glyph-name="numbersign" horiz-adv-x="706" d="M77 0L170 225H25L39 259H184L275 480H133L147 514H290L383 740H419L326 514H545L638 740H674L581 514H727L713 480H566L475 259H619L605 225H461L368 0H332L425 225H206L113 0H77ZM220 259H439L530
480H311L220 259Z" />
<glyph unicode="$" glyph-name="dollar" horiz-adv-x="626" d="M231 -99L251 -6Q187 2 148 26T87 82T56 144T46 195T44 215H78Q78 215 79 198T89 156T116 103T169 56T258 28L331 372L300 387Q263 405 232 428T182 484T163 565Q163 619 193 661T274 727T388 751Q400
751 411 750L430 839H462L442 746Q493 737 525 714T575 662T600 606T608 561T610 543H576Q576 543 575 557T567 595T546 642T504 685T435 713L367 393L389 383Q428 364 462 340T516 282T537 194Q537 134 504 88T416 17T299 -9Q290 -9 282 -9L263 -99H231ZM317 418L338
408L404 717Q397 717 388 717Q335 717 292 699T224 646T199 565Q199 508 233 475T317 418ZM378 349L360 358L290 26H299Q350 26 396 46T472 103T501 194Q501 255 465 289T378 349Z" />
<glyph unicode="%" glyph-name="percent" horiz-adv-x="740" d="M246 484Q189 484 162 519T135 601Q135 637 151 671T199 727T277 750Q334 750 361 715T389 634Q389 598 373 564T325 507T246 484ZM98 0L656 740H693L135 0H98ZM246 512Q282 512 307 530T345 577T358
635Q358 670 339 696T277 723Q241 723 216 705T178 658T165 600Q165 566 185 539T246 512ZM512 -10Q455 -10 428 25T401 107Q401 143 417 177T465 233T543 256Q600 256 627 221T655 140Q655 104 639 70T591 13T512 -10ZM512 18Q548 18 573 36T611 83T624 141Q624
176 605 202T543 229Q507 229 482 211T444 164T431 106Q431 72 451 45T512 18Z" />
<glyph unicode="&amp;" glyph-name="ampersand" horiz-adv-x="643" d="M238 -10Q171 -10 122 16T47 87T20 186Q20 235 39 273T91 339T163 388T240 423Q213 468 198 506T183 584Q183 641 206 678T265 734T339 752Q377 752 411 736T467 687T489 609Q489 567 472
536T426 481T364 440T299 412L288 408Q296 396 305 383T323 356L461 150Q495 200 518 270T553 432H587Q574 328 547 251T481 121L562 0H522L459 93Q413 40 357 15T238 -10ZM216 584Q216 549 231 513T272 434L288 440Q308 447 336 460T392 492T438 540T456 608Q456
644 440 668T397 706T340 719Q310 719 282 705T235 661T216 584ZM54 186Q54 139 76 102T141 44T239 22Q297 22 348 46T441 121L296 337Q285 353 276 368T257 397L252 395Q221 384 187 367T122 326T73 267T54 186Z" />
<glyph unicode="&apos;" glyph-name="quotesingle" horiz-adv-x="154" d="M135 591L167 740H204L162 591H135Z" />
<glyph unicode="(" glyph-name="parenleft" horiz-adv-x="363" d="M221 -186Q162 -158 124 -103T67 26T49 182Q49 264 66 348T115 510T195 653T302 761T435 818L428 786Q364 771 311 730T215 627T144 492T100 339T84 180Q84 107 99 41T146 -75T228 -154L221 -186Z" />
<glyph unicode=")" glyph-name="parenright" horiz-adv-x="413" d="M192 812Q252 784 290 729T346 600T364 444Q364 362 347 278T298 116T218 -27T111 -135T-22 -192L-15 -160Q49 -145 102 -104T198 -1T269 134T313 287T329 446Q329 520 314 585T267 702T185 780L192
812Z" />
<glyph unicode="*" glyph-name="asterisk" horiz-adv-x="495" d="M212 365L184 385L290 529L119 584L130 617L300 561V740H334V561L504 617L514 584L345 529L449 385L422 365L317 509L212 365Z" />
<glyph unicode="+" glyph-name="plus" horiz-adv-x="578" d="M244 127L280 296H111L118 330H287L323 499H357L321 330H490L483 296H314L278 127H244Z" />
<glyph unicode="," glyph-name="comma" horiz-adv-x="247" d="M45 -73L86 -5Q68 -4 59 7T49 32Q49 46 59 58T88 70Q103 70 115 61T127 33Q127 18 118 2T85 -50L70 -73H45Z" />
<glyph unicode="-" glyph-name="hyphen" horiz-adv-x="578" d="M111 296L118 330H490L483 296H111Z" />
<glyph unicode="." glyph-name="period" horiz-adv-x="245" d="M87 -5Q71 -5 61 6T50 33Q50 48 60 59T87 70Q103 70 114 59T125 33Q125 17 114 6T87 -5Z" />
<glyph unicode="/" glyph-name="slash" horiz-adv-x="494" d="M-15 -118L529 818H567L23 -118H-15Z" />
<glyph unicode="0" glyph-name="zero" horiz-adv-x="597" d="M253 -10Q186 -10 144 27T82 126T62 262Q62 327 76 396T117 528T182 641T267 720T369 750Q436 750 477 713T539 613T559 477Q559 412 545 344T505 212T441 98T356 19T253 -10ZM253 24Q302 24 343 51T418
126T476 232T512 354T525 478Q525 543 509 597T458 683T369 715Q320 715 279 688T204 613T146 507T110 385T97 261Q97 196 113 142T164 56T253 24Z" />
<glyph unicode="1" glyph-name="one" horiz-adv-x="309" d="M310 740L153 0H118L254 642H131L136 664L161 667Q216 674 241 690T285 731L292 740H310Z" />
<glyph unicode="2" glyph-name="two" horiz-adv-x="595" d="M-1 0L4 28L234 215Q287 258 338 299T432 382T499 469T525 565Q525 612 503 645T444 697T361 716Q303 716 266 696T207 647T175 588T163 538T160 518H126Q126 518 128 535T137 578T160 634T202 690T267
733T362 750Q419 750 464 727T534 662T560 566Q560 509 534 460T463 366T364 278T255 190L63 35H487L480 0H-1Z" />
<glyph unicode="3" glyph-name="three" horiz-adv-x="600" d="M280 -10Q218 -10 176 6T107 47T65 101T44 155T36 197T35 213H69Q69 213 71 194T82 147T114 91T176 43T280 24Q352 24 400 50T473 120T498 213Q498 259 479 289T431 337T368 362T306 370H224L231 403H319Q376
403 423 421T500 476T529 567Q529 635 483 675T360 716Q303 716 267 699T209 658T179 608T167 566T164 549H130Q130 549 133 569T148 620T185 679T252 729T360 750Q423 750 468 727T539 662T564 567Q564 523 549 492T510 440T464 407T425 391T409 386V383Q409 383
428 375T471 348T515 295T534 211Q534 158 505 107T419 23T280 -10Z" />
<glyph unicode="4" glyph-name="four" horiz-adv-x="609" d="M345 0L386 191L19 192L26 225L501 740H537L428 224H556L549 191H421L380 0H345ZM69 224H393L489 680L69 224Z" />
<glyph unicode="5" glyph-name="five" horiz-adv-x="630" d="M291 -10Q233 -10 194 6T130 47T92 101T74 155T67 197T66 213H100Q100 213 101 194T110 147T137 90T194 42T291 23Q350 23 395 44T471 102T517 181T533 269Q533 319 513 363T450 434T344 461Q289 461
249 444T182 403T144 363T131 345H101L224 740H600L593 707H246L154 411H156Q156 411 168 423T205 453T264 482T344 495Q420 495 469 463T543 379T568 268Q568 218 550 169T497 79T411 14T291 -10Z" />
<glyph unicode="6" glyph-name="six" horiz-adv-x="656" d="M319 -10Q237 -10 185 26T108 123T83 256Q83 322 102 391T158 524T248 639T369 720T518 750Q577 750 608 742T640 734L633 700Q633 700 602 708T518 716Q438 716 372 684T255 598T172 477T124 339Q133
359 150 384T193 433T259 472T350 488Q425 488 473 455T546 370T570 259Q570 210 554 162T506 75T428 13T319 -10ZM319 24Q372 24 412 44T480 99T521 174T535 259Q535 310 515 354T454 427T350 455Q295 455 254 435T184 380T141 305T126 221Q126 171 147 126T210
52T319 24Z" />
<glyph unicode="7" glyph-name="seven" horiz-adv-x="550" d="M123 0Q147 107 188 202T280 379T380 525T472 636T540 706H116L123 740H592L586 709Q586 709 561 685T495 615T406 506T309 363T222 193T160 0H123Z" />
<glyph unicode="8" glyph-name="eight" horiz-adv-x="587" d="M282 -10Q203 -10 152 18T75 93T50 190Q50 236 69 279T126 357T221 407V411Q175 434 151 474T126 559Q126 606 151 649T227 721T354 750Q425 750 471 725T541 660T564 575Q564 520 529 470T419 397V392Q478
366 505 318T532 216Q532 161 504 109T420 24T282 -10ZM339 418Q403 418 445 441T509 499T530 572Q530 609 511 641T452 695T354 716Q290 716 247 693T183 635T161 562Q161 525 180 492T240 439T339 418ZM278 24Q351 24 399 52T472 124T497 215Q497 259 476 297T412
360T304 384Q231 384 183 356T110 285T85 194Q85 151 106 112T170 49T278 24Z" />
<glyph unicode="9" glyph-name="nine" horiz-adv-x="656" d="M382 750Q464 750 516 714T593 617T618 484Q618 418 599 349T543 216T453 101T332 20T183 -10Q125 -10 93 -2T61 6L68 40Q68 40 99 32T183 24Q263 24 329 56T446 142T529 263T577 401Q568 381 551 356T508
307T442 268T351 252Q277 252 228 285T155 370T131 481Q131 530 147 578T195 665T274 727T382 750ZM382 716Q329 716 289 696T221 641T180 566T166 481Q166 431 186 386T247 313T351 285Q406 285 447 305T517 360T560 435T575 519Q575 570 554 615T491 688T382
716Z" />
<glyph unicode=":" glyph-name="colon" horiz-adv-x="245" d="M186 465Q170 465 160 476T149 503Q149 518 159 529T186 540Q202 540 213 529T224 503Q224 487 213 476T186 465ZM86 -10Q70 -10 60 1T49 28Q49 43 59 54T86 65Q102 65 113 54T124 28Q124 12 113 1T86 -10Z" />
<glyph unicode=";" glyph-name="semicolon" horiz-adv-x="247" d="M186 465Q170 465 160 476T149 503Q149 518 159 529T186 540Q202 540 213 529T224 503Q224 487 213 476T186 465ZM44 -78L85 -10Q67 -9 58 2T48 27Q48 41 58 53T87 65Q102 65 114 56T126 28Q126
13 117 -3T84 -55L69 -78H44Z" />
<glyph unicode="&lt;" glyph-name="less" d="M430 131L107 318L112 343L515 530L507 489L153 327L438 164L430 131Z" />
<glyph unicode="=" glyph-name="equal" horiz-adv-x="676" d="M136 416L143 450H613L606 416H136ZM89 195L96 229H566L559 195H89Z" />
<glyph unicode="&gt;" glyph-name="greater" d="M93 131L101 172L455 334L170 497L178 530L501 343L496 318L93 131Z" />
<glyph unicode="?" glyph-name="question" horiz-adv-x="580" d="M235 140L237 158Q243 208 266 244T322 309T390 363T457 417T508 480T528 565Q528 612 506 645T447 697T364 716Q308 716 271 696T212 647T180 588T166 538T163 518H129Q129 518 133 541T149 599T187
668T256 726T365 750Q422 750 467 727T538 662T563 566Q563 513 543 475T492 406T424 350T355 296T298 235T270 158L268 140H235ZM234 -10Q219 -10 209 0T199 26Q199 41 209 51T234 62Q249 62 259 52T270 26Q270 11 260 1T234 -10Z" />
<glyph unicode="@" glyph-name="at" horiz-adv-x="917" d="M425 -78Q333 -78 265 -48T152 33T85 149T63 285Q63 366 91 447T175 594T311 700T496 740Q593 740 663 710T777 628T843 514T864 386Q864 332 851 283T814 194T757 133T684 110Q644 110 623 126T592 164T582
202T580 219H577Q577 219 567 203T537 165T486 127T412 110Q363 110 331 135T282 200T265 289Q265 335 279 381T320 465T385 527T471 550Q513 550 540 534T581 496T602 459T608 442H611L633 542H664L620 338Q613 304 610 270T611 206T634 158T684 140Q726 140 759
175T812 266T831 386Q831 447 812 504T751 608T646 681T494 709Q399 709 325 672T200 574T123 438T96 287Q96 222 116 162T177 55T279 -19T423 -47Q478 -47 523 -38T602 -18T654 2T672 11L684 -16Q684 -16 666 -25T613 -47T532 -68T425 -78ZM417 139Q458 139 490
159T544 213T578 287T590 368Q590 409 578 443T538 499T469 521Q428 521 396 501T342 447T308 373T296 292Q296 252 309 217T348 161T417 139Z" />
<glyph unicode="A" glyph-name="A" horiz-adv-x="657" d="M4 0L428 740H471L581 0H545L513 220H171L45 0H4ZM189 252H508L443 697L189 252Z" />
<glyph unicode="B" glyph-name="B" horiz-adv-x="638" d="M34 0L191 740H444Q506 740 545 717T604 657T624 577Q624 536 607 496T555 424T469 377L468 373Q523 357 551 316T580 222Q580 184 564 145T516 73T437 20T327 0H34ZM442 706H219L152 390H395Q456 390
499 418T565 490T588 576Q588 611 573 640T525 688T442 706ZM388 358H145L76 34H329Q399 34 447 62T520 134T545 222Q545 258 528 289T477 339T388 358Z" />
<glyph unicode="C" glyph-name="C" horiz-adv-x="746" d="M352 -10Q280 -10 227 16T138 87T86 191T69 313Q69 390 93 467T167 609T288 711T455 750Q520 750 564 733T635 687T677 628T698 569T704 524T705 506H669Q669 506 668 527T659 579T628 642T563 695T453
716Q368 716 303 681T194 586T128 456T105 314Q105 238 131 172T213 65T354 24Q421 24 468 45T548 97T598 160T625 213T633 234H670Q670 234 664 217T644 171T607 112T548 53T464 8T352 -10Z" />
<glyph unicode="D" glyph-name="D" horiz-adv-x="715" d="M34 0L191 740H365Q444 740 501 715T597 647T653 549T672 433Q672 357 644 281T561 141T426 39T242 0H34ZM365 706H219L76 34H242Q337 34 410 69T534 163T610 291T636 431Q636 504 607 566T518 667T365 706Z" />
<glyph unicode="E" glyph-name="E" horiz-adv-x="554" d="M34 0L191 740H604L597 706H219L153 396H482L475 362H146L76 34H460L453 0H34Z" />
<glyph unicode="F" glyph-name="F" horiz-adv-x="557" d="M34 0L191 740H613L606 706H219L151 386H489L482 352H144L69 0H34Z" />
<glyph unicode="G" glyph-name="G" horiz-adv-x="761" d="M357 -10Q282 -10 228 16T139 87T86 191T69 312Q69 390 93 467T167 609T288 711T455 750Q520 750 564 733T635 687T677 628T698 569T704 524T705 506H669Q669 506 668 527T659 579T628 642T563 695T453
716Q368 716 303 681T194 586T128 456T105 313Q105 237 131 171T214 65T357 24Q424 24 476 49T564 118T623 214T653 325L654 333H416L423 366H694L686 314Q677 255 653 198T589 93T491 18T357 -10Z" />
<glyph unicode="H" glyph-name="H" horiz-adv-x="655" d="M34 0L191 740H226L155 406H561V405L632 740H667L510 0H475L554 374H148L69 0H34Z" />
<glyph unicode="I" glyph-name="I" horiz-adv-x="214" d="M34 0L191 740H226L69 0H34Z" />
<glyph unicode="J" glyph-name="J" horiz-adv-x="437" d="M77 -10Q48 -10 24 -7T-1 -4L6 29Q6 29 31 26T84 23Q166 23 224 73T301 207L414 740H449L336 207Q314 101 245 46T77 -10Z" />
<glyph unicode="K" glyph-name="K" horiz-adv-x="571" d="M34 0L191 740H226L153 395L586 739H638L182 379L510 0H465L147 367L69 0H34Z" />
<glyph unicode="L" glyph-name="L" horiz-adv-x="574" d="M34 0L191 740H226L76 34H480L473 0H34Z" />
<glyph unicode="M" glyph-name="M" horiz-adv-x="849" d="M34 0L191 740H238L416 233L808 740H861L704 0H669L817 697L425 191H395L217 696L69 0H34Z" />
<glyph unicode="N" glyph-name="N" horiz-adv-x="716" d="M34 0L191 740H227L547 54L693 740H728L571 0H535L215 687L69 0H34Z" />
<glyph unicode="O" glyph-name="O" horiz-adv-x="782" d="M353 -10Q280 -10 226 15T137 85T85 186T68 306Q68 384 94 462T169 606T290 710T454 750Q527 750 580 725T669 655T721 553T738 434Q738 356 713 278T638 134T517 30T353 -10ZM353 24Q436 24 501 60T611
157T679 289T702 434Q702 509 676 573T595 676T454 716Q371 716 306 680T196 583T128 450T104 306Q104 231 130 167T212 64T353 24Z" />
<glyph unicode="P" glyph-name="P" horiz-adv-x="598" d="M34 0L191 740H382Q458 740 507 712T581 638T606 540Q606 495 588 451T535 371T449 314T329 292H131L69 0H34ZM381 706H219L138 326H330Q409 326 462 358T543 439T571 539Q571 582 551 620T488 682T381 706Z" />
<glyph unicode="Q" glyph-name="Q" horiz-adv-x="787" d="M353 -10Q280 -10 226 15T137 85T85 186T68 306Q68 384 94 462T169 606T290 710T454 750Q527 750 580 725T669 655T721 553T738 434Q738 346 706 257T611 103L701 0H659L589 81Q542 39 483 15T353 -10ZM353
24Q417 24 470 46T565 107L439 252L462 273L588 129Q643 190 672 271T702 434Q702 509 676 573T595 676T454 716Q371 716 306 680T196 583T128 450T104 306Q104 231 130 167T212 64T353 24Z" />
<glyph unicode="R" glyph-name="R" horiz-adv-x="600" d="M34 0L191 740H386Q456 740 501 715T569 648T591 560Q591 510 566 462T491 381T373 344L504 0H467L337 343H142L69 0H34ZM386 706H219L149 377H356Q420 377 464 404T532 474T555 559Q555 597 537 630T482
685T386 706Z" />
<glyph unicode="S" glyph-name="S" horiz-adv-x="627" d="M299 -10Q234 -10 190 6T117 47T74 102T52 156T45 198T44 214H78Q78 214 80 195T91 148T124 92T190 44T299 25Q350 25 396 45T472 102T501 193Q501 254 465 288T378 348L300 386Q263 404 232 427T182 483T163
564Q163 618 193 660T274 726T388 750Q456 750 498 729T563 677T596 615T608 563T610 542H576Q576 542 574 559T564 603T536 655T480 698T388 716Q335 716 292 698T224 645T199 564Q199 507 233 474T317 417L389 382Q428 363 462 339T516 281T537 193Q537 133 504
87T416 16T299 -10Z" />
<glyph unicode="T" glyph-name="T" horiz-adv-x="620" d="M242 0L392 706H130L137 740H707L700 706H427L277 0H242Z" />
<glyph unicode="U" glyph-name="U" horiz-adv-x="693" d="M310 -10Q241 -10 194 13T120 77T87 167T91 270L191 740H226L126 270Q102 156 153 90T311 24Q383 24 435 54T520 138T568 260L670 740H705L603 260Q588 187 552 126T457 27T310 -10Z" />
<glyph unicode="V" glyph-name="V" horiz-adv-x="650" d="M241 0L131 740H167L268 43L667 740H708L284 0H241Z" />
<glyph unicode="W" glyph-name="W" horiz-adv-x="984" d="M191 0L141 740H175L222 56L566 740H605L658 56L993 740H1032L668 0H628L576 688L231 0H191Z" />
<glyph unicode="X" glyph-name="X" horiz-adv-x="638" d="M-7 0L328 374L157 740H193L353 396L660 740H704L371 366L540 0H505L345 345L37 0H-7Z" />
<glyph unicode="Y" glyph-name="Y" horiz-adv-x="649" d="M252 0L311 278L141 740H177L333 314L669 740H712L346 278L287 0H252Z" />
<glyph unicode="Z" glyph-name="Z" horiz-adv-x="630" d="M19 0L26 32L609 706H169L176 740H662L655 708L73 36H513L505 0H19Z" />
<glyph unicode="[" glyph-name="bracketleft" horiz-adv-x="419" d="M-5 -186L208 818H459L453 786H236L36 -154H253L246 -186H-5Z" />
<glyph unicode="\" glyph-name="backslash" horiz-adv-x="485" d="M309 -118H277L131 818H163L309 -118Z" />
<glyph unicode="]" glyph-name="bracketright" horiz-adv-x="396" d="M424 818L211 -186H-40L-34 -154H183L383 786H166L173 818H424Z" />
<glyph unicode="^" glyph-name="asciicircum" horiz-adv-x="465" d="M173 588L316 740H353L432 588H396L332 714L216 588H173Z" />
<glyph unicode="_" glyph-name="underscore" horiz-adv-x="673" d="M40 -34L49 0H515L507 -34H40Z" />
<glyph unicode="`" glyph-name="grave" horiz-adv-x="202" d="M280 618L220 770H256L309 618H280Z" />
<glyph unicode="a" glyph-name="a" horiz-adv-x="593" d="M331 540Q376 540 408 526T460 492T492 452T508 417T513 403H517L544 530H579L466 0H431L453 100H449Q449 100 437 84T401 45T340 7T255 -10Q189 -10 145 22T80 106T58 217Q58 274 76 331T130 435T216
511T331 540ZM331 506Q274 506 230 480T156 411T109 317T93 215Q93 165 110 121T163 51T255 24Q311 24 355 50T430 120T477 214T494 317Q494 368 477 411T424 480T331 506Z" />
<glyph unicode="b" glyph-name="b" horiz-adv-x="608" d="M282 -10Q237 -10 205 4T153 38T121 78T105 113T100 127H96L69 0H34L196 760H231L160 430H164Q164 430 176 446T212 485T273 523T358 540Q425 540 468 508T533 425T555 313Q555 256 537 199T483 95T398
19T282 -10ZM282 24Q339 24 383 50T457 119T504 213T520 315Q520 366 503 409T450 479T358 506Q302 506 258 480T183 410T136 316T119 213Q119 163 136 120T189 50T282 24Z" />
<glyph unicode="c" glyph-name="c" horiz-adv-x="571" d="M264 -10Q194 -10 149 22T81 106T59 218Q59 280 77 338T132 441T221 513T341 540Q397 540 432 523T487 479T513 427T522 383T524 365H490Q490 365 489 379T482 414T460 457T415 492T339 506Q281 506 236
483T159 419T111 327T95 219Q95 168 113 124T168 52T264 24Q310 24 343 38T398 73T434 116T452 151T458 165H495Q495 165 488 148T465 104T423 52T357 8T264 -10Z" />
<glyph unicode="d" glyph-name="d" horiz-adv-x="612" d="M255 -10Q189 -10 145 22T80 106T58 217Q58 274 76 331T130 435T216 511T331 540Q376 540 408 526T460 492T492 452T508 417T513 403H517L593 760H628L466 0H431L453 100H449Q449 100 437 84T401 45T340
7T255 -10ZM255 24Q311 24 355 50T430 120T477 214T494 317Q494 368 477 411T424 480T331 506Q274 506 230 480T156 411T109 317T93 215Q93 165 110 121T163 51T255 24Z" />
<glyph unicode="e" glyph-name="e" horiz-adv-x="572" d="M260 -10Q191 -10 146 21T79 103T57 214Q57 272 76 330T132 435T221 511T337 540Q419 540 463 503T520 404T518 270L516 260H95Q86 198 101 144T155 57T261 24Q315 24 352 43T413 87T446 131T457 150H492Q492
150 485 134T460 94T416 46T351 6T260 -10ZM102 292H487Q496 348 486 397T441 476T335 506Q275 506 228 477T149 400T102 292Z" />
<glyph unicode="f" glyph-name="f" horiz-adv-x="326" d="M64 0L171 500H71L77 530H177L196 619Q210 687 249 728T357 770Q377 770 394 768T411 765L405 734Q405 734 389 736T354 739Q300 739 271 706T230 616L212 530H341L335 500H205L99 0H64Z" />
<glyph unicode="g" glyph-name="g" horiz-adv-x="614" d="M213 -210Q153 -210 116 -195T58 -156T28 -110T18 -72T16 -56H51Q51 -56 52 -68T61 -98T85 -134T133 -165T214 -177Q274 -177 315 -159T384 -109T427 -41T451 34L467 108H463Q463 108 452 91T416 53T355
14T264 -3Q196 -3 150 28T82 111T59 223Q59 279 77 335T132 437T219 512T337 540Q383 540 416 527T470 493T504 453T521 420T526 406H530L556 530H591L484 30Q459 -88 391 -149T213 -210ZM265 31Q322 31 367 56T443 124T490 217T507 317Q507 368 489 411T434 480T337
506Q280 506 235 481T159 415T111 324T95 224Q95 173 113 129T169 58T265 31Z" />
<glyph unicode="h" glyph-name="h" horiz-adv-x="553" d="M34 0L196 760H231L158 420H161Q174 442 199 470T261 519T349 540Q407 540 444 513T496 441T499 342L427 0H392L465 345Q474 388 465 425T426 484T345 507Q285 507 241 473T168 382T125 262L69 0H34Z" />
<glyph unicode="i" glyph-name="i" horiz-adv-x="216" d="M192 630Q177 630 167 640T157 666Q157 681 167 691T192 702Q207 702 217 692T228 666Q228 651 218 641T192 630ZM33 0L146 530H180L67 0H33Z" />
<glyph unicode="j" glyph-name="j" horiz-adv-x="252" d="M228 630Q213 630 203 640T193 666Q193 681 203 691T228 702Q243 702 253 692T264 666Q264 651 254 641T228 630ZM-87 -214Q-106 -214 -122 -212T-139 -210L-133 -180Q-133 -180 -117 -182T-83 -184Q-27
-184 9 -148T57 -56L182 530H216L91 -56Q76 -127 31 -170T-87 -214Z" />
<glyph unicode="k" glyph-name="k" horiz-adv-x="480" d="M34 0L196 760H231L133 302L450 530H505L171 291L394 0H351L131 289L69 0H34Z" />
<glyph unicode="l" glyph-name="l" horiz-adv-x="215" d="M34 0L197 760H231L69 0H34Z" />
<glyph unicode="m" glyph-name="m" horiz-adv-x="887" d="M29 0L142 530H177L154 420H158Q174 447 201 474T267 521T352 540Q414 540 451 503T491 403Q525 463 578 501T699 540Q777 540 815 487T834 345L761 0H726L799 345Q816 422 787 464T696 506Q639 506 593
473T514 382T465 249L412 0H377L450 345Q467 422 438 464T347 506Q290 506 244 472T165 380T117 248L64 0H29Z" />
<glyph unicode="n" glyph-name="n" horiz-adv-x="548" d="M29 0L142 530H177L153 420H156Q169 442 194 470T256 519T344 540Q402 540 439 513T491 441T494 342L422 0H387L460 345Q469 388 460 425T421 484T340 507Q280 507 236 473T163 382T120 262L64 0H29Z" />
<glyph unicode="o" glyph-name="o" horiz-adv-x="595" d="M264 -10Q193 -10 148 22T80 107T58 220Q58 276 76 332T131 436T218 511T336 540Q407 540 452 508T520 423T542 310Q542 254 524 198T469 94T382 19T264 -10ZM264 24Q322 24 367 49T443 117T491 210T507
311Q507 363 489 407T433 478T336 506Q278 506 233 481T157 413T110 320T93 219Q93 168 111 124T168 52T264 24Z" />
<glyph unicode="p" glyph-name="p" horiz-adv-x="608" d="M-8 -195L147 530H182L160 430H164Q164 430 176 446T212 485T273 523T358 540Q425 540 468 508T533 425T555 313Q555 256 537 199T483 95T398 19T282 -10Q237 -10 205 4T153 38T121 78T105 113T100 127H96L27
-195H-8ZM119 213Q119 163 136 120T189 50T282 24Q339 24 383 50T457 119T504 213T520 315Q520 366 503 409T450 479T358 506Q302 506 258 480T183 410T136 316T119 213Z" />
<glyph unicode="q" glyph-name="q" horiz-adv-x="612" d="M389 -195L453 100H449Q449 100 437 84T401 45T340 7T255 -10Q189 -10 145 22T80 106T58 217Q58 274 76 331T130 435T216 511T331 540Q376 540 408 526T460 492T492 452T508 417T513 403H517L544 530H579L424
-195H389ZM255 24Q311 24 355 50T430 120T477 214T494 317Q494 368 477 411T424 480T331 506Q274 506 230 480T156 411T109 317T93 215Q93 165 110 121T163 51T255 24Z" />
<glyph unicode="r" glyph-name="r" horiz-adv-x="370" d="M29 0L142 530H177L161 456H165Q188 488 225 514T321 540Q341 540 356 538T372 535L365 501Q365 501 349 503T315 506Q277 506 240 487T174 421T126 292L64 0H29Z" />
<glyph unicode="s" glyph-name="s" horiz-adv-x="470" d="M205 -10Q150 -10 116 6T63 47T36 96T27 136T26 153H61Q61 153 62 140T69 108T90 70T133 37T205 24Q268 24 311 55T354 138Q354 178 331 201T274 240L209 272Q169 292 140 321T110 400Q110 461 157 500T278
540Q328 540 359 525T407 487T431 443T440 405T442 389H407Q407 389 405 406T391 447T353 488T278 506Q220 506 183 479T145 402Q145 364 168 342T225 304L287 274Q314 261 337 244T375 203T390 141Q390 96 366 62T300 9T205 -10Z" />
<glyph unicode="t" glyph-name="t" horiz-adv-x="362" d="M190 -10Q134 -10 110 22T99 121L180 500H90L96 530H186L215 665H249L220 530H346L340 500H214L131 111Q123 71 135 46T196 20Q221 20 244 25T267 30L261 0Q261 0 240 -5T190 -10Z" />
<glyph unicode="u" glyph-name="u" horiz-adv-x="540" d="M202 -10Q122 -10 86 45T71 199L141 530H176L106 199Q88 114 113 69T209 23Q273 23 319 59T395 155T440 288L491 530H526L414 0H379L401 106H397Q385 88 360 61T296 12T202 -10Z" />
<glyph unicode="v" glyph-name="v" horiz-adv-x="509" d="M177 0L80 530H115L203 43L500 530H540L216 0H177Z" />
<glyph unicode="w" glyph-name="w" horiz-adv-x="807" d="M146 0L80 530H114L174 48L439 530H475L535 48L800 530H838L545 0H506L447 476L184 0H146Z" />
<glyph unicode="x" glyph-name="x" horiz-adv-x="535" d="M-9 0L238 270L110 530H147L266 288L488 530H533L283 259L411 0H374L256 240L36 0H-9Z" />
<glyph unicode="y" glyph-name="y" horiz-adv-x="522" d="M-35 -196Q-51 -196 -62 -195T-73 -193L-66 -159Q-66 -159 -53 -160T-26 -162Q28 -162 79 -128T175 -21L188 0L92 530H127L215 43L513 530H553L206 -36Q108 -196 -35 -196Z" />
<glyph unicode="z" glyph-name="z" horiz-adv-x="502" d="M-8 0L-2 26L448 500H121L128 530H503L497 504L46 30H396L390 0H-8Z" />
<glyph unicode="{" glyph-name="braceleft" horiz-adv-x="391" d="M168 -182Q115 -182 93 -152T80 -78L146 235Q153 267 141 286T91 305H71L77 335H97Q168 335 184 412L249 718Q260 768 292 795T371 822H477L470 790H371Q337 790 314 773T283 720L217 409Q210
378 196 356T150 321V319Q176 307 181 285T179 231L113 -80Q106 -113 120 -131T168 -150H270L263 -182H168Z" />
<glyph unicode="|" glyph-name="bar" horiz-adv-x="394" d="M63 -222L312 950H346L97 -222H63Z" />
<glyph unicode="}" glyph-name="braceright" horiz-adv-x="391" d="M271 822Q324 822 346 792T359 718L293 405Q286 373 298 354T348 335H368L362 305H342Q271 305 255 228L190 -78Q180 -128 148 -155T68 -182H-38L-31 -150H68Q103 -150 126 -133T156 -80L222
231Q229 262 243 284T289 319V321Q263 333 258 355T260 409L326 720Q333 753 320 771T271 790H169L176 822H271Z" />
<glyph unicode="~" glyph-name="asciitilde" horiz-adv-x="429" d="M282 321Q260 321 246 333T223 361T203 390T177 402Q158 402 145 381T126 326H95Q103 372 124 401T180 431Q204 431 217 419T240 391T260 362T285 350Q322 350 334 426H365Q357 383 337 352T282 321Z" />
<glyph unicode="&#xa0;" glyph-name="uni00A0" horiz-adv-x="230" />
<glyph unicode="&#xa1;" glyph-name="exclamdown" horiz-adv-x="241" d="M184 534Q199 534 209 524T220 498Q220 483 210 473T184 463Q169 463 159 473T148 498Q148 513 158 523T184 534ZM20 -216L148 386H178L54 -216H20Z" />
<glyph unicode="&#xa2;" glyph-name="cent" horiz-adv-x="571" d="M203 -86L220 -6Q165 4 129 37T76 117T59 218Q59 280 77 338T132 441T219 513T336 540L352 616H384L368 539Q416 534 446 515T492 471T515 422T523 381T524 365H490Q490 365 489 378T483 410T465
450T426 486T360 505L258 24H264Q310 24 343 38T398 73T434 116T452 151T458 165H495Q495 165 488 148T465 104T423 52T357 8T264 -10Q257 -10 251 -10L235 -86H203ZM95 219Q95 173 109 133T152 64T227 27L329 506Q254 503 202 462T123 357T95 219Z" />
<glyph unicode="&#xa3;" glyph-name="sterling" horiz-adv-x="606" d="M27 0L35 37Q87 47 130 77T200 153T226 253Q226 273 223 292T214 331H103L110 361H206Q195 397 185 434T175 512Q175 579 207 632T300 718T443 750Q488 750 524 744T581 730T602 723L595 690Q595
690 575 696T520 709T443 716Q368 716 316 689T237 616T210 513Q210 473 220 436T242 361H476L469 331H250Q255 312 258 293T261 252Q261 202 245 165T205 103T157 62T117 41T101 34H505L498 0H27Z" />
<glyph unicode="&#xa4;" glyph-name="currency" horiz-adv-x="554" d="M93 147L70 169L140 239Q120 263 109 293T97 358Q97 390 107 419T137 472L70 538L93 561L159 495Q183 517 214 529T281 542Q315 542 345 531T400 499L462 561L484 538L422 476Q442 452 453
422T465 358Q465 323 453 292T419 235L484 169L462 147L395 213Q372 195 343 185T281 174Q247 174 217 185T163 217L93 147ZM281 206Q323 206 357 226T412 281T433 357Q433 399 413 433T358 488T281 509Q239 509 205 489T150 434T129 357Q129 316 149 282T204 227T281
206Z" />
<glyph unicode="&#xa5;" glyph-name="yen" horiz-adv-x="649" d="M252 0L302 234H143L150 265H308L311 278L293 326H162L169 357H282L141 740H177L333 314L669 740H712L409 357H541L535 326H384L346 278L343 265H522L515 234H337L287 0H252Z" />
<glyph unicode="&#xa6;" glyph-name="brokenbar" horiz-adv-x="394" d="M201 428L312 951H346L235 428H201ZM63 -222L167 267H201L97 -222H63Z" />
<glyph unicode="&#xa7;" glyph-name="section" horiz-adv-x="641" d="M243 -238Q183 -238 141 -222T71 -181T29 -126T6 -72T-2 -30T-4 -14H30Q30 -14 33 -33T46 -80T79 -136T142 -184T243 -203Q302 -203 349 -183T425 -126T453 -35Q453 26 418 63T330 120L208
166Q145 190 110 226T75 310Q75 355 95 382T144 424T198 443T234 450L235 454Q201 479 180 512T158 594Q158 651 187 693T267 760T384 784Q449 784 491 763T556 711T590 649T602 597T605 576H571Q571 576 569 593T559 637T531 689T475 732T383 750Q330 750 287
732T219 679T194 598Q194 541 227 506T312 451L434 405Q497 381 532 345T567 261Q567 216 547 189T498 147T444 128T408 121L407 117Q448 91 468 55T489 -31Q489 -93 458 -140T372 -212T243 -238ZM361 143Q361 143 378 143T420 147T471 162T514 196T531 255Q531
292 506 322T417 376L281 428Q281 428 264 428T222 424T171 409T128 375T111 316Q111 279 136 249T225 195L361 143Z" />
<glyph unicode="&#xa8;" glyph-name="dieresis" horiz-adv-x="265" d="M247 630Q232 630 222 640T212 666Q212 680 222 691T247 702Q262 702 272 691T283 666Q283 651 273 641T247 630ZM108 630Q93 630 83 640T73 666Q73 680 83 691T108 702Q123 702 133 691T144
666Q144 651 134 641T108 630Z" />
<glyph unicode="&#xa9;" glyph-name="copyright" horiz-adv-x="803" d="M374 -3Q296 -3 239 23T144 95T88 198T69 318Q69 390 93 461T166 589T284 682T447 717Q525 717 582 691T677 619T733 516T752 396Q752 324 728 253T655 125T537 32T374 -3ZM374 32Q458 32
521 64T628 149T694 266T716 396Q716 471 687 536T599 641T447 682Q363 682 300 650T193 565T127 448T105 318Q105 243 134 178T223 73T374 32ZM388 137Q331 137 295 162T240 229T222 318Q222 363 237 409T282 493T353 554T450 577Q496 577 524 563T567 527T589
485T597 450T598 435H565Q565 435 564 451T552 489T518 527T448 544Q402 544 367 524T307 471T270 399T257 320Q257 280 271 245T314 189T388 168Q432 168 461 184T508 222T532 260T539 277H575Q575 277 570 263T551 228T517 186T464 151T388 137Z" />
<glyph unicode="&#xaa;" glyph-name="ordfeminine" horiz-adv-x="376" d="M312 481Q312 481 301 467T267 439T208 424Q166 424 140 448T114 509Q114 547 142 574T227 603L343 608L348 630Q352 649 349 670T330 706T278 721Q247 721 229 711T201 687T188 664T184
653H151Q151 653 156 667T174 701T213 735T278 750Q337 750 364 715T381 626L339 430H306L316 481H312ZM147 511Q147 483 167 468T216 452Q261 452 292 485T333 562L337 580L229 576Q191 575 169 558T147 511Z" />
<glyph unicode="&#xab;" glyph-name="guillemotleft" horiz-adv-x="570" d="M455 120L297 323L541 525H590L340 319L495 120H455ZM214 120L56 323L300 525H349L99 319L254 120H214Z" />
<glyph unicode="&#xac;" glyph-name="logicalnot" horiz-adv-x="655" d="M125 496L132 530H627L620 496V496L575 285H541L586 496H125Z" />
<glyph unicode="&#xad;" glyph-name="uni00AD" horiz-adv-x="600" d="M111 296L118 330H490L483 296H111Z" />
<glyph unicode="&#xae;" glyph-name="registered" horiz-adv-x="422" d="M261 402Q209 402 175 424T125 483T108 561Q108 608 129 653T192 727T295 757Q347 757 381 734T431 675T448 598Q448 551 427 506T364 431T261 402ZM261 424Q315 424 351 450T406 516T425
597Q425 633 411 664T368 715T294 735Q241 735 205 709T150 643T131 561Q131 526 145 495T188 444T261 424ZM201 483L242 676H298Q329 676 342 660T356 626Q356 606 343 588T301 566L332 483H308L278 565H241L224 483H201ZM298 656H261L246 585H289Q310 585 321
597T332 626Q332 637 324 646T298 656Z" />
<glyph unicode="&#xaf;" glyph-name="overscore" horiz-adv-x="340" d="M165 633L171 663H451L445 633H165Z" />
<glyph unicode="&#xb0;" glyph-name="degree" horiz-adv-x="451" d="M296 422Q251 422 214 444T155 503T132 586Q132 631 154 668T214 728T296 750Q342 750 379 728T438 669T460 586Q460 541 438 504T379 444T296 422ZM296 457Q332 457 361 474T407 521T425 586Q425
622 408 651T361 698T296 715Q261 715 232 698T185 651T167 586Q167 551 184 522T230 475T296 457Z" />
<glyph unicode="&#xb1;" glyph-name="plusminus" horiz-adv-x="617" d="M267 147L303 316H134L141 350H310L346 519H380L344 350H513L506 316H337L301 147H267ZM48 0L55 33H466L459 0H48Z" />
<glyph unicode="&#xb2;" glyph-name="uni00B2" horiz-adv-x="374" d="M99 427L104 450L218 540Q257 571 288 597T338 650T357 707Q357 739 335 758T279 777Q246 777 227 764T199 732T188 700T185 686H156Q156 686 159 704T174 746T211 788T280 806Q330 806 359
778T388 708Q388 674 368 644T314 583T237 520L155 456H356L350 427H99Z" />
<glyph unicode="&#xb3;" glyph-name="uni00B3" horiz-adv-x="360" d="M232 422Q183 422 157 439T119 479T106 519T104 536H134Q134 536 135 523T145 493T174 463T232 450Q282 450 307 476T333 536Q333 563 319 578T284 601T245 608H202L207 634H253Q294 634 322
654T350 710Q350 741 329 760T271 779Q238 779 220 767T192 740T181 713T179 701H151Q151 701 154 717T168 753T204 790T272 806Q323 806 352 779T381 713Q381 687 371 670T345 642T318 627T303 621V620Q306 619 321 611T350 584T365 534Q365 507 350 482T305 439T232
422Z" />
<glyph unicode="&#xb4;" glyph-name="acute" horiz-adv-x="202" d="M149 618H119L192 770H229L149 618Z" />
<glyph unicode="&#xb5;" glyph-name="uni00B5" horiz-adv-x="632" d="M29 -199L185 530H219L149 199Q131 114 158 69T253 23Q315 23 360 57T435 146T476 258L534 530H568L479 110Q470 67 478 44T530 20Q545 20 554 22T563 24L557 -6Q557 -6 548 -8T521 -10Q475
-10 453 16T445 110H441Q429 90 404 62T342 12T253 -10Q209 -10 182 2T141 32T121 61T116 74L112 73Q112 73 110 50T103 -7T90 -79L64 -199H29Z" />
<glyph unicode="&#xb6;" glyph-name="paragraph" horiz-adv-x="504" d="M246 0H216L293 363H279Q219 363 180 385T122 442T103 517Q103 562 126 604T193 673T301 700H501L352 0H322L465 670H389L246 0Z" />
<glyph unicode="&#xb7;" glyph-name="middot" horiz-adv-x="255" d="M101 333Q85 333 75 344T64 371Q64 386 74 397T101 408Q117 408 128 397T139 371Q139 355 128 344T101 333Z" />
<glyph unicode="&#xb8;" glyph-name="cedilla" horiz-adv-x="234" d="M64 -249Q33 -249 12 -243T-10 -237L-3 -207Q-3 -207 19 -212T64 -218Q105 -218 124 -199T143 -157Q143 -135 127 -118T80 -101Q55 -101 39 -110T23 -119L8 -100L86 0H121L65 -72Q75 -70 86
-70Q131 -70 154 -96T178 -154Q178 -189 150 -219T64 -249Z" />
<glyph unicode="&#xb9;" glyph-name="uni00B9" horiz-adv-x="232" d="M262 801L183 427H152L218 737H152L157 755L170 758Q199 765 214 773T241 796L245 801H262Z" />
<glyph unicode="&#xba;" glyph-name="ordmasculine" horiz-adv-x="405" d="M252 424Q209 424 182 443T141 493T127 561Q127 605 146 648T203 721T295 750Q338 750 365 731T406 681T420 614Q420 570 400 526T343 453T252 424ZM253 454Q296 454 325 478T371 540T387
613Q387 656 364 688T294 720Q252 720 222 696T175 635T159 561Q159 518 182 486T253 454Z" />
<glyph unicode="&#xbb;" glyph-name="guillemotright" horiz-adv-x="570" d="M254 120L504 326L349 525H389L547 322L303 120H254ZM13 120L263 326L108 525H148L306 322L62 120H13Z" />
<glyph unicode="&#xbc;" glyph-name="onequarter" horiz-adv-x="785" d="M233 708L157 353H121L182 640L118 639L122 661L135 664Q161 670 176 678T208 703L212 708H233ZM186 0L541 700H577L221 0H186ZM649 -2L668 84H493L500 116L718 353H761L710 115H771L765
84H703L685 -2H649ZM541 115H674L715 303L541 115Z" />
<glyph unicode="&#xbd;" glyph-name="onehalf" horiz-adv-x="797" d="M233 708L157 353H121L182 640L118 639L122 661L135 664Q161 670 176 678T208 703L212 708H233ZM186 0L541 700H577L221 0H186ZM517 -2L523 23L630 107Q665 134 694 158T740 207T758 260Q758
290 738 307T686 325Q656 325 639 313T614 284T603 255T601 242H567Q567 242 570 259T585 300T621 340T688 358Q737 358 765 330T794 261Q794 215 755 175T651 86L578 30H765L758 -2H517Z" />
<glyph unicode="&#xbe;" glyph-name="threequarters" horiz-adv-x="881" d="M205 348Q158 348 133 364T98 403T85 441T83 458H118Q118 458 119 446T129 419T154 392T205 380Q250 380 273 404T297 458Q297 482 285 496T254 516T218 522H177L183 552H228Q263 552
288 570T313 620Q313 647 294 664T243 681Q213 681 196 671T172 646T162 622T160 611H125Q125 611 128 626T142 662T177 697T244 713Q295 713 322 687T350 624Q350 588 328 567T277 537V535Q297 528 316 509T335 455Q335 430 320 405T277 364T205 348ZM313 0L668
700H704L348 0H313ZM776 -2L795 84H620L627 116L845 353H888L837 115H898L892 84H830L812 -2H776ZM668 115H801L842 303L668 115Z" />
<glyph unicode="&#xbf;" glyph-name="questiondown" horiz-adv-x="580" d="M343 538Q358 538 368 528T379 502Q379 488 369 478T343 467Q328 467 318 477T307 502Q307 517 317 527T343 538ZM212 -222Q155 -222 110 -199T40 -134T14 -38Q14 15 34 53T85 122T153
178T222 232T279 293T307 370L309 388H342L340 370Q335 320 312 284T255 219T187 165T120 111T69 48T49 -37Q49 -83 71 -117T130 -169T213 -188Q269 -188 306 -168T365 -119T397 -60T411 -10T414 10H448Q448 10 444 -13T428 -71T390 -140T321 -198T212 -222Z" />
<glyph unicode="&#xc0;" glyph-name="Agrave" horiz-adv-x="657" d="M447 828L387 980H423L476 828H447ZM4 0L428 740H471L581 0H545L513 220H171L45 0H4ZM189 252H508L443 697L189 252Z" />
<glyph unicode="&#xc1;" glyph-name="Aacute" horiz-adv-x="657" d="M478 828H448L521 980H558L478 828ZM4 0L428 740H471L581 0H545L513 220H171L45 0H4ZM189 252H508L443 697L189 252Z" />
<glyph unicode="&#xc2;" glyph-name="Acircumflex" horiz-adv-x="657" d="M336 818L476 956H513L595 818H559L493 931L380 818H336ZM4 0L428 740H471L581 0H545L513 220H171L45 0H4ZM189 252H508L443 697L189 252Z" />
<glyph unicode="&#xc3;" glyph-name="Atilde" horiz-adv-x="657" d="M531 831Q509 831 495 843T472 871T452 900T426 912Q407 912 394 891T375 836H344Q352 882 373 911T429 941Q453 941 466 929T489 901T509 872T534 860Q571 860 583 936H614Q606 893 586 862T531
831ZM4 0L428 740H471L581 0H545L513 220H171L45 0H4ZM189 252H508L443 697L189 252Z" />
<glyph unicode="&#xc4;" glyph-name="Adieresis" horiz-adv-x="657" d="M546 840Q531 840 521 850T511 876Q511 891 521 901T546 912Q561 912 571 902T582 876Q582 861 572 851T546 840ZM407 840Q392 840 382 850T372 876Q372 891 382 901T407 912Q422 912 432
902T443 876Q443 861 433 851T407 840ZM4 0L428 740H471L581 0H545L513 220H171L45 0H4ZM189 252H508L443 697L189 252Z" />
<glyph unicode="&#xc5;" glyph-name="Aring" horiz-adv-x="657" d="M486 824Q447 824 420 851T393 917Q393 956 420 983T486 1011Q525 1011 552 984T579 917Q579 879 552 852T486 824ZM486 854Q512 854 530 872T549 917Q549 943 531 962T486 981Q460 981 442 962T423
917Q423 891 441 873T486 854ZM4 0L428 740H471L581 0H545L513 220H171L45 0H4ZM189 252H508L443 697L189 252Z" />
<glyph unicode="&#xc6;" glyph-name="AE" horiz-adv-x="928" d="M4 0L548 740H978L971 706H593L527 396H856L849 362H520L450 34H834L827 0H408L455 220H208L46 0H4ZM231 252H461L555 693L231 252Z" />
<glyph unicode="&#xc7;" glyph-name="Ccedilla" horiz-adv-x="746" d="M313 -249Q282 -249 261 -243T239 -237L246 -207Q246 -207 268 -212T313 -218Q354 -218 373 -199T392 -157Q392 -135 376 -118T329 -101Q304 -101 288 -110T272 -119L257 -100L328 -9Q240
-3 183 43T97 160T69 313Q69 390 93 467T167 609T288 711T455 750Q520 750 564 733T635 687T677 628T698 569T704 524T705 506H669Q669 506 668 527T659 579T628 642T563 695T453 716Q368 716 303 681T194 586T128 456T105 314Q105 238 131 172T213 65T354 24Q421
24 468 45T548 97T598 160T625 213T633 234H670Q670 234 662 210T633 151T577 79T489 18T362 -10L314 -72Q324 -70 335 -70Q380 -70 403 -96T427 -154Q427 -189 399 -219T313 -249Z" />
<glyph unicode="&#xc8;" glyph-name="Egrave" horiz-adv-x="554" d="M377 828L317 980H353L406 828H377ZM34 0L191 740H604L597 706H219L153 396H482L475 362H146L76 34H460L453 0H34Z" />
<glyph unicode="&#xc9;" glyph-name="Eacute" horiz-adv-x="554" d="M408 828H378L451 980H488L408 828ZM34 0L191 740H604L597 706H219L153 396H482L475 362H146L76 34H460L453 0H34Z" />
<glyph unicode="&#xca;" glyph-name="Ecircumflex" horiz-adv-x="554" d="M266 818L406 956H443L525 818H489L423 931L310 818H266ZM34 0L191 740H604L597 706H219L153 396H482L475 362H146L76 34H460L453 0H34Z" />
<glyph unicode="&#xcb;" glyph-name="Edieresis" horiz-adv-x="554" d="M476 840Q461 840 451 850T441 876Q441 891 451 901T476 912Q491 912 501 902T512 876Q512 861 502 851T476 840ZM337 840Q322 840 312 850T302 876Q302 891 312 901T337 912Q352 912 362
902T373 876Q373 861 363 851T337 840ZM34 0L191 740H604L597 706H219L153 396H482L475 362H146L76 34H460L453 0H34Z" />
<glyph unicode="&#xcc;" glyph-name="Igrave" horiz-adv-x="214" d="M208 828L148 980H184L237 828H208ZM34 0L191 740H226L69 0H34Z" />
<glyph unicode="&#xcd;" glyph-name="Iacute" horiz-adv-x="214" d="M239 828H209L282 980H319L239 828ZM34 0L191 740H226L69 0H34Z" />
<glyph unicode="&#xce;" glyph-name="Icircumflex" horiz-adv-x="214" d="M97 818L240 970H277L356 818H320L256 944L140 818H97ZM34 0L191 740H226L69 0H34Z" />
<glyph unicode="&#xcf;" glyph-name="Idieresis" horiz-adv-x="214" d="M307 840Q292 840 282 850T272 876Q272 891 282 901T307 912Q322 912 332 902T343 876Q343 861 333 851T307 840ZM168 840Q153 840 143 850T133 876Q133 891 143 901T168 912Q183 912 193
902T204 876Q204 861 194 851T168 840ZM34 0L191 740H226L69 0H34Z" />
<glyph unicode="&#xd0;" glyph-name="Eth" horiz-adv-x="760" d="M79 0L154 354H50L57 386H161L236 740H410Q489 740 546 715T642 647T698 549T717 433Q717 357 689 281T606 141T471 39T287 0H79ZM353 354H189L121 34H287Q382 34 455 69T579 163T655 291T681 431Q681
504 652 566T563 667T410 706H264L196 386H360L353 354Z" />
<glyph unicode="&#xd1;" glyph-name="Ntilde" horiz-adv-x="716" d="M554 831Q532 831 518 843T495 871T475 900T449 912Q430 912 417 891T398 836H367Q375 882 396 911T452 941Q476 941 489 929T512 901T532 872T557 860Q594 860 606 936H637Q629 893 609 862T554
831ZM34 0L191 740H227L547 54L693 740H728L571 0H535L215 687L69 0H34Z" />
<glyph unicode="&#xd2;" glyph-name="Ograve" horiz-adv-x="782" d="M471 828L411 980H447L500 828H471ZM353 -10Q280 -10 226 15T137 85T85 186T68 306Q68 384 94 462T169 606T290 710T454 750Q527 750 580 725T669 655T721 553T738 434Q738 356 713 278T638
134T517 30T353 -10ZM353 24Q436 24 501 60T611 157T679 289T702 434Q702 509 676 573T595 676T454 716Q371 716 306 680T196 583T128 450T104 306Q104 231 130 167T212 64T353 24Z" />
<glyph unicode="&#xd3;" glyph-name="Oacute" horiz-adv-x="782" d="M502 828H472L545 980H582L502 828ZM353 -10Q280 -10 226 15T137 85T85 186T68 306Q68 384 94 462T169 606T290 710T454 750Q527 750 580 725T669 655T721 553T738 434Q738 356 713 278T638
134T517 30T353 -10ZM353 24Q436 24 501 60T611 157T679 289T702 434Q702 509 676 573T595 676T454 716Q371 716 306 680T196 583T128 450T104 306Q104 231 130 167T212 64T353 24Z" />
<glyph unicode="&#xd4;" glyph-name="Ocircumflex" horiz-adv-x="782" d="M360 818L500 956H537L619 818H583L517 931L404 818H360ZM353 -10Q280 -10 226 15T137 85T85 186T68 306Q68 384 94 462T169 606T290 710T454 750Q527 750 580 725T669 655T721 553T738
434Q738 356 713 278T638 134T517 30T353 -10ZM353 24Q436 24 501 60T611 157T679 289T702 434Q702 509 676 573T595 676T454 716Q371 716 306 680T196 583T128 450T104 306Q104 231 130 167T212 64T353 24Z" />
<glyph unicode="&#xd5;" glyph-name="Otilde" horiz-adv-x="782" d="M555 831Q533 831 519 843T496 871T476 900T450 912Q431 912 418 891T399 836H368Q376 882 397 911T453 941Q477 941 490 929T513 901T533 872T558 860Q595 860 607 936H638Q630 893 610 862T555
831ZM353 -10Q280 -10 226 15T137 85T85 186T68 306Q68 384 94 462T169 606T290 710T454 750Q527 750 580 725T669 655T721 553T738 434Q738 356 713 278T638 134T517 30T353 -10ZM353 24Q436 24 501 60T611 157T679 289T702 434Q702 509 676 573T595 676T454 716Q371
716 306 680T196 583T128 450T104 306Q104 231 130 167T212 64T353 24Z" />
<glyph unicode="&#xd6;" glyph-name="Odieresis" horiz-adv-x="782" d="M570 840Q555 840 545 850T535 876Q535 891 545 901T570 912Q585 912 595 902T606 876Q606 861 596 851T570 840ZM431 840Q416 840 406 850T396 876Q396 891 406 901T431 912Q446 912 456
902T467 876Q467 861 457 851T431 840ZM353 -10Q280 -10 226 15T137 85T85 186T68 306Q68 384 94 462T169 606T290 710T454 750Q527 750 580 725T669 655T721 553T738 434Q738 356 713 278T638 134T517 30T353 -10ZM353 24Q436 24 501 60T611 157T679 289T702 434Q702
509 676 573T595 676T454 716Q371 716 306 680T196 583T128 450T104 306Q104 231 130 167T212 64T353 24Z" />
<glyph unicode="&#xd7;" glyph-name="multiply" horiz-adv-x="494" d="M89 194L236 315L144 431L169 455L262 337L404 454L427 430L283 311L374 195L349 171L256 289L112 170L89 194Z" />
<glyph unicode="&#xd8;" glyph-name="Oslash" horiz-adv-x="782" d="M47 -23L138 84Q103 128 86 185T68 306Q68 384 94 462T169 606T290 710T454 750Q516 750 564 731T646 680L718 764H759L667 656Q703 613 720 555T738 434Q738 356 713 278T638 134T517 30T353
-10Q290 -10 242 9T160 61L88 -23H47ZM104 306Q104 251 118 201T162 112L623 652Q593 682 551 699T454 716Q371 716 306 680T196 583T128 450T104 306ZM353 24Q436 24 501 60T611 157T679 289T702 434Q702 489 688 539T644 629L183 88Q213 58 255 41T353 24Z" />
<glyph unicode="&#xd9;" glyph-name="Ugrave" horiz-adv-x="693" d="M447 828L387 980H423L476 828H447ZM310 -10Q241 -10 194 13T120 77T87 167T91 270L191 740H226L126 270Q102 156 153 90T311 24Q383 24 435 54T520 138T568 260L670 740H705L603 260Q588 187
552 126T457 27T310 -10Z" />
<glyph unicode="&#xda;" glyph-name="Uacute" horiz-adv-x="693" d="M478 828H448L521 980H558L478 828ZM310 -10Q241 -10 194 13T120 77T87 167T91 270L191 740H226L126 270Q102 156 153 90T311 24Q383 24 435 54T520 138T568 260L670 740H705L603 260Q588 187
552 126T457 27T310 -10Z" />
<glyph unicode="&#xdb;" glyph-name="Ucircumflex" horiz-adv-x="693" d="M336 818L479 970H516L595 818H559L495 944L379 818H336ZM310 -10Q241 -10 194 13T120 77T87 167T91 270L191 740H226L126 270Q102 156 153 90T311 24Q383 24 435 54T520 138T568 260L670
740H705L603 260Q588 187 552 126T457 27T310 -10Z" />
<glyph unicode="&#xdc;" glyph-name="Udieresis" horiz-adv-x="693" d="M546 840Q531 840 521 850T511 876Q511 891 521 901T546 912Q561 912 571 902T582 876Q582 861 572 851T546 840ZM407 840Q392 840 382 850T372 876Q372 891 382 901T407 912Q422 912 432
902T443 876Q443 861 433 851T407 840ZM310 -10Q241 -10 194 13T120 77T87 167T91 270L191 740H226L126 270Q102 156 153 90T311 24Q383 24 435 54T520 138T568 260L670 740H705L603 260Q588 187 552 126T457 27T310 -10Z" />
<glyph unicode="&#xdd;" glyph-name="Yacute" horiz-adv-x="621" d="M432 828H402L475 980H512L432 828ZM234 0L293 278L123 740H159L315 314L651 740H694L328 278L269 0H234Z" />
<glyph unicode="&#xde;" glyph-name="Thorn" horiz-adv-x="606" d="M34 0L191 740H226L195 594H359Q435 594 484 566T558 492T583 394Q583 349 565 305T512 225T426 168T306 146H100L69 0H34ZM358 560H188L107 180H307Q386 180 439 212T520 293T548 393Q548 436
528 474T465 536T358 560Z" />
<glyph unicode="&#xdf;" glyph-name="germandbls" horiz-adv-x="590" d="M392 750Q472 750 522 705T572 585Q572 521 530 466T405 387V384Q440 376 467 350T509 288T525 217Q525 155 491 104T394 21T250 -10Q227 -10 203 -9T163 -6T146 -4L151 30Q151 30 167 29T207
26T250 24Q324 24 377 50T459 120T488 217Q488 284 444 327T329 370H231L239 403H337Q394 403 439 428T510 494T536 585Q536 629 516 658T464 701T392 716Q347 716 304 700T228 641T179 524L67 -4H33L146 527Q171 643 237 696T392 750Z" />
<glyph unicode="&#xe0;" glyph-name="agrave" horiz-adv-x="599" d="M355 618L295 770H331L384 618H355ZM336 540Q381 540 413 526T465 492T497 452T513 417T518 403H522L549 530H584L471 0H436L458 100H454Q454 100 442 84T406 45T345 7T260 -10Q194 -10 150
22T85 106T63 217Q63 274 81 331T135 435T221 511T336 540ZM336 506Q279 506 235 480T161 411T114 317T98 215Q98 165 115 121T168 51T260 24Q316 24 360 50T435 120T482 214T499 317Q499 368 482 411T429 480T336 506Z" />
<glyph unicode="&#xe1;" glyph-name="aacute" horiz-adv-x="599" d="M386 618H356L429 770H466L386 618ZM336 540Q381 540 413 526T465 492T497 452T513 417T518 403H522L549 530H584L471 0H436L458 100H454Q454 100 442 84T406 45T345 7T260 -10Q194 -10 150
22T85 106T63 217Q63 274 81 331T135 435T221 511T336 540ZM336 506Q279 506 235 480T161 411T114 317T98 215Q98 165 115 121T168 51T260 24Q316 24 360 50T435 120T482 214T499 317Q499 368 482 411T429 480T336 506Z" />
<glyph unicode="&#xe2;" glyph-name="acircumflex" horiz-adv-x="599" d="M244 608L387 760H424L503 608H467L403 734L287 608H244ZM336 540Q381 540 413 526T465 492T497 452T513 417T518 403H522L549 530H584L471 0H436L458 100H454Q454 100 442 84T406 45T345
7T260 -10Q194 -10 150 22T85 106T63 217Q63 274 81 331T135 435T221 511T336 540ZM336 506Q279 506 235 480T161 411T114 317T98 215Q98 165 115 121T168 51T260 24Q316 24 360 50T435 120T482 214T499 317Q499 368 482 411T429 480T336 506Z" />
<glyph unicode="&#xe3;" glyph-name="atilde" horiz-adv-x="599" d="M439 621Q417 621 403 633T380 661T360 690T334 702Q315 702 302 681T283 626H252Q260 672 281 701T337 731Q361 731 374 719T397 691T417 662T442 650Q479 650 491 726H522Q514 683 494 652T439
621ZM336 540Q381 540 413 526T465 492T497 452T513 417T518 403H522L549 530H584L471 0H436L458 100H454Q454 100 442 84T406 45T345 7T260 -10Q194 -10 150 22T85 106T63 217Q63 274 81 331T135 435T221 511T336 540ZM336 506Q279 506 235 480T161 411T114 317T98
215Q98 165 115 121T168 51T260 24Q316 24 360 50T435 120T482 214T499 317Q499 368 482 411T429 480T336 506Z" />
<glyph unicode="&#xe4;" glyph-name="adieresis" horiz-adv-x="599" d="M454 630Q439 630 429 640T419 666Q419 680 429 691T454 702Q469 702 479 691T490 666Q490 651 480 641T454 630ZM315 630Q300 630 290 640T280 666Q280 680 290 691T315 702Q330 702 340
691T351 666Q351 651 341 641T315 630ZM336 540Q381 540 413 526T465 492T497 452T513 417T518 403H522L549 530H584L471 0H436L458 100H454Q454 100 442 84T406 45T345 7T260 -10Q194 -10 150 22T85 106T63 217Q63 274 81 331T135 435T221 511T336 540ZM336 506Q279
506 235 480T161 411T114 317T98 215Q98 165 115 121T168 51T260 24Q316 24 360 50T435 120T482 214T499 317Q499 368 482 411T429 480T336 506Z" />
<glyph unicode="&#xe5;" glyph-name="aring" horiz-adv-x="599" d="M394 614Q355 614 328 641T301 707Q301 746 328 773T394 801Q433 801 460 774T487 707Q487 669 460 642T394 614ZM394 644Q420 644 438 662T457 707Q457 733 439 752T394 771Q368 771 350 752T331
707Q331 681 349 663T394 644ZM336 540Q381 540 413 526T465 492T497 452T513 417T518 403H522L549 530H584L471 0H436L458 100H454Q454 100 442 84T406 45T345 7T260 -10Q194 -10 150 22T85 106T63 217Q63 274 81 331T135 435T221 511T336 540ZM336 506Q279 506
235 480T161 411T114 317T98 215Q98 165 115 121T168 51T260 24Q316 24 360 50T435 120T482 214T499 317Q499 368 482 411T429 480T336 506Z" />
<glyph unicode="&#xe6;" glyph-name="ae" horiz-adv-x="925" d="M187 -10Q119 -10 75 29T31 132Q31 195 77 237T207 284L419 293L429 340Q434 364 434 392T421 447T380 490T301 507Q256 507 226 494T176 462T147 424T134 392T130 379H93Q93 379 98 395T116 435T152
483T212 523T301 540Q370 540 414 507T467 408H468Q504 467 561 503T690 540Q772 540 816 503T873 404T871 270L869 260H448Q439 198 454 144T508 57T614 24Q668 24 705 43T766 87T799 131T810 150H845Q845 150 838 134T813 94T769 46T704 6T613 -10Q555 -10 514
12T448 74T415 160H413Q413 160 406 143T382 101T339 50T275 7T187 -10ZM455 292H840Q849 348 839 397T794 476T688 506Q628 506 581 477T502 400T455 292ZM191 22Q246 22 290 51T364 127T404 226L411 260L210 253Q146 251 106 221T65 135Q65 81 102 52T191 22Z"
/>
<glyph unicode="&#xe7;" glyph-name="ccedilla" horiz-adv-x="550" d="M251 -10Q246 -10 242 -10L189 -78Q199 -76 210 -76Q255 -76 278 -102T302 -160Q302 -195 274 -225T188 -255Q157 -255 136 -249T114 -243L121 -213Q121 -213 143 -218T188 -224Q229 -224
248 -205T267 -163Q267 -141 251 -124T204 -107Q179 -107 163 -116T147 -125L132 -106L210 -7Q153 3 117 36T64 116T46 218Q46 280 64 338T119 441T208 513T328 540Q384 540 419 523T474 479T500 427T509 383T511 365H477Q477 365 476 379T469 414T447 457T402
492T326 506Q268 506 223 483T146 419T98 327T82 219Q82 168 100 124T155 52T251 24Q297 24 330 38T385 73T421 116T439 151T445 165H482Q482 165 475 148T452 104T410 52T344 8T251 -10Z" />
<glyph unicode="&#xe8;" glyph-name="egrave" horiz-adv-x="551" d="M342 616L282 768H318L371 616H342ZM247 -10Q178 -10 133 21T66 103T44 214Q44 272 63 330T119 435T208 511T324 540Q406 540 450 503T507 404T505 270L503 260H82Q73 198 87 144T142 57T248
24Q302 24 339 43T400 87T433 131T444 150H479Q479 150 472 134T447 94T403 46T338 6T247 -10ZM89 292H474Q483 348 473 397T428 476T322 506Q262 506 215 477T136 400T89 292Z" />
<glyph unicode="&#xe9;" glyph-name="eacute" horiz-adv-x="551" d="M373 616H343L416 768H453L373 616ZM247 -10Q178 -10 133 21T66 103T44 214Q44 272 63 330T119 435T208 511T324 540Q406 540 450 503T507 404T505 270L503 260H82Q73 198 87 144T142 57T248
24Q302 24 339 43T400 87T433 131T444 150H479Q479 150 472 134T447 94T403 46T338 6T247 -10ZM89 292H474Q483 348 473 397T428 476T322 506Q262 506 215 477T136 400T89 292Z" />
<glyph unicode="&#xea;" glyph-name="ecircumflex" horiz-adv-x="551" d="M231 606L374 758H411L490 606H454L390 732L274 606H231ZM247 -10Q178 -10 133 21T66 103T44 214Q44 272 63 330T119 435T208 511T324 540Q406 540 450 503T507 404T505 270L503 260H82Q73
198 87 144T142 57T248 24Q302 24 339 43T400 87T433 131T444 150H479Q479 150 472 134T447 94T403 46T338 6T247 -10ZM89 292H474Q483 348 473 397T428 476T322 506Q262 506 215 477T136 400T89 292Z" />
<glyph unicode="&#xeb;" glyph-name="edieresis" horiz-adv-x="551" d="M441 628Q426 628 416 638T406 664Q406 679 416 689T441 700Q456 700 466 690T477 664Q477 649 467 639T441 628ZM302 628Q287 628 277 638T267 664Q267 679 277 689T302 700Q317 700 327
690T338 664Q338 649 328 639T302 628ZM247 -10Q178 -10 133 21T66 103T44 214Q44 272 63 330T119 435T208 511T324 540Q406 540 450 503T507 404T505 270L503 260H82Q73 198 87 144T142 57T248 24Q302 24 339 43T400 87T433 131T444 150H479Q479 150 472 134T447
94T403 46T338 6T247 -10ZM89 292H474Q483 348 473 397T428 476T322 506Q262 506 215 477T136 400T89 292Z" />
<glyph unicode="&#xec;" glyph-name="igrave" horiz-adv-x="216" d="M162 618L102 770H138L191 618H162ZM33 0L146 530H180L67 0H33Z" />
<glyph unicode="&#xed;" glyph-name="iacute" horiz-adv-x="216" d="M193 618H163L236 770H273L193 618ZM33 0L146 530H180L67 0H33Z" />
<glyph unicode="&#xee;" glyph-name="icircumflex" horiz-adv-x="216" d="M51 608L194 760H231L310 608H274L210 734L94 608H51ZM33 0L146 530H180L67 0H33Z" />
<glyph unicode="&#xef;" glyph-name="idieresis" horiz-adv-x="216" d="M261 630Q246 630 236 640T226 666Q226 681 236 691T261 702Q276 702 286 692T297 666Q297 651 287 641T261 630ZM122 630Q107 630 97 640T87 666Q87 681 97 691T122 702Q137 702 147 692T158
666Q158 651 148 641T122 630ZM33 0L146 530H180L67 0H33Z" />
<glyph unicode="&#xf0;" glyph-name="eth" horiz-adv-x="607" d="M266 -10Q194 -10 148 22T80 105T58 217Q58 274 77 331T131 435T219 511T337 540Q401 540 440 515T500 455T531 389Q521 465 491 524T421 626T339 700L216 637L206 664L312 718Q262 750 226 764T189
778L201 807Q201 807 221 800T273 776T344 735L481 805L491 777L371 716Q418 681 461 631T533 514T562 360Q562 286 540 220T478 101T384 20T266 -10ZM265 24Q323 24 368 49T444 117T492 211T509 312Q509 364 491 408T435 479T337 506Q279 506 234 481T158 413T110
319T93 218Q93 167 111 123T167 51T265 24Z" />
<glyph unicode="&#xf1;" glyph-name="ntilde" horiz-adv-x="548" d="M422 621Q400 621 386 633T363 661T343 690T317 702Q298 702 285 681T266 626H235Q243 672 264 701T320 731Q344 731 357 719T380 691T400 662T425 650Q462 650 474 726H505Q497 683 477 652T422
621ZM29 0L142 530H177L153 420H156Q169 442 194 470T256 519T344 540Q402 540 439 513T491 441T494 342L422 0H387L460 345Q469 388 460 425T421 484T340 507Q280 507 236 473T163 382T120 262L64 0H29Z" />
<glyph unicode="&#xf2;" glyph-name="ograve" horiz-adv-x="574" d="M331 618L271 770H307L360 618H331ZM251 -10Q180 -10 135 22T67 107T45 220Q45 276 63 332T118 436T205 511T323 540Q394 540 439 508T507 423T529 310Q529 254 511 198T456 94T369 19T251 -10ZM251
24Q309 24 354 49T430 117T478 210T494 311Q494 363 476 407T420 478T323 506Q265 506 220 481T144 413T97 320T80 219Q80 168 98 124T155 52T251 24Z" />
<glyph unicode="&#xf3;" glyph-name="oacute" horiz-adv-x="574" d="M362 618H332L405 770H442L362 618ZM251 -10Q180 -10 135 22T67 107T45 220Q45 276 63 332T118 436T205 511T323 540Q394 540 439 508T507 423T529 310Q529 254 511 198T456 94T369 19T251 -10ZM251
24Q309 24 354 49T430 117T478 210T494 311Q494 363 476 407T420 478T323 506Q265 506 220 481T144 413T97 320T80 219Q80 168 98 124T155 52T251 24Z" />
<glyph unicode="&#xf4;" glyph-name="ocircumflex" horiz-adv-x="574" d="M220 608L363 760H400L479 608H443L379 734L263 608H220ZM251 -10Q180 -10 135 22T67 107T45 220Q45 276 63 332T118 436T205 511T323 540Q394 540 439 508T507 423T529 310Q529 254 511
198T456 94T369 19T251 -10ZM251 24Q309 24 354 49T430 117T478 210T494 311Q494 363 476 407T420 478T323 506Q265 506 220 481T144 413T97 320T80 219Q80 168 98 124T155 52T251 24Z" />
<glyph unicode="&#xf5;" glyph-name="otilde" horiz-adv-x="574" d="M415 621Q393 621 379 633T356 661T336 690T310 702Q291 702 278 681T259 626H228Q236 672 257 701T313 731Q337 731 350 719T373 691T393 662T418 650Q455 650 467 726H498Q490 683 470 652T415
621ZM251 -10Q180 -10 135 22T67 107T45 220Q45 276 63 332T118 436T205 511T323 540Q394 540 439 508T507 423T529 310Q529 254 511 198T456 94T369 19T251 -10ZM251 24Q309 24 354 49T430 117T478 210T494 311Q494 363 476 407T420 478T323 506Q265 506 220 481T144
413T97 320T80 219Q80 168 98 124T155 52T251 24Z" />
<glyph unicode="&#xf6;" glyph-name="odieresis" horiz-adv-x="574" d="M430 630Q415 630 405 640T395 666Q395 681 405 691T430 702Q445 702 455 692T466 666Q466 651 456 641T430 630ZM291 630Q276 630 266 640T256 666Q256 681 266 691T291 702Q306 702 316
692T327 666Q327 651 317 641T291 630ZM251 -10Q180 -10 135 22T67 107T45 220Q45 276 63 332T118 436T205 511T323 540Q394 540 439 508T507 423T529 310Q529 254 511 198T456 94T369 19T251 -10ZM251 24Q309 24 354 49T430 117T478 210T494 311Q494 363 476 407T420
478T323 506Q265 506 220 481T144 413T97 320T80 219Q80 168 98 124T155 52T251 24Z" />
<glyph unicode="&#xf7;" glyph-name="divide" horiz-adv-x="574" d="M331 439Q315 439 305 450T294 477Q294 492 304 503T331 514Q347 514 358 503T369 477Q369 461 358 450T331 439ZM112 302L119 336H487L480 302H112ZM267 124Q251 124 241 135T230 162Q230 177
240 188T267 199Q283 199 294 188T305 162Q305 146 294 135T267 124Z" />
<glyph unicode="&#xf8;" glyph-name="oslash" horiz-adv-x="595" d="M107 -52L148 23Q102 54 80 106T58 220Q58 276 76 332T131 436T218 511T336 540Q382 540 420 525L452 584H489L449 510Q496 479 519 426T542 310Q542 254 524 198T469 94T382 19T264 -10Q215
-10 176 7L144 -52H107ZM93 219Q93 169 110 125T164 54L403 494Q373 506 336 506Q278 506 233 481T157 413T110 320T93 219ZM264 24Q322 24 367 49T443 117T491 210T507 311Q507 363 489 408T432 479L193 38Q225 24 264 24Z" />
<glyph unicode="&#xf9;" glyph-name="ugrave" horiz-adv-x="540" d="M333 618L273 770H309L362 618H333ZM202 -10Q122 -10 86 45T71 199L141 530H176L106 199Q88 114 113 69T209 23Q273 23 319 59T395 155T440 288L491 530H526L414 0H379L401 106H397Q385 88 360
61T296 12T202 -10Z" />
<glyph unicode="&#xfa;" glyph-name="uacute" horiz-adv-x="540" d="M364 618H334L407 770H444L364 618ZM202 -10Q122 -10 86 45T71 199L141 530H176L106 199Q88 114 113 69T209 23Q273 23 319 59T395 155T440 288L491 530H526L414 0H379L401 106H397Q385 88 360
61T296 12T202 -10Z" />
<glyph unicode="&#xfb;" glyph-name="ucircumflex" horiz-adv-x="540" d="M222 608L365 760H402L481 608H445L381 734L265 608H222ZM202 -10Q122 -10 86 45T71 199L141 530H176L106 199Q88 114 113 69T209 23Q273 23 319 59T395 155T440 288L491 530H526L414 0H379L401
106H397Q385 88 360 61T296 12T202 -10Z" />
<glyph unicode="&#xfc;" glyph-name="udieresis" horiz-adv-x="540" d="M432 630Q417 630 407 640T397 666Q397 681 407 691T432 702Q447 702 457 692T468 666Q468 651 458 641T432 630ZM293 630Q278 630 268 640T258 666Q258 681 268 691T293 702Q308 702 318
692T329 666Q329 651 319 641T293 630ZM202 -10Q122 -10 86 45T71 199L141 530H176L106 199Q88 114 113 69T209 23Q273 23 319 59T395 155T440 288L491 530H526L414 0H379L401 106H397Q385 88 360 61T296 12T202 -10Z" />
<glyph unicode="&#xfd;" glyph-name="yacute" horiz-adv-x="522" d="M339 618H309L382 770H419L339 618ZM-35 -196Q-51 -196 -62 -195T-73 -193L-66 -159Q-66 -159 -53 -160T-26 -162Q28 -162 79 -128T175 -21L188 0L92 530H127L215 43L513 530H553L206 -36Q108
-196 -35 -196Z" />
<glyph unicode="&#xfe;" glyph-name="thorn" horiz-adv-x="608" d="M-8 -195L138 489L196 760H231L182 530V530L160 430H164Q164 430 176 446T212 485T273 523T358 540Q425 540 468 508T533 425T555 313Q555 256 537 199T483 95T398 19T282 -10Q237 -10 205 4T153
38T121 78T105 113T100 127H96L69 0V0L27 -195H-8ZM119 213Q119 163 136 120T189 50T282 24Q339 24 383 50T457 119T504 213T520 315Q520 366 503 409T450 479T358 506Q302 506 258 480T183 410T136 316T119 213Z" />
<glyph unicode="&#xff;" glyph-name="ydieresis" horiz-adv-x="522" d="M407 630Q392 630 382 640T372 666Q372 681 382 691T407 702Q422 702 432 692T443 666Q443 651 433 641T407 630ZM268 630Q253 630 243 640T233 666Q233 681 243 691T268 702Q283 702 293
692T304 666Q304 651 294 641T268 630ZM-35 -196Q-51 -196 -62 -195T-73 -193L-66 -159Q-66 -159 -53 -160T-26 -162Q28 -162 79 -128T175 -21L188 0L92 530H127L215 43L513 530H553L206 -36Q108 -196 -35 -196Z" />
<glyph unicode="&#x2013;" glyph-name="endash" horiz-adv-x="616" d="M111 296L119 330H528L520 296H111Z" />
<glyph unicode="&#x2014;" glyph-name="emdash" horiz-adv-x="767" d="M111 296L121 330H679L669 296H111Z" />
<glyph unicode="&#x2018;" glyph-name="quoteleft" horiz-adv-x="185" d="M187 740L146 672Q164 671 173 660T183 635Q183 621 174 609T144 597Q129 597 117 606T105 634Q105 649 115 666T147 717L162 740H187Z" />
<glyph unicode="&#x2019;" glyph-name="quoteright" horiz-adv-x="190" d="M112 607L153 675Q135 676 126 687T116 712Q116 726 126 738T155 750Q170 750 182 741T194 713Q194 698 185 682T152 630L137 607H112Z" />
<glyph unicode="&#x201a;" glyph-name="quotesinglbase" horiz-adv-x="294" d="M44 -73L85 -5Q67 -4 58 7T48 32Q48 46 58 58T87 70Q102 70 114 61T126 33Q126 18 117 2T84 -50L69 -73H44Z" />
<glyph unicode="&#x201c;" glyph-name="quotedblleft" horiz-adv-x="311" d="M187 740L146 672Q164 671 173 660T183 635Q183 621 174 609T144 597Q129 597 117 606T105 634Q105 649 115 666T147 717L162 740H187ZM313 740L272 672Q290 671 299 660T309 635Q309
621 300 609T270 597Q255 597 243 606T231 634Q231 649 241 666T273 717L288 740H313Z" />
<glyph unicode="&#x201d;" glyph-name="quotedblright" horiz-adv-x="316" d="M238 607L279 675Q261 676 252 687T242 712Q242 726 252 738T281 750Q296 750 308 741T320 713Q320 698 311 682T278 630L263 607H238ZM112 607L153 675Q135 676 126 687T116 712Q116
726 126 738T155 750Q170 750 182 741T194 713Q194 698 185 682T152 630L137 607H112Z" />
<glyph unicode="&#x201e;" glyph-name="quotedblbase" horiz-adv-x="373" d="M171 -73L212 -5Q194 -4 185 7T175 32Q175 46 185 58T214 70Q229 70 241 61T253 33Q253 18 244 2T211 -50L196 -73H171ZM45 -73L86 -5Q68 -4 59 7T49 32Q49 46 59 58T88 70Q103 70 115
61T127 33Q127 18 118 2T85 -50L70 -73H45Z" />
<glyph unicode="&#x2022;" glyph-name="bullet" horiz-adv-x="413" d="M230 275Q187 275 159 305T130 378Q130 419 158 448T230 478Q273 478 303 449T333 378Q333 335 303 305T230 275Z" />
<glyph unicode="&#x2039;" glyph-name="guilsinglleft" horiz-adv-x="329" d="M346 525L96 319L251 120H211L53 323L297 525H346Z" />
<glyph unicode="&#x203a;" glyph-name="guilsinglright" horiz-adv-x="329" d="M13 120L263 326L108 525H148L306 322L62 120H13Z" />
</font>
</defs>
</svg>
