<?xml version="1.0" standalone="no"?>
<!DOCTYPE svg PUBLIC "-//W3C//DTD SVG 1.1//EN" "http://www.w3.org/Graphics/SVG/1.1/DTD/svg11.dtd">
<svg xmlns="http://www.w3.org/2000/svg">
<defs >
<font id="BeVietnamPro" horiz-adv-x="602" ><font-face
    font-family="Be Vietnam Pro"
    units-per-em="1000"
    panose-1="0 0 0 0 0 0 0 0 0 0"
    ascent="1000"
    descent="-265"
    alphabetic="0" />
<glyph unicode=" " glyph-name="space" horiz-adv-x="230" />
<glyph unicode="!" glyph-name="exclam" horiz-adv-x="283" d="M75 219L168 740H333L201 219H75ZM109 -9Q73 -9 51 15T28 72Q28 105 50 129T109 153Q144 153 167 129T190 72Q190 38 167 15T109 -9Z" />
<glyph unicode="&quot;" glyph-name="quotedbl" horiz-adv-x="394" d="M278 515L337 740H471L371 515H278ZM106 515L165 740H299L199 515H106Z" />
<glyph unicode="#" glyph-name="numbersign" horiz-adv-x="808" d="M71 0L143 174H5L59 301H196L253 438H118L171 565H305L377 740H510L438 565H569L642 740H774L702 565H841L788 438H650L593 301H729L675 174H540L468 0H336L408 174H276L204 0H71ZM329 301H460L517
438H385L329 301Z" />
<glyph unicode="$" glyph-name="dollar" horiz-adv-x="675" d="M228 -96L248 -4Q180 7 138 34T73 94T41 158T30 209T28 230H174Q174 230 176 216T187 183T216 145T274 118L317 322L296 330Q248 346 210 372T149 436T126 528Q126 586 158 637T251 719T402 750Q406
750 408 750L426 834H505L486 742Q542 730 578 705T634 650T664 592T675 546T678 528H535Q535 528 531 546T511 587T460 622L418 425L430 421Q482 403 524 377T590 312T614 217Q614 156 579 104T480 21T326 -10L308 -96H228ZM273 537Q273 506 291 486T344 452L383
631Q331 626 302 600T273 537ZM467 212Q467 242 446 262T391 296L352 113Q403 118 435 144T467 212Z" />
<glyph unicode="%" glyph-name="percent" horiz-adv-x="879" d="M262 429Q212 429 179 449T129 502T113 572Q113 615 134 656T196 724T296 751Q347 751 379 731T428 678T445 608Q445 565 424 524T362 456T262 429ZM116 0L688 740H800L228 0H116ZM270 514Q309 514
330 541T351 600Q351 625 336 645T288 665Q249 665 228 638T206 579Q206 554 221 534T270 514ZM635 -9Q584 -9 551 11T502 64T486 134Q486 177 507 218T568 285T668 312Q719 312 752 292T801 240T817 170Q817 127 796 86T735 18T635 -9ZM642 76Q681 76 702 103T724
162Q724 187 708 207T660 227Q621 227 600 200T579 141Q579 116 594 96T642 76Z" />
<glyph unicode="&amp;" glyph-name="ampersand" horiz-adv-x="699" d="M258 -11Q191 -11 135 13T45 82T11 193Q11 248 35 290T101 363T191 418Q170 452 158 487T145 560Q145 620 174 662T250 727T353 750Q403 750 448 731T522 674T551 583Q551 531 525 494T458
432T376 388L479 252Q497 286 510 328T530 421H653Q642 336 617 269T556 150L671 0H494L457 51Q411 20 360 5T258 -11ZM274 569Q274 544 285 520T315 469Q337 478 363 492T407 528T425 580Q425 614 403 631T353 648Q324 648 299 629T274 569ZM153 213Q153 164 188
136T278 107Q336 107 389 144L286 284Q277 297 268 309T249 334Q205 312 179 284T153 213Z" />
<glyph unicode="&apos;" glyph-name="quotesingle" horiz-adv-x="222" d="M106 515L165 740H299L199 515H106Z" />
<glyph unicode="(" glyph-name="parenleft" horiz-adv-x="433" d="M294 -228Q207 -206 150 -145T64 2T35 185Q35 272 56 361T117 532T217 678T351 782T518 825L489 687Q434 681 388 648T304 564T242 448T203 316T189 181Q189 116 205 59T251 -37T324 -90L294 -228Z" />
<glyph unicode=")" glyph-name="parenright" horiz-adv-x="424" d="M139 825Q227 804 284 743T370 595T398 412Q398 325 377 236T316 66T217 -81T83 -185T-84 -228L-55 -90Q0 -84 46 -51T129 34T191 149T230 282T244 417Q244 481 228 538T182 634T110 687L139 825Z" />
<glyph unicode="*" glyph-name="asterisk" horiz-adv-x="513" d="M236 328L149 391L233 503L99 544L132 647L265 600L262 740H369L367 600L499 647L533 544L399 503L483 391L395 328L316 442L236 328Z" />
<glyph unicode="+" glyph-name="plus" horiz-adv-x="615" d="M210 102L242 252H92L117 372H267L299 522H419L388 372H537L511 252H362L330 102H210Z" />
<glyph unicode="," glyph-name="comma" horiz-adv-x="286" d="M19 -145L101 -9Q67 -6 45 18T22 76Q22 113 47 137T109 161Q146 161 172 137T198 72Q198 49 187 23T152 -41T88 -134L81 -145H19Z" />
<glyph unicode="-" glyph-name="hyphen" horiz-adv-x="577" d="M99 252L117 372H492L473 252H99Z" />
<glyph unicode="." glyph-name="period" horiz-adv-x="281" d="M108 -10Q70 -10 46 15T22 75Q22 111 46 136T108 161Q144 161 168 136T193 75Q193 40 169 15T108 -10Z" />
<glyph unicode="/" glyph-name="slash" horiz-adv-x="537" d="M-65 -181L498 829H642L79 -181H-65Z" />
<glyph unicode="0" glyph-name="zero" horiz-adv-x="700" d="M322 -10Q231 -10 172 33T84 148T55 302Q55 365 70 428T116 549T190 652T292 724T418 750Q509 750 568 707T656 592T685 438Q685 375 670 312T624 191T550 88T449 16T322 -10ZM328 126Q373 126 410
155T473 232T513 334T527 443Q527 489 515 527T478 589T412 613Q367 613 331 584T268 507T227 405T213 296Q213 250 225 212T262 150T328 126Z" />
<glyph unicode="1" glyph-name="one" horiz-adv-x="415" d="M422 740L265 0H111L224 530L81 529L101 622L125 629Q190 647 235 670T323 731L333 740H422Z" />
<glyph unicode="2" glyph-name="two" horiz-adv-x="674" d="M16 0L39 106L240 249Q316 303 373 346T462 430T494 516Q494 561 464 588T382 615Q336 615 311 597T273 554T258 512T255 493H107Q107 493 109 511T120 559T146 621T195 683T273 731T389 750Q474 750
532 720T620 639T650 527Q650 470 624 422T552 331T451 250T335 171L283 135H602L573 0H16Z" />
<glyph unicode="3" glyph-name="three" horiz-adv-x="665" d="M323 -10Q249 -10 199 7T117 51T70 108T48 165T41 209T40 226H187Q187 226 189 210T204 172T244 134T323 117Q371 117 401 133T447 175T463 228Q463 269 429 292T345 316H249L274 436H376Q436 436
469 464T502 534Q502 570 474 596T392 623Q345 623 319 607T280 569T264 531T260 514H119Q119 514 121 531T131 575T158 632T207 689T285 733T399 750Q484 750 540 722T626 650T655 555Q655 510 633 474T577 414T505 379L504 373Q532 362 559 341T603 288T620 216Q620
162 587 110T488 24T323 -10Z" />
<glyph unicode="4" glyph-name="four" horiz-adv-x="730" d="M358 0L390 151L27 152L55 286L463 740H670L572 281H687L659 151H545L513 0H358ZM211 281H418L482 582L211 281Z" />
<glyph unicode="5" glyph-name="five" horiz-adv-x="671" d="M320 -10Q249 -10 201 7T123 51T77 109T55 167T47 211T46 228H190Q190 228 192 211T207 172T246 132T321 115Q371 115 404 137T455 193T473 263Q473 293 460 320T420 364T352 381Q315 381 290 371T250
346T228 322T221 311H70L192 740H657L628 606H287L238 435H242Q242 435 257 450T306 480T395 496Q472 496 523 464T600 380T626 270Q626 219 607 170T550 80T455 15T320 -10Z" />
<glyph unicode="6" glyph-name="six" horiz-adv-x="696" d="M346 -10Q250 -10 186 29T91 132T60 273Q60 364 92 449T185 603T333 710T526 750Q604 750 642 741T680 732L651 595Q651 595 617 604T526 613Q433 613 359 568T245 436Q267 459 302 476T390 494Q472
494 526 461T607 375T634 263Q634 214 616 166T562 77T472 14T346 -10ZM341 117Q386 117 417 138T464 191T480 259Q480 290 467 317T428 362T360 379Q314 379 283 358T236 305T220 238Q220 207 233 179T273 134T341 117Z" />
<glyph unicode="7" glyph-name="seven" horiz-adv-x="618" d="M119 0Q145 123 190 222T287 398T387 526T466 606H101L130 740H673L651 630Q651 630 629 610T572 553T494 460T410 335T335 181T284 0H119Z" />
<glyph unicode="8" glyph-name="eight" horiz-adv-x="664" d="M318 -10Q222 -10 160 21T67 100T36 201Q36 264 80 320T214 397V402Q110 452 110 550Q110 609 147 654T248 724T387 750Q461 750 521 726T616 659T652 558Q652 501 614 456T503 386V381Q562 356 591
311T620 216Q620 161 586 109T484 24T318 -10ZM378 443Q439 443 470 473T501 541Q501 575 473 602T387 630Q326 630 295 600T264 534Q264 500 292 472T378 443ZM321 112Q367 112 398 129T445 172T461 228Q461 267 430 299T334 332Q287 332 256 315T209 272T193
217Q193 177 224 145T321 112Z" />
<glyph unicode="9" glyph-name="nine" horiz-adv-x="696" d="M368 750Q464 750 527 711T622 608T654 467Q654 376 622 291T528 137T381 30T188 -10Q110 -10 72 -1T34 8L63 145Q63 145 97 136T188 127Q281 127 355 172T469 304Q447 281 412 264T324 246Q242 246
188 279T107 365T80 477Q80 526 98 574T152 663T242 726T368 750ZM372 623Q327 623 297 602T250 549T234 481Q234 450 247 423T286 378T353 361Q400 361 431 382T478 435T494 502Q494 533 481 561T441 606T372 623Z" />
<glyph unicode=":" glyph-name="colon" horiz-adv-x="285" d="M190 369Q152 369 128 394T104 455Q104 490 128 515T190 540Q227 540 251 515T275 455Q275 420 251 395T190 369ZM111 -10Q73 -10 49 15T25 75Q25 111 49 136T111 161Q147 161 171 136T196 75Q196
40 172 15T111 -10Z" />
<glyph unicode=";" glyph-name="semicolon" horiz-adv-x="290" d="M190 369Q152 369 128 394T104 455Q104 490 128 515T190 540Q227 540 251 515T275 455Q275 420 251 395T190 369ZM22 -145L104 -9Q70 -6 48 18T25 76Q25 113 50 137T112 161Q149 161 175 137T201
72Q201 49 190 23T155 -41T91 -134L84 -145H22Z" />
<glyph unicode="&lt;" glyph-name="less" horiz-adv-x="573" d="M464 106L80 295L98 383L564 572L537 439L252 329L491 222L464 106Z" />
<glyph unicode="=" glyph-name="equal" horiz-adv-x="716" d="M114 356L140 480H660L634 356H114ZM66 129L92 253H612L586 129H66Z" />
<glyph unicode="&gt;" glyph-name="greater" horiz-adv-x="573" d="M53 106L79 239L364 348L125 456L152 572L537 383L518 295L53 106Z" />
<glyph unicode="?" glyph-name="question" horiz-adv-x="635" d="M226 215L229 237Q236 282 263 313T326 368T397 413T455 460T478 521Q478 564 448 590T369 617Q323 617 297 598T259 555T244 513T241 494H93Q93 494 95 512T106 560T133 622T183 684T262 731T379
750Q459 750 516 721T603 642T634 533Q634 477 611 438T552 372T480 324T415 281T379 231L375 215H226ZM286 -10Q251 -10 228 14T205 71Q205 105 228 128T286 152Q321 152 344 129T368 71Q368 38 345 14T286 -10Z" />
<glyph unicode="@" glyph-name="at" horiz-adv-x="1021" d="M494 -164Q379 -164 294 -130T154 -36T71 99T44 255Q44 328 65 400T128 537T231 651T373 729T553 758Q669 758 752 724T889 632T968 504T993 364Q993 306 977 253T931 157T857 91T759 66Q713 66 684
79T639 109T617 139T611 152H603Q603 152 594 139T567 109T521 79T453 66Q396 66 359 92T303 161T285 252Q285 297 300 342T343 424T411 484T503 506Q538 506 561 496T598 471T618 447T624 436H630L643 498H769L725 288Q719 259 719 232T728 188T768 170Q796 170
820 197T859 268T874 365Q874 414 857 464T803 556T705 623T553 649Q459 649 387 615T266 523T192 397T166 257Q166 196 185 141T245 41T347 -28T494 -54Q544 -54 587 -46T665 -27T718 -8T737 0L777 -102Q777 -102 757 -111T699 -133T609 -155T494 -164ZM485 169Q521
169 546 191T586 245T600 311Q600 348 581 375T521 403Q485 403 459 382T420 328T406 262Q406 225 425 197T485 169Z" />
<glyph unicode="A" glyph-name="A" horiz-adv-x="747" d="M-35 0L374 740H576L671 0H519L501 145H213L135 0H-35ZM285 279H487L451 586L285 279Z" />
<glyph unicode="B" glyph-name="B" horiz-adv-x="706" d="M13 0L170 740H478Q549 740 594 716T662 655T684 575Q684 538 668 502T621 438T545 397L544 389Q602 374 629 334T656 244Q656 202 637 159T582 80T492 22T369 0H13ZM447 611H297L260 439H417Q453 439
478 454T516 493T529 539Q529 567 509 589T447 611ZM398 321H235L195 129H371Q410 129 438 146T481 189T496 242Q496 273 473 297T398 321Z" />
<glyph unicode="C" glyph-name="C" horiz-adv-x="770" d="M374 -10Q292 -10 232 16T133 89T75 194T56 317Q56 394 82 470T160 610T288 712T463 750Q540 750 592 731T678 681T729 616T754 551T762 501T764 481H611Q611 481 610 494T602 527T579 566T533 599T457
613Q397 613 352 588T275 522T228 430T212 330Q212 277 230 231T288 157T387 128Q443 128 479 148T537 193T566 239T575 259H729Q729 259 723 240T703 190T664 125T599 60T505 10T374 -10Z" />
<glyph unicode="D" glyph-name="D" horiz-adv-x="738" d="M13 0L170 740H389Q474 740 536 714T640 642T702 539T722 418Q722 343 694 269T611 134T475 37T288 0H13ZM376 605H296L196 137H300Q365 137 415 161T500 225T552 313T570 409Q570 461 549 505T485 577T376 605Z" />
<glyph unicode="E" glyph-name="E" horiz-adv-x="627" d="M13 0L170 740H671L642 606H296L261 440H562L534 311H233L196 134H547L519 0H13Z" />
<glyph unicode="F" glyph-name="F" horiz-adv-x="625" d="M13 0L170 740H674L646 606H296L255 412H559L531 283H227L167 0H13Z" />
<glyph unicode="G" glyph-name="G" horiz-adv-x="776" d="M382 -10Q300 -10 239 16T138 89T77 194T57 320Q57 396 83 472T161 611T290 712T470 750Q544 750 595 731T678 681T729 616T754 551T763 501T764 481H611Q611 481 610 494T602 527T579 566T534 599T460
613Q399 613 353 588T276 522T229 431T213 332Q213 278 233 232T294 157T397 128Q469 128 517 167T585 278H402L428 399H760L753 344Q738 226 687 148T557 30T382 -10Z" />
<glyph unicode="H" glyph-name="H" horiz-adv-x="737" d="M13 0L170 740H324L262 445H551L614 740H768L611 0H457L523 311H233L167 0H13Z" />
<glyph unicode="I" glyph-name="I" horiz-adv-x="293" d="M13 0L170 740H324L167 0H13Z" />
<glyph unicode="J" glyph-name="J" horiz-adv-x="500" d="M98 -10Q52 -10 22 -5T-9 1L18 130Q18 130 42 127T97 123Q169 123 216 163T280 280L378 740H531L431 271Q415 193 375 129T267 28T98 -10Z" />
<glyph unicode="K" glyph-name="K" horiz-adv-x="695" d="M13 0L170 740H324L257 422L578 740H782L391 365L621 0H446L239 337L167 0H13Z" />
<glyph unicode="L" glyph-name="L" horiz-adv-x="624" d="M13 0L170 740H324L196 134H544L516 0H13Z" />
<glyph unicode="M" glyph-name="M" horiz-adv-x="891" d="M13 0L170 740H371L460 359L715 740H922L765 0H611L716 494L500 173H356L275 505L167 0H13Z" />
<glyph unicode="N" glyph-name="N" horiz-adv-x="751" d="M13 0L170 740H311L527 262L628 740H783L626 0H483L266 465L167 0H13Z" />
<glyph unicode="O" glyph-name="O" horiz-adv-x="810" d="M384 -10Q301 -10 239 17T137 91T77 197T57 322Q57 399 84 474T163 612T291 712T466 750Q550 750 611 723T713 649T773 543T793 418Q793 341 766 266T687 128T559 28T384 -10ZM390 128Q449 128 495 153T572
221T620 314T637 415Q637 467 618 512T560 584T461 612Q402 612 357 587T279 519T231 426T214 325Q214 273 233 228T291 156T390 128Z" />
<glyph unicode="P" glyph-name="P" horiz-adv-x="682" d="M13 0L170 740H440Q526 740 582 708T665 625T693 517Q693 468 674 420T616 333T523 270T395 246H219L167 0H13ZM424 605H296L248 380H403Q446 380 476 398T521 446T537 504Q537 544 510 574T424 605Z" />
<glyph unicode="Q" glyph-name="Q" horiz-adv-x="831" d="M384 -10Q301 -10 239 17T137 91T77 197T57 322Q57 399 84 474T163 612T291 712T466 750Q550 750 611 723T713 649T773 543T793 418Q793 340 765 262T682 121L769 0H606L578 38Q537 15 489 3T384 -10ZM390
128Q419 128 444 134T492 153L396 282L509 362L590 248Q613 286 625 329T637 415Q637 467 618 512T560 584T461 612Q402 612 357 587T279 519T231 426T214 325Q214 273 233 228T291 156T390 128Z" />
<glyph unicode="R" glyph-name="R" horiz-adv-x="696" d="M13 0L170 740H435Q520 740 575 710T658 632T686 530Q686 481 664 433T598 349T490 296L588 0H430L338 285H228L167 0H13ZM430 607H296L254 411H409Q449 411 476 427T518 468T532 519Q532 553 507 580T430 607Z" />
<glyph unicode="S" glyph-name="S" horiz-adv-x="680" d="M326 -10Q251 -10 199 7T115 52T64 110T39 168T30 213T28 231H181Q181 231 184 214T201 174T245 134T331 116Q390 116 428 143T466 213Q466 245 443 265T381 299L299 327Q250 343 211 368T148 433T125
526Q125 585 157 636T251 718T405 750Q473 750 520 734T598 693T646 639T672 585T682 543T684 527H535Q535 527 532 542T516 577T477 612T405 627Q345 627 312 600T278 535Q278 503 299 483T358 450L434 424Q515 397 567 349T620 219Q620 157 585 105T484 22T326
-10Z" />
<glyph unicode="T" glyph-name="T" horiz-adv-x="693" d="M203 0L332 606H101L129 740H745L717 606H486L358 0H203Z" />
<glyph unicode="U" glyph-name="U" horiz-adv-x="734" d="M319 -10Q261 -10 210 8T122 65T73 164T78 306L170 740H324L231 302Q215 225 243 180T345 135Q414 135 457 179T518 302L611 740H765L670 290Q647 182 597 116T476 20T319 -10Z" />
<glyph unicode="V" glyph-name="V" horiz-adv-x="731" d="M203 0L108 740H260L328 154L644 740H814L405 0H203Z" />
<glyph unicode="W" glyph-name="W" horiz-adv-x="1039" d="M145 0L118 740H265L282 203L529 740H687L709 203L949 740H1111L771 0H578L558 481L336 0H145Z" />
<glyph unicode="X" glyph-name="X" horiz-adv-x="753" d="M-17 0L306 389L163 740H337L432 488L634 740H832L509 354L656 0H482L386 255L181 0H-17Z" />
<glyph unicode="Y" glyph-name="Y" horiz-adv-x="685" d="M210 0L263 255L107 740H265L364 412L601 740H781L417 253L364 0H210Z" />
<glyph unicode="Z" glyph-name="Z" horiz-adv-x="671" d="M-5 0L18 110L472 606H123L152 740H715L692 631L238 134H587L558 0H-5Z" />
<glyph unicode="[" glyph-name="bracketleft" horiz-adv-x="492" d="M-33 -213L193 852H537L510 722H321L150 -82H339L311 -213H-33Z" />
<glyph unicode="\" glyph-name="backslash" horiz-adv-x="513" d="M396 -181H269L135 829H263L396 -181Z" />
<glyph unicode="]" glyph-name="bracketright" horiz-adv-x="491" d="M547 852L321 -213H-23L4 -82H193L364 722H175L203 852H547Z" />
<glyph unicode="^" glyph-name="asciicircum" horiz-adv-x="574" d="M157 560L324 740H445L536 560H424L376 664L282 560H157Z" />
<glyph unicode="_" glyph-name="underscore" horiz-adv-x="716" d="M23 -102L49 0H552L526 -102H23Z" />
<glyph unicode="`" glyph-name="grave" horiz-adv-x="288" d="M143 603L48 784H184L250 604L143 603Z" />
<glyph unicode="a" glyph-name="a" horiz-adv-x="652" d="M315 540Q357 540 386 529T432 502T459 472T471 450H478L495 530H648L536 0H384L397 65H390Q390 65 382 54T356 28T310 2T239 -10Q172 -10 129 22T64 105T42 217Q42 274 60 331T113 435T199 511T315 540ZM345
417Q298 417 264 389T212 317T194 232Q194 184 218 149T296 113Q342 113 376 141T428 212T446 298Q446 346 422 381T345 417Z" />
<glyph unicode="b" glyph-name="b" horiz-adv-x="656" d="M347 -10Q305 -10 277 1T230 28T203 58T191 80H184L167 0H15L175 760H327L265 465H272Q272 465 280 476T306 502T353 528T423 540Q490 540 533 508T598 425T620 313Q620 256 602 199T549 95T463 19T347
-10ZM318 113Q365 113 398 141T450 213T468 298Q468 346 444 381T367 417Q320 417 287 389T235 318T217 232Q217 184 241 149T318 113Z" />
<glyph unicode="c" glyph-name="c" horiz-adv-x="606" d="M287 -10Q204 -10 150 23T70 112T44 231Q44 288 64 343T123 442T221 513T354 540Q423 540 466 520T533 469T566 408T577 357T579 336H437Q437 336 436 348T428 377T402 406T349 419Q301 419 267 392T215
322T196 234Q196 183 221 147T299 111Q332 111 353 123T387 152T405 181T410 194H553Q553 194 547 174T524 123T477 62T401 11T287 -10Z" />
<glyph unicode="d" glyph-name="d" horiz-adv-x="663" d="M239 -10Q172 -10 129 22T64 105T42 217Q42 274 60 331T113 435T199 511T315 540Q357 540 386 529T432 502T459 472T471 450H478L544 760H696L536 0H384L397 65H390Q390 65 382 54T356 28T310 2T239 -10ZM296
113Q342 113 376 141T428 212T446 298Q446 346 422 381T345 417Q298 417 264 389T212 317T194 232Q194 184 218 149T296 113Z" />
<glyph unicode="e" glyph-name="e" horiz-adv-x="612" d="M289 -10Q204 -10 150 24T70 113T44 231Q44 287 63 341T121 441T216 513T347 540Q419 540 466 514T540 443T572 347T569 245L565 225H194Q195 171 221 138T299 104Q330 104 350 114T383 137T400 160T406
171H548Q548 171 541 153T517 107T471 53T396 8T289 -10ZM208 317H436Q442 360 418 393T341 426Q291 426 257 395T208 317Z" />
<glyph unicode="f" glyph-name="f" horiz-adv-x="403" d="M48 0L134 409H48L74 530H159L175 602Q184 645 207 683T275 746T391 770Q424 770 446 765T468 760L445 653Q445 653 433 655T406 658Q371 658 352 641T325 591L312 530H417L391 409H287L200 0H48Z" />
<glyph unicode="g" glyph-name="g" horiz-adv-x="652" d="M239 -213Q165 -213 119 -195T48 -149T12 -95T0 -49T-2 -30H146Q146 -30 148 -39T159 -61T187 -83T242 -93Q306 -93 342 -58T390 29L400 75H393Q393 75 385 65T358 42T313 20T247 10Q178 10 133 41T67
123T45 232Q45 287 63 341T115 441T200 513T315 540Q361 540 391 526T439 494T464 461T472 447H479L497 530H648L541 23Q518 -90 443 -151T239 -213ZM304 128Q349 128 380 154T428 220T445 300Q445 348 420 384T342 421Q297 421 266 395T218 330T201 250Q201 202
226 165T304 128Z" />
<glyph unicode="h" glyph-name="h" horiz-adv-x="611" d="M13 0L175 760H327L262 454H267Q267 454 275 467T302 497T350 527T422 540Q480 540 516 512T566 436T567 333L496 0H343L410 311Q419 354 404 384T346 415Q298 415 269 381T229 299L165 0H13Z" />
<glyph unicode="i" glyph-name="i" horiz-adv-x="288" d="M231 600Q191 600 166 625T141 687Q141 723 166 748T231 774Q270 774 295 749T321 687Q321 651 296 626T231 600ZM9 0L122 530H274L161 0H9Z" />
<glyph unicode="j" glyph-name="j" horiz-adv-x="320" d="M263 600Q224 600 199 625T173 687Q173 723 198 748T263 774Q302 774 327 749T353 687Q353 651 328 626T263 600ZM-48 -205Q-80 -205 -100 -202T-120 -198L-95 -82Q-95 -82 -85 -83T-60 -85Q-21 -85 5
-64T42 4L154 530H306L193 -4Q185 -39 170 -74T127 -139T56 -187T-48 -205Z" />
<glyph unicode="k" glyph-name="k" horiz-adv-x="620" d="M13 0L175 760H327L233 319L447 530H637L370 273L534 0H363L218 246L165 0H13Z" />
<glyph unicode="l" glyph-name="l" horiz-adv-x="292" d="M13 0L175 760H328L165 0H13Z" />
<glyph unicode="m" glyph-name="m" horiz-adv-x="914" d="M8 0L120 530H273L256 454H261Q261 454 270 467T298 497T346 527T415 540Q472 540 507 511T553 435H558Q558 435 568 451T600 487T654 524T732 540Q788 540 823 513T871 443T873 348L799 0H647L715 319Q724
362 709 388T654 415Q611 415 583 383T544 303L480 0H327L395 319Q404 360 390 387T335 415Q291 415 263 382T224 303L160 0H8Z" />
<glyph unicode="n" glyph-name="n" horiz-adv-x="606" d="M8 0L121 530H273L257 454H262Q262 454 270 467T297 497T345 527T417 540Q475 540 511 512T561 436T562 333L491 0H338L405 311Q414 354 399 384T341 415Q293 415 264 381T224 299L160 0H8Z" />
<glyph unicode="o" glyph-name="o" horiz-adv-x="633" d="M288 -10Q204 -10 150 24T70 112T43 229Q43 284 63 339T122 439T219 512T351 540Q434 540 488 506T569 418T596 301Q596 245 576 190T516 90T419 18T288 -10ZM295 114Q341 114 373 141T424 211T442 298Q442
345 418 380T342 416Q297 416 264 389T213 319T195 232Q195 185 219 150T295 114Z" />
<glyph unicode="p" glyph-name="p" horiz-adv-x="656" d="M-27 -195L126 530H278L264 465H271Q271 465 279 476T305 502T352 528T423 540Q490 540 533 508T598 425T620 313Q620 256 602 199T548 95T463 19T347 -10Q305 -10 276 1T229 28T202 58T191 80H183L126
-195H-27ZM216 232Q216 184 240 149T317 113Q364 113 397 141T449 213T467 298Q467 346 443 381T366 417Q319 417 286 389T234 318T216 232Z" />
<glyph unicode="q" glyph-name="q" horiz-adv-x="663" d="M342 -195L397 64H390Q390 64 382 53T356 27T309 1T239 -11Q172 -11 129 21T64 105T42 217Q42 274 60 330T113 434T199 510T315 539Q357 539 386 528T432 501T459 471T471 449H478L495 529H648L495 -195H342ZM296
112Q342 112 376 140T428 212T446 297Q446 345 422 380T345 416Q298 416 264 388T212 317T194 231Q194 183 218 148T296 112Z" />
<glyph unicode="r" glyph-name="r" horiz-adv-x="442" d="M8 0L121 530H272L256 453H261Q284 491 322 515T417 540Q438 540 450 538T462 535L431 387Q431 387 419 389T389 391Q315 391 269 340T203 199L160 0H8Z" />
<glyph unicode="s" glyph-name="s" horiz-adv-x="540" d="M245 -10Q177 -10 133 8T65 53T29 106T14 151T11 170H158Q158 170 161 160T173 137T202 114T256 104Q297 104 316 119T336 156Q336 176 322 186T285 203L217 220Q153 237 117 273T80 366Q80 413 106 452T181
516T301 540Q362 540 402 523T465 482T500 433T515 391T519 374H378Q378 374 372 387T348 413T292 427Q256 427 238 412T219 376Q219 358 233 347T271 329L331 313Q397 298 437 260T478 163Q478 116 451 77T372 14T245 -10Z" />
<glyph unicode="t" glyph-name="t" horiz-adv-x="441" d="M260 -10Q202 -10 168 8T117 55T98 120T103 190L149 409H59L85 530H175L203 661H356L328 530H438L412 409H302L255 188Q238 110 319 110Q337 110 352 112T368 115L342 -1Q342 -1 319 -5T260 -10Z" />
<glyph unicode="u" glyph-name="u" horiz-adv-x="597" d="M177 -10Q101 -10 65 44T49 192L120 530H273L204 203Q195 161 211 138T264 115Q312 115 340 149T378 228L442 530H595L483 0H330L346 75H340Q316 44 276 17T177 -10Z" />
<glyph unicode="v" glyph-name="v" horiz-adv-x="601" d="M159 0L78 530H221L273 170L470 530H633L331 0H159Z" />
<glyph unicode="w" glyph-name="w" horiz-adv-x="883" d="M128 0L78 530H223L244 192L418 530H559L589 192L754 530H915L638 0H477L450 315L290 0H128Z" />
<glyph unicode="x" glyph-name="x" horiz-adv-x="600" d="M-37 0L194 281L91 530H249L313 364L445 530H625L388 248L498 0H340L273 168L143 0H-37Z" />
<glyph unicode="y" glyph-name="y" horiz-adv-x="596" d="M7 -195Q-20 -195 -34 -193T-48 -191L-22 -64Q-22 -64 -11 -65T17 -67Q57 -67 92 -53T159 3L78 530H223L270 171L466 530H628L331 21Q267 -88 191 -141T7 -195Z" />
<glyph unicode="z" glyph-name="z" horiz-adv-x="533" d="M-11 0L11 104L331 409H85L111 530H556L533 426L213 121H469L443 0H-11Z" />
<glyph unicode="{" glyph-name="braceleft" horiz-adv-x="480" d="M252 -213Q179 -213 137 -186T81 -112T80 -4L122 193Q135 255 73 255H30L57 384H97Q163 384 177 453L223 671Q242 760 294 806T442 852H570L543 722H453Q420 722 402 706T376 656L332 447Q321
396 299 367T225 323L224 317Q269 301 278 267T277 188L232 -20Q219 -82 287 -82H372L344 -213H252Z" />
<glyph unicode="|" glyph-name="bar" horiz-adv-x="408" d="M33 -244L288 956H414L159 -244H33Z" />
<glyph unicode="}" glyph-name="braceright" horiz-adv-x="480" d="M244 852Q317 852 359 826T414 752T415 644L373 447Q360 384 422 384H466L439 255H398Q332 255 318 187L272 -31Q254 -120 201 -166T54 -213H-75L-47 -82H43Q76 -82 94 -66T120 -17L164 192Q174
243 196 272T270 317L272 323Q227 339 218 372T219 451L263 660Q276 722 208 722H124L151 852H244Z" />
<glyph unicode="~" glyph-name="asciitilde" horiz-adv-x="490" d="M334 314Q308 314 289 324T256 346T229 369T203 379Q187 379 178 364T164 320H85Q93 358 105 391T141 445T204 466Q231 466 250 457T283 434T310 412T336 402Q351 402 360 417T374 461H453Q445
424 433 391T397 336T334 314Z" />
<glyph unicode="&#xa0;" glyph-name="uni00A0" horiz-adv-x="230" />
<glyph unicode="&#xa1;" glyph-name="exclamdown" horiz-adv-x="283" d="M187 530Q222 530 245 506T268 449Q268 415 245 391T187 367Q152 367 129 391T106 449Q106 482 129 506T187 530ZM-37 -220L94 301H220L127 -220H-37Z" />
<glyph unicode="&#xa2;" glyph-name="cent" horiz-adv-x="606" d="M192 -91L211 -1Q154 13 117 48T62 130T44 231Q44 285 62 338T116 434T204 506T326 539L344 621H423L405 536Q459 528 492 506T543 455T569 399T578 354T579 336H437Q437 336 435 352T421 388T379
415L315 112Q343 116 361 128T390 156T405 183T410 194H553Q553 194 547 174T524 123T478 62T402 11T289 -10L272 -91H192ZM196 234Q196 201 206 173T239 129L299 410Q266 396 243 369T208 306T196 234Z" />
<glyph unicode="&#xa3;" glyph-name="sterling" horiz-adv-x="606" d="M0 0L27 128Q105 136 152 168T200 255Q200 270 196 285T186 315H53L68 382H159Q150 406 144 432T137 489Q137 556 173 616T283 713T465 750Q512 750 551 745T613 733T637 727L609 596Q609
596 591 601T542 611T471 617Q382 617 335 581T287 485Q287 457 295 433T313 382H508L494 315H330Q331 305 331 294Q331 248 315 217T278 166T240 138T222 127H544L517 0H0Z" />
<glyph unicode="&#xa4;" glyph-name="currency" horiz-adv-x="667" d="M116 88L50 154L138 243Q120 270 110 303T99 373Q99 444 138 502L50 590L116 655L204 568Q262 609 335 609Q407 609 465 569L552 655L617 590L531 503Q570 445 570 373Q570 336 560 303T530
242L617 154L552 88L464 176Q405 138 335 138Q299 138 266 148T204 177L116 88ZM335 243Q370 243 399 260T446 307T464 373Q464 408 447 437T400 484T335 502Q299 502 270 485T223 438T205 373Q205 337 222 308T269 261T335 243Z" />
<glyph unicode="&#xa5;" glyph-name="yen" horiz-adv-x="685" d="M60 192L78 274H257L233 348H93L111 430H207L107 740H265L364 412L601 740H781L549 430H643L625 348H488L433 274H610L592 192H405L364 0H210L250 192H60Z" />
<glyph unicode="&#xa6;" glyph-name="brokenbar" horiz-adv-x="409" d="M174 418L288 956H414L300 418H174ZM33 -244L139 252H265L159 -244H33Z" />
<glyph unicode="&#xa7;" glyph-name="section" horiz-adv-x="708" d="M278 -227Q205 -227 155 -210T72 -165T21 -106T-6 -48T-16 -3T-18 15H134Q134 15 138 -2T157 -43T202 -84T287 -102Q349 -102 385 -75T422 -4Q422 29 400 50T339 85L234 117Q156 140 107 182T57
295Q57 342 78 374T132 424T197 448L198 454Q193 458 180 472T157 511T146 574Q146 634 178 683T273 763T424 793Q491 793 538 777T616 735T665 680T692 626T704 584T707 568H558Q558 568 555 583T539 619T499 654T425 670Q367 670 333 644T298 578Q298 546 320
524T383 489L483 459Q562 435 612 393T662 280Q662 233 640 201T586 151T521 127L519 121Q526 117 540 102T565 63T577 3Q577 -59 543 -111T442 -195T278 -227ZM443 186Q451 192 467 199T497 220T511 258Q511 312 430 338L276 388Q268 383 252 376T222 355T209
318Q209 263 292 236L443 186Z" />
<glyph unicode="&#xa8;" glyph-name="dieresis" horiz-adv-x="449" d="M322 591Q284 591 260 615T236 674Q236 709 260 733T322 757Q359 757 383 733T408 674Q408 640 384 616T322 591ZM96 591Q58 591 34 615T10 674Q10 709 34 733T96 757Q133 757 157 733T182
674Q182 640 158 616T96 591Z" />
<glyph unicode="&#xa9;" glyph-name="copyright" horiz-adv-x="805" d="M390 -8Q305 -8 242 19T138 93T77 199T56 322Q56 393 81 462T155 587T278 678T446 712Q531 712 594 685T698 611T760 505T780 382Q780 311 755 242T681 116T558 26T390 -8ZM393 80Q465 80
519 106T609 175T664 272T683 379Q683 441 658 497T580 587T445 622Q375 622 321 597T229 528T173 432T154 325Q154 262 180 206T259 115T393 80ZM407 152Q347 152 308 176T250 240T231 325Q231 366 245 406T288 479T359 531T457 551Q507 551 537 536T585 500T609
456T617 419T618 404H517Q517 404 517 413T511 435T492 456T453 465Q417 465 392 444T353 391T339 328Q339 292 357 265T415 238Q448 238 465 253T490 283T498 299H598Q598 299 594 284T577 248T544 204T489 167T407 152Z" />
<glyph unicode="&#xaa;" glyph-name="ordfeminine" horiz-adv-x="423" d="M289 447Q279 431 258 418T199 404Q151 404 123 429T95 495Q95 539 128 570T227 606L329 613L330 620Q334 639 325 653T290 667Q269 667 259 660T245 644T242 636H136Q136 636 141 653T163
693T212 733T298 750Q354 750 388 729T436 676T442 609L399 410H286L293 447H289ZM210 509Q210 495 220 487T247 479Q269 479 288 493T313 536L315 547L250 542Q229 541 220 531T210 509Z" />
<glyph unicode="&#xab;" glyph-name="guillemotleft" horiz-adv-x="739" d="M511 90L345 309L604 529H773L505 300L659 90H511ZM218 90L53 309L312 529H480L212 300L367 90H218Z" />
<glyph unicode="&#xac;" glyph-name="logicalnot" horiz-adv-x="655" d="M109 410L134 530H629L604 410V410L571 257H441L473 410H109Z" />
<glyph unicode="&#xad;" glyph-name="uni00AD" horiz-adv-x="600" d="M99 252L117 372H492L473 252H99Z" />
<glyph unicode="&#xae;" glyph-name="registered" horiz-adv-x="426" d="M264 389Q208 389 171 413T115 475T96 556Q96 605 118 650T185 725T293 755Q349 755 386 732T443 670T462 589Q462 540 439 494T372 419T264 389ZM266 430Q315 430 349 453T400 513T418
587Q418 620 405 649T363 696T293 714Q243 714 209 691T157 631T139 558Q139 525 153 496T195 448T266 430ZM187 480L228 673H304Q340 673 357 655T375 615Q375 596 363 579T327 553L349 480H295L276 548H253L239 480H187ZM303 627H270L262 589H300Q312 589 318
595T324 610Q324 617 319 622T303 627Z" />
<glyph unicode="&#xaf;" glyph-name="overscore" horiz-adv-x="376" d="M15 648L35 738H361L341 648H15Z" />
<glyph unicode="&#xb0;" glyph-name="degree" horiz-adv-x="459" d="M296 381Q245 381 203 405T137 472T112 565Q112 616 136 658T203 725T296 750Q347 750 389 725T456 658T481 565Q481 514 456 472T389 406T296 381ZM296 485Q329 485 352 508T376 565Q376 599
353 622T296 646Q263 646 240 623T216 565Q216 532 239 509T296 485Z" />
<glyph unicode="&#xb1;" glyph-name="plusminus" horiz-adv-x="631" d="M229 156L261 306H111L137 426H286L318 576H438L407 426H556L530 306H381L349 156H229ZM38 0L56 84H492L474 0H38Z" />
<glyph unicode="&#xb2;" glyph-name="uni00B2" horiz-adv-x="469" d="M110 404L126 483L243 561Q313 607 352 641T391 712Q391 735 376 749T333 763Q310 763 297 754T278 732T271 710T269 701H158Q158 701 160 717T170 757T198 805T252 846T339 862Q394 862 431
843T488 791T508 721Q508 682 490 650T442 593T378 546T313 506L309 503H487L465 404H110Z" />
<glyph unicode="&#xb3;" glyph-name="uni00B3" horiz-adv-x="468" d="M288 398Q231 398 196 413T143 449T117 493T109 530T108 545H218Q218 545 221 532T239 505T289 492Q327 492 344 509T361 546Q361 562 346 575T301 588H240L258 676H323Q356 676 371 691T387
725Q387 742 373 755T328 769Q296 769 281 755T263 727T259 712H154Q154 712 156 727T168 765T196 809T249 847T334 862Q389 862 426 845T481 800T500 741Q500 706 476 677T409 635L408 630Q439 618 458 594T478 537Q478 504 457 472T394 419T288 398Z" />
<glyph unicode="&#xb4;" glyph-name="acute" horiz-adv-x="288" d="M248 603L137 604L220 784H360L248 603Z" />
<glyph unicode="&#xb5;" glyph-name="uni00B5" horiz-adv-x="664" d="M-45 -197L110 530H262L193 206Q184 165 199 140T253 115Q301 115 329 149T368 231L431 530H583L510 183Q503 149 513 130T563 111Q576 111 585 113T595 115L570 -3Q570 -3 548 -6T498 -10Q431
-10 397 15T353 75H345Q345 75 339 63T318 33T278 3T216 -10Q182 -10 161 -1T130 18T120 28L115 24Q129 -18 129 -57T117 -152L107 -197H-45Z" />
<glyph unicode="&#xb6;" glyph-name="paragraph" horiz-adv-x="567" d="M306 0H213L279 311Q212 312 168 337T103 403T81 488Q81 540 108 588T186 668T314 700H614L465 0H372L493 567H427L306 0Z" />
<glyph unicode="&#xb7;" glyph-name="middot" horiz-adv-x="305" d="M104 287Q67 287 43 312T19 372Q19 408 43 432T104 457Q141 457 165 433T190 372Q190 337 166 312T104 287Z" />
<glyph unicode="&#xb8;" glyph-name="cedilla" horiz-adv-x="256" d="M34 -254Q1 -254 -24 -250T-50 -245L-37 -165Q-37 -165 -25 -167T5 -170T36 -172Q73 -172 86 -160T100 -132Q100 -119 89 -109T56 -99Q37 -99 24 -105T12 -111L-27 -63L58 32H157L94 -36L96
-35Q147 -35 176 -64T205 -133Q205 -162 187 -190T132 -236T34 -254Z" />
<glyph unicode="&#xb9;" glyph-name="uni00B9" horiz-adv-x="323" d="M356 857L259 404H144L209 711H121L135 781L149 785Q192 797 222 812T283 852L288 857H356Z" />
<glyph unicode="&#xba;" glyph-name="ordmasculine" horiz-adv-x="443" d="M274 406Q218 406 182 427T129 484T111 558Q111 604 133 649T200 723T309 752Q364 752 400 730T454 673T472 598Q472 552 449 508T382 435T274 406ZM278 498Q313 498 333 528T354 597Q354
621 342 639T302 658Q268 658 248 628T227 560Q227 536 239 517T278 498Z" />
<glyph unicode="&#xbb;" glyph-name="guillemotright" horiz-adv-x="739" d="M298 90L566 318L412 529H560L726 309L467 90H298ZM6 90L274 318L119 529H268L433 309L174 90H6Z" />
<glyph unicode="&#xbc;" glyph-name="onequarter" horiz-adv-x="901" d="M303 710L229 355H126L175 586H105L119 650L128 652Q165 661 190 673T240 706L243 710H303ZM152 0L661 700H780L269 0H152ZM735 1L749 69H573L591 150L771 356H911L866 147H915L899 69H849L835
1H735ZM692 147H766L790 260L692 147Z" />
<glyph unicode="&#xbd;" glyph-name="onehalf" horiz-adv-x="891" d="M303 710L229 355H126L175 586H105L119 650L128 652Q165 661 190 673T240 706L243 710H303ZM152 0L661 700H780L269 0H152ZM588 1L603 68L691 125Q751 163 778 189T806 238Q806 255 796 265T765
276Q743 276 734 265T722 243T720 232H625Q625 232 626 245T635 277T657 315T699 348T770 361Q837 361 872 327T907 247Q907 207 884 177T826 125T758 85H891L874 1H588Z" />
<glyph unicode="&#xbe;" glyph-name="threequarters" horiz-adv-x="953" d="M227 350Q182 350 155 361T113 390T93 424T86 453T85 465H178Q178 465 180 456T194 438T230 429Q258 429 270 441T282 466Q282 477 272 486T239 496H191L207 571H258Q281 571 291 582T302
605Q302 616 292 626T261 636Q237 636 226 626T212 605T208 595H120Q120 595 123 613T141 654T184 696T266 715Q333 715 365 684T398 619Q398 590 378 567T325 535L324 532Q350 522 365 503T381 459Q381 433 365 408T314 367T227 350ZM244 0L753 700H872L361 0H244ZM827
1L841 69H665L683 150L863 356H1003L958 147H1007L991 69H941L927 1H827ZM784 147H858L882 260L784 147Z" />
<glyph unicode="&#xbf;" glyph-name="questiondown" horiz-adv-x="634" d="M336 539Q372 539 395 515T418 457Q418 423 395 400T336 376Q302 376 279 399T255 457Q255 490 278 514T336 539ZM244 -222Q164 -222 107 -193T20 -114T-11 -5Q-11 51 12 90T71 156T143
204T208 247T244 297L248 313H397L394 291Q387 246 360 215T297 160T226 115T168 68T145 7Q145 -36 175 -62T254 -89Q300 -89 326 -70T364 -27T379 15T382 34H530Q530 34 528 16T517 -32T490 -94T440 -156T361 -203T244 -222Z" />
<glyph unicode="&#xc0;" glyph-name="Agrave" horiz-adv-x="744" d="M426 813L330 994H466L533 814L426 813ZM-36 0L373 740H575L670 0H518L500 145H212L133 0H-36ZM284 279H486L450 586L284 279Z" />
<glyph unicode="&#xc1;" glyph-name="Aacute" horiz-adv-x="744" d="M553 813L442 814L526 994H666L553 813ZM-36 0L373 740H575L670 0H518L500 145H212L133 0H-36ZM284 279H486L450 586L284 279Z" />
<glyph unicode="&#xc2;" glyph-name="Acircumflex" horiz-adv-x="744" d="M290 806L452 960H573L670 806H558L505 894L416 806H290ZM-36 0L373 740H575L670 0H518L500 145H212L133 0H-36ZM284 279H486L450 586L284 279Z" />
<glyph unicode="&#xc3;" glyph-name="Atilde" horiz-adv-x="744" d="M576 824Q549 824 530 833T497 855T470 877T444 887Q416 887 405 830H325Q333 869 346 902T382 956T445 977Q472 977 491 968T525 946T552 924T578 914Q593 914 601 929T616 972H697Q688 933
675 899T639 845T576 824ZM-36 0L373 740H575L670 0H518L500 145H212L133 0H-36ZM284 279H486L450 586L284 279Z" />
<glyph unicode="&#xc4;" glyph-name="Adieresis" horiz-adv-x="744" d="M617 801Q579 801 555 825T531 884Q531 919 555 943T617 967Q654 967 678 943T703 884Q703 850 679 826T617 801ZM391 801Q353 801 329 825T305 884Q305 919 329 943T391 967Q428 967 452
943T477 884Q477 850 453 826T391 801ZM-36 0L373 740H575L670 0H518L500 145H212L133 0H-36ZM284 279H486L450 586L284 279Z" />
<glyph unicode="&#xc5;" glyph-name="Aring" horiz-adv-x="744" d="M497 798Q460 798 429 816T380 865T361 933Q361 971 379 1001T429 1050T497 1069Q535 1069 565 1051T614 1002T633 933Q633 896 615 865T566 816T497 798ZM497 879Q520 879 536 894T552 933Q552
956 536 971T497 987Q475 987 459 972T442 933Q442 910 458 895T497 879ZM-36 0L373 740H575L670 0H518L500 145H212L133 0H-36ZM284 279H486L450 586L284 279Z" />
<glyph unicode="&#xc6;" glyph-name="AE" horiz-adv-x="1018" d="M-35 0L458 740H1062L1034 606H693L658 440H954L926 311H631L593 134H938L910 0H410L441 145H233L136 0H-35ZM321 277H469L538 601L321 277Z" />
<glyph unicode="&#xc7;" glyph-name="Ccedilla" horiz-adv-x="770" d="M289 -262Q256 -262 231 -258T205 -253L217 -173Q217 -173 229 -174T259 -178T290 -180Q327 -180 340 -167T354 -139Q354 -126 344 -116T311 -106Q292 -106 279 -112T266 -119L227 -70L290
-1Q210 16 159 63T82 177T56 317Q56 394 82 470T160 610T288 712T463 750Q540 750 592 731T678 681T729 616T754 551T762 501T764 481H611Q611 481 610 494T602 527T579 566T533 599T457 613Q397 613 352 588T275 522T228 430T212 330Q212 277 230 231T288 157T387
128Q443 128 479 148T537 193T566 239T575 259H729Q729 259 723 240T703 190T664 125T601 60T507 10T379 -10L348 -43H351Q401 -43 430 -72T459 -140Q459 -169 442 -197T387 -243T289 -262Z" />
<glyph unicode="&#xc8;" glyph-name="Egrave" horiz-adv-x="626" d="M366 813L271 994H407L474 814L366 813ZM13 0L170 740H665L636 606H296L261 440H556L528 311H233L196 134H541L513 0H13Z" />
<glyph unicode="&#xc9;" glyph-name="Eacute" horiz-adv-x="626" d="M494 813L383 814L466 994H606L494 813ZM13 0L170 740H665L636 606H296L261 440H556L528 311H233L196 134H541L513 0H13Z" />
<glyph unicode="&#xca;" glyph-name="Ecircumflex" horiz-adv-x="626" d="M231 806L393 960H514L610 806H499L446 894L357 806H231ZM13 0L170 740H665L636 606H296L261 440H556L528 311H233L196 134H541L513 0H13Z" />
<glyph unicode="&#xcb;" glyph-name="Edieresis" horiz-adv-x="626" d="M558 801Q520 801 496 825T472 884Q472 919 496 943T558 967Q595 967 619 943T644 884Q644 850 620 826T558 801ZM332 801Q294 801 270 825T246 884Q246 919 270 943T332 967Q369 967 393
943T418 884Q418 850 394 826T332 801ZM13 0L170 740H665L636 606H296L261 440H556L528 311H233L196 134H541L513 0H13Z" />
<glyph unicode="&#xcc;" glyph-name="Igrave" horiz-adv-x="293" d="M195 795L100 975H236L303 796L195 795ZM13 0L170 740H324L167 0H13Z" />
<glyph unicode="&#xcd;" glyph-name="Iacute" horiz-adv-x="293" d="M323 795L212 796L295 975H435L323 795ZM13 0L170 740H324L167 0H13Z" />
<glyph unicode="&#xce;" glyph-name="Icircumflex" horiz-adv-x="293" d="M68 787L235 968H356L447 787H335L286 891L193 787H68ZM13 0L170 740H324L167 0H13Z" />
<glyph unicode="&#xcf;" glyph-name="Idieresis" horiz-adv-x="293" d="M387 782Q349 782 325 807T301 866Q301 900 325 924T387 949Q424 949 448 925T473 866Q473 831 449 807T387 782ZM161 782Q123 782 99 807T75 866Q75 900 99 924T161 949Q198 949 222 925T247
866Q247 831 223 807T161 782ZM13 0L170 740H324L167 0H13Z" />
<glyph unicode="&#xd0;" glyph-name="Eth" horiz-adv-x="768" d="M42 0L108 309H10L36 432H134L199 740H419Q504 740 566 714T670 642T731 539T752 418Q752 343 724 269T641 134T505 37T318 0H42ZM385 309H262L226 137H330Q395 137 445 161T529 225T581 313T599
409Q599 461 578 505T514 577T406 605H325L288 432H412L385 309Z" />
<glyph unicode="&#xd1;" glyph-name="Ntilde" horiz-adv-x="751" d="M576 824Q549 824 530 833T497 855T470 877T443 887Q416 887 405 830H324Q332 869 345 902T381 956T445 977Q472 977 491 968T525 946T552 924T577 914Q593 914 601 929T616 972H696Q688 933
675 899T639 845T576 824ZM13 0L170 740H311L527 262L628 740H783L626 0H483L266 465L167 0H13Z" />
<glyph unicode="&#xd2;" glyph-name="Ograve" horiz-adv-x="810" d="M429 813L333 994H469L536 814L429 813ZM384 -10Q301 -10 239 17T137 91T77 197T57 322Q57 399 84 474T163 612T291 712T466 750Q550 750 611 723T713 649T773 543T793 418Q793 341 766 266T687
128T559 28T384 -10ZM390 128Q449 128 495 153T572 221T620 314T637 415Q637 467 618 512T560 584T461 612Q402 612 357 587T279 519T231 426T214 325Q214 273 233 228T291 156T390 128Z" />
<glyph unicode="&#xd3;" glyph-name="Oacute" horiz-adv-x="810" d="M556 813L445 814L529 994H669L556 813ZM384 -10Q301 -10 239 17T137 91T77 197T57 322Q57 399 84 474T163 612T291 712T466 750Q550 750 611 723T713 649T773 543T793 418Q793 341 766 266T687
128T559 28T384 -10ZM390 128Q449 128 495 153T572 221T620 314T637 415Q637 467 618 512T560 584T461 612Q402 612 357 587T279 519T231 426T214 325Q214 273 233 228T291 156T390 128Z" />
<glyph unicode="&#xd4;" glyph-name="Ocircumflex" horiz-adv-x="810" d="M293 806L455 960H576L673 806H561L508 894L419 806H293ZM384 -10Q301 -10 239 17T137 91T77 197T57 322Q57 399 84 474T163 612T291 712T466 750Q550 750 611 723T713 649T773 543T793
418Q793 341 766 266T687 128T559 28T384 -10ZM390 128Q449 128 495 153T572 221T620 314T637 415Q637 467 618 512T560 584T461 612Q402 612 357 587T279 519T231 426T214 325Q214 273 233 228T291 156T390 128Z" />
<glyph unicode="&#xd5;" glyph-name="Otilde" horiz-adv-x="810" d="M579 824Q552 824 533 833T500 855T473 877T447 887Q419 887 408 830H328Q336 869 349 902T385 956T448 977Q475 977 494 968T528 946T555 924T581 914Q596 914 604 929T619 972H700Q691 933
678 899T642 845T579 824ZM384 -10Q301 -10 239 17T137 91T77 197T57 322Q57 399 84 474T163 612T291 712T466 750Q550 750 611 723T713 649T773 543T793 418Q793 341 766 266T687 128T559 28T384 -10ZM390 128Q449 128 495 153T572 221T620 314T637 415Q637 467
618 512T560 584T461 612Q402 612 357 587T279 519T231 426T214 325Q214 273 233 228T291 156T390 128Z" />
<glyph unicode="&#xd6;" glyph-name="Odieresis" horiz-adv-x="810" d="M620 801Q582 801 558 825T534 884Q534 919 558 943T620 967Q657 967 681 943T706 884Q706 850 682 826T620 801ZM394 801Q356 801 332 825T308 884Q308 919 332 943T394 967Q431 967 455
943T480 884Q480 850 456 826T394 801ZM384 -10Q301 -10 239 17T137 91T77 197T57 322Q57 399 84 474T163 612T291 712T466 750Q550 750 611 723T713 649T773 543T793 418Q793 341 766 266T687 128T559 28T384 -10ZM390 128Q449 128 495 153T572 221T620 314T637
415Q637 467 618 512T560 584T461 612Q402 612 357 587T279 519T231 426T214 325Q214 273 233 228T291 156T390 128Z" />
<glyph unicode="&#xd7;" glyph-name="multiply" horiz-adv-x="596" d="M82 208L215 317L135 419L236 510L319 404L449 511L528 418L395 308L475 206L374 116L290 222L160 115L82 208Z" />
<glyph unicode="&#xd8;" glyph-name="Oslash" horiz-adv-x="810" d="M12 -24L124 107Q90 151 74 206T57 321Q57 398 84 474T163 612T291 711T466 749Q517 749 560 739T637 709L683 763H838L726 632Q760 588 776 533T793 418Q793 341 766 265T687 127T559 27T384
-11Q333 -11 290 0T213 30L167 -24H12ZM214 324Q214 274 231 233L540 595Q505 611 461 611Q402 611 357 586T279 518T231 426T214 324ZM390 128Q449 128 495 153T572 221T620 313T637 414Q637 466 620 507L310 144Q345 128 390 128Z" />
<glyph unicode="&#xd9;" glyph-name="Ugrave" horiz-adv-x="734" d="M418 813L322 994H459L525 814L418 813ZM319 -10Q261 -10 210 8T122 65T73 164T78 306L170 740H324L231 302Q215 225 243 180T345 135Q414 135 457 179T518 302L611 740H765L670 290Q647 182
597 116T476 20T319 -10Z" />
<glyph unicode="&#xda;" glyph-name="Uacute" horiz-adv-x="734" d="M546 813L435 814L518 994H658L546 813ZM319 -10Q261 -10 210 8T122 65T73 164T78 306L170 740H324L231 302Q215 225 243 180T345 135Q414 135 457 179T518 302L611 740H765L670 290Q647 182
597 116T476 20T319 -10Z" />
<glyph unicode="&#xdb;" glyph-name="Ucircumflex" horiz-adv-x="734" d="M290 806L458 986H578L670 806H557L509 910L416 806H290ZM319 -10Q261 -10 210 8T122 65T73 164T78 306L170 740H324L231 302Q215 225 243 180T345 135Q414 135 457 179T518 302L611 740H765L670
290Q647 182 597 116T476 20T319 -10Z" />
<glyph unicode="&#xdc;" glyph-name="Udieresis" horiz-adv-x="734" d="M609 801Q572 801 548 825T523 884Q523 919 547 943T609 967Q646 967 670 943T695 884Q695 850 671 826T609 801ZM383 801Q346 801 322 825T297 884Q297 919 321 943T383 967Q420 967 444
943T469 884Q469 850 445 826T383 801ZM319 -10Q261 -10 210 8T122 65T73 164T78 306L170 740H324L231 302Q215 225 243 180T345 135Q414 135 457 179T518 302L611 740H765L670 290Q647 182 597 116T476 20T319 -10Z" />
<glyph unicode="&#xdd;" glyph-name="Yacute" horiz-adv-x="676" d="M522 813L411 814L494 994H634L522 813ZM210 0L263 255L107 740H265L364 412L601 740H781L417 253L364 0H210Z" />
<glyph unicode="&#xde;" glyph-name="Thorn" horiz-adv-x="687" d="M13 0L170 740H324L298 617H420Q506 617 562 586T645 503T672 394Q672 345 653 297T596 210T503 147T375 123H193L167 0H13ZM404 483H270L222 257H383Q426 257 456 276T501 323T517 382Q517 421
490 452T404 483Z" />
<glyph unicode="&#xdf;" glyph-name="germandbls" horiz-adv-x="687" d="M438 765Q517 765 573 740T660 671T690 573Q690 505 645 456T529 388L528 382Q534 380 552 371T592 342T628 293T643 220Q643 154 605 102T499 20T340 -10Q314 -10 288 -8T245 -4T227 -2L254
123Q254 123 278 120T329 117Q402 117 446 149T491 233Q491 271 463 297T372 324H318L344 445H402Q460 445 496 475T533 549Q533 590 505 614T428 638Q367 638 325 599T267 484L164 -1H12L117 491Q133 565 171 627T274 727T438 765Z" />
<glyph unicode="&#xe0;" glyph-name="agrave" horiz-adv-x="636" d="M326 603L231 784H367L434 604L326 603ZM309 540Q351 540 380 529T426 502T453 472T465 450H472L489 530H642L530 0H378L391 65H384Q384 65 376 54T350 28T304 2T233 -10Q166 -10 123 22T58
105T36 217Q36 274 54 331T107 435T193 511T309 540ZM339 417Q292 417 258 389T206 317T188 232Q188 184 212 149T290 113Q336 113 370 141T422 212T440 298Q440 346 416 381T339 417Z" />
<glyph unicode="&#xe1;" glyph-name="aacute" horiz-adv-x="636" d="M454 603L343 604L426 784H566L454 603ZM309 540Q351 540 380 529T426 502T453 472T465 450H472L489 530H642L530 0H378L391 65H384Q384 65 376 54T350 28T304 2T233 -10Q166 -10 123 22T58
105T36 217Q36 274 54 331T107 435T193 511T309 540ZM339 417Q292 417 258 389T206 317T188 232Q188 184 212 149T290 113Q336 113 370 141T422 212T440 298Q440 346 416 381T339 417Z" />
<glyph unicode="&#xe2;" glyph-name="acircumflex" horiz-adv-x="636" d="M199 596L366 776H487L578 596H466L417 700L324 596H199ZM309 540Q351 540 380 529T426 502T453 472T465 450H472L489 530H642L530 0H378L391 65H384Q384 65 376 54T350 28T304 2T233 -10Q166
-10 123 22T58 105T36 217Q36 274 54 331T107 435T193 511T309 540ZM339 417Q292 417 258 389T206 317T188 232Q188 184 212 149T290 113Q336 113 370 141T422 212T440 298Q440 346 416 381T339 417Z" />
<glyph unicode="&#xe3;" glyph-name="atilde" horiz-adv-x="636" d="M477 614Q450 614 431 623T398 645T371 667T345 677Q317 677 306 620H225Q233 659 246 692T283 746T346 767Q373 767 392 758T426 736T453 714T479 704Q494 704 502 719T517 762H597Q589 723
576 689T540 635T477 614ZM309 540Q351 540 380 529T426 502T453 472T465 450H472L489 530H642L530 0H378L391 65H384Q384 65 376 54T350 28T304 2T233 -10Q166 -10 123 22T58 105T36 217Q36 274 54 331T107 435T193 511T309 540ZM339 417Q292 417 258 389T206
317T188 232Q188 184 212 149T290 113Q336 113 370 141T422 212T440 298Q440 346 416 381T339 417Z" />
<glyph unicode="&#xe4;" glyph-name="adieresis" horiz-adv-x="636" d="M518 591Q480 591 456 615T432 674Q432 709 456 733T518 757Q555 757 579 733T604 674Q604 640 580 616T518 591ZM292 591Q254 591 230 615T206 674Q206 709 230 733T292 757Q329 757 353
733T378 674Q378 640 354 616T292 591ZM309 540Q351 540 380 529T426 502T453 472T465 450H472L489 530H642L530 0H378L391 65H384Q384 65 376 54T350 28T304 2T233 -10Q166 -10 123 22T58 105T36 217Q36 274 54 331T107 435T193 511T309 540ZM339 417Q292 417
258 389T206 317T188 232Q188 184 212 149T290 113Q336 113 370 141T422 212T440 298Q440 346 416 381T339 417Z" />
<glyph unicode="&#xe5;" glyph-name="aring" horiz-adv-x="636" d="M398 588Q361 588 330 606T281 655T262 723Q262 761 280 791T330 840T398 859Q436 859 466 841T515 792T534 723Q534 686 516 655T467 606T398 588ZM398 669Q421 669 437 684T453 723Q453 746
437 761T398 777Q375 777 359 762T343 723Q343 700 359 685T398 669ZM309 540Q351 540 380 529T426 502T453 472T465 450H472L489 530H642L530 0H378L391 65H384Q384 65 376 54T350 28T304 2T233 -10Q166 -10 123 22T58 105T36 217Q36 274 54 331T107 435T193 511T309
540ZM339 417Q292 417 258 389T206 317T188 232Q188 184 212 149T290 113Q336 113 370 141T422 212T440 298Q440 346 416 381T339 417Z" />
<glyph unicode="&#xe6;" glyph-name="ae" horiz-adv-x="943" d="M200 -10Q116 -10 68 30T20 138Q20 205 72 254T231 310L388 319L393 339Q400 376 381 402T314 428Q282 428 264 419T236 396T223 374T219 364H77Q77 364 82 381T103 425T145 478T214 522T317 540Q374
540 408 524T460 488T484 456H490Q500 468 524 488T588 524T683 540Q752 540 798 514T871 443T903 347T900 245L896 225H525Q526 172 552 138T631 104Q661 104 681 114T714 137T731 160T737 171H880Q880 171 873 153T848 107T802 53T728 8T622 -10Q571 -10 534
2T472 33T434 69T415 98H410Q410 98 399 82T363 44T298 7T200 -10ZM539 317H767Q773 360 749 393T672 426Q622 426 588 395T539 317ZM242 94Q284 94 320 124T366 207L370 225L256 218Q214 215 193 198T171 152Q171 121 192 108T242 94Z" />
<glyph unicode="&#xe7;" glyph-name="ccedilla" d="M203 -262Q170 -262 145 -258T119 -253L132 -173Q132 -173 144 -174T174 -178T205 -180Q242 -180 255 -167T268 -139Q268 -126 258 -116T225 -106Q206 -106 193 -112T180 -119L142 -70L205 0Q148 15 112 49T58
131T40 231Q40 288 60 343T119 442T217 513T350 540Q419 540 462 520T529 469T562 408T573 357T575 336H433Q433 336 432 348T424 377T398 406T345 419Q297 419 263 392T211 322T192 234Q192 183 217 147T295 111Q328 111 349 123T383 152T401 181T406 194H549Q549
194 543 174T521 124T476 64T403 13T293 -10L263 -43H265Q315 -43 344 -72T373 -140Q373 -169 356 -197T301 -243T203 -262Z" />
<glyph unicode="&#xe8;" glyph-name="egrave" horiz-adv-x="608" d="M305 603L210 784H346L412 604L305 603ZM285 -10Q200 -10 146 24T66 113T40 231Q40 287 59 341T117 441T212 513T343 540Q415 540 462 514T536 443T568 347T565 245L561 225H190Q191 171 217
138T295 104Q326 104 346 114T379 137T396 160T402 171H544Q544 171 537 153T513 107T467 53T392 8T285 -10ZM204 317H432Q438 360 414 393T337 426Q287 426 253 395T204 317Z" />
<glyph unicode="&#xe9;" glyph-name="eacute" horiz-adv-x="608" d="M433 603L322 604L405 784H545L433 603ZM285 -10Q200 -10 146 24T66 113T40 231Q40 287 59 341T117 441T212 513T343 540Q415 540 462 514T536 443T568 347T565 245L561 225H190Q191 171 217
138T295 104Q326 104 346 114T379 137T396 160T402 171H544Q544 171 537 153T513 107T467 53T392 8T285 -10ZM204 317H432Q438 360 414 393T337 426Q287 426 253 395T204 317Z" />
<glyph unicode="&#xea;" glyph-name="ecircumflex" horiz-adv-x="608" d="M177 596L345 776H465L557 596H444L396 700L303 596H177ZM285 -10Q200 -10 146 24T66 113T40 231Q40 287 59 341T117 441T212 513T343 540Q415 540 462 514T536 443T568 347T565 245L561
225H190Q191 171 217 138T295 104Q326 104 346 114T379 137T396 160T402 171H544Q544 171 537 153T513 107T467 53T392 8T285 -10ZM204 317H432Q438 360 414 393T337 426Q287 426 253 395T204 317Z" />
<glyph unicode="&#xeb;" glyph-name="edieresis" horiz-adv-x="608" d="M497 591Q459 591 435 615T410 674Q410 709 434 733T497 757Q534 757 558 733T583 674Q583 640 559 616T497 591ZM271 591Q233 591 209 615T184 674Q184 709 208 733T271 757Q308 757 332
733T357 674Q357 640 333 616T271 591ZM285 -10Q200 -10 146 24T66 113T40 231Q40 287 59 341T117 441T212 513T343 540Q415 540 462 514T536 443T568 347T565 245L561 225H190Q191 171 217 138T295 104Q326 104 346 114T379 137T396 160T402 171H544Q544 171 537
153T513 107T467 53T392 8T285 -10ZM204 317H432Q438 360 414 393T337 426Q287 426 253 395T204 317Z" />
<glyph unicode="&#xec;" glyph-name="igrave" horiz-adv-x="294" d="M150 603L54 784H190L257 604L150 603ZM9 0L122 530H274L161 0H9Z" />
<glyph unicode="&#xed;" glyph-name="iacute" horiz-adv-x="294" d="M277 603L166 604L250 784H390L277 603ZM9 0L122 530H274L161 0H9Z" />
<glyph unicode="&#xee;" glyph-name="icircumflex" horiz-adv-x="294" d="M22 596L189 776H310L401 596H289L241 700L147 596H22ZM9 0L122 530H274L161 0H9Z" />
<glyph unicode="&#xef;" glyph-name="idieresis" horiz-adv-x="294" d="M341 591Q303 591 279 615T255 674Q255 709 279 733T341 757Q378 757 402 733T427 674Q427 640 403 616T341 591ZM115 591Q77 591 53 615T29 674Q29 709 53 733T115 757Q152 757 176 733T201
674Q201 640 177 616T115 591ZM9 0L122 530H274L161 0H9Z" />
<glyph unicode="&#xf0;" glyph-name="eth" horiz-adv-x="649" d="M300 -10Q213 -10 157 25T73 116T45 236Q45 289 63 340T118 434T206 502T325 527Q383 527 418 509T472 470Q452 520 416 562T338 636L195 562L169 659L245 698Q210 718 187 728T164 739L224 841Q224
841 245 833T300 809T375 766L523 844L548 747L461 701Q504 663 540 614T598 502T621 363Q621 290 600 223T538 104T438 21T300 -10ZM304 113Q351 113 383 140T433 207T450 290Q450 323 439 352T404 399T343 417Q297 417 265 390T215 321T198 239Q198 189 223 151T304
113Z" />
<glyph unicode="&#xf1;" glyph-name="ntilde" horiz-adv-x="606" d="M465 614Q439 614 420 623T386 645T360 667T333 677Q305 677 294 620H214Q222 659 235 692T271 746T335 767Q362 767 381 758T414 736T441 714T467 704Q482 704 491 719T505 762H586Q578 723
565 689T529 635T465 614ZM8 0L121 530H273L257 454H262Q262 454 270 467T297 497T345 527T417 540Q475 540 511 512T561 436T562 333L491 0H338L405 311Q414 354 399 384T341 415Q293 415 264 381T224 299L160 0H8Z" />
<glyph unicode="&#xf2;" glyph-name="ograve" horiz-adv-x="629" d="M309 603L214 784H350L416 604L309 603ZM284 -10Q200 -10 146 24T66 112T39 229Q39 284 59 339T118 439T215 512T347 540Q430 540 484 506T565 418T592 301Q592 245 572 190T512 90T415 18T284
-10ZM291 114Q337 114 369 141T420 211T438 298Q438 345 414 380T338 416Q293 416 260 389T209 319T191 232Q191 185 215 150T291 114Z" />
<glyph unicode="&#xf3;" glyph-name="oacute" horiz-adv-x="629" d="M437 603L326 604L409 784H549L437 603ZM284 -10Q200 -10 146 24T66 112T39 229Q39 284 59 339T118 439T215 512T347 540Q430 540 484 506T565 418T592 301Q592 245 572 190T512 90T415 18T284
-10ZM291 114Q337 114 369 141T420 211T438 298Q438 345 414 380T338 416Q293 416 260 389T209 319T191 232Q191 185 215 150T291 114Z" />
<glyph unicode="&#xf4;" glyph-name="ocircumflex" horiz-adv-x="629" d="M181 596L349 776H469L561 596H448L400 700L307 596H181ZM284 -10Q200 -10 146 24T66 112T39 229Q39 284 59 339T118 439T215 512T347 540Q430 540 484 506T565 418T592 301Q592 245 572
190T512 90T415 18T284 -10ZM291 114Q337 114 369 141T420 211T438 298Q438 345 414 380T338 416Q293 416 260 389T209 319T191 232Q191 185 215 150T291 114Z" />
<glyph unicode="&#xf5;" glyph-name="otilde" horiz-adv-x="629" d="M460 614Q433 614 414 623T381 645T354 667T327 677Q300 677 289 620H208Q216 659 229 692T265 746T329 767Q356 767 375 758T409 736T436 714T461 704Q477 704 485 719T500 762H580Q572 723
559 689T523 635T460 614ZM284 -10Q200 -10 146 24T66 112T39 229Q39 284 59 339T118 439T215 512T347 540Q430 540 484 506T565 418T592 301Q592 245 572 190T512 90T415 18T284 -10ZM291 114Q337 114 369 141T420 211T438 298Q438 345 414 380T338 416Q293 416
260 389T209 319T191 232Q191 185 215 150T291 114Z" />
<glyph unicode="&#xf6;" glyph-name="odieresis" horiz-adv-x="629" d="M501 591Q463 591 439 615T414 674Q414 709 438 733T501 757Q538 757 562 733T587 674Q587 640 563 616T501 591ZM275 591Q237 591 213 615T188 674Q188 709 212 733T275 757Q312 757 336
733T361 674Q361 640 337 616T275 591ZM284 -10Q200 -10 146 24T66 112T39 229Q39 284 59 339T118 439T215 512T347 540Q430 540 484 506T565 418T592 301Q592 245 572 190T512 90T415 18T284 -10ZM291 114Q337 114 369 141T420 211T438 298Q438 345 414 380T338
416Q293 416 260 389T209 319T191 232Q191 185 215 150T291 114Z" />
<glyph unicode="&#xf7;" glyph-name="divide" horiz-adv-x="677" d="M390 442Q352 442 328 467T304 527Q304 563 328 587T390 612Q426 612 450 588T475 527Q475 492 451 467T390 442ZM95 272L119 381H601L577 272H95ZM306 39Q269 39 245 64T221 125Q221 160 245
185T306 210Q343 210 367 185T392 125Q392 90 368 65T306 39Z" />
<glyph unicode="&#xf8;" glyph-name="oslash" horiz-adv-x="633" d="M91 -41L134 35Q88 69 66 120T43 229Q43 284 63 339T122 439T219 512T351 540Q386 540 417 533L439 571H544L502 497Q549 463 572 411T596 301Q596 245 576 190T516 90T419 18T288 -10Q251 -10
218 -2L196 -41H91ZM195 232Q195 194 209 166L350 415Q350 415 342 416Q297 416 264 389T213 319T195 232ZM295 114Q341 114 373 141T424 211T442 298Q442 337 427 365L285 115Q287 115 295 114Z" />
<glyph unicode="&#xf9;" glyph-name="ugrave" horiz-adv-x="597" d="M309 603L214 784H350L416 604L309 603ZM177 -10Q101 -10 65 44T49 192L120 530H273L204 203Q195 161 211 138T264 115Q312 115 340 149T378 228L442 530H595L483 0H330L346 75H340Q316 44 276
17T177 -10Z" />
<glyph unicode="&#xfa;" glyph-name="uacute" horiz-adv-x="597" d="M437 603L326 604L409 784H549L437 603ZM177 -10Q101 -10 65 44T49 192L120 530H273L204 203Q195 161 211 138T264 115Q312 115 340 149T378 228L442 530H595L483 0H330L346 75H340Q316 44 276
17T177 -10Z" />
<glyph unicode="&#xfb;" glyph-name="ucircumflex" horiz-adv-x="597" d="M181 596L349 776H469L561 596H448L400 700L307 596H181ZM177 -10Q101 -10 65 44T49 192L120 530H273L204 203Q195 161 211 138T264 115Q312 115 340 149T378 228L442 530H595L483 0H330L346
75H340Q316 44 276 17T177 -10Z" />
<glyph unicode="&#xfc;" glyph-name="udieresis" horiz-adv-x="597" d="M501 591Q463 591 439 615T414 674Q414 709 438 733T501 757Q538 757 562 733T587 674Q587 640 563 616T501 591ZM275 591Q237 591 213 615T188 674Q188 709 212 733T275 757Q312 757 336
733T361 674Q361 640 337 616T275 591ZM177 -10Q101 -10 65 44T49 192L120 530H273L204 203Q195 161 211 138T264 115Q312 115 340 149T378 228L442 530H595L483 0H330L346 75H340Q316 44 276 17T177 -10Z" />
<glyph unicode="&#xfd;" glyph-name="yacute" horiz-adv-x="596" d="M423 603L312 604L396 784H536L423 603ZM7 -195Q-20 -195 -34 -193T-48 -191L-22 -64Q-22 -64 -11 -65T17 -67Q57 -67 92 -53T159 3L78 530H223L270 171L466 530H628L331 21Q267 -88 191 -141T7 -195Z" />
<glyph unicode="&#xfe;" glyph-name="thorn" horiz-adv-x="656" d="M-26 -195L15 0V0L62 225L126 530V530L175 760H327L265 465H272Q272 465 280 476T306 502T353 528T423 540Q490 540 533 508T598 425T620 313Q620 256 602 199T549 95T463 19T347 -10Q305 -10
277 1T230 28T203 58T191 80H184L126 -195H-26ZM217 232Q217 184 241 149T318 113Q365 113 398 141T450 213T468 298Q468 346 444 381T367 417Q320 417 287 389T235 318T217 232Z" />
<glyph unicode="&#xff;" glyph-name="ydieresis" horiz-adv-x="596" d="M487 591Q449 591 425 615T401 674Q401 709 425 733T487 757Q524 757 548 733T573 674Q573 640 549 616T487 591ZM261 591Q223 591 199 615T175 674Q175 709 199 733T261 757Q298 757 322
733T347 674Q347 640 323 616T261 591ZM7 -195Q-20 -195 -34 -193T-48 -191L-22 -64Q-22 -64 -11 -65T17 -67Q57 -67 92 -53T159 3L78 530H223L270 171L466 530H628L331 21Q267 -88 191 -141T7 -195Z" />
<glyph unicode="&#x2013;" glyph-name="endash" horiz-adv-x="678" d="M98 252L122 372H594L570 252H98Z" />
<glyph unicode="&#x2014;" glyph-name="emdash" horiz-adv-x="851" d="M98 252L130 372H766L735 252H98Z" />
<glyph unicode="&#x2018;" glyph-name="quoteleft" horiz-adv-x="241" d="M261 740L178 604Q213 602 235 578T257 519Q257 483 233 459T170 435Q133 435 107 459T81 524Q81 546 92 573T127 637T191 729L199 740H261Z" />
<glyph unicode="&#x2019;" glyph-name="quoteright" horiz-adv-x="229" d="M97 445L180 581Q145 583 123 607T101 665Q101 702 125 726T187 750Q225 750 251 726T277 661Q277 638 266 612T230 548T167 455L159 445H97Z" />
<glyph unicode="&#x201a;" glyph-name="quotesinglbase" horiz-adv-x="304" d="M18 -145L101 -9Q66 -6 44 18T22 76Q22 113 46 137T108 161Q146 161 172 137T198 72Q198 49 187 23T151 -41T88 -134L80 -145H18Z" />
<glyph unicode="&#x201c;" glyph-name="quotedblleft" horiz-adv-x="459" d="M261 740L178 604Q213 602 235 578T257 519Q257 483 233 459T170 435Q133 435 107 459T81 524Q81 546 92 573T127 637T191 729L199 740H261ZM478 740L396 604Q430 602 452 578T475 519Q475
483 450 459T388 435Q350 435 325 459T299 524Q299 546 310 573T345 637T409 729L416 740H478Z" />
<glyph unicode="&#x201d;" glyph-name="quotedblright" horiz-adv-x="447" d="M315 445L397 581Q363 583 341 607T318 665Q318 702 343 726T405 750Q443 750 468 726T494 661Q494 638 483 612T448 548T384 455L377 445H315ZM97 445L180 581Q145 583 123 607T101
665Q101 702 125 726T187 750Q225 750 251 726T277 661Q277 638 266 612T230 548T167 455L159 445H97Z" />
<glyph unicode="&#x201e;" glyph-name="quotedblbase" horiz-adv-x="504" d="M236 -145L319 -9Q284 -6 262 18T240 76Q240 113 264 137T326 161Q364 161 390 137T416 72Q416 49 405 23T369 -41T306 -134L298 -145H236ZM19 -145L101 -9Q67 -6 45 18T22 76Q22 113
47 137T109 161Q146 161 172 137T198 72Q198 49 187 23T152 -41T88 -134L81 -145H19Z" />
<glyph unicode="&#x2022;" glyph-name="bullet" horiz-adv-x="539" d="M289 200Q239 200 201 223T142 284T120 369Q120 416 141 454T201 515T289 538Q337 538 375 515T435 454T457 369Q457 323 435 285T375 223T289 200Z" />
<glyph unicode="&#x2039;" glyph-name="guilsinglleft" horiz-adv-x="446" d="M466 529L198 300L353 90H204L39 309L298 529H466Z" />
<glyph unicode="&#x203a;" glyph-name="guilsinglright" horiz-adv-x="446" d="M6 90L274 318L119 529H268L433 309L174 90H6Z" />
</font>
</defs>
</svg>
