<?xml version="1.0" standalone="no"?>
<!DOCTYPE svg PUBLIC "-//W3C//DTD SVG 1.1//EN" "http://www.w3.org/Graphics/SVG/1.1/DTD/svg11.dtd">
<svg xmlns="http://www.w3.org/2000/svg">
<defs >
<font id="BeVietnamPro" horiz-adv-x="585" ><font-face
    font-family="Be Vietnam Pro Medium"
    units-per-em="1000"
    panose-1="0 0 0 0 0 0 0 0 0 0"
    ascent="1000"
    descent="-265"
    alphabetic="0" />
<glyph unicode=" " glyph-name="space" horiz-adv-x="230" />
<glyph unicode="!" glyph-name="exclam" horiz-adv-x="260" d="M70 201L175 740H294L168 201H70ZM89 -9Q59 -9 40 11T21 59Q21 87 40 107T89 127Q118 127 137 107T157 59Q157 30 138 11T89 -9Z" />
<glyph unicode="&quot;" glyph-name="quotedbl" horiz-adv-x="343" d="M253 528L308 740H414L327 528H253ZM103 528L158 740H264L177 528H103Z" />
<glyph unicode="#" glyph-name="numbersign" horiz-adv-x="796" d="M80 0L160 193H12L56 294H201L264 445H119L162 546H305L386 740H493L413 546H557L637 740H745L664 546H812L769 445H623L560 294H706L662 193H519L439 0H331L411 193H267L187 0H80ZM309 294H453L515
445H371L309 294Z" />
<glyph unicode="$" glyph-name="dollar" horiz-adv-x="661" d="M224 -99L244 -4Q179 6 139 32T78 91T48 154T38 204T37 224H151Q151 224 153 208T164 168T197 124T265 93L316 336L293 345Q251 362 216 386T160 447T139 537Q139 592 169 641T258 720T401 750H404L423
837H502L482 742Q535 730 569 706T621 652T647 596T656 552T657 535H546Q546 535 544 548T534 580T509 617T461 646L412 413L419 410Q463 392 503 368T568 305T593 208Q593 148 558 99T462 20T322 -10L303 -99H224ZM254 544Q254 507 277 483T339 443L384 655Q323
650 289 619T254 544ZM478 205Q478 242 453 265T389 306L343 88Q400 94 439 125T478 205Z" />
<glyph unicode="%" glyph-name="percent" horiz-adv-x="858" d="M256 446Q210 446 180 465T134 515T119 581Q119 622 138 660T196 724T289 750Q336 750 366 731T411 682T426 616Q426 575 407 536T349 472T256 446ZM124 0L679 740H774L219 0H124ZM261 513Q291 513
311 528T341 565T352 611Q352 639 335 661T283 684Q254 684 234 669T203 632T192 586Q192 558 209 536T261 513ZM616 -10Q570 -10 540 9T494 59T479 125Q479 166 498 205T556 269T649 295Q695 295 725 276T771 226T786 161Q786 120 767 81T709 16T616 -10ZM621
57Q650 57 670 72T702 109T713 155Q713 183 696 205T643 228Q614 228 594 213T563 176T552 130Q552 102 569 80T621 57Z" />
<glyph unicode="&amp;" glyph-name="ampersand" horiz-adv-x="680" d="M246 -10Q179 -10 125 14T40 84T8 191Q8 249 35 292T106 366T201 420Q179 457 166 493T152 569Q152 627 179 667T250 729T344 750Q390 750 431 732T499 678T526 591Q526 537 498 499T428 435T344
392L467 224Q489 263 505 313T533 424H630Q616 335 589 266T526 144L632 0H498L452 64Q406 26 354 8T246 -10ZM251 574Q251 546 263 518T296 458H297Q314 465 336 475T380 501T416 538T430 588Q430 627 403 647T344 667Q310 667 281 644T251 574ZM116 206Q116 150
156 116T261 82Q338 82 400 138L284 301Q274 314 265 327T247 352Q212 337 182 318T134 271T116 206Z" />
<glyph unicode="&apos;" glyph-name="quotesingle" horiz-adv-x="193" d="M103 528L158 740H264L177 528H103Z" />
<glyph unicode="(" glyph-name="parenleft" horiz-adv-x="416" d="M268 -215Q192 -192 141 -132T63 11T36 184Q36 270 56 357T114 525T207 670T332 775T489 823L466 718Q408 710 360 675T273 585T208 463T167 324T152 180Q152 113 170 53T220 -51T291 -110L268 -215Z" />
<glyph unicode=")" glyph-name="parenright" horiz-adv-x="409" d="M148 823Q224 800 275 740T353 598T379 424Q379 339 360 252T302 84T209 -62T83 -167T-73 -215L-50 -110Q7 -101 56 -66T143 24T208 146T249 285T263 428Q263 495 245 555T196 659T125 718L148 823Z" />
<glyph unicode="*" glyph-name="asterisk" horiz-adv-x="502" d="M226 339L156 389L246 510L102 555L128 638L272 589L269 740H356L354 589L498 638L524 555L380 510L470 389L400 339L313 461L226 339Z" />
<glyph unicode="+" glyph-name="plus" horiz-adv-x="599" d="M214 119L245 266H98L118 359H265L296 507H390L359 359H506L486 266H339L307 119H214Z" />
<glyph unicode="," glyph-name="comma" horiz-adv-x="267" d="M8 -130L84 -7Q56 -5 38 14T19 63Q19 95 40 114T92 134Q123 134 144 115T166 61Q166 30 144 -9T69 -120L62 -130H8Z" />
<glyph unicode="-" glyph-name="hyphen" horiz-adv-x="598" d="M112 266L118 359H491L484 266H112Z" />
<glyph unicode="." glyph-name="period" horiz-adv-x="264" d="M91 -10Q60 -10 40 11T19 62Q19 92 39 113T91 134Q122 134 142 113T163 62Q163 32 143 11T91 -10Z" />
<glyph unicode="/" glyph-name="slash" horiz-adv-x="528" d="M-36 -161L521 826H635L78 -161H-36Z" />
<glyph unicode="0" glyph-name="zero" horiz-adv-x="661" d="M295 -10Q214 -10 161 31T81 141T54 291Q54 354 69 419T114 543T185 649T281 723T401 750Q483 750 536 709T616 599T642 449Q642 386 627 321T583 197T512 91T416 17T295 -10ZM301 94Q351 94 392 127T462
214T508 331T524 454Q524 506 511 549T469 619T397 645Q346 645 305 612T235 525T190 408T174 285Q174 233 187 190T228 120T301 94Z" />
<glyph unicode="1" glyph-name="one" horiz-adv-x="388" d="M385 740L228 0H112L231 559L91 558L106 627L132 634Q190 651 230 672T308 730L318 740H385Z" />
<glyph unicode="2" glyph-name="two" horiz-adv-x="645" d="M19 0L37 81L250 241Q322 295 380 341T471 432T505 529Q505 582 470 614T375 646Q332 646 304 631T260 595T236 551T226 515T224 500H112Q112 500 114 518T125 564T151 625T197 685T272 732T380 750Q459
750 513 721T595 644T623 536Q623 471 587 414T483 300T322 176L222 104H571L548 0H19Z" />
<glyph unicode="3" glyph-name="three" horiz-adv-x="642" d="M313 -10Q243 -10 196 7T120 50T75 106T53 162T46 205T45 222H156Q156 222 157 209T165 175T189 135T235 102T313 88Q368 88 404 107T459 158T478 223Q478 261 457 285T404 321T338 333H246L266 426H363Q430
426 472 458T515 545Q515 591 482 621T387 652Q344 652 316 640T272 608T248 570T238 538T236 525H128Q128 525 130 541T140 583T165 637T211 692T284 734T392 750Q470 750 523 724T603 654T630 560Q630 518 614 487T574 435T524 400T480 382L479 376Q498 369 526
350T575 297T597 215Q597 161 565 109T470 24T313 -10Z" />
<glyph unicode="4" glyph-name="four" horiz-adv-x="703" d="M357 0L393 165L30 166L52 270L483 740H632L531 265H655L634 165H509L474 0H357ZM171 265H414L487 610L171 265Z" />
<glyph unicode="5" glyph-name="five" horiz-adv-x="670" d="M309 -10Q244 -10 199 7T126 50T83 107T62 163T54 206T53 223H163Q163 223 164 210T172 176T194 135T238 101T311 87Q371 87 411 113T472 181T493 265Q493 301 478 333T430 386T349 406Q305 406 276
394T228 364T202 335T194 322H81L198 740H640L618 638H272L215 436H219Q219 436 235 451T287 481T380 497Q456 497 507 465T583 380T609 269Q609 219 590 169T534 79T440 14T309 -10Z" />
<glyph unicode="6" glyph-name="six" horiz-adv-x="679" d="M333 -10Q242 -10 183 28T94 129T65 268Q65 356 96 442T187 597T331 708T521 750Q593 750 629 742T665 733L643 628Q643 628 610 637T521 646Q413 646 332 585T209 423Q234 451 273 472T371 493Q453
493 506 460T586 374T612 262Q612 213 595 165T542 77T454 14T333 -10ZM332 88Q385 88 421 113T476 177T495 259Q495 296 480 329T433 382T355 403Q300 403 263 378T207 313T188 233Q188 195 203 162T251 109T332 88Z" />
<glyph unicode="7" glyph-name="seven" horiz-adv-x="589" d="M123 0Q144 99 179 185T258 344T344 474T425 573T488 637H108L129 740H649L632 655Q632 655 609 633T549 570T468 471T380 340T301 182T247 0H123Z" />
<glyph unicode="8" glyph-name="eight" horiz-adv-x="632" d="M301 -10Q211 -10 152 20T64 98T35 198Q35 241 54 281T113 353T211 400V405Q162 429 136 467T110 553Q110 607 143 652T236 723T372 750Q445 750 500 726T587 659T619 563Q619 507 582 460T472 389V384Q530
359 558 313T587 216Q587 161 555 109T459 24T301 -10ZM361 436Q409 436 441 452T489 495T505 550Q505 591 472 623T372 656Q323 656 291 640T243 597T227 543Q227 502 260 469T361 436ZM302 85Q357 85 394 105T449 158T468 224Q468 255 452 283T402 330T319 348Q264
348 228 328T173 276T154 210Q154 178 170 150T219 103T302 85Z" />
<glyph unicode="9" glyph-name="nine" horiz-adv-x="679" d="M381 750Q473 750 532 712T620 611T649 472Q649 384 618 298T528 143T384 32T193 -10Q122 -10 86 -2T50 7L72 112Q72 112 105 103T193 94Q302 94 383 155T505 317Q481 289 442 268T343 247Q262 247
209 280T129 366T103 478Q103 527 120 575T173 663T260 726T381 750ZM383 652Q330 652 294 627T239 563T220 481Q220 444 235 411T281 358T360 337Q415 337 452 362T508 427T527 507Q527 545 511 578T464 631T383 652Z" />
<glyph unicode=":" glyph-name="colon" horiz-adv-x="268" d="M181 396Q149 396 129 417T109 468Q109 498 129 519T181 540Q211 540 231 519T252 468Q252 439 232 418T181 396ZM92 -10Q61 -10 41 11T20 62Q20 92 40 113T92 134Q123 134 143 113T164 62Q164 32
144 11T92 -10Z" />
<glyph unicode=";" glyph-name="semicolon" horiz-adv-x="269" d="M181 396Q149 396 129 417T109 468Q109 498 129 519T181 540Q211 540 231 519T252 468Q252 439 232 418T181 396ZM9 -130L85 -7Q57 -5 39 14T20 63Q20 95 41 114T93 134Q124 134 145 115T167 61Q167
30 145 -9T70 -120L63 -130H9Z" />
<glyph unicode="&lt;" glyph-name="less" horiz-adv-x="562" d="M452 114L87 302L101 370L547 559L526 455L219 329L473 204L452 114Z" />
<glyph unicode="=" glyph-name="equal" horiz-adv-x="711" d="M121 373L141 469H641L621 373H121ZM73 150L93 246H593L573 150H73Z" />
<glyph unicode="&gt;" glyph-name="greater" horiz-adv-x="562" d="M62 114L83 218L391 344L136 469L157 559L522 370L508 302L62 114Z" />
<glyph unicode="?" glyph-name="question" horiz-adv-x="607" d="M224 198L227 218Q233 256 254 285T305 337T367 382T426 425T471 474T489 535Q489 586 453 617T362 648Q319 648 292 634T248 597T224 553T214 516T212 501H100Q100 501 102 519T113 565T138 625T186
685T261 732T370 750Q442 750 495 723T578 649T607 544Q607 495 589 459T543 395T483 345T420 303T368 262T340 214L336 198H224ZM266 -10Q236 -10 217 10T198 59Q198 87 217 107T266 127Q295 127 314 107T334 59Q334 30 315 10T266 -10Z" />
<glyph unicode="@" glyph-name="at" horiz-adv-x="988" d="M483 -139Q372 -139 290 -105T155 -13T75 119T49 272Q49 360 80 446T173 602T326 714T536 756Q646 756 725 722T856 632T931 507T955 369Q955 313 940 261T896 169T826 105T733 81Q689 81 663 94T623
125T604 155T599 169H592Q592 169 584 156T557 125T509 95T440 81Q384 81 348 107T294 175T276 266Q276 311 290 356T332 438T400 498T490 521Q527 521 551 510T590 483T611 457T617 445H623L637 513H738L694 307Q686 271 685 238T696 185T739 165Q773 165 800
193T843 268T859 368Q859 421 841 473T785 569T686 639T537 666Q440 666 367 632T245 540T172 414T147 274Q147 211 167 153T228 50T332 -22T482 -49Q532 -49 576 -41T654 -21T707 -2T726 7L758 -77Q758 -77 738 -86T682 -108T595 -129T483 -139ZM464 164Q504 164
533 189T578 252T594 329Q594 372 573 404T504 437Q463 437 434 412T389 349T373 273Q373 229 395 197T464 164Z" />
<glyph unicode="A" glyph-name="A" horiz-adv-x="718" d="M-29 0L387 740H531L632 0H518L496 166H192L100 0H-29ZM250 270H483L439 611L250 270Z" />
<glyph unicode="B" glyph-name="B" horiz-adv-x="680" d="M24 0L181 740H459Q526 740 568 716T632 655T653 574Q653 518 619 466T520 392L519 386Q572 369 597 329T623 241Q623 199 605 157T552 79T466 22T350 0H24ZM441 640H276L231 426H398Q443 426 474 445T522
493T538 552Q538 587 515 613T441 640ZM385 334H211L162 100H354Q401 100 435 120T487 173T505 237Q505 275 477 304T385 334Z" />
<glyph unicode="C" glyph-name="C" horiz-adv-x="757" d="M367 -10Q287 -10 229 16T132 88T76 192T57 316Q57 393 83 469T159 609T285 711T460 750Q532 750 581 731T662 683T710 620T733 557T741 508T743 489H626Q626 489 625 505T617 544T591 590T540 630T454
646Q386 646 334 618T247 542T193 438T175 325Q175 264 196 212T262 128T376 95Q426 95 463 111T524 150T563 196T584 235T590 251H708Q708 251 702 232T682 184T643 121T580 58T490 9T367 -10Z" />
<glyph unicode="D" glyph-name="D" horiz-adv-x="713" d="M24 0L181 740H374Q456 740 516 715T615 645T673 545T692 426Q692 350 665 275T583 138T450 38T269 0H24ZM362 638H276L162 103H276Q347 103 402 131T496 205T555 308T575 420Q575 477 553 527T483 607T362 638Z" />
<glyph unicode="E" glyph-name="E" horiz-adv-x="616" d="M24 0L181 740H648L627 638H276L231 427H536L515 326H210L162 102H518L496 0H24Z" />
<glyph unicode="F" glyph-name="F" horiz-adv-x="618" d="M24 0L181 740H655L633 638H276L228 411H539L518 310H206L140 0H24Z" />
<glyph unicode="G" glyph-name="G" horiz-adv-x="761" d="M371 -10Q292 -10 233 16T135 88T77 193T58 317Q58 394 83 470T160 610T286 712T462 750Q533 750 582 731T662 683T709 620T733 557T741 508T743 489H626Q626 489 625 505T617 544T591 590T540 630T455
646Q386 646 334 618T247 542T194 439T176 326Q176 265 198 213T265 128T382 95Q472 95 529 151T605 295H403L423 388H736L729 335Q715 230 668 153T545 33T371 -10Z" />
<glyph unicode="H" glyph-name="H" horiz-adv-x="716" d="M24 0L181 740H297L231 428H556L623 740H739L582 0H466L534 324H209L140 0H24Z" />
<glyph unicode="I" glyph-name="I" horiz-adv-x="274" d="M24 0L181 740H297L140 0H24Z" />
<glyph unicode="J" glyph-name="J" horiz-adv-x="484" d="M89 -10Q49 -10 21 -4T-8 2L13 103Q13 103 39 99T93 94Q178 94 225 139T288 259L391 740H507L404 256Q387 178 350 118T248 24T89 -10Z" />
<glyph unicode="K" glyph-name="K" horiz-adv-x="660" d="M24 0L181 740H297L230 422L579 739H738L324 370L588 0H451L212 339L140 0H24Z" />
<glyph unicode="L" glyph-name="L" horiz-adv-x="611" d="M24 0L181 740H297L162 102H513L491 0H24Z" />
<glyph unicode="M" glyph-name="M" horiz-adv-x="870" d="M24 0L181 740H334L446 319L738 740H893L736 0H620L736 550L479 184H368L262 572L140 0H24Z" />
<glyph unicode="N" glyph-name="N" horiz-adv-x="743" d="M24 0L181 740H286L536 205L649 740H766L609 0H503L253 529L140 0H24Z" />
<glyph unicode="O" glyph-name="O" horiz-adv-x="795" d="M371 -10Q291 -10 232 16T135 89T77 193T58 317Q58 394 84 470T162 610T288 712T459 750Q540 750 599 724T696 651T753 546T772 423Q772 346 746 270T668 130T543 28T371 -10ZM375 95Q442 95 494 124T581
201T635 306T654 421Q654 480 633 531T568 613T456 645Q389 645 338 616T250 539T196 434T177 319Q177 260 198 209T263 127T375 95Z" />
<glyph unicode="P" glyph-name="P" horiz-adv-x="648" d="M24 0L181 740H421Q503 740 557 709T637 628T664 522Q664 473 645 426T589 339T497 276T370 253H194L140 0H24ZM410 638H276L216 355H378Q432 355 469 378T526 438T546 513Q546 545 532 573T487 620T410 638Z" />
<glyph unicode="Q" glyph-name="Q" horiz-adv-x="812" d="M371 -10Q291 -10 232 16T135 89T77 193T58 317Q58 394 84 470T162 610T288 712T459 750Q540 750 599 724T696 651T753 546T772 423Q772 342 743 260T656 115L744 0H609L573 46Q531 20 481 5T371 -10ZM375
95Q413 95 445 105T506 132L401 267L488 334L586 207Q619 253 636 309T654 421Q654 480 633 531T568 613T456 645Q389 645 338 616T250 539T196 434T177 319Q177 260 198 209T263 127T375 95Z" />
<glyph unicode="R" glyph-name="R" horiz-adv-x="663" d="M24 0L181 740H408Q487 740 538 712T615 637T641 540Q641 490 618 442T549 357T436 308L547 0H426L320 302H205L140 0H24ZM405 638H276L225 400H375Q423 400 456 420T506 471T523 534Q523 575 495 606T405 638Z" />
<glyph unicode="S" glyph-name="S" horiz-adv-x="663" d="M319 -10Q246 -10 197 7T116 50T69 107T45 164T38 207T37 224H154Q154 224 155 211T163 177T188 137T237 103T320 89Q364 89 399 103T456 144T478 206Q478 245 450 269T378 310L294 344Q252 361 217 385T160
447T139 537Q139 592 169 640T258 719T402 750Q467 750 512 735T585 695T628 643T650 591T658 550T659 534H546Q546 534 543 552T527 594T484 636T402 654Q333 654 294 622T255 544Q255 507 279 483T341 443L420 411Q465 393 505 368T570 305T595 209Q595 148 560
99T463 20T319 -10Z" />
<glyph unicode="T" glyph-name="T" horiz-adv-x="684" d="M216 0L351 638H114L136 740H728L706 638H468L333 0H216Z" />
<glyph unicode="U" glyph-name="U" horiz-adv-x="733" d="M318 -10Q236 -10 176 24T90 125T85 293L181 740H297L200 283Q183 201 215 151T334 100Q415 100 469 150T542 283L639 740H756L658 279Q628 136 537 63T318 -10Z" />
<glyph unicode="V" glyph-name="V" horiz-adv-x="692" d="M210 0L109 740H223L302 130L641 740H770L354 0H210Z" />
<glyph unicode="W" glyph-name="W" horiz-adv-x="994" d="M154 0L119 740H231L256 161L528 740H644L674 162L938 740H1062L715 0H577L548 546L291 0H154Z" />
<glyph unicode="X" glyph-name="X" horiz-adv-x="702" d="M-13 0L315 388L166 740H294L407 462L639 740H789L464 358L617 0H489L373 283L138 0H-13Z" />
<glyph unicode="Y" glyph-name="Y" horiz-adv-x="646" d="M199 0L254 262L97 740H216L330 382L594 740H732L370 259L315 0H199Z" />
<glyph unicode="Z" glyph-name="Z" horiz-adv-x="644" d="M-9 0L9 87L503 638H126L148 740H682L664 654L169 102H548L525 0H-9Z" />
<glyph unicode="[" glyph-name="bracketleft" horiz-adv-x="471" d="M-20 -204L202 841H516L495 742H296L117 -105H315L294 -204H-20Z" />
<glyph unicode="\" glyph-name="backslash" horiz-adv-x="494" d="M374 -161H274L136 826H236L374 -161Z" />
<glyph unicode="]" glyph-name="bracketright" horiz-adv-x="454" d="M498 841L276 -204H-38L-17 -105H182L361 742H163L184 841H498Z" />
<glyph unicode="^" glyph-name="asciicircum" horiz-adv-x="553" d="M162 569L321 740H416L503 569H413L361 675L265 569H162Z" />
<glyph unicode="_" glyph-name="underscore" horiz-adv-x="707" d="M36 -87L45 0H524L515 -87H36Z" />
<glyph unicode="`" glyph-name="grave" horiz-adv-x="231" d="M130 608L43 789H151L217 609L130 608Z" />
<glyph unicode="a" glyph-name="a" horiz-adv-x="643" d="M325 540Q379 540 413 523T465 483T491 442H497L516 530H631L518 0H403L418 72H413Q413 72 404 60T375 31T324 3T250 -10Q182 -10 137 22T70 108T47 222Q47 278 65 334T119 437T206 512T325 540ZM338 445Q296
445 263 426T207 374T172 303T159 227Q159 189 172 157T212 105T281 85Q323 85 356 104T412 156T447 226T459 303Q459 341 447 373T407 425T338 445Z" />
<glyph unicode="b" glyph-name="b" horiz-adv-x="653" d="M330 -10Q276 -10 242 7T190 47T164 88H158L139 0H24L187 760H302L237 458H243Q243 458 252 470T280 499T331 527T406 540Q474 540 519 508T586 422T609 308Q609 252 591 196T537 93T449 18T330 -10ZM317
85Q359 85 392 104T448 156T484 227T496 303Q496 341 483 373T444 425T374 445Q333 445 300 426T244 374T208 304T196 227Q196 189 209 157T248 105T317 85Z" />
<glyph unicode="c" glyph-name="c" horiz-adv-x="593" d="M276 -10Q198 -10 148 22T72 109T47 227Q47 286 67 342T125 442T220 513T349 540Q413 540 453 521T516 472T546 414T556 365T558 345H450Q450 345 449 360T438 395T406 430T342 445Q285 445 245 415T183
336T161 233Q161 171 191 128T286 85Q326 85 352 100T394 135T415 170T421 185H530Q530 185 524 165T501 116T457 58T384 10T276 -10Z" />
<glyph unicode="d" glyph-name="d" horiz-adv-x="654" d="M250 -10Q182 -10 137 22T70 108T47 222Q47 278 65 334T119 437T206 512T325 540Q379 540 413 523T465 483T491 442H497L566 760H681L518 0H403L418 72H413Q413 72 404 60T375 31T324 3T250 -10ZM281 85Q323
85 356 104T412 156T447 226T459 303Q459 341 447 373T407 425T338 445Q296 445 263 426T207 374T172 303T159 227Q159 189 172 157T212 105T281 85Z" />
<glyph unicode="e" glyph-name="e" horiz-adv-x="597" d="M278 -10Q198 -10 148 23T72 111T47 226Q47 282 66 337T123 439T216 512T342 540Q411 540 456 513T524 443T553 348T548 250L544 232H159Q160 168 190 125T286 82Q324 82 349 94T388 123T409 151T415 164H523Q523
164 516 147T493 103T448 51T378 8T278 -10ZM173 312H449Q454 346 444 377T406 428T336 448Q275 448 233 408T173 312Z" />
<glyph unicode="f" glyph-name="f" horiz-adv-x="392" d="M63 0L156 438H65L85 530H175L192 611Q202 656 225 692T289 749T394 770Q419 770 437 766T455 762L436 676Q436 676 423 678T397 681Q356 681 335 661T306 607L290 530H402L382 438H271L178 0H63Z" />
<glyph unicode="g" glyph-name="g" horiz-adv-x="637" d="M228 -211Q158 -211 114 -193T47 -149T14 -96T3 -51T1 -33H114Q114 -33 116 -45T128 -74T162 -103T229 -116Q282 -116 318 -96T375 -42T404 30L413 70H407Q407 70 398 60T369 37T321 13T252 3Q182 3 137
34T70 117T48 227Q48 282 66 337T120 439T207 512T325 540Q370 540 401 526T451 493T478 460T487 446H492L510 530H625L518 28Q493 -92 418 -151T228 -211ZM289 97Q343 97 381 128T440 206T460 302Q460 340 447 373T406 426T335 446Q280 446 242 415T183 337T162
241Q162 203 175 170T217 117T289 97Z" />
<glyph unicode="h" glyph-name="h" horiz-adv-x="599" d="M24 0L186 760H300L235 453H240Q240 453 249 466T277 497T326 527T397 540Q456 540 493 511T543 433T544 326L475 0H360L429 323Q439 373 420 408T349 444Q289 444 252 402T202 298L138 0H24Z" />
<glyph unicode="i" glyph-name="i" horiz-adv-x="267" d="M216 617Q184 617 164 638T144 687Q144 716 164 736T216 757Q246 757 266 737T287 687Q287 658 267 638T216 617ZM12 0L125 530H240L127 0H12Z" />
<glyph unicode="j" glyph-name="j" horiz-adv-x="311" d="M260 617Q229 617 209 638T188 687Q188 716 208 736T260 757Q290 757 310 737T331 687Q331 658 311 638T260 617ZM-49 -195Q-79 -195 -97 -192T-116 -189L-96 -94Q-96 -94 -84 -96T-55 -98Q-11 -98 18
-73T59 10L170 530H284L172 1Q162 -46 137 -91T67 -165T-49 -195Z" />
<glyph unicode="k" glyph-name="k" horiz-adv-x="593" d="M24 0L186 760H300L205 312L448 530H602L314 276L497 0H364L194 260L138 0H24Z" />
<glyph unicode="l" glyph-name="l" horiz-adv-x="274" d="M24 0L186 760H301L138 0H24Z" />
<glyph unicode="m" glyph-name="m" horiz-adv-x="909" d="M19 0L131 530H246L229 453H233Q233 453 242 466T271 497T319 527T389 540Q444 540 480 512T530 435H535Q535 435 546 451T579 487T634 524T713 540Q768 540 804 513T855 440T857 337L786 0H671L740 324Q751
377 733 410T665 444Q625 444 596 423T549 367T521 292L459 0H344L413 324Q424 374 407 409T339 444Q299 444 270 422T222 365T195 292L133 0H19Z" />
<glyph unicode="n" glyph-name="n" horiz-adv-x="594" d="M19 0L132 530H246L230 453H235Q235 453 244 466T272 497T321 527T392 540Q451 540 488 511T538 433T539 326L470 0H355L424 323Q434 373 415 408T344 444Q284 444 247 402T197 298L133 0H19Z" />
<glyph unicode="o" glyph-name="o" horiz-adv-x="616" d="M273 -10Q196 -10 146 23T71 109T46 223Q46 279 66 335T124 437T217 512T344 540Q422 540 472 507T546 421T571 307Q571 251 552 195T494 93T400 18T273 -10ZM280 87Q322 87 355 106T411 157T446 227T458
303Q458 341 445 373T406 424T337 443Q295 443 262 424T206 373T171 303T159 227Q159 189 172 157T211 106T280 87Z" />
<glyph unicode="p" glyph-name="p" horiz-adv-x="653" d="M-18 -195L137 530H252L237 458H242Q242 458 251 470T280 499T331 527T406 540Q473 540 518 508T586 422T609 308Q609 252 591 196T536 93T449 18T330 -10Q276 -10 242 7T190 47T164 88H158L97 -195H-18ZM196
227Q196 189 208 157T248 105T317 85Q359 85 392 104T448 156T484 227T496 303Q496 341 483 373T443 425T374 445Q332 445 299 426T243 374T208 304T196 227Z" />
<glyph unicode="q" glyph-name="q" horiz-adv-x="654" d="M361 -195L418 71H412Q412 71 403 59T375 31T324 2T250 -10Q182 -10 137 22T70 108T47 222Q47 278 65 334T119 437T206 512T325 540Q379 540 413 523T465 482T491 442H497L516 530H631L476 -195H361ZM281
85Q323 85 356 104T412 156T447 226T459 303Q459 341 447 373T407 425T338 445Q296 445 263 426T207 374T172 303T159 226Q159 189 172 157T212 105T281 85Z" />
<glyph unicode="r" glyph-name="r" horiz-adv-x="413" d="M19 0L132 530H246L231 460H236Q258 493 296 516T392 540Q410 540 422 538T435 536L412 426Q412 426 401 428T374 430Q303 430 254 380T182 226L133 0H19Z" />
<glyph unicode="s" glyph-name="s" horiz-adv-x="513" d="M232 -10Q169 -10 129 7T66 51T33 102T21 145T18 163H131Q131 163 133 151T146 123T177 95T239 82Q285 82 311 101T337 149Q337 175 317 188T270 212L212 232Q154 253 122 286T89 373Q89 417 111 455T179
516T290 540Q347 540 384 524T442 485T474 438T487 398T490 382H381Q381 382 378 392T366 415T336 439T283 450Q242 450 220 430T198 384Q198 362 213 348T254 324L313 302Q344 292 375 274T426 227T447 155Q447 110 422 73T349 13T232 -10Z" />
<glyph unicode="t" glyph-name="t" horiz-adv-x="425" d="M252 -10Q188 -10 153 15T108 83T108 174L164 438H70L90 530H184L212 662H327L299 530H421L401 438H280L222 169Q213 125 230 105T288 85Q309 85 328 87T347 90L327 -2Q327 -2 305 -6T252 -10Z" />
<glyph unicode="u" glyph-name="u" horiz-adv-x="586" d="M194 -10Q143 -10 108 14T59 82T58 187L131 530H246L173 188Q163 139 183 113T247 86Q290 86 320 108T370 164T397 237L459 530H574L462 0H347L363 76H357Q346 61 326 41T273 5T194 -10Z" />
<glyph unicode="v" glyph-name="v" horiz-adv-x="578" d="M166 0L79 530H192L253 135L479 530H608L296 0H166Z" />
<glyph unicode="w" glyph-name="w" horiz-adv-x="862" d="M135 0L79 530H192L225 158L423 530H536L575 160L767 530H892L609 0H488L450 366L257 0H135Z" />
<glyph unicode="x" glyph-name="x" horiz-adv-x="579" d="M-30 0L207 279L99 530H220L297 348L450 530H592L351 252L465 0H343L264 185L110 0H-30Z" />
<glyph unicode="y" glyph-name="y" horiz-adv-x="575" d="M-2 -195Q-25 -195 -40 -193T-55 -191L-35 -93Q-35 -93 -22 -94T8 -96Q101 -96 167 -2L79 530H192L252 133L477 530H605L294 6Q232 -97 159 -146T-2 -195Z" />
<glyph unicode="z" glyph-name="z" horiz-adv-x="512" d="M-17 0L0 79L361 438H90L110 530H532L514 451L153 92H439L419 0H-17Z" />
<glyph unicode="{" glyph-name="braceleft" horiz-adv-x="444" d="M220 -204Q129 -204 95 -154T75 -27L125 205Q139 270 74 270H33L54 367H94Q160 367 174 434L226 678Q242 757 290 799T417 841H537L516 742H420Q384 742 366 725T340 671L290 434Q280 389 261
363T196 321L195 316Q235 301 242 269T240 195L189 -40Q182 -73 197 -89T242 -105H335L315 -204H220Z" />
<glyph unicode="|" glyph-name="bar" horiz-adv-x="415" d="M53 -229L304 952H405L154 -229H53Z" />
<glyph unicode="}" glyph-name="braceright" horiz-adv-x="444" d="M229 841Q320 841 355 791T374 665L324 432Q310 367 375 367H416L396 270H355Q290 270 275 203L223 -41Q207 -120 160 -162T33 -204H-88L-66 -105H29Q65 -105 83 -88T109 -34L159 203Q169 248
188 275T253 316L255 321Q215 336 208 368T210 442L260 677Q268 711 253 726T207 742H114L134 841H229Z" />
<glyph unicode="~" glyph-name="asciitilde" horiz-adv-x="475" d="M327 317Q302 317 284 327T253 352T227 376T200 387Q184 387 174 370T159 323H96Q103 358 114 388T146 436T201 455Q228 455 246 445T277 421T303 397T329 386Q345 386 354 403T369 450H432Q425
416 414 386T382 336T327 317Z" />
<glyph unicode="&#xa0;" glyph-name="uni00A0" horiz-adv-x="230" />
<glyph unicode="&#xa1;" glyph-name="exclamdown" horiz-adv-x="260" d="M174 532Q204 532 223 512T243 464Q243 436 224 416T174 396Q145 396 126 416T106 464Q106 492 125 512T174 532ZM-30 -217L95 322H193L88 -217H-30Z" />
<glyph unicode="&#xa2;" glyph-name="cent" horiz-adv-x="593" d="M187 -88L205 -1Q125 20 86 83T47 227Q47 283 65 336T118 433T203 505T320 539L337 618H416L398 536Q448 528 478 507T526 458T549 405T557 362T558 345H450Q450 345 449 357T442 386T421 418T378
441L303 86Q338 89 361 104T397 138T415 171T421 185H530Q530 185 524 165T502 116T458 58T387 10T282 -10L266 -88H187ZM161 233Q161 188 177 152T226 99L299 440Q255 428 224 397T177 323T161 233Z" />
<glyph unicode="&#xa3;" glyph-name="sterling" horiz-adv-x="579" d="M-10 0L11 99Q89 110 139 150T189 254Q189 271 186 287T176 320H48L63 385H152Q144 410 137 437T130 496Q130 563 165 621T270 714T440 750Q486 750 524 744T585 732T608 726L586 625Q586
625 567 631T514 642T442 648Q346 648 295 605T244 494Q244 464 252 438T269 385H479L465 320H287Q290 300 290 281Q290 229 273 194T232 138T191 108T173 98H513L492 0H-10Z" />
<glyph unicode="&#xa4;" glyph-name="currency" horiz-adv-x="618" d="M103 107L50 159L133 242Q92 297 92 368Q92 438 131 493L50 573L103 626L183 545Q239 588 312 588Q382 588 438 547L517 626L568 573L490 494Q531 439 531 368Q531 331 520 299T489 240L568
159L517 107L436 187Q380 149 312 149Q241 149 185 190L103 107ZM312 232Q349 232 380 250T429 299T448 368Q448 405 430 436T380 485T312 504Q274 504 243 486T193 436T174 368Q174 330 192 300T242 251T312 232Z" />
<glyph unicode="&#xa5;" glyph-name="yen" horiz-adv-x="646" d="M45 183L61 259H253L254 262L233 326H76L92 401H208L97 740H216L330 382L594 740H732L477 401H592L576 326H420L370 259V259H561L545 183H354L315 0H199L237 183H45Z" />
<glyph unicode="&#xa6;" glyph-name="brokenbar" horiz-adv-x="415" d="M191 419L304 953H405L291 419H191ZM53 -229L156 255H257L154 -229H53Z" />
<glyph unicode="&#xa7;" glyph-name="section" horiz-adv-x="689" d="M271 -230Q202 -230 154 -213T75 -169T27 -112T2 -55T-8 -11T-10 6H105Q105 6 107 -8T118 -42T146 -84T196 -119T276 -133Q347 -133 391 -101T435 -13Q435 28 409 55T340 96L229 132Q158 155
113 196T68 300Q68 339 83 366T120 410T167 436T212 449L213 454Q203 462 189 478T164 519T153 581Q153 639 184 686T274 762T415 790Q490 790 539 768T616 713T658 648T674 593T678 571H565Q565 571 563 583T554 614T531 651T487 682T416 695Q350 695 310 665T269
585Q269 510 364 478L471 442Q545 418 590 378T635 274Q635 235 620 209T582 165T534 138T489 126L487 120Q507 107 530 76T553 -8Q553 -70 520 -120T423 -200T271 -230ZM420 173Q425 176 441 179T475 191T507 215T521 257Q521 287 500 310T429 350L281 401Q277
398 262 395T228 383T196 360T182 317Q182 286 204 263T275 223L420 173Z" />
<glyph unicode="&#xa8;" glyph-name="dieresis" horiz-adv-x="326" d="M259 604Q229 604 209 624T189 673Q189 701 209 721T259 742Q289 742 309 722T329 673Q329 644 309 624T259 604ZM57 604Q27 604 7 624T-13 673Q-13 701 7 721T57 742Q87 742 107 722T127
673Q127 644 107 624T57 604Z" />
<glyph unicode="&#xa9;" glyph-name="copyright" horiz-adv-x="798" d="M382 -7Q299 -7 238 20T137 94T77 199T57 321Q57 392 82 461T156 588T277 679T443 713Q526 713 587 686T689 613T749 509T769 387Q769 315 744 246T670 119T549 27T382 -7ZM384 65Q459 65
516 92T612 166T670 269T690 384Q690 450 664 508T582 604T442 641Q368 641 311 613T214 539T155 437T135 322Q135 256 162 197T245 102T384 65ZM395 140Q334 140 295 165T237 232T218 320Q218 364 233 407T279 487T352 544T453 566Q502 566 533 551T580 514T603
469T611 431T613 416H530Q530 416 529 428T521 455T497 482T448 494Q402 494 370 468T321 403T304 325Q304 280 327 247T402 213Q434 213 454 224T486 251T502 278T507 290H591Q591 290 586 275T569 238T534 193T478 155T395 140Z" />
<glyph unicode="&#xaa;" glyph-name="ordfeminine" horiz-adv-x="422" d="M296 450Q289 441 267 424T202 406Q155 406 128 431T100 496Q100 540 132 570T232 605L335 611L337 621Q341 642 331 661T287 680Q261 680 248 670T231 649T227 639H139Q139 639 144 655T166
694T212 733T293 750Q345 750 377 730T422 678T427 611L385 412H293L300 450H296ZM193 506Q193 488 206 479T239 470Q266 470 290 488T320 541L323 553L247 548Q220 547 207 535T193 506Z" />
<glyph unicode="&#xab;" glyph-name="guillemotleft" horiz-adv-x="676" d="M476 99L312 314L567 528H700L436 304L588 99H476ZM217 99L54 314L309 528H441L177 304L330 99H217Z" />
<glyph unicode="&#xac;" glyph-name="logicalnot" horiz-adv-x="655" d="M117 437L137 530H632L612 437V437L575 266H470L507 437H117Z" />
<glyph unicode="&#xad;" glyph-name="uni00AD" horiz-adv-x="600" d="M112 266L118 359H491L484 266H112Z" />
<glyph unicode="&#xae;" glyph-name="registered" horiz-adv-x="419" d="M260 393Q204 393 168 416T113 477T95 557Q95 606 117 651T183 726T290 756Q346 756 382 733T437 672T455 592Q455 543 433 498T368 423T260 393ZM261 428Q312 428 347 452T401 514T419
590Q419 624 405 654T363 702T290 721Q239 721 204 697T150 635T132 559Q132 525 146 495T188 447T261 428ZM186 479L227 672H300Q334 672 350 655T367 616Q367 597 355 580T317 555L342 479H296L273 551H246L230 479H186ZM298 633H263L253 588H294Q308 588 315
596T323 613Q323 621 317 627T298 633Z" />
<glyph unicode="&#xaf;" glyph-name="overscore" horiz-adv-x="352" d="M12 643L29 721H340L323 643H12Z" />
<glyph unicode="&#xb0;" glyph-name="degree" horiz-adv-x="462" d="M296 390Q246 390 206 414T141 479T117 570Q117 619 141 660T205 725T296 750Q346 750 387 726T452 660T476 570Q476 520 452 480T387 415T296 390ZM296 473Q336 473 364 501T393 570Q393 610
365 638T296 667Q256 667 228 639T199 570Q199 530 227 502T296 473Z" />
<glyph unicode="&#xb1;" glyph-name="plusminus" horiz-adv-x="630" d="M237 157L268 304H121L141 397H288L319 545H413L382 397H529L509 304H362L330 157H237ZM41 0L56 69H475L461 0H41Z" />
<glyph unicode="&#xb2;" glyph-name="uni00B2" horiz-adv-x="453" d="M117 405L131 470L248 552Q311 595 350 631T390 706Q390 731 374 746T328 762Q302 762 288 752T267 727T258 703T256 692H165Q165 692 167 707T177 745T203 790T252 828T332 843Q407 843 447
805T487 713Q487 668 461 632T393 565T305 505L280 487H464L446 405H117Z" />
<glyph unicode="&#xb3;" glyph-name="uni00B3" horiz-adv-x="455" d="M277 400Q226 400 194 414T145 448T122 489T114 524T113 538H203Q203 538 204 529T212 508T235 487T280 477Q320 477 339 496T359 539Q359 561 340 575T292 589H235L251 661H311Q345 661 363
677T382 716Q382 737 366 752T319 767Q293 767 278 758T256 736T246 715T244 705H159Q159 705 161 719T171 753T197 794T246 829T324 843Q398 843 436 809T475 730Q475 693 451 665T388 627L387 623Q414 612 434 589T455 532Q455 500 436 470T377 420T277 400Z"
/>
<glyph unicode="&#xb4;" glyph-name="acute" horiz-adv-x="231" d="M195 608L106 609L196 789H306L195 608Z" />
<glyph unicode="&#xb5;" glyph-name="uni00B5" horiz-adv-x="663" d="M-38 -198L117 530H231L158 189Q148 140 168 113T232 86Q274 86 305 108T355 165T383 238L444 530H558L481 168Q472 123 487 105T540 86Q556 86 566 88T577 90L557 -3Q557 -3 541 -6T497 -10Q436
-10 403 13T362 76H356Q356 76 349 63T325 33T281 3T214 -10Q172 -10 148 2T113 25T102 37L98 35Q104 -9 102 -46T90 -129L76 -198H-38Z" />
<glyph unicode="&#xb6;" glyph-name="paragraph" horiz-adv-x="525" d="M279 0H206L276 328H273Q208 328 165 352T101 415T80 497Q80 547 105 593T180 670T302 700H571L422 0H349L476 600H407L279 0Z" />
<glyph unicode="&#xb7;" glyph-name="middot" horiz-adv-x="272" d="M99 314Q68 314 48 335T28 386Q28 416 48 437T99 458Q130 458 150 437T171 386Q171 356 151 335T99 314Z" />
<glyph unicode="&#xb8;" glyph-name="cedilla" horiz-adv-x="241" d="M37 -251Q5 -251 -19 -246T-43 -240L-32 -176Q-32 -176 -21 -178T7 -183T39 -185Q78 -185 92 -170T107 -138Q107 -122 95 -110T56 -98Q35 -98 22 -105T9 -112L-22 -72L61 24H142L82 -44H87Q137
-44 163 -72T190 -138Q190 -165 175 -191T125 -234T37 -251Z" />
<glyph unicode="&#xb9;" glyph-name="uni00B9" horiz-adv-x="312" d="M329 838L236 405H143L208 712H124L136 768L150 772Q188 783 214 797T268 833L274 838H329Z" />
<glyph unicode="&#xba;" glyph-name="ordmasculine" horiz-adv-x="438" d="M267 407Q214 407 181 428T131 482T114 555Q114 601 136 646T201 721T306 751Q357 751 391 730T442 674T459 601Q459 555 437 510T371 436T267 407ZM271 483Q299 483 320 500T352 544T363
600Q363 628 348 650T301 673Q272 673 251 656T219 613T208 557Q208 528 223 506T271 483Z" />
<glyph unicode="&#xbb;" glyph-name="guillemotright" horiz-adv-x="676" d="M267 99L531 323L378 528H491L654 313L400 99H267ZM9 99L273 323L120 528H233L396 313L141 99H9Z" />
<glyph unicode="&#xbc;" glyph-name="onequarter" horiz-adv-x="896" d="M289 713L214 358H126L177 601H108L120 655L130 658Q164 667 188 678T234 709L238 713H289ZM169 0L620 700H721L268 0H169ZM714 0L729 70H554L570 143L758 355H878L832 141H884L869 70H816L802
0H714ZM662 141H744L770 263L662 141Z" />
<glyph unicode="&#xbd;" glyph-name="onehalf" horiz-adv-x="894" d="M289 713L214 358H126L177 601H108L120 655L130 658Q164 667 188 678T234 709L238 713H289ZM169 0L620 700H721L268 0H169ZM575 0L588 60L680 122Q737 160 767 187T797 243Q797 262 785 273T750
285Q725 285 714 273T701 247T698 234H614Q614 234 615 246T624 278T646 316T687 347T755 360Q819 360 852 328T886 250Q886 210 862 180T803 126T734 81L725 75H868L853 0H575Z" />
<glyph unicode="&#xbe;" glyph-name="threequarters" horiz-adv-x="982" d="M222 353Q178 353 152 364T111 393T91 427T85 456T84 468H167Q167 468 169 457T184 435T225 424Q256 424 269 438T283 469Q283 484 270 494T234 505H186L200 572H251Q277 572 290 584T303
612Q303 625 292 636T256 647Q230 647 218 636T202 613T199 602H119Q119 602 122 619T139 660T181 700T261 718Q324 718 356 689T389 624Q389 594 368 571T316 540L315 537Q340 527 356 508T372 462Q372 436 356 411T306 370T222 353ZM281 0L732 700H833L380 0H281ZM826
0L841 70H666L682 143L870 355H990L944 141H996L981 70H928L914 0H826ZM774 141H856L882 263L774 141Z" />
<glyph unicode="&#xbf;" glyph-name="questiondown" horiz-adv-x="606" d="M333 538Q363 538 382 518T401 470Q401 441 382 421T333 401Q304 401 284 421T264 470Q264 498 284 518T333 538ZM229 -222Q157 -222 104 -195T21 -120T-8 -16Q-8 33 10 69T56 133T116
183T179 225T231 266T259 314L263 330H375L372 310Q366 272 345 243T294 191T232 146T173 103T128 54T110 -7Q110 -58 146 -89T237 -120Q280 -120 307 -106T351 -69T375 -25T385 12T387 27H499Q499 27 497 9T486 -37T461 -97T413 -157T338 -204T229 -222Z" />
<glyph unicode="&#xc0;" glyph-name="Agrave" horiz-adv-x="717" d="M423 818L336 999H443L510 819L423 818ZM-29 0L386 740H531L632 0H517L495 166H192L100 0H-29ZM249 270H483L439 611L249 270Z" />
<glyph unicode="&#xc1;" glyph-name="Aacute" horiz-adv-x="717" d="M528 818L439 819L529 999H639L528 818ZM-29 0L386 740H531L632 0H517L495 166H192L100 0H-29ZM249 270H483L439 611L249 270Z" />
<glyph unicode="&#xc2;" glyph-name="Acircumflex" horiz-adv-x="717" d="M295 813L451 962H545L637 813H547L491 905L399 813H295ZM-29 0L386 740H531L632 0H517L495 166H192L100 0H-29ZM249 270H483L439 611L249 270Z" />
<glyph unicode="&#xc3;" glyph-name="Atilde" horiz-adv-x="717" d="M559 825Q533 825 515 835T483 859T457 883T431 894Q415 894 406 878T390 831H322Q334 890 357 929T432 968Q459 968 477 958T509 935T535 911T561 901Q577 901 586 917T600 963H668Q657 904
634 865T559 825ZM-29 0L386 740H531L632 0H517L495 166H192L100 0H-29ZM249 270H483L439 611L249 270Z" />
<glyph unicode="&#xc4;" glyph-name="Adieresis" horiz-adv-x="717" d="M591 814Q560 814 541 834T521 883Q521 912 540 932T591 952Q621 952 641 932T661 883Q661 854 641 834T591 814ZM389 814Q358 814 339 834T319 883Q319 912 338 932T389 952Q419 952 439
932T459 883Q459 854 439 834T389 814ZM-29 0L386 740H531L632 0H517L495 166H192L100 0H-29ZM249 270H483L439 611L249 270Z" />
<glyph unicode="&#xc5;" glyph-name="Aring" horiz-adv-x="717" d="M468 807Q432 807 402 824T354 872T336 938Q336 974 354 1003T402 1050T468 1068Q504 1068 533 1051T580 1004T598 938Q598 902 581 872T534 825T468 807ZM468 880Q492 880 509 897T526 938Q526
962 509 979T468 996Q443 996 426 979T409 938Q409 914 426 897T468 880ZM-29 0L386 740H531L632 0H517L495 166H192L100 0H-29ZM249 270H483L439 611L249 270Z" />
<glyph unicode="&#xc6;" glyph-name="AE" horiz-adv-x="1009" d="M-29 0L494 740H1041L1020 638H671L626 427H929L908 326H605L557 102H911L889 0H419L454 166H223L105 0H-29ZM295 269H476L553 632L295 269Z" />
<glyph unicode="&#xc7;" glyph-name="Ccedilla" horiz-adv-x="757" d="M288 -261Q256 -261 232 -256T207 -250L218 -186Q218 -186 229 -188T258 -192T289 -195Q328 -195 342 -180T357 -148Q357 -132 345 -120T306 -108Q285 -108 272 -115T259 -122L228 -82L296
-4Q214 12 161 59T83 173T57 316Q57 393 83 469T159 609T285 711T460 750Q532 750 581 731T662 683T710 620T733 557T741 508T743 489H626Q626 489 625 505T617 544T591 590T540 630T454 646Q386 646 334 618T247 542T193 438T175 325Q175 264 196 212T262 128T376
95Q426 95 463 111T524 150T563 196T584 235T590 251H708Q708 251 702 232T682 184T643 121T581 58T492 9T371 -10L332 -54H337Q387 -54 413 -82T440 -147Q440 -175 425 -201T376 -244T288 -261Z" />
<glyph unicode="&#xc8;" glyph-name="Egrave" horiz-adv-x="616" d="M373 818L286 999H393L459 819L373 818ZM24 0L181 740H646L625 638H276L231 427H534L513 326H210L162 102H516L494 0H24Z" />
<glyph unicode="&#xc9;" glyph-name="Eacute" horiz-adv-x="616" d="M478 818L389 819L479 999H589L478 818ZM24 0L181 740H646L625 638H276L231 427H534L513 326H210L162 102H516L494 0H24Z" />
<glyph unicode="&#xca;" glyph-name="Ecircumflex" horiz-adv-x="616" d="M245 813L400 962H495L587 813H496L441 905L348 813H245ZM24 0L181 740H646L625 638H276L231 427H534L513 326H210L162 102H516L494 0H24Z" />
<glyph unicode="&#xcb;" glyph-name="Edieresis" horiz-adv-x="616" d="M540 814Q510 814 491 834T471 883Q471 912 490 932T540 952Q570 952 590 932T610 883Q610 854 590 834T540 814ZM338 814Q308 814 289 834T269 883Q269 912 288 932T338 952Q368 952 388
932T408 883Q408 854 388 834T338 814ZM24 0L181 740H646L625 638H276L231 427H534L513 326H210L162 102H516L494 0H24Z" />
<glyph unicode="&#xcc;" glyph-name="Igrave" horiz-adv-x="274" d="M196 785L109 966H216L282 786L196 785ZM24 0L181 740H297L140 0H24Z" />
<glyph unicode="&#xcd;" glyph-name="Iacute" horiz-adv-x="274" d="M301 785L212 786L302 966H412L301 785ZM24 0L181 740H297L140 0H24Z" />
<glyph unicode="&#xce;" glyph-name="Icircumflex" horiz-adv-x="274" d="M77 780L237 951H331L419 780H328L277 886L180 780H77ZM24 0L181 740H297L140 0H24Z" />
<glyph unicode="&#xcf;" glyph-name="Idieresis" horiz-adv-x="274" d="M363 781Q333 781 314 801T294 850Q294 879 313 899T363 919Q393 919 413 899T433 850Q433 822 413 802T363 781ZM161 781Q131 781 112 801T92 850Q92 879 111 899T161 919Q191 919 211 899T231
850Q231 822 211 802T161 781ZM24 0L181 740H297L140 0H24Z" />
<glyph unicode="&#xd0;" glyph-name="Eth" horiz-adv-x="756" d="M67 0L135 322H31L51 420H156L224 740H418Q499 740 559 715T658 645T716 545T735 426Q735 350 708 275T626 138T494 38T313 0H67ZM392 322H252L205 103H319Q390 103 446 131T540 205T598 308T618
420Q618 477 596 527T526 607T405 638H319L273 420H413L392 322Z" />
<glyph unicode="&#xd1;" glyph-name="Ntilde" horiz-adv-x="743" d="M571 825Q544 825 526 835T494 859T468 883T442 894Q426 894 417 878T402 831H333Q345 890 368 929T443 968Q470 968 488 958T520 935T546 911T572 901Q588 901 597 917T611 963H679Q668 904
645 865T571 825ZM24 0L181 740H286L536 205L649 740H766L609 0H503L253 529L140 0H24Z" />
<glyph unicode="&#xd2;" glyph-name="Ograve" horiz-adv-x="795" d="M432 818L345 999H452L519 819L432 818ZM371 -10Q291 -10 232 16T135 89T77 193T58 317Q58 394 84 470T162 610T288 712T459 750Q540 750 599 724T696 651T753 546T772 423Q772 346 746 270T668
130T543 28T371 -10ZM375 95Q442 95 494 124T581 201T635 306T654 421Q654 480 633 531T568 613T456 645Q389 645 338 616T250 539T196 434T177 319Q177 260 198 209T263 127T375 95Z" />
<glyph unicode="&#xd3;" glyph-name="Oacute" horiz-adv-x="795" d="M537 818L448 819L538 999H648L537 818ZM371 -10Q291 -10 232 16T135 89T77 193T58 317Q58 394 84 470T162 610T288 712T459 750Q540 750 599 724T696 651T753 546T772 423Q772 346 746 270T668
130T543 28T371 -10ZM375 95Q442 95 494 124T581 201T635 306T654 421Q654 480 633 531T568 613T456 645Q389 645 338 616T250 539T196 434T177 319Q177 260 198 209T263 127T375 95Z" />
<glyph unicode="&#xd4;" glyph-name="Ocircumflex" horiz-adv-x="795" d="M304 813L460 962H554L646 813H556L500 905L408 813H304ZM371 -10Q291 -10 232 16T135 89T77 193T58 317Q58 394 84 470T162 610T288 712T459 750Q540 750 599 724T696 651T753 546T772
423Q772 346 746 270T668 130T543 28T371 -10ZM375 95Q442 95 494 124T581 201T635 306T654 421Q654 480 633 531T568 613T456 645Q389 645 338 616T250 539T196 434T177 319Q177 260 198 209T263 127T375 95Z" />
<glyph unicode="&#xd5;" glyph-name="Otilde" horiz-adv-x="795" d="M568 825Q542 825 524 835T492 859T466 883T440 894Q424 894 415 878T399 831H331Q343 890 366 929T441 968Q468 968 486 958T518 935T544 911T570 901Q586 901 595 917T609 963H677Q666 904
643 865T568 825ZM371 -10Q291 -10 232 16T135 89T77 193T58 317Q58 394 84 470T162 610T288 712T459 750Q540 750 599 724T696 651T753 546T772 423Q772 346 746 270T668 130T543 28T371 -10ZM375 95Q442 95 494 124T581 201T635 306T654 421Q654 480 633 531T568
613T456 645Q389 645 338 616T250 539T196 434T177 319Q177 260 198 209T263 127T375 95Z" />
<glyph unicode="&#xd6;" glyph-name="Odieresis" horiz-adv-x="795" d="M600 814Q569 814 550 834T530 883Q530 912 549 932T600 952Q630 952 650 932T670 883Q670 854 650 834T600 814ZM398 814Q367 814 348 834T328 883Q328 912 347 932T398 952Q428 952 448
932T468 883Q468 854 448 834T398 814ZM371 -10Q291 -10 232 16T135 89T77 193T58 317Q58 394 84 470T162 610T288 712T459 750Q540 750 599 724T696 651T753 546T772 423Q772 346 746 270T668 130T543 28T371 -10ZM375 95Q442 95 494 124T581 201T635 306T654
421Q654 480 633 531T568 613T456 645Q389 645 338 616T250 539T196 434T177 319Q177 260 198 209T263 127T375 95Z" />
<glyph unicode="&#xd7;" glyph-name="multiply" horiz-adv-x="574" d="M85 205L222 319L138 425L213 493L299 382L436 495L494 422L357 309L441 203L367 135L280 245L143 132L85 205Z" />
<glyph unicode="&#xd8;" glyph-name="Oslash" horiz-adv-x="795" d="M15 -24L123 103Q90 147 74 202T58 316Q58 394 84 470T162 610T288 712T459 750Q513 750 557 738T635 703L686 763H815L707 637Q740 593 756 538T772 423Q772 346 746 269T668 129T543 28T371
-10Q318 -10 274 2T195 36L144 -24H15ZM177 319Q177 249 203 197L562 617Q540 630 514 637T456 644Q389 644 338 615T250 539T196 434T177 319ZM375 95Q442 95 494 124T581 201T635 306T654 421Q654 454 648 485T627 543L269 123Q290 110 316 103T375 95Z" />
<glyph unicode="&#xd9;" glyph-name="Ugrave" horiz-adv-x="733" d="M428 818L341 999H448L514 819L428 818ZM318 -10Q236 -10 176 24T90 125T85 293L181 740H297L200 283Q183 201 215 151T334 100Q415 100 469 150T542 283L639 740H756L658 279Q628 136 537 63T318 -10Z" />
<glyph unicode="&#xda;" glyph-name="Uacute" horiz-adv-x="733" d="M533 818L444 819L534 999H644L533 818ZM318 -10Q236 -10 176 24T90 125T85 293L181 740H297L200 283Q183 201 215 151T334 100Q415 100 469 150T542 283L639 740H756L658 279Q628 136 537 63T318 -10Z" />
<glyph unicode="&#xdb;" glyph-name="Ucircumflex" horiz-adv-x="733" d="M309 813L469 984H563L651 813H560L509 919L413 813H309ZM318 -10Q236 -10 176 24T90 125T85 293L181 740H297L200 283Q183 201 215 151T334 100Q415 100 469 150T542 283L639 740H756L658
279Q628 136 537 63T318 -10Z" />
<glyph unicode="&#xdc;" glyph-name="Udieresis" horiz-adv-x="733" d="M596 814Q565 814 546 834T526 883Q526 912 545 932T596 952Q626 952 646 932T666 883Q666 854 646 834T596 814ZM394 814Q363 814 344 834T324 883Q324 912 343 932T394 952Q424 952 444
932T464 883Q464 854 444 834T394 814ZM318 -10Q236 -10 176 24T90 125T85 293L181 740H297L200 283Q183 201 215 151T334 100Q415 100 469 150T542 283L639 740H756L658 279Q628 136 537 63T318 -10Z" />
<glyph unicode="&#xdd;" glyph-name="Yacute" horiz-adv-x="629" d="M479 818L390 819L479 999H589L479 818ZM199 0L254 262L97 740H216L330 382L594 740H732L370 259L315 0H199Z" />
<glyph unicode="&#xde;" glyph-name="Thorn" horiz-adv-x="654" d="M24 0L181 740H297L271 614H400Q483 614 537 583T617 502T643 395Q643 347 624 299T568 212T476 150T350 126H167L140 0H24ZM389 512H249L189 228H358Q412 228 449 252T506 312T526 387Q526 419
511 447T466 494T389 512Z" />
<glyph unicode="&#xdf;" glyph-name="germandbls" horiz-adv-x="654" d="M427 760Q498 760 549 737T629 672T657 577Q657 510 612 459T494 387L493 383Q506 380 525 368T563 336T596 286T610 219Q610 155 573 103T470 21T315 -10Q291 -10 266 -8T223 -5T206 -3L225
94Q225 94 238 93T271 90T308 88Q392 88 443 127T494 228Q494 275 461 307T363 339H295L315 432H385Q430 432 464 449T518 495T538 560Q538 609 505 636T421 663Q357 663 309 624T243 497L137 -2H23L130 502Q146 577 183 635T281 727T427 760Z" />
<glyph unicode="&#xe0;" glyph-name="agrave" horiz-adv-x="627" d="M333 608L246 789H353L419 609L333 608ZM323 540Q377 540 411 523T463 483T489 442H495L514 530H629L516 0H401L416 72H411Q411 72 402 60T373 31T322 3T248 -10Q180 -10 135 22T68 108T45 222Q45
278 63 334T117 437T204 512T323 540ZM336 445Q294 445 261 426T205 374T170 303T157 227Q157 189 170 157T210 105T279 85Q321 85 354 104T410 156T445 226T457 303Q457 341 445 373T405 425T336 445Z" />
<glyph unicode="&#xe1;" glyph-name="aacute" horiz-adv-x="627" d="M438 608L349 609L439 789H549L438 608ZM323 540Q377 540 411 523T463 483T489 442H495L514 530H629L516 0H401L416 72H411Q411 72 402 60T373 31T322 3T248 -10Q180 -10 135 22T68 108T45 222Q45
278 63 334T117 437T204 512T323 540ZM336 445Q294 445 261 426T205 374T170 303T157 227Q157 189 170 157T210 105T279 85Q321 85 354 104T410 156T445 226T457 303Q457 341 445 373T405 425T336 445Z" />
<glyph unicode="&#xe2;" glyph-name="acircumflex" horiz-adv-x="627" d="M214 603L374 774H468L556 603H465L414 709L317 603H214ZM323 540Q377 540 411 523T463 483T489 442H495L514 530H629L516 0H401L416 72H411Q411 72 402 60T373 31T322 3T248 -10Q180 -10
135 22T68 108T45 222Q45 278 63 334T117 437T204 512T323 540ZM336 445Q294 445 261 426T205 374T170 303T157 227Q157 189 170 157T210 105T279 85Q321 85 354 104T410 156T445 226T457 303Q457 341 445 373T405 425T336 445Z" />
<glyph unicode="&#xe3;" glyph-name="atilde" horiz-adv-x="627" d="M469 615Q443 615 425 625T393 649T367 673T340 684Q325 684 315 668T300 621H232Q243 680 267 719T341 758Q368 758 386 748T419 725T445 701T470 691Q486 691 495 707T510 753H578Q566 694
543 655T469 615ZM323 540Q377 540 411 523T463 483T489 442H495L514 530H629L516 0H401L416 72H411Q411 72 402 60T373 31T322 3T248 -10Q180 -10 135 22T68 108T45 222Q45 278 63 334T117 437T204 512T323 540ZM336 445Q294 445 261 426T205 374T170 303T157
227Q157 189 170 157T210 105T279 85Q321 85 354 104T410 156T445 226T457 303Q457 341 445 373T405 425T336 445Z" />
<glyph unicode="&#xe4;" glyph-name="adieresis" horiz-adv-x="627" d="M501 604Q470 604 451 624T431 673Q431 701 450 721T501 742Q530 742 550 722T571 673Q571 644 551 624T501 604ZM299 604Q268 604 249 624T229 673Q229 701 248 721T299 742Q328 742 348
722T369 673Q369 644 349 624T299 604ZM323 540Q377 540 411 523T463 483T489 442H495L514 530H629L516 0H401L416 72H411Q411 72 402 60T373 31T322 3T248 -10Q180 -10 135 22T68 108T45 222Q45 278 63 334T117 437T204 512T323 540ZM336 445Q294 445 261 426T205
374T170 303T157 227Q157 189 170 157T210 105T279 85Q321 85 354 104T410 156T445 226T457 303Q457 341 445 373T405 425T336 445Z" />
<glyph unicode="&#xe5;" glyph-name="aring" horiz-adv-x="627" d="M377 597Q341 597 312 614T264 662T246 728Q246 764 264 793T311 840T377 858Q413 858 443 841T490 794T508 728Q508 692 491 662T443 615T377 597ZM377 670Q401 670 418 687T436 728Q436 752
419 769T377 786Q353 786 336 769T318 728Q318 704 335 687T377 670ZM323 540Q377 540 411 523T463 483T489 442H495L514 530H629L516 0H401L416 72H411Q411 72 402 60T373 31T322 3T248 -10Q180 -10 135 22T68 108T45 222Q45 278 63 334T117 437T204 512T323 540ZM336
445Q294 445 261 426T205 374T170 303T157 227Q157 189 170 157T210 105T279 85Q321 85 354 104T410 156T445 226T457 303Q457 341 445 373T405 425T336 445Z" />
<glyph unicode="&#xe6;" glyph-name="ae" horiz-adv-x="944" d="M203 -10Q119 -10 73 31T27 137Q27 181 50 218T120 279T244 307L406 314L410 335Q416 365 410 391T380 433T315 449Q276 449 253 437T217 408T201 380T196 367H88Q88 367 93 384T112 427T152 479T218
522T318 540Q388 540 429 513T487 449H493Q523 485 572 512T690 540Q758 540 802 513T871 443T900 348T894 250L890 232H506Q506 169 536 126T634 82Q671 82 695 94T734 123T755 151T762 164H869Q869 164 862 147T839 103T795 51T725 8T625 -10Q567 -10 526 8T459
53T421 110H415Q415 110 404 92T369 50T304 8T203 -10ZM520 312H795Q800 346 790 377T753 428T683 448Q622 448 580 408T520 312ZM229 75Q286 75 329 113T385 212L390 234L253 227Q197 224 169 202T140 145Q140 108 167 92T229 75Z" />
<glyph unicode="&#xe7;" glyph-name="ccedilla" d="M203 -261Q171 -261 147 -256T122 -250L133 -186Q133 -186 145 -188T173 -192T204 -195Q244 -195 258 -180T273 -148Q273 -132 260 -120T222 -108Q201 -108 188 -115T175 -122L143 -82L210 -4Q152 7 114 41T58
123T39 227Q39 286 59 342T117 442T212 513T341 540Q405 540 445 521T508 472T538 414T548 365T550 345H442Q442 345 441 360T430 395T398 430T334 445Q277 445 237 415T175 336T153 233Q153 171 183 128T278 85Q318 85 344 100T386 135T407 170T413 185H522Q522
185 516 166T495 120T454 64T386 15T287 -9L248 -54H252Q303 -54 329 -82T356 -147Q356 -175 340 -201T291 -244T203 -261Z" />
<glyph unicode="&#xe8;" glyph-name="egrave" horiz-adv-x="589" d="M308 608L221 789H329L395 609L308 608ZM270 -10Q190 -10 140 23T64 111T39 226Q39 282 58 337T115 439T208 512T334 540Q403 540 448 513T516 443T545 348T540 250L536 232H151Q152 168 182
125T278 82Q316 82 341 94T380 123T401 151T407 164H515Q515 164 508 147T485 103T440 51T370 8T270 -10ZM165 312H441Q446 346 436 377T398 428T328 448Q267 448 225 408T165 312Z" />
<glyph unicode="&#xe9;" glyph-name="eacute" horiz-adv-x="589" d="M414 608L325 609L414 789H524L414 608ZM270 -10Q190 -10 140 23T64 111T39 226Q39 282 58 337T115 439T208 512T334 540Q403 540 448 513T516 443T545 348T540 250L536 232H151Q152 168 182
125T278 82Q316 82 341 94T380 123T401 151T407 164H515Q515 164 508 147T485 103T440 51T370 8T270 -10ZM165 312H441Q446 346 436 377T398 428T328 448Q267 448 225 408T165 312Z" />
<glyph unicode="&#xea;" glyph-name="ecircumflex" horiz-adv-x="589" d="M190 603L350 774H444L532 603H441L389 709L293 603H190ZM270 -10Q190 -10 140 23T64 111T39 226Q39 282 58 337T115 439T208 512T334 540Q403 540 448 513T516 443T545 348T540 250L536
232H151Q152 168 182 125T278 82Q316 82 341 94T380 123T401 151T407 164H515Q515 164 508 147T485 103T440 51T370 8T270 -10ZM165 312H441Q446 346 436 377T398 428T328 448Q267 448 225 408T165 312Z" />
<glyph unicode="&#xeb;" glyph-name="edieresis" horiz-adv-x="589" d="M476 604Q445 604 426 624T406 673Q406 702 425 722T476 742Q506 742 526 722T546 673Q546 644 526 624T476 604ZM274 604Q243 604 224 624T204 673Q204 702 223 722T274 742Q304 742 324
722T344 673Q344 644 324 624T274 604ZM270 -10Q190 -10 140 23T64 111T39 226Q39 282 58 337T115 439T208 512T334 540Q403 540 448 513T516 443T545 348T540 250L536 232H151Q152 168 182 125T278 82Q316 82 341 94T380 123T401 151T407 164H515Q515 164 508
147T485 103T440 51T370 8T270 -10ZM165 312H441Q446 346 436 377T398 428T328 448Q267 448 225 408T165 312Z" />
<glyph unicode="&#xec;" glyph-name="igrave" horiz-adv-x="269" d="M145 608L58 789H165L232 609L145 608ZM12 0L125 530H240L127 0H12Z" />
<glyph unicode="&#xed;" glyph-name="iacute" horiz-adv-x="269" d="M250 608L161 609L251 789H361L250 608ZM12 0L125 530H240L127 0H12Z" />
<glyph unicode="&#xee;" glyph-name="icircumflex" horiz-adv-x="269" d="M27 603L186 774H281L368 603H278L226 709L130 603H27ZM12 0L125 530H240L127 0H12Z" />
<glyph unicode="&#xef;" glyph-name="idieresis" horiz-adv-x="269" d="M313 604Q282 604 263 624T243 673Q243 702 262 722T313 742Q343 742 363 722T383 673Q383 644 363 624T313 604ZM111 604Q80 604 61 624T41 673Q41 702 60 722T111 742Q141 742 161 722T181
673Q181 644 161 624T111 604ZM12 0L125 530H240L127 0H12Z" />
<glyph unicode="&#xf0;" glyph-name="eth" horiz-adv-x="637" d="M286 -10Q205 -10 152 24T74 113T48 230Q48 284 66 337T121 434T208 504T326 531Q394 531 431 506T488 452Q468 518 426 569T337 656L200 585L180 660L265 705Q225 728 198 740T171 752L215 830Q215
830 236 823T290 799T364 756L508 831L529 756L432 706Q476 669 514 619T577 504T601 360Q601 288 580 222T518 103T419 20T286 -10ZM291 85Q333 85 366 104T421 154T455 222T467 297Q467 336 454 369T412 424T340 445Q298 445 265 426T210 376T175 307T163 232Q163
193 176 160T218 106T291 85Z" />
<glyph unicode="&#xf1;" glyph-name="ntilde" horiz-adv-x="594" d="M458 615Q432 615 414 625T381 649T355 673T329 684Q314 684 304 668T289 621H221Q232 680 255 719T330 758Q357 758 375 748T407 725T433 701T459 691Q475 691 484 707T498 753H567Q555 694
532 655T458 615ZM19 0L132 530H246L230 453H235Q235 453 244 466T272 497T321 527T392 540Q451 540 488 511T538 433T539 326L470 0H355L424 323Q434 373 415 408T344 444Q284 444 247 402T197 298L133 0H19Z" />
<glyph unicode="&#xf2;" glyph-name="ograve" horiz-adv-x="608" d="M308 608L221 789H329L395 609L308 608ZM265 -10Q188 -10 138 23T63 109T38 223Q38 279 58 335T116 437T209 512T336 540Q414 540 464 507T538 421T563 307Q563 251 544 195T486 93T392 18T265
-10ZM272 87Q314 87 347 106T403 157T438 227T450 303Q450 341 437 373T398 424T329 443Q287 443 254 424T198 373T163 303T151 227Q151 189 164 157T203 106T272 87Z" />
<glyph unicode="&#xf3;" glyph-name="oacute" horiz-adv-x="608" d="M414 608L325 609L414 789H524L414 608ZM265 -10Q188 -10 138 23T63 109T38 223Q38 279 58 335T116 437T209 512T336 540Q414 540 464 507T538 421T563 307Q563 251 544 195T486 93T392 18T265
-10ZM272 87Q314 87 347 106T403 157T438 227T450 303Q450 341 437 373T398 424T329 443Q287 443 254 424T198 373T163 303T151 227Q151 189 164 157T203 106T272 87Z" />
<glyph unicode="&#xf4;" glyph-name="ocircumflex" horiz-adv-x="608" d="M190 603L350 774H444L532 603H441L389 709L293 603H190ZM265 -10Q188 -10 138 23T63 109T38 223Q38 279 58 335T116 437T209 512T336 540Q414 540 464 507T538 421T563 307Q563 251 544
195T486 93T392 18T265 -10ZM272 87Q314 87 347 106T403 157T438 227T450 303Q450 341 437 373T398 424T329 443Q287 443 254 424T198 373T163 303T151 227Q151 189 164 157T203 106T272 87Z" />
<glyph unicode="&#xf5;" glyph-name="otilde" horiz-adv-x="608" d="M445 615Q418 615 400 625T368 649T342 673T316 684Q300 684 291 668T276 621H207Q219 680 242 719T317 758Q344 758 362 748T394 725T420 701T446 691Q462 691 471 707T485 753H553Q542 694
519 655T445 615ZM265 -10Q188 -10 138 23T63 109T38 223Q38 279 58 335T116 437T209 512T336 540Q414 540 464 507T538 421T563 307Q563 251 544 195T486 93T392 18T265 -10ZM272 87Q314 87 347 106T403 157T438 227T450 303Q450 341 437 373T398 424T329 443Q287
443 254 424T198 373T163 303T151 227Q151 189 164 157T203 106T272 87Z" />
<glyph unicode="&#xf6;" glyph-name="odieresis" horiz-adv-x="608" d="M476 604Q445 604 426 624T406 673Q406 702 425 722T476 742Q506 742 526 722T546 673Q546 644 526 624T476 604ZM274 604Q243 604 224 624T204 673Q204 702 223 722T274 742Q304 742 324
722T344 673Q344 644 324 624T274 604ZM265 -10Q188 -10 138 23T63 109T38 223Q38 279 58 335T116 437T209 512T336 540Q414 540 464 507T538 421T563 307Q563 251 544 195T486 93T392 18T265 -10ZM272 87Q314 87 347 106T403 157T438 227T450 303Q450 341 437
373T398 424T329 443Q287 443 254 424T198 373T163 303T151 227Q151 189 164 157T203 106T272 87Z" />
<glyph unicode="&#xf7;" glyph-name="divide" horiz-adv-x="657" d="M367 411Q336 411 316 432T295 483Q295 513 315 534T367 555Q398 555 418 534T439 483Q439 453 419 432T367 411ZM96 257L114 344H560L542 257H96ZM289 46Q257 46 237 67T217 118Q217 147 237
168T289 189Q320 189 340 168T361 118Q361 88 341 67T289 46Z" />
<glyph unicode="&#xf8;" glyph-name="oslash" horiz-adv-x="616" d="M94 -45L136 30Q90 62 68 113T46 223Q46 279 66 335T124 437T217 512T344 540Q383 540 417 531L442 574H525L483 499Q528 467 549 416T571 307Q571 251 552 195T494 93T400 18T273 -10Q235 -10
203 -1L178 -45H94ZM159 227Q159 198 166 172T190 126L366 440Q353 443 337 443Q295 443 262 424T206 373T171 303T159 227ZM280 87Q322 87 355 106T411 157T446 227T458 303Q458 332 451 357T429 402L253 89Q266 87 280 87Z" />
<glyph unicode="&#xf9;" glyph-name="ugrave" horiz-adv-x="586" d="M314 608L227 789H335L401 609L314 608ZM194 -10Q143 -10 108 14T59 82T58 187L131 530H246L173 188Q163 139 183 113T247 86Q290 86 320 108T370 164T397 237L459 530H574L462 0H347L363 76H357Q346
61 326 41T273 5T194 -10Z" />
<glyph unicode="&#xfa;" glyph-name="uacute" horiz-adv-x="586" d="M420 608L331 609L420 789H530L420 608ZM194 -10Q143 -10 108 14T59 82T58 187L131 530H246L173 188Q163 139 183 113T247 86Q290 86 320 108T370 164T397 237L459 530H574L462 0H347L363 76H357Q346
61 326 41T273 5T194 -10Z" />
<glyph unicode="&#xfb;" glyph-name="ucircumflex" horiz-adv-x="586" d="M196 603L356 774H450L538 603H447L395 709L299 603H196ZM194 -10Q143 -10 108 14T59 82T58 187L131 530H246L173 188Q163 139 183 113T247 86Q290 86 320 108T370 164T397 237L459 530H574L462
0H347L363 76H357Q346 61 326 41T273 5T194 -10Z" />
<glyph unicode="&#xfc;" glyph-name="udieresis" horiz-adv-x="586" d="M482 604Q451 604 432 624T412 673Q412 702 431 722T482 742Q512 742 532 722T552 673Q552 644 532 624T482 604ZM280 604Q249 604 230 624T210 673Q210 702 229 722T280 742Q310 742 330
722T350 673Q350 644 330 624T280 604ZM194 -10Q143 -10 108 14T59 82T58 187L131 530H246L173 188Q163 139 183 113T247 86Q290 86 320 108T370 164T397 237L459 530H574L462 0H347L363 76H357Q346 61 326 41T273 5T194 -10Z" />
<glyph unicode="&#xfd;" glyph-name="yacute" horiz-adv-x="575" d="M396 608L307 609L397 789H507L396 608ZM-2 -195Q-25 -195 -40 -193T-55 -191L-35 -93Q-35 -93 -22 -94T8 -96Q101 -96 167 -2L79 530H192L252 133L477 530H605L294 6Q232 -97 159 -146T-2 -195Z" />
<glyph unicode="&#xfe;" glyph-name="thorn" horiz-adv-x="653" d="M-17 -195L24 0V0L35 52L137 530H138L187 760H302L237 458H243Q243 458 252 470T280 499T331 527T406 540Q474 540 519 508T586 422T609 308Q609 252 591 196T537 93T449 18T330 -10Q276 -10
242 7T190 47T164 88H158L97 -195H-17ZM196 227Q196 189 209 157T248 105T317 85Q359 85 392 104T448 156T484 227T496 303Q496 341 483 373T444 425T374 445Q333 445 300 426T244 374T208 304T196 227Z" />
<glyph unicode="&#xff;" glyph-name="ydieresis" horiz-adv-x="575" d="M459 604Q428 604 409 624T389 673Q389 702 408 722T459 742Q489 742 509 722T529 673Q529 644 509 624T459 604ZM257 604Q226 604 207 624T187 673Q187 702 206 722T257 742Q287 742 307
722T327 673Q327 644 307 624T257 604ZM-2 -195Q-25 -195 -40 -193T-55 -191L-35 -93Q-35 -93 -22 -94T8 -96Q101 -96 167 -2L79 530H192L252 133L477 530H605L294 6Q232 -97 159 -146T-2 -195Z" />
<glyph unicode="&#x2013;" glyph-name="endash" horiz-adv-x="681" d="M111 266L119 359H574L566 266H111Z" />
<glyph unicode="&#x2014;" glyph-name="emdash" horiz-adv-x="862" d="M111 266L122 359H755L745 266H111Z" />
<glyph unicode="&#x2018;" glyph-name="quoteleft" horiz-adv-x="231" d="M248 740L173 617Q200 615 218 595T237 546Q237 515 216 496T165 476Q134 476 112 495T90 549Q90 580 113 619T187 730L194 740H248Z" />
<glyph unicode="&#x2019;" glyph-name="quoteright" horiz-adv-x="207" d="M96 486L172 609Q144 611 126 631T108 680Q108 711 129 730T180 750Q211 750 232 731T254 677Q254 647 232 608T158 496L150 486H96Z" />
<glyph unicode="&#x201a;" glyph-name="quotesinglbase" horiz-adv-x="297" d="M7 -130L83 -7Q55 -5 37 14T19 63Q19 95 40 114T91 134Q122 134 143 115T165 61Q165 30 143 -9T69 -120L61 -130H7Z" />
<glyph unicode="&#x201c;" glyph-name="quotedblleft" horiz-adv-x="422" d="M248 740L173 617Q200 615 218 595T237 546Q237 515 216 496T165 476Q134 476 112 495T90 549Q90 580 113 619T187 730L194 740H248ZM439 740L364 617Q392 615 410 595T428 546Q428
515 407 496T356 476Q325 476 304 495T282 549Q282 580 304 619T378 730L385 740H439Z" />
<glyph unicode="&#x201d;" glyph-name="quotedblright" horiz-adv-x="398" d="M288 486L363 609Q335 611 317 631T299 680Q299 711 320 730T371 750Q402 750 423 731T445 677Q445 647 423 608T349 496L342 486H288ZM96 486L172 609Q144 611 126 631T108 680Q108
711 129 730T180 750Q211 750 232 731T254 677Q254 647 232 608T158 496L150 486H96Z" />
<glyph unicode="&#x201e;" glyph-name="quotedblbase" horiz-adv-x="458" d="M199 -130L275 -7Q247 -5 229 14T211 63Q211 95 232 114T283 134Q314 134 335 115T357 61Q357 30 335 -9T261 -120L253 -130H199ZM8 -130L84 -7Q56 -5 38 14T19 63Q19 95 40 114T92
134Q123 134 144 115T166 61Q166 30 144 -9T69 -120L62 -130H8Z" />
<glyph unicode="&#x2022;" glyph-name="bullet" horiz-adv-x="542" d="M290 227Q242 227 206 249T148 309T127 390Q127 434 148 471T205 529T290 551Q336 551 372 530T430 471T451 390Q451 345 430 308T373 249T290 227Z" />
<glyph unicode="&#x2039;" glyph-name="guilsinglleft" horiz-adv-x="417" d="M431 528L167 304L320 99H207L44 314L298 528H431Z" />
<glyph unicode="&#x203a;" glyph-name="guilsinglright" horiz-adv-x="417" d="M9 99L273 323L120 528H233L396 313L141 99H9Z" />
</font>
</defs>
</svg>
